<?xml version="1.0" standalone="no"?>
<!DOCTYPE svg PUBLIC "-//W3C//DTD SVG 20010904//EN"
 "http://www.w3.org/TR/2001/REC-SVG-20010904/DTD/svg10.dtd">
<svg version="1.0" xmlns="http://www.w3.org/2000/svg"
 width="1088.000000pt" height="1088.000000pt" viewBox="0 0 1088.000000 1088.000000"
 preserveAspectRatio="xMidYMid meet">
<metadata>
Created by potrace 1.11, written by Peter Selinger 2001-2013
</metadata>
<g transform="translate(0.000000,1088.000000) scale(0.100000,-0.100000)"
fill="#000000" stroke="none">
<path d="M640 8363 l0 -2518 1623 0 1622 0 3 1945 c2 1477 0 1950 -9 1967 -7
13 -20 25 -31 29 -10 3 -18 9 -18 13 0 9 -526 536 -550 551 -8 5 -12 10 -9 10
9 0 -418 424 -431 428 -5 2 -10 8 -10 13 0 6 -17 26 -37 44 l-38 35 -1057 0
-1058 0 0 -2517z"/>
<path d="M6992 5440 l0 -5440 1624 0 1624 0 0 4873 0 4874 -567 566 -567 567
-1057 0 -1058 0 1 -5440z"/>
</g>
</svg>
