<?xml version="1.0" encoding="UTF-8" standalone="no"?>
<svg xmlns="http://www.w3.org/2000/svg" version="1.0" width="2295.000000pt" height="447.000000pt" viewBox="0 0 2295.000000 447.000000" preserveAspectRatio="xMidYMid meet">
  <g transform="translate(0.000000,447.000000) scale(0.100000,-0.100000)" fill="#000000" stroke="none">
    <path d="M4719 4326 c-2 -3 -47 -14 -99 -25 -109 -23 -208 -56 -231 -77 -8 -8 -21 -14 -28 -14 -7 0 -25 -9 -39 -20 -15 -12 -53 -41 -85 -65 -97 -72 -175 -180 -247 -340 -65 -145 -80 -409 -35 -590 27 -105 39 -139 82 -220 89 -168 256 -310 450 -382 77 -28 278 -62 368 -62 89 0 291 34 367 62 165 61 309 167 403 298 45 64 106 201 131 295 20 80 24 117 24 244 0 127 -4 164 -25 245 -40 157 -119 299 -221 399 -57 56 -166 136 -186 136 -6 0 -19 6 -27 14 -27 25 -115 54 -258 86 -65 14 -127 20 -216 20 -68 0 -126 -2 -128 -4z m286 -355 c132 -29 263 -133 328 -261 81 -157 86 -392 11 -539 -84 -168 -227 -272 -401 -292 -96 -11 -255 4 -290 26 -12 8 -28 15 -34 15 -21 0 -112 66 -154 112 -86 92 -125 176 -145 312 -22 144 13 305 90 420 41 60 123 134 175 157 24 11 47 24 50 29 3 5 27 12 53 16 26 4 56 11 67 15 26 11 185 4 250 -10z"></path>
    <path d="M8290 4316 c-20 -8 -55 -17 -79 -21 -38 -6 -124 -43 -190 -80 -28 -16 -151 -136 -151 -148 0 -4 -7 -19 -17 -33 -65 -99 -84 -299 -40 -417 28 -77 135 -189 218 -228 29 -14 71 -34 91 -44 20 -10 54 -21 75 -25 59 -13 194 -61 273 -99 19 -9 54 -33 78 -55 41 -38 42 -40 42 -103 0 -54 -4 -70 -27 -99 -53 -70 -171 -103 -302 -84 -80 11 -136 37 -203 92 -26 21 -55 38 -66 38 -10 0 -32 -15 -47 -32 -16 -18 -66 -74 -112 -124 -46 -50 -83 -100 -83 -110 1 -26 166 -144 202 -144 7 0 30 -9 52 -19 45 -21 225 -51 305 -51 59 0 271 34 298 48 10 6 49 25 87 44 88 43 181 139 226 234 59 123 61 348 5 446 -73 130 -189 208 -390 263 -121 33 -240 80 -289 113 -40 28 -75 88 -76 130 0 36 35 96 73 125 99 75 295 71 408 -9 27 -19 54 -34 59 -34 12 0 23 11 109 106 30 32 74 80 99 105 l43 46 -23 26 c-26 29 -189 117 -217 117 -9 0 -51 9 -92 20 -88 23 -282 27 -339 6z"></path>
    <path d="M2166 4274 c-3 -9 -6 -388 -6 -843 0 -648 3 -831 13 -844 11 -16 31 -17 182 -15 l170 3 5 360 c3 198 9 366 13 373 6 9 91 12 367 12 348 0 360 -1 370 -20 7 -13 10 -138 10 -365 -1 -189 1 -349 5 -355 8 -13 342 -14 350 -1 7 13 8 1689 0 1701 -9 15 -342 13 -351 -1 -4 -6 -6 -143 -5 -303 1 -160 -1 -299 -4 -309 -7 -16 -35 -17 -370 -17 -300 0 -365 2 -374 14 -9 10 -12 97 -10 311 1 241 -1 299 -12 306 -8 5 -89 9 -180 9 -143 0 -168 -2 -173 -16z"></path>
    <path d="M6065 4280 c-3 -6 -6 -277 -6 -603 1 -574 2 -594 22 -662 32 -104 66 -172 124 -245 55 -69 163 -150 233 -174 22 -8 48 -19 58 -25 25 -13 217 -41 285 -41 120 0 300 40 369 81 8 5 30 16 49 25 19 9 68 50 110 93 99 100 145 190 177 351 23 112 23 131 24 651 0 403 -3 538 -12 547 -18 18 -342 17 -357 -2 -8 -10 -11 -160 -11 -552 0 -503 -1 -543 -19 -601 -33 -107 -103 -185 -211 -233 -14 -7 -69 -12 -122 -12 -87 0 -103 3 -154 28 -70 36 -137 109 -172 190 l-26 59 -3 555 c-2 305 -5 561 -8 568 -6 15 -340 18 -350 2z"></path>
    <path d="M9282 4271 c-4 -11 -5 -397 -2 -858 l5 -838 590 -3 c546 -2 591 -1 603 15 15 21 17 285 2 314 -10 18 -26 19 -415 19 -288 0 -406 3 -411 11 -11 18 -6 321 5 332 6 6 140 9 364 8 298 -2 355 0 366 12 8 10 11 60 9 168 l-3 154 -365 3 c-200 1 -368 6 -372 10 -4 4 -8 76 -9 161 -1 121 1 155 12 162 8 5 184 9 391 9 251 0 379 3 383 10 9 15 10 304 1 318 -5 9 -150 12 -577 12 -555 0 -570 -1 -577 -19z"></path>
    <path d="M10812 4278 c-16 -16 -17 -1659 -2 -1689 10 -18 25 -19 373 -19 302 0 383 4 487 19 69 11 139 26 155 35 17 9 35 16 41 16 49 0 190 121 237 202 59 101 58 304 -2 410 -55 97 -162 180 -250 194 -23 4 -44 11 -47 16 -9 14 17 40 56 56 52 21 117 78 156 136 68 103 68 314 -1 421 -66 104 -170 163 -345 194 -103 19 -154 21 -480 21 -271 0 -369 -3 -378 -12z m801 -340 c66 -46 80 -71 80 -144 0 -77 -25 -121 -90 -159 -42 -25 -45 -25 -235 -23 l-193 3 -3 155 c-1 85 0 166 3 178 l6 24 197 -4 c195 -3 197 -4 235 -30z m51 -682 c92 -42 126 -108 107 -209 -10 -57 -42 -97 -106 -133 -49 -28 -52 -28 -251 -32 -138 -3 -208 0 -223 7 -20 11 -21 18 -21 195 0 100 3 186 7 189 3 4 103 7 220 7 205 0 217 -1 267 -24z"></path>
    <path d="M12393 4283 c-10 -4 -13 -121 -13 -541 0 -295 5 -564 10 -597 23 -148 31 -180 72 -261 92 -186 263 -304 494 -339 56 -8 125 -15 153 -15 81 0 262 31 303 51 21 11 42 19 48 19 17 0 143 86 183 125 32 31 78 96 115 163 7 13 25 56 39 95 l27 72 3 606 c4 519 2 607 -10 618 -10 8 -63 11 -183 9 l-169 -3 -5 -575 -5 -575 -27 -55 c-37 -78 -86 -130 -159 -169 -60 -32 -69 -34 -160 -34 -86 0 -103 3 -151 28 -102 52 -160 126 -190 240 -16 64 -18 118 -18 599 1 420 -2 531 -12 538 -14 8 -324 10 -345 1z"></path>
    <path d="M14197 4283 c-4 -3 -7 -385 -7 -848 0 -641 3 -844 12 -853 8 -8 61 -12 173 -12 112 0 165 4 173 12 9 9 12 212 12 854 0 758 -2 842 -16 848 -21 8 -339 8 -347 -1z"></path>
    <path d="M14942 4278 c-16 -16 -17 -1659 -2 -1689 10 -18 27 -19 530 -19 341 0 521 3 525 10 4 6 7 81 7 167 0 120 -3 158 -14 164 -7 5 -160 9 -340 9 -205 0 -329 4 -333 10 -3 5 -6 307 -5 671 0 484 -3 665 -11 675 -15 19 -339 20 -357 2z"></path>
    <path d="M16242 4278 c-17 -17 -17 -1679 0 -1696 9 -9 96 -12 333 -12 335 1 525 17 620 54 22 8 47 15 55 16 31 0 198 94 266 148 67 54 134 127 179 197 33 51 75 139 75 158 0 10 8 32 17 50 26 47 26 423 0 481 -9 21 -17 46 -17 55 -1 21 -49 126 -82 177 -67 104 -205 223 -313 269 -79 34 -200 75 -222 75 -12 0 -67 9 -123 20 -89 18 -142 20 -439 20 -249 0 -340 -3 -349 -12z m763 -347 c98 -18 218 -78 284 -143 96 -93 141 -206 141 -352 0 -271 -158 -459 -428 -507 -29 -5 -131 -8 -225 -7 l-172 3 -3 499 c-2 377 1 502 10 513 10 12 40 14 172 10 89 -3 188 -10 221 -16z"></path>
    <path d="M18113 4283 c-18 -7 -19 -1683 -1 -1701 14 -14 1173 -18 1182 -4 8 13 9 322 1 330 -4 4 -190 9 -413 12 l-407 5 -3 164 c-1 96 1 168 7 174 6 6 145 9 359 8 312 -2 351 0 366 14 13 14 16 40 16 159 0 97 -4 146 -12 154 -9 9 -103 12 -363 12 -260 0 -354 3 -363 12 -17 17 -17 299 0 316 9 9 108 12 383 12 275 0 374 3 383 12 8 8 12 59 12 164 0 129 -2 153 -16 158 -19 7 -1113 7 -1131 -1z"></path>
    <path d="M19617 4275 c-11 -28 -8 -1665 3 -1685 10 -19 22 -20 180 -20 160 0 170 1 180 20 8 14 11 122 9 330 -1 236 1 313 11 325 16 19 158 21 183 3 9 -7 38 -56 65 -108 27 -52 68 -131 92 -175 24 -44 62 -117 85 -162 23 -45 46 -88 52 -95 6 -7 14 -23 18 -36 3 -12 18 -40 33 -62 l26 -40 208 0 c197 0 208 1 208 19 0 17 -29 72 -72 139 -10 15 -28 44 -40 66 -13 21 -28 46 -33 55 -14 22 -187 308 -200 329 -5 10 -20 34 -33 54 -31 49 -23 75 26 84 51 9 137 59 183 106 54 56 88 121 110 211 24 98 24 179 0 283 -43 190 -172 300 -411 350 -109 23 -131 24 -496 24 -327 0 -383 -2 -387 -15z m785 -315 c20 -6 58 -30 85 -54 l48 -44 0 -90 c0 -89 -1 -91 -33 -125 -62 -64 -118 -77 -322 -77 -123 0 -181 4 -186 11 -9 15 -9 363 0 378 9 14 357 15 408 1z"></path>
    <path d="M2545 1744 c-22 -8 -54 -20 -72 -25 -43 -13 -132 -103 -165 -168 -25 -48 -28 -63 -28 -156 0 -130 20 -180 128 -314 23 -30 41 -59 39 -64 -3 -11 -31 -30 -102 -68 -52 -28 -164 -142 -197 -201 -36 -65 -52 -181 -37 -282 21 -153 110 -260 279 -335 50 -22 69 -24 205 -25 124 -1 154 2 175 15 14 10 36 20 48 24 52 15 150 95 224 182 19 23 33 30 45 26 9 -4 62 -53 117 -110 l101 -103 93 0 c81 0 92 2 92 18 0 9 -70 87 -155 172 -88 88 -155 163 -155 173 0 10 15 42 34 70 18 29 60 97 92 152 32 55 63 107 69 116 5 9 18 32 29 50 10 19 25 42 33 51 30 33 9 48 -66 48 -67 0 -71 -1 -94 -32 -13 -18 -55 -87 -92 -153 -88 -155 -104 -177 -124 -173 -9 2 -92 81 -184 175 -132 136 -166 176 -159 188 5 9 34 31 65 49 116 65 196 147 246 250 20 43 23 60 19 130 -6 99 -37 167 -109 236 -90 86 -281 127 -394 84z m217 -143 c49 -21 102 -73 117 -114 14 -36 14 -128 0 -164 -17 -45 -75 -108 -131 -143 -29 -18 -65 -41 -80 -52 -15 -10 -41 -21 -57 -24 -26 -5 -33 0 -71 47 -24 30 -53 70 -65 89 -25 40 -57 142 -51 162 3 7 10 32 16 56 32 123 198 197 322 143z m-11 -883 c101 -106 192 -199 202 -206 27 -21 20 -57 -20 -102 -47 -53 -161 -140 -182 -140 -9 0 -28 -8 -41 -17 -35 -25 -182 -25 -225 0 -16 9 -35 17 -41 17 -23 0 -102 70 -132 117 -17 26 -36 75 -43 108 -10 51 -9 70 5 129 10 38 31 87 47 110 46 62 193 175 230 176 9 0 99 -87 200 -192z"></path>
    <path d="M11810 1740 c-30 -10 -64 -19 -74 -19 -19 -1 -74 -24 -161 -69 -74 -37 -178 -124 -227 -189 -59 -78 -94 -133 -103 -163 -4 -14 -12 -31 -18 -38 -18 -22 -48 -145 -58 -239 -17 -151 10 -328 68 -453 101 -218 274 -366 513 -441 67 -22 93 -24 245 -23 156 0 176 3 245 26 154 53 253 113 344 207 61 62 90 102 128 176 74 144 98 233 105 385 4 87 2 120 -16 188 -11 45 -21 89 -21 98 0 32 -83 189 -137 261 -53 70 -157 164 -218 196 -82 44 -156 74 -230 93 -104 27 -312 30 -385 4z m325 -136 c39 -9 88 -24 111 -35 23 -10 44 -19 47 -19 19 0 138 -93 181 -143 49 -55 136 -203 136 -231 0 -7 9 -42 20 -76 29 -92 28 -247 -4 -360 -38 -137 -96 -241 -180 -323 -67 -66 -180 -130 -291 -164 -80 -24 -272 -24 -329 0 -21 9 -46 17 -55 17 -17 1 -88 34 -136 65 -132 84 -226 215 -281 390 -27 86 -27 326 0 405 63 185 138 290 273 384 29 20 56 36 59 36 4 0 25 9 48 19 103 49 275 64 401 35z"></path>
    <path d="M4422 1712 c-10 -7 -13 -164 -13 -782 0 -459 4 -777 10 -783 5 -5 148 -7 347 -5 280 3 345 6 374 19 19 9 52 19 72 23 48 9 200 88 258 133 112 89 183 187 248 343 26 63 27 70 27 265 0 217 -3 235 -72 370 -54 106 -184 241 -284 296 -16 9 -34 21 -41 26 -23 17 -151 60 -243 82 -82 20 -117 21 -380 21 -159 0 -296 -4 -303 -8z m611 -147 c32 -8 69 -15 83 -15 14 0 38 -6 52 -14 15 -8 52 -26 82 -41 94 -47 214 -158 257 -238 70 -131 94 -266 75 -424 -19 -159 -79 -274 -200 -383 -65 -59 -211 -140 -251 -140 -10 0 -38 -7 -62 -16 -34 -13 -96 -18 -265 -21 -198 -5 -222 -4 -237 11 -16 16 -17 68 -17 637 0 409 4 627 10 640 10 18 23 19 213 19 148 0 218 -4 260 -15z"></path>
    <path d="M6112 1712 c-10 -7 -12 -168 -12 -781 0 -425 2 -777 5 -782 4 -5 203 -9 495 -9 465 0 490 1 499 18 10 20 12 51 5 89 l-4 23 -415 0 -414 0 -15 22 c-14 19 -16 64 -16 289 0 239 2 269 18 288 17 21 24 21 387 24 l370 2 7 54 c3 30 4 60 1 68 -4 10 -75 13 -378 13 -326 0 -376 2 -389 16 -14 13 -16 50 -16 249 0 156 4 243 12 260 l11 25 392 0 c291 0 394 3 403 12 7 7 12 33 12 58 0 25 -5 51 -12 58 -14 14 -924 17 -946 4z"></path>
    <path d="M7232 1708 c-16 -16 -15 -23 7 -72 10 -23 31 -75 46 -116 15 -41 33 -88 40 -105 13 -29 61 -156 120 -315 15 -41 36 -93 46 -116 11 -22 19 -47 19 -55 0 -8 6 -23 14 -34 7 -11 17 -36 21 -55 4 -19 16 -51 26 -70 11 -19 19 -39 19 -45 0 -11 35 -103 61 -161 11 -23 19 -45 19 -49 0 -5 18 -54 40 -109 21 -56 51 -132 65 -171 15 -38 34 -76 43 -82 9 -7 41 -13 72 -13 60 0 100 19 100 48 0 9 7 31 16 47 9 17 22 48 29 70 26 76 46 130 66 171 10 22 19 47 19 55 0 8 7 23 15 33 8 11 15 26 15 34 0 8 9 33 19 56 10 23 40 97 66 166 27 69 56 143 66 166 11 22 19 47 19 55 0 8 7 24 15 35 8 10 15 26 15 34 0 8 11 38 25 65 13 28 25 54 25 60 0 11 35 101 62 161 10 22 18 46 18 52 0 7 9 29 20 49 11 21 20 44 20 51 0 8 6 26 14 40 7 15 21 45 31 67 16 37 16 40 -2 53 -12 9 -37 12 -77 10 -65 -5 -79 -17 -96 -79 -6 -21 -17 -50 -25 -66 -8 -15 -15 -34 -15 -41 0 -8 -7 -26 -15 -40 -8 -15 -21 -45 -29 -67 -8 -22 -24 -65 -36 -95 -12 -30 -28 -73 -36 -95 -8 -22 -19 -49 -24 -60 -5 -11 -16 -39 -25 -62 -8 -24 -22 -62 -30 -85 -9 -24 -22 -56 -29 -73 -8 -16 -24 -57 -36 -90 -12 -33 -30 -79 -41 -103 -10 -23 -19 -48 -19 -55 0 -7 -9 -29 -20 -50 -11 -20 -20 -43 -20 -49 -1 -7 -9 -31 -20 -53 -11 -22 -19 -46 -20 -53 0 -21 -50 -112 -61 -112 -11 0 -48 81 -56 125 -3 17 -10 35 -14 41 -5 6 -18 35 -28 65 -37 103 -52 144 -66 176 -8 17 -15 40 -15 50 0 10 -4 23 -10 29 -5 5 -18 34 -29 64 -36 104 -52 145 -66 177 -8 17 -15 37 -15 45 0 7 -8 31 -19 53 -10 22 -24 56 -31 75 -29 84 -41 116 -50 135 -5 11 -16 38 -24 60 -86 241 -78 229 -156 233 -42 2 -70 -2 -78 -10z"></path>
    <path d="M8812 1708 c-17 -17 -18 -1538 0 -1556 17 -17 969 -17 986 0 7 7 12 30 12 53 0 23 -5 46 -12 53 -9 9 -115 12 -414 12 -328 0 -404 3 -413 14 -8 9 -11 99 -9 307 l3 294 373 3 373 2 9 26 c14 36 12 90 -3 103 -10 7 -131 12 -383 13 l-369 3 0 270 0 270 397 5 c245 3 401 9 406 15 14 15 23 88 12 105 -8 13 -75 15 -482 18 -364 2 -476 0 -486 -10z"></path>
    <path d="M10162 1712 c-10 -7 -13 -164 -13 -782 0 -618 3 -775 13 -782 17 -10 849 -10 866 1 9 5 12 25 10 62 l-3 54 -360 5 c-198 3 -366 9 -372 13 -10 6 -13 160 -13 711 0 533 -3 705 -12 714 -14 14 -96 16 -116 4z"></path>
    <path d="M13163 1713 c-10 -4 -13 -170 -13 -783 0 -700 2 -778 16 -784 15 -6 122 -9 126 -3 1 1 5 164 8 362 l5 360 205 6 c161 4 222 10 285 26 207 53 300 147 326 333 21 150 -20 280 -116 369 -25 23 -51 41 -59 41 -7 0 -19 6 -25 14 -7 8 -27 18 -44 21 -18 4 -61 15 -96 26 -56 17 -95 19 -335 18 -149 0 -277 -3 -283 -6z m562 -151 c132 -32 197 -90 230 -203 12 -45 14 -66 5 -104 -31 -137 -106 -201 -270 -229 -110 -19 -360 -22 -378 -4 -9 9 -12 82 -12 269 0 142 3 264 6 273 9 24 320 22 419 -2z"></path>
    <path d="M14468 1709 c-17 -9 -18 -57 -18 -777 0 -584 3 -771 12 -780 17 -17 959 -17 976 0 10 10 18 103 10 110 -2 1 -191 5 -421 8 -356 4 -419 7 -427 20 -6 8 -10 135 -10 292 0 238 2 279 16 292 13 14 61 16 374 16 408 0 390 -4 390 80 0 34 -4 50 -16 54 -9 3 -175 6 -370 6 -226 0 -362 4 -375 10 -18 10 -19 24 -19 256 0 150 4 253 10 265 10 18 25 19 408 19 296 0 401 3 410 12 7 7 12 33 12 58 0 25 -5 51 -12 58 -16 16 -924 17 -950 1z"></path>
    <path d="M15802 1712 c-10 -7 -13 -162 -13 -781 1 -425 3 -776 6 -782 8 -11 105 -12 123 0 11 6 13 77 12 351 0 245 3 346 11 356 9 11 42 14 138 14 69 0 131 -4 137 -8 7 -4 23 -27 36 -52 24 -44 40 -72 84 -140 12 -19 33 -55 47 -80 39 -68 106 -183 117 -200 6 -8 41 -67 78 -130 l68 -115 79 -3 c43 -2 82 1 87 6 11 11 -7 47 -77 157 -25 39 -49 80 -54 92 -6 12 -25 44 -44 70 -18 26 -36 53 -38 58 -5 14 -157 263 -181 298 -11 15 -18 38 -16 50 2 18 12 24 53 30 156 26 275 132 316 279 25 88 24 153 -3 249 -18 67 -29 88 -75 138 -29 33 -64 63 -76 67 -12 3 -29 12 -37 20 -8 7 -33 17 -55 22 -22 6 -67 17 -100 26 -48 13 -113 16 -335 16 -151 0 -281 -4 -288 -8z m588 -150 c124 -34 172 -72 215 -172 26 -59 25 -140 -3 -201 -22 -46 -91 -119 -114 -119 -6 0 -19 -6 -27 -14 -27 -24 -199 -46 -354 -46 -139 0 -147 1 -161 22 -13 19 -16 62 -16 266 0 149 4 251 10 263 10 18 23 19 198 19 147 0 201 -4 252 -18z"></path>
  </g>
</svg>
