<svg xmlns="http://www.w3.org/2000/svg" width="47.251" height="19.298" viewBox="0 0 47.251 19.298">
  <g id="Group_260" data-name="Group 260" transform="translate(-820 -30)">
    <path id="Path_37" data-name="Path 37" d="M1906.835,3084h1.97a.649.649,0,0,1,.049.045c.014.016.034.034.034.05q.011,9.067.017,18.133a2.379,2.379,0,0,1-.031.266h-2.015c-.05-.934-.017-1.857-.023-2.779s0-1.817,0-2.726v-2.772c-.5-.116-7.6-.158-8.832-.056,0,.684-.008,1.375-.009,2.067s0,1.395,0,2.093v4.185c-.688.042-1.351.008-2.042.021v-18.513h2.027c.039,2.678,0,5.351.023,8.015.623.113,8.27.1,8.789-.011a15.621,15.621,0,0,0,.042-2c.013-.655,0-1.31,0-1.965V3084Z" transform="translate(-1075.951 -3053.488)" fill="#ddd6cd"/>
    <path id="Path_38" data-name="Path 38" d="M1926.943,3103.717h-1.467l-.367-.892c-.178.1-.34.179-.492.273a5.923,5.923,0,0,1-3.046.907,7.379,7.379,0,0,1-3.051-.382,3.3,3.3,0,0,1-2.149-2.662,4.805,4.805,0,0,1,.183-2.357,2.948,2.948,0,0,1,1.8-1.835,5.624,5.624,0,0,1,2.03-.416c1.477-.024,2.953-.083,4.438-.129a4.672,4.672,0,0,0-.18-2.553,1.832,1.832,0,0,0-1.095-.986,4.326,4.326,0,0,0-1.423-.252,7.348,7.348,0,0,0-2.628.266c-.549.2-1.087.438-1.7.686l-.779-1.385c.059-.261.255-.353.439-.449a8.723,8.723,0,0,1,2.61-.9,11.427,11.427,0,0,1,2.714-.086,5.165,5.165,0,0,1,2.505.765,3.432,3.432,0,0,1,1.525,2.373,9.266,9.266,0,0,1,.127,1.631c.012,2.577.006,5.154.006,7.73Zm-2.032-5.561c-1.551,0-3.008-.014-4.465.011a2.72,2.72,0,0,0-.97.235,1.892,1.892,0,0,0-.537,3.124,2.288,2.288,0,0,0,1.181.552,6.573,6.573,0,0,0,2.507,0,4.724,4.724,0,0,0,2.022-.83.623.623,0,0,0,.251-.4C1924.922,3099.969,1924.911,3099.086,1924.911,3098.156Z" transform="translate(-1079.778 -3054.715)" fill="#ddd6cd"/>
    <path id="Path_39" data-name="Path 39" d="M1951.642,3097.909h-8.727a4.4,4.4,0,0,0,.55,3.152,2.725,2.725,0,0,0,1.779,1.006,6.838,6.838,0,0,0,5.128-1.051,1.04,1.04,0,0,1,.171-.079.594.594,0,0,1,.145.01l.832,1.481a4.835,4.835,0,0,1-.533.417,8.046,8.046,0,0,1-4.02,1.159,8.585,8.585,0,0,1-3.12-.373,4.116,4.116,0,0,1-2.9-3.564,14.994,14.994,0,0,1-.109-1.634c-.016-1.015-.023-2.03.005-3.043a6.827,6.827,0,0,1,.191-1.431,4.1,4.1,0,0,1,3.292-3.2,7.751,7.751,0,0,1,4.418.163,4.114,4.114,0,0,1,2.773,3.455A28.975,28.975,0,0,1,1951.642,3097.909Zm-1.952-1.8a11.791,11.791,0,0,0-.125-1.457,2.481,2.481,0,0,0-1.932-2.092,6.553,6.553,0,0,0-2.454-.069,2.386,2.386,0,0,0-1.786,1.076,3.8,3.8,0,0,0-.484,2.541Z" transform="translate(-1084.391 -3054.713)" fill="#ddd6cd"/>
    <path id="Path_40" data-name="Path 40" d="M1934.146,3083.369h1.8c.1.493.118,18.317.016,19.007h-1.806C1934.054,3101.87,1934.042,3084.027,1934.146,3083.369Z" transform="translate(-1083.12 -3053.369)" fill="#ddd6cd"/>
  </g>
</svg>
