<svg xmlns="http://www.w3.org/2000/svg" width="223.321" height="18.865" viewBox="0 0 223.321 18.865">
  <g id="Group_264" data-name="Group 264" transform="translate(-57 -345)">
    <rect id="Rectangle_117" data-name="Rectangle 117" width="28.469" height="0.318" transform="translate(120.298 353.978)" fill="#efeae5" stroke="#efeae5" stroke-width="0.3" opacity="0.816"/>
    <g id="Group_262" data-name="Group 262" transform="translate(57 345)">
      <path id="Path_37" data-name="Path 37" d="M1906.59,3084h1.925a.578.578,0,0,1,.048.044c.014.015.033.033.033.048q.011,8.864.017,17.726a2.32,2.32,0,0,1-.03.26h-1.969c-.049-.913-.017-1.816-.022-2.717s0-1.777,0-2.665v-2.71c-.491-.114-7.43-.155-8.634-.055,0,.668-.008,1.345-.009,2.021s0,1.364,0,2.046v4.091c-.672.041-1.321.008-2,.021v-18.1h1.981c.038,2.618,0,5.231.023,7.835.609.111,8.084.1,8.592-.01a15.255,15.255,0,0,0,.041-1.955c.013-.64,0-1.281,0-1.921V3084Z" transform="translate(-1895.951 -3083.499)" fill="#efeae5"/>
      <path id="Path_38" data-name="Path 38" d="M1926.7,3103.421h-1.434l-.358-.872c-.174.1-.332.175-.481.267a5.785,5.785,0,0,1-2.978.887,7.209,7.209,0,0,1-2.982-.374,3.224,3.224,0,0,1-2.1-2.6,4.7,4.7,0,0,1,.179-2.3,2.884,2.884,0,0,1,1.758-1.794,5.5,5.5,0,0,1,1.985-.406c1.444-.023,2.887-.082,4.338-.126a4.569,4.569,0,0,0-.176-2.5,1.792,1.792,0,0,0-1.07-.964,4.23,4.23,0,0,0-1.391-.246,7.183,7.183,0,0,0-2.569.26c-.537.2-1.063.428-1.66.671l-.761-1.354c.058-.255.249-.345.429-.439a8.532,8.532,0,0,1,2.551-.879,11.185,11.185,0,0,1,2.653-.084,5.054,5.054,0,0,1,2.449.748,3.356,3.356,0,0,1,1.49,2.319,9.065,9.065,0,0,1,.124,1.595c.012,2.519.005,5.038.005,7.557Zm-1.987-5.436c-1.516,0-2.941-.014-4.365.011a2.652,2.652,0,0,0-.949.23,1.85,1.85,0,0,0-.526,3.054,2.236,2.236,0,0,0,1.155.54,6.427,6.427,0,0,0,2.451,0,4.618,4.618,0,0,0,1.976-.811.611.611,0,0,0,.246-.391C1924.728,3099.757,1924.718,3098.894,1924.718,3097.985Z" transform="translate(-1900.149 -3084.845)" fill="#efeae5"/>
      <path id="Path_39" data-name="Path 39" d="M1951.4,3097.743h-8.532a4.3,4.3,0,0,0,.537,3.082,2.663,2.663,0,0,0,1.74.984,6.686,6.686,0,0,0,5.013-1.027.975.975,0,0,1,.167-.078c.017-.007.041,0,.142.01l.814,1.448a4.769,4.769,0,0,1-.521.408,7.866,7.866,0,0,1-3.93,1.133,8.39,8.39,0,0,1-3.049-.365,4.024,4.024,0,0,1-2.831-3.484,14.632,14.632,0,0,1-.106-1.6c-.016-.992-.023-1.984.005-2.975a6.686,6.686,0,0,1,.186-1.4,4.009,4.009,0,0,1,3.219-3.132,7.579,7.579,0,0,1,4.319.16,4.022,4.022,0,0,1,2.711,3.377A28.347,28.347,0,0,1,1951.4,3097.743Zm-1.908-1.761a11.511,11.511,0,0,0-.122-1.424,2.426,2.426,0,0,0-1.889-2.045,6.408,6.408,0,0,0-2.4-.067,2.332,2.332,0,0,0-1.746,1.052,3.714,3.714,0,0,0-.473,2.484Z" transform="translate(-1905.208 -3084.843)" fill="#efeae5"/>
      <path id="Path_40" data-name="Path 40" d="M1934.144,3083.369h1.761c.1.482.115,17.906.015,18.58h-1.765C1934.054,3101.454,1934.042,3084.013,1934.144,3083.369Z" transform="translate(-1903.815 -3083.369)" fill="#efeae5"/>
    </g>
    <g id="Group_263" data-name="Group 263" transform="translate(166.694 350.986)">
      <path id="Path_41" data-name="Path 41" d="M2167.158,3099.416v-6.374c.1,0,.2-.012.288-.012,1.063,0,2.126,0,3.188,0a3.293,3.293,0,0,1,.644.056,1.655,1.655,0,0,1,1.037,2.537,3.6,3.6,0,0,1-.6.554c-.01-.025-.008,0,0,0a1.506,1.506,0,0,1,1.073,1.8,1.46,1.46,0,0,1-1.395,1.416C2169.993,3099.464,2168.584,3099.416,2167.158,3099.416Zm.777-.711a.388.388,0,0,0,.092.024c1,0,1.991.008,2.987-.009a.945.945,0,0,0,.966-.714,1.066,1.066,0,0,0-.972-1.427,2.72,2.72,0,0,0-.336-.03q-1.268,0-2.536,0a1.8,1.8,0,0,0-.2.021Zm0-2.867c.427,0,.821.006,1.213,0,.583-.01,1.168.007,1.748-.051a.915.915,0,0,0,.877-1.09.9.9,0,0,0-.957-.929c-.922-.026-1.844-.016-2.764-.02a.547.547,0,0,0-.117.027Z" transform="translate(-2125.439 -3092.933)" fill="#efeae5"/>
      <path id="Path_42" data-name="Path 42" d="M2139.9,3093.05h.76v6.385h-.734l-4.094-5.277-.05.009v5.273h-.751v-6.385h.934l3.887,5.014.049-.011Z" transform="translate(-2118.813 -3092.938)" fill="#efeae5"/>
      <path id="Path_43" data-name="Path 43" d="M2252.729,3096.822v-.693h3.277a3.149,3.149,0,0,1-2.627,3.339,3.322,3.322,0,0,1-1.611-6.439,3.286,3.286,0,0,1,4.013,1.906h-.792c-.043-.061-.086-.121-.125-.183a2.612,2.612,0,0,0-3.9-.466,2.847,2.847,0,0,0-.218,3.615,2.637,2.637,0,0,0,3.375.516,2.357,2.357,0,0,0,1.056-1.6Z" transform="translate(-2142.406 -3092.908)" fill="#efeae5"/>
      <path id="Path_44" data-name="Path 44" d="M2236.663,3094.173v5.267h-.729v-6.384h.927l3.9,5.027.056-.022v-5.006h.736v6.388h-.722l-4.1-5.292Z" transform="translate(-2139.626 -3092.938)" fill="#efeae5"/>
      <path id="Path_45" data-name="Path 45" d="M2214.445,3099.485v-6.439a1.232,1.232,0,0,1,.145-.017c.9,0,1.807-.015,2.709.011a2.945,2.945,0,0,1,2.963,2.931,3.749,3.749,0,0,1-.3,1.784,2.627,2.627,0,0,1-2.159,1.615C2216.7,3099.487,2215.577,3099.453,2214.445,3099.485Zm.761-.779c.742,0,1.459.042,2.168-.011a2.07,2.07,0,0,0,1.969-1.5,3.162,3.162,0,0,0,.083-1.556,2.077,2.077,0,0,0-1.973-1.842c-.727-.062-1.463-.018-2.2-.021-.014,0-.027.021-.052.039Z" transform="translate(-2135.193 -3092.933)" fill="#efeae5"/>
      <path id="Path_46" data-name="Path 46" d="M2153.784,3095.83v.716h-4.053v2.181h4.354v.71h-5.132v-6.384h5.138v.688h-4.367v2.088Z" transform="translate(-2121.684 -3092.938)" fill="#efeae5"/>
      <path id="Path_47" data-name="Path 47" d="M2185.294,3093.042h.732c.007.087.017.168.017.249,0,1.247.007,2.494,0,3.74a3.475,3.475,0,0,1-.1.835,2.177,2.177,0,0,1-2,1.636,4.127,4.127,0,0,1-1.871-.121,2.078,2.078,0,0,1-1.55-2c-.042-1.423-.013-2.85-.014-4.275,0-.016.014-.032.029-.064h.723c0,.109.015.217.015.325,0,1.153,0,2.306,0,3.459,0,1.384.661,2.023,2.058,2a3.173,3.173,0,0,0,.366-.027,1.647,1.647,0,0,0,1.593-1.8c.01-1.209,0-2.419,0-3.629Z" transform="translate(-2128.191 -3092.936)" fill="#efeae5"/>
      <path id="Path_48" data-name="Path 48" d="M2115.364,3093.737v2.191h4.037v.721h-4.037v2.789h-.767v-6.38h5.1v.678Z" transform="translate(-2114.597 -3092.939)" fill="#efeae5"/>
      <path id="Path_49" data-name="Path 49" d="M2202.647,3098.738h4.255v.7H2201.9v-6.387h.75Z" transform="translate(-2132.605 -3092.938)" fill="#efeae5"/>
      <path id="Path_50" data-name="Path 50" d="M2127.28,3093.045h.731v6.391h-.731Z" transform="translate(-2117.213 -3092.936)" fill="#efeae5"/>
      <path id="Path_51" data-name="Path 51" d="M2194.147,3093.046h.73v6.39h-.73Z" transform="translate(-2131.007 -3092.937)" fill="#efeae5"/>
      <path id="Path_52" data-name="Path 52" d="M2228.168,3099.438v-6.385h.728v6.385Z" transform="translate(-2138.024 -3092.938)" fill="#efeae5"/>
    </g>
  </g>
</svg>
