<svg width="330" height="330" viewBox="0 0 330 330" fill="none" xmlns="http://www.w3.org/2000/svg">
<path d="M164.576 127C158.025 134.513 154.412 144.137 154.402 154.101C154.426 155.942 154.572 157.779 154.841 159.6H174.301C174.573 157.779 174.723 155.942 174.749 154.101C174.737 144.137 171.126 134.513 164.576 127ZM126.001 142.151C125.969 148.204 127.359 154.181 130.059 159.6H152.958C151.998 158.066 150.932 156.6 149.767 155.215C143.68 148.14 135.24 143.5 126.001 142.151ZM203.151 142.151C193.912 143.5 185.471 148.14 179.385 155.215C178.223 156.601 177.159 158.066 176.202 159.6H199.086C201.788 154.181 203.181 148.205 203.151 142.151ZM131.678 162.527C132.29 163.532 132.947 164.509 133.648 165.454H195.514C196.212 164.509 196.867 163.532 197.477 162.527H131.678ZM136.039 168.381C136.977 169.41 137.97 170.387 139.013 171.309H190.16C191.205 170.388 192.199 169.41 193.138 168.381H136.039ZM142.763 174.236C147.635 177.601 153.214 179.803 159.072 180.675C159.065 178.517 158.878 176.363 158.512 174.236H142.763ZM159.708 174.236C161.087 176.72 162.718 179.055 164.576 181.204C166.433 179.055 168.064 176.72 169.442 174.236H159.708ZM170.624 174.236C170.263 176.364 170.082 178.517 170.08 180.675C175.937 179.802 181.516 177.6 186.388 174.236H170.624Z" fill="black"/>
<path d="M151.793 185.221V190.714C150.694 189.947 149.365 189.514 147.934 189.514C144.201 189.514 141.185 192.527 141.185 196.257C141.185 200.012 144.201 203 147.934 203C149.365 203 150.694 202.567 151.793 201.801V202.718H155.04V185.221L151.793 185.221ZM156.625 185.221V188.466H159.871V185.221H156.625ZM171.81 185.221V190.714C170.711 189.947 169.381 189.514 167.95 189.514C164.217 189.514 161.202 192.527 161.202 196.257C161.202 200.012 164.217 203 167.95 203C169.381 203 170.711 202.567 171.81 201.801V202.718H175.056V185.221L171.81 185.221ZM132.749 189.514C129.017 189.514 126 192.527 126 196.257C126 200.012 129.017 203 132.749 203C134.18 203 135.509 202.567 136.608 201.801V202.718H139.856V189.666H136.608V190.714C135.509 189.947 134.18 189.514 132.749 189.514ZM183.134 189.514C179.402 189.514 176.387 192.527 176.387 196.257C176.387 200.012 179.402 203 183.134 203C184.565 203 185.895 202.567 186.995 201.801V202.718H190.241V189.666H186.995V190.714C185.895 189.947 184.565 189.514 183.134 189.514ZM197.144 189.514C193.744 189.514 191.724 191.378 191.724 193.805C191.724 196.768 194.128 197.252 196.199 197.636L197.911 197.943C199.137 198.173 199.675 198.53 199.675 199.245C199.675 199.884 199.061 200.522 197.603 200.522C195.482 200.522 194.791 199.425 194.766 198.479H191.443C191.54 201.11 193.795 202.975 197.553 202.975C200.621 202.975 203.151 201.647 203.151 198.709C203.151 196.666 202.001 195.466 199.342 194.954L197.272 194.547C195.942 194.291 195.022 194.034 195.022 193.243C195.022 192.375 195.917 191.991 197.041 191.991C198.677 191.991 199.342 192.81 199.393 193.78H202.666C202.487 191.225 200.441 189.515 197.144 189.515V189.514ZM156.625 189.666V202.719H159.871V189.666H156.625ZM132.902 192.527C134.973 192.527 136.634 194.187 136.634 196.257C136.634 198.326 134.973 199.986 132.902 199.986C130.831 199.986 129.17 198.326 129.17 196.257C129.17 194.187 130.831 192.527 132.902 192.527ZM148.088 192.527C150.158 192.527 151.819 194.187 151.819 196.257C151.819 198.326 150.158 199.986 148.088 199.986C146.016 199.986 144.355 198.326 144.355 196.257C144.355 194.187 146.016 192.527 148.088 192.527ZM168.103 192.527C170.174 192.527 171.836 194.187 171.836 196.257C171.836 198.326 170.174 199.986 168.103 199.986C166.033 199.986 164.371 198.326 164.371 196.257C164.371 194.187 166.033 192.527 168.103 192.527ZM183.288 192.527C185.358 192.527 187.021 194.187 187.021 196.257C187.021 198.326 185.358 199.986 183.288 199.986C181.217 199.986 179.555 198.326 179.555 196.257C179.555 194.187 181.217 192.527 183.288 192.527Z" fill="black"/>
</svg>
