<svg width="330" height="330" viewBox="0 0 330 330" fill="none" xmlns="http://www.w3.org/2000/svg">
<path d="M165.002 114C136.878 114 114 136.876 114 165.004C114 193.119 136.878 216 165.002 216C193.118 216 216 193.119 216 165.004C216 136.876 193.118 114 165.002 114ZM165.005 121.078C189.267 121.078 208.931 140.741 208.931 165.002C208.931 189.262 189.267 208.926 165.005 208.926C140.744 208.926 121.079 189.262 121.079 165.002C121.079 140.741 140.744 121.078 165.005 121.078Z" fill="black"/>
<path d="M161.226 163.112H143.4L147.486 156.723H158.56L162.605 150.357H137.897L133.872 156.723H139.801L131.727 169.483H164.917L177.524 149.466L182.083 156.714H178.151L174.129 163.112H186.123L190.158 169.483H197.81L177.524 137.366L161.226 163.112ZM145.94 137.603L141.928 143.969L168.135 143.959L172.151 137.603H145.94Z" fill="black"/>
<path d="M198.539 173.205V173.433H199.064V174.547H199.324V173.433H199.848V173.205H198.539Z" fill="black"/>
<path d="M201.423 173.205L200.907 174.004L200.383 173.205H200.155V174.542H200.383V173.716L200.36 173.572L200.438 173.706L200.866 174.38H200.912L201.339 173.716L201.4 173.572V173.716V174.542H201.632V173.205H201.423Z" fill="black"/>
<path d="M140.621 183.593C140.621 184.406 140.338 185.111 139.776 185.678C139.205 186.244 138.509 186.532 137.701 186.532H134.26C133.433 186.532 132.742 186.254 132.189 185.706C131.646 185.158 131.367 184.48 131.367 183.644V182.279H133.489L133.814 183.542C133.953 184.071 134.311 184.336 134.891 184.336H137.232C137.529 184.336 137.761 184.225 137.947 184.02C138.123 183.802 138.211 183.524 138.211 183.203V181.699C138.211 180.965 137.891 180.584 137.232 180.584H134.288C133.489 180.584 132.802 180.306 132.222 179.744C131.66 179.159 131.367 178.463 131.367 177.645V175.667C131.367 174.873 131.66 174.186 132.222 173.61C132.802 173.035 133.489 172.756 134.288 172.756H137.701C138.509 172.756 139.196 173.03 139.753 173.569C140.315 174.117 140.579 174.804 140.579 175.63V176.865H138.471L138.156 175.746C137.989 175.208 137.622 174.948 137.083 174.948H134.78C134.474 174.948 134.237 175.059 134.056 175.277C133.87 175.486 133.786 175.756 133.786 176.09V177.251C133.786 177.97 134.116 178.333 134.78 178.333H137.701C138.499 178.333 139.196 178.62 139.758 179.205C140.338 179.786 140.621 180.464 140.621 181.262V183.593Z" fill="black"/>
<path d="M152.658 178.552C152.658 179.355 152.361 180.047 151.79 180.618C151.21 181.194 150.509 181.482 149.705 181.482H145.916V186.533H143.479V172.757H149.705C150.509 172.757 151.21 173.045 151.79 173.612C152.361 174.178 152.658 174.865 152.658 175.659V178.552ZM149.227 174.981H145.916V179.253H149.227L149.933 178.933C150.114 178.719 150.202 178.454 150.202 178.115V176.11C150.202 175.775 150.114 175.52 149.933 175.302L149.227 174.981Z" fill="black"/>
<path d="M174.274 186.534L172.036 181.148H169.724V186.534H167.281V172.758H173.378C174.195 172.758 174.882 173.046 175.449 173.608C176.015 174.183 176.308 174.875 176.308 175.66V178.06C176.308 178.687 176.131 179.254 175.793 179.75C175.435 180.252 174.989 180.609 174.441 180.837L176.865 186.534H174.274ZM172.918 174.982H169.724V178.919H172.918L173.592 178.613C173.777 178.404 173.861 178.139 173.861 177.805V176.106C173.861 175.785 173.777 175.521 173.592 175.298L172.918 174.982Z" fill="black"/>
<path d="M187.314 174.979H183.78V186.531H181.347V174.979H177.837V172.76H187.314V174.979Z" fill="black"/>
<path d="M198.353 183.593C198.353 184.406 198.065 185.111 197.508 185.678C196.927 186.244 196.236 186.532 195.418 186.532H191.978C191.16 186.532 190.473 186.254 189.911 185.706C189.368 185.158 189.085 184.48 189.085 183.644V182.279H191.212L191.527 183.542C191.676 184.071 192.038 184.336 192.614 184.336H194.954C195.247 184.336 195.488 184.225 195.674 184.02C195.85 183.802 195.925 183.524 195.925 183.203V181.699C195.925 180.965 195.609 180.584 194.954 180.584H192.019C191.212 180.584 190.515 180.306 189.949 179.744C189.382 179.159 189.085 178.463 189.085 177.645V175.667C189.085 174.873 189.382 174.186 189.949 173.61C190.515 173.035 191.212 172.756 192.019 172.756H195.418C196.236 172.756 196.918 173.03 197.475 173.569C198.028 174.117 198.311 174.804 198.311 175.63V176.865H196.198L195.873 175.746C195.706 175.208 195.349 174.948 194.805 174.948H192.493C192.196 174.948 191.945 175.059 191.778 175.277C191.592 175.486 191.509 175.756 191.509 176.09V177.251C191.509 177.97 191.838 178.333 192.493 178.333H195.418C196.226 178.333 196.909 178.62 197.475 179.205C198.065 179.786 198.353 180.464 198.353 181.262V183.593Z" fill="black"/>
<path d="M160.906 174.979H158.565L157.85 175.3C157.683 175.518 157.59 175.782 157.59 176.112V183.17C157.59 183.495 157.683 183.755 157.85 183.973L158.565 184.317H160.906L161.611 183.973C161.797 183.755 161.89 183.495 161.89 183.17V176.112C161.89 175.782 161.797 175.518 161.611 175.3L160.906 174.979ZM164.318 183.574C164.318 184.409 164.035 185.106 163.464 185.677C162.879 186.239 162.201 186.531 161.375 186.531H158.082C157.27 186.531 156.564 186.239 156.002 185.677C155.436 185.106 155.139 184.409 155.139 183.574V175.652C155.139 174.872 155.436 174.176 156.002 173.609C156.564 173.038 157.27 172.76 158.082 172.76H161.375C162.201 172.76 162.879 173.038 163.464 173.6C164.035 174.157 164.318 174.858 164.318 175.652V183.574Z" fill="black"/>
</svg>
