<svg width="330" height="330" viewBox="0 0 330 330" fill="none" xmlns="http://www.w3.org/2000/svg">
<path d="M242.175 170.912L246.739 173.955C245.258 176.137 241.714 179.881 235.588 179.881C227.981 179.881 222.315 173.995 222.315 166.508C222.315 158.54 228.041 153.135 234.948 153.135C241.895 153.135 245.298 158.66 246.399 161.643L247 163.165L229.102 170.572C230.463 173.254 232.585 174.616 235.588 174.616C238.591 174.616 240.673 173.134 242.175 170.912ZM228.141 166.087L240.093 161.123C239.432 159.461 237.47 158.28 235.128 158.28C232.145 158.28 228.001 160.922 228.141 166.087Z" fill="black"/>
<path d="M213.688 139.501H219.453V178.66H213.688V139.501Z" fill="black"/>
<path d="M204.599 154.176H210.164V177.959C210.164 187.829 204.338 191.893 197.452 191.893C190.965 191.893 187.062 187.528 185.6 183.985L190.705 181.863C191.626 184.045 193.848 186.627 197.452 186.627C201.876 186.627 204.599 183.885 204.599 178.76V176.838H204.398C203.077 178.439 200.555 179.881 197.352 179.881C190.665 179.881 184.539 174.055 184.539 166.548C184.539 159.001 190.665 153.115 197.352 153.115C200.535 153.115 203.077 154.536 204.398 156.098H204.599V154.176ZM204.999 166.548C204.999 161.823 201.856 158.38 197.852 158.38C193.808 158.38 190.405 161.823 190.405 166.548C190.405 171.212 193.808 174.596 197.852 174.596C201.856 174.616 204.999 171.212 204.999 166.548Z" fill="black"/>
<path d="M152.888 166.448C152.888 174.155 146.882 179.821 139.515 179.821C132.147 179.821 126.142 174.135 126.142 166.448C126.142 158.7 132.147 153.055 139.515 153.055C146.882 153.055 152.888 158.7 152.888 166.448ZM147.042 166.448C147.042 161.643 143.559 158.34 139.515 158.34C135.471 158.34 131.987 161.643 131.987 166.448C131.987 171.212 135.471 174.556 139.515 174.556C143.559 174.556 147.042 171.212 147.042 166.448Z" fill="black"/>
<path d="M182.097 166.508C182.097 174.215 176.091 179.881 168.724 179.881C161.356 179.881 155.351 174.215 155.351 166.508C155.351 158.76 161.356 153.135 168.724 153.135C176.091 153.135 182.097 158.74 182.097 166.508ZM176.231 166.508C176.231 161.703 172.748 158.4 168.704 158.4C164.66 158.4 161.176 161.703 161.176 166.508C161.176 171.272 164.66 174.616 168.704 174.616C172.768 174.616 176.231 171.252 176.231 166.508Z" fill="black"/>
<path d="M104.161 174.015C95.7725 174.015 89.206 167.248 89.206 158.86C89.206 150.472 95.7725 143.706 104.161 143.706C108.685 143.706 111.988 145.487 114.431 147.77L118.455 143.746C115.051 140.482 110.507 138 104.161 138C92.6694 138 83 147.369 83 158.86C83 170.352 92.6694 179.721 104.161 179.721C110.367 179.721 115.051 177.679 118.715 173.875C122.479 170.111 123.64 164.826 123.64 160.542C123.64 159.201 123.48 157.819 123.299 156.798H104.161V162.364H117.794C117.394 165.847 116.293 168.23 114.671 169.851C112.709 171.833 109.606 174.015 104.161 174.015Z" fill="black"/>
</svg>
