<svg width="330" height="330" viewBox="0 0 330 330" fill="none" xmlns="http://www.w3.org/2000/svg">
<path fill-rule="evenodd" clip-rule="evenodd" d="M93 194.421H236.825H236.846V136H93V194.421ZM164.922 191.061C124.766 191.061 95.8031 179.331 95.8031 165.21C95.8031 151.09 124.787 139.36 164.922 139.36C205.058 139.36 234.021 151.09 234.021 165.21C234.021 179.331 205.079 191.061 164.922 191.061Z" fill="black"/>
<path d="M141.629 153.976C141.32 154.594 141.32 155.192 141.32 155.81V163.541C141.32 163.541 145.464 158.16 146.412 156.882C147.133 155.934 148.02 154.594 148.02 153.976H161.543C160.615 154.594 159.584 155.707 158.739 156.738C157.997 157.645 153.792 162.778 153.792 162.778C153.792 162.778 160.038 172.281 160.842 173.497C161.295 174.157 161.79 174.775 162.367 175.332H146.804C146.804 174.714 146.206 173.456 145.546 172.467C144.886 171.477 141.32 166.056 141.32 166.056V173.497C141.32 174.116 141.32 174.714 141.629 175.332H128.663C128.972 174.714 128.972 174.116 128.972 173.497V155.81C128.972 155.192 128.972 154.594 128.663 153.976H141.629ZM189.64 153.976H164.614C164.923 154.594 164.923 155.192 164.923 155.81V173.497C164.923 174.116 164.923 174.714 164.614 175.332H189.64V169.416C189.021 169.725 188.423 169.725 187.805 169.725H177.271V166.921H187.393V162.407H177.271V159.583H187.805C188.423 159.583 189.021 159.583 189.64 159.871V153.976ZM224.313 173.497C224.519 174.178 224.869 174.796 225.323 175.332H211.759C211.821 174.714 211.594 174.116 211.346 173.497C211.346 173.497 211.14 173.003 210.852 172.281L210.728 171.972H202.915L202.792 172.302C202.792 172.302 202.565 172.899 202.359 173.518C202.152 174.136 201.926 174.734 202.008 175.353H191.309C191.742 174.817 192.072 174.198 192.278 173.518L198.689 155.831C198.916 155.212 199.143 154.615 199.06 153.996H217.139C216.974 154.615 217.304 155.212 217.531 155.831C218.067 157.171 223.859 172.302 224.313 173.497ZM209.017 167.457L207.12 162.51C206.956 162.056 206.811 161.582 206.708 161.108C206.626 161.582 206.502 162.056 206.337 162.51C206.275 162.716 205.471 164.881 204.544 167.457H209.017ZM122.211 155.81C122.211 155.192 122.211 154.594 122.52 153.976H108.42C108.729 154.594 108.729 155.192 108.729 155.81V173.497C108.729 174.116 108.729 174.714 108.42 175.332H122.52C122.211 174.714 122.211 174.116 122.211 173.497V155.81ZM219.984 155.666C219.943 157.212 221.159 158.511 222.725 158.552C224.271 158.593 225.57 157.377 225.611 155.81C225.611 155.769 225.611 155.707 225.611 155.666C225.632 154.14 224.436 152.883 222.911 152.862C222.87 152.862 222.849 152.862 222.808 152.862C221.303 152.801 220.046 153.976 220.004 155.48C219.963 155.542 219.963 155.604 219.984 155.666ZM225.034 155.666C225.075 156.903 224.086 157.954 222.849 157.975C221.612 158.016 220.561 157.026 220.54 155.79C220.54 155.748 220.54 155.707 220.54 155.645C220.499 154.45 221.427 153.44 222.622 153.398C222.684 153.398 222.725 153.398 222.787 153.398C224.003 153.378 225.014 154.347 225.034 155.563C225.034 155.604 225.034 155.645 225.034 155.666ZM224.168 157.356H223.612L222.952 156.161H222.231V157.356H221.736V153.976H222.993C223.591 153.996 224.045 154.47 224.045 155.068C224.045 155.48 223.818 155.851 223.447 156.058L224.168 157.356ZM222.911 155.666C223.241 155.687 223.529 155.439 223.529 155.109C223.529 154.78 223.303 154.491 222.973 154.491C222.952 154.491 222.932 154.491 222.911 154.491H222.231V155.687H222.911" fill="black"/>
</svg>
