<svg width="330" height="330" viewBox="0 0 330 330" fill="none" xmlns="http://www.w3.org/2000/svg">
<path d="M133.551 168.299L132.275 171.91H132.169C131.956 171.096 131.566 169.857 130.928 168.37L124.089 151.203H117.392V178.564H121.821V161.68C121.821 160.619 121.821 159.415 121.786 157.928C121.75 157.185 121.679 156.619 121.644 156.194H121.75C121.963 157.256 122.211 158.035 122.388 158.53L130.609 178.494H133.728L141.878 158.353C142.055 157.893 142.232 156.973 142.41 156.194H142.516C142.41 158.212 142.339 160.017 142.303 161.114V178.458H147.016V151.132H140.567L133.551 168.299ZM151.481 158.849H156.088V178.458H151.481V158.849ZM153.82 150.566C153.041 150.566 152.403 150.849 151.871 151.345C151.34 151.84 151.056 152.477 151.056 153.256C151.056 153.999 151.34 154.637 151.871 155.132C152.403 155.628 153.041 155.875 153.82 155.875C154.6 155.875 155.273 155.592 155.769 155.132C156.301 154.637 156.584 153.999 156.584 153.256C156.584 152.513 156.301 151.876 155.769 151.345C155.309 150.849 154.635 150.566 153.82 150.566ZM172.424 158.672C171.574 158.495 170.688 158.389 169.837 158.389C167.747 158.389 165.833 158.849 164.238 159.769C162.644 160.689 161.368 161.964 160.553 163.556C159.703 165.185 159.277 167.061 159.277 169.22C159.277 171.096 159.703 172.759 160.518 174.281C161.333 175.768 162.467 176.971 163.99 177.786C165.443 178.6 167.144 179.024 169.058 179.024C171.255 179.024 173.133 178.564 174.621 177.715L174.657 177.679V173.432L174.48 173.573C173.806 174.069 173.027 174.494 172.247 174.742C171.432 175.025 170.688 175.166 170.05 175.166C168.207 175.166 166.754 174.635 165.727 173.467C164.664 172.335 164.132 170.777 164.132 168.83C164.132 166.813 164.664 165.22 165.762 164.052C166.861 162.884 168.314 162.282 170.085 162.282C171.574 162.282 173.098 162.778 174.48 163.769L174.657 163.91V159.415L174.621 159.38C174.019 159.132 173.346 158.849 172.424 158.672ZM187.626 158.53C186.492 158.53 185.429 158.884 184.508 159.627C183.728 160.265 183.197 161.185 182.736 162.282H182.701V158.849H178.094V178.458H182.701V168.441C182.701 166.742 183.055 165.326 183.835 164.3C184.614 163.238 185.607 162.707 186.811 162.707C187.237 162.707 187.662 162.813 188.193 162.884C188.69 163.025 189.044 163.167 189.292 163.344L189.469 163.486V158.884L189.363 158.849C189.044 158.636 188.406 158.53 187.626 158.53ZM200.171 158.424C196.946 158.424 194.359 159.38 192.552 161.256C190.709 163.132 189.823 165.716 189.823 168.972C189.823 172.016 190.745 174.494 192.517 176.299C194.288 178.069 196.698 178.989 199.71 178.989C202.864 178.989 205.38 178.033 207.187 176.122C209.03 174.211 209.916 171.662 209.916 168.512C209.916 165.397 209.065 162.919 207.329 161.114C205.664 159.309 203.218 158.424 200.171 158.424ZM203.856 173.503C203.006 174.6 201.659 175.131 199.994 175.131C198.328 175.131 196.982 174.6 196.025 173.432C195.068 172.335 194.607 170.742 194.607 168.724C194.607 166.636 195.103 165.043 196.025 163.91C196.982 162.778 198.293 162.211 199.958 162.211C201.588 162.211 202.864 162.742 203.785 163.84C204.707 164.937 205.203 166.53 205.203 168.618C205.132 170.742 204.742 172.405 203.856 173.503ZM220.192 166.99C218.74 166.388 217.818 165.928 217.393 165.539C217.039 165.185 216.861 164.689 216.861 164.052C216.861 163.521 217.074 162.99 217.606 162.636C218.137 162.282 218.74 162.105 219.625 162.105C220.405 162.105 221.22 162.247 222 162.459C222.779 162.671 223.488 162.99 224.055 163.415L224.232 163.556V159.238L224.126 159.203C223.594 158.99 222.886 158.778 222.035 158.601C221.185 158.459 220.405 158.389 219.767 158.389C217.57 158.389 215.763 158.919 214.345 160.088C212.928 161.185 212.255 162.671 212.255 164.406C212.255 165.326 212.396 166.14 212.715 166.813C213.034 167.485 213.495 168.122 214.133 168.653C214.771 169.149 215.692 169.715 216.968 170.246C218.031 170.706 218.846 171.06 219.342 171.344C219.838 171.627 220.157 171.945 220.405 172.193C220.582 172.476 220.689 172.83 220.689 173.29C220.689 174.6 219.696 175.237 217.676 175.237C216.897 175.237 216.082 175.095 215.125 174.777C214.168 174.458 213.282 173.998 212.538 173.467L212.361 173.326V177.821L212.467 177.856C213.141 178.175 213.956 178.387 214.948 178.635C215.94 178.812 216.826 178.954 217.606 178.954C219.98 178.954 221.929 178.423 223.311 177.255C224.728 176.122 225.472 174.671 225.472 172.795C225.472 171.485 225.118 170.317 224.338 169.432C223.311 168.583 222.035 167.698 220.192 166.99ZM237.627 158.424C234.402 158.424 231.816 159.38 230.008 161.256C228.201 163.132 227.28 165.716 227.28 168.972C227.28 172.016 228.201 174.494 229.973 176.299C231.745 178.069 234.154 178.989 237.166 178.989C240.32 178.989 242.836 178.033 244.643 176.122C246.486 174.211 247.372 171.662 247.372 168.512C247.372 165.397 246.522 162.919 244.785 161.114C243.12 159.309 240.675 158.424 237.627 158.424ZM241.277 173.503C240.427 174.6 239.08 175.131 237.414 175.131C235.714 175.131 234.402 174.6 233.446 173.432C232.489 172.335 232.028 170.742 232.028 168.724C232.028 166.636 232.524 165.043 233.446 163.91C234.402 162.778 235.714 162.211 237.379 162.211C238.974 162.211 240.285 162.742 241.206 163.84C242.128 164.937 242.624 166.53 242.624 168.618C242.624 170.742 242.163 172.405 241.277 173.503ZM272 162.636V158.849H267.358V153.044L267.216 153.079L262.822 154.389L262.716 154.424V158.849H255.77V156.371C255.77 155.238 256.054 154.353 256.55 153.787C257.046 153.221 257.79 152.938 258.712 152.938C259.35 152.938 260.023 153.079 260.767 153.398L260.944 153.504V149.504L260.838 149.469C260.2 149.256 259.35 149.115 258.251 149.115C256.869 149.115 255.664 149.433 254.566 149.964C253.467 150.566 252.652 151.38 252.05 152.477C251.447 153.539 251.128 154.743 251.128 156.123V158.849H247.904V162.601H251.128V178.458H255.77V162.636H262.716V172.724C262.716 176.865 264.665 178.954 268.563 178.954C269.201 178.954 269.874 178.847 270.512 178.741C271.185 178.6 271.681 178.423 271.965 178.281L272 178.246V174.458L271.823 174.6C271.54 174.777 271.292 174.919 270.866 175.025C270.512 175.131 270.193 175.166 269.945 175.166C269.024 175.166 268.386 174.954 267.925 174.423C267.5 173.927 267.287 173.113 267.287 171.91V162.636H272Z" fill="black"/>
<path d="M58 142H79.7225V163.698H58V142Z" fill="black"/>
<path d="M81.9902 142H103.713V163.698H81.9902V142Z" fill="black"/>
<path d="M58 165.963H79.7225V187.661H58V165.963Z" fill="black"/>
<path d="M81.9902 165.963H103.713V187.661H81.9902V165.963Z" fill="black"/>
</svg>
