<svg width="330" height="330" viewBox="0 0 330 330" fill="none" xmlns="http://www.w3.org/2000/svg">
<path d="M185.39 170.534C180.357 170.534 176.264 166.462 176.264 161.454C176.264 156.447 180.357 152.374 185.39 152.374C190.421 152.374 194.515 156.447 194.515 161.454C194.515 166.462 190.421 170.534 185.39 170.534ZM209.036 170.564C205.268 170.564 202.609 169.092 201.126 166.19C199.958 163.899 199.909 161.468 199.909 161.444C199.909 161.432 199.961 159.014 201.125 156.748C202.607 153.864 205.267 152.402 209.036 152.402C212.813 152.402 215.478 153.82 216.955 156.618C218.114 158.812 218.16 161.139 218.16 161.161C218.158 161.537 218.001 170.564 209.036 170.564ZM125.642 162.175V174.853V174.859H130.129V162.172C130.129 162.153 130.179 159.611 131.406 157.218C132.961 154.18 135.754 152.639 139.707 152.639C143.659 152.639 146.452 154.18 148.009 157.218C149.237 159.614 149.284 162.153 149.284 162.179V174.859H153.772V171.387C156.252 173.623 159.407 174.853 162.78 174.853C167.343 174.853 171.609 172.518 174.086 168.717C176.561 172.521 180.826 174.857 185.39 174.857C190.257 174.857 194.773 172.187 197.142 167.989C197.149 168.001 197.179 168.067 197.179 168.067C198.745 171.193 202.074 174.916 209.036 174.916C212.714 174.916 215.84 173.776 218.16 171.622V175.548C218.152 176.355 217.879 179.005 214.691 179.005H196.792V183.36H214.691C218.731 183.36 220.678 181.175 221.598 179.341C222.509 177.529 222.538 175.751 222.538 175.554V149.298H218.16V151.19C215.84 149.137 212.713 148.048 209.036 148.048C202.074 148.048 198.747 151.753 197.181 154.862C197.181 154.862 197.168 154.891 197.149 154.932C194.781 150.724 190.261 148.051 185.39 148.051C180.826 148.051 176.557 150.39 174.082 154.195C172.265 151.405 169.445 149.336 166.225 148.488L165.675 148.344V152.82C165.675 152.82 165.677 154.391 165.677 154.809C165.224 155.034 158.566 158.339 158.566 158.339V162.702L165.674 158.946V159.314C165.675 159.314 165.676 159.314 165.678 159.313V159.788C165.676 159.789 165.674 159.791 165.674 159.791V160.055L158.566 163.81V168.156L168.309 162.977V154.592C170.4 156.261 171.634 158.761 171.634 161.448C171.634 166.305 167.663 170.256 162.78 170.256C157.899 170.256 153.928 166.305 153.928 161.448C153.928 156.59 157.899 152.639 162.78 152.639C163.413 152.639 164.05 152.713 164.677 152.849V148.181C164.042 148.09 163.406 148.041 162.78 148.041C158.198 148.041 153.926 150.39 151.454 154.212C149.666 151.32 146.223 148.173 139.707 148.173C133.128 148.173 129.679 151.374 127.893 154.328C126.117 151.351 122.675 148.101 116.096 148.011C112.16 147.956 108.933 149.096 106.488 151.381V149.481H102V174.859H106.488V174.853V162.166C106.488 162.148 106.538 159.608 107.763 157.213C109.319 154.176 112.113 152.636 116.065 152.636C120.017 152.636 122.81 154.176 124.367 157.213C125.595 159.61 125.642 162.148 125.642 162.175Z" fill="black"/>
<path d="M225.328 150.535H224.799V147.776H225.828C226.497 147.776 226.871 147.996 226.871 148.595C226.871 149.095 226.574 149.295 226.217 149.335L226.871 150.535H226.279L225.671 149.355H225.328V150.535ZM225.328 148.935H225.796C226.185 148.935 226.326 148.806 226.326 148.546C226.326 148.286 226.155 148.206 225.766 148.206H225.329V148.935H225.328Z" fill="black"/>
<path d="M228 149.155C228 150.346 227.03 151.311 225.834 151.311C224.638 151.311 223.668 150.346 223.668 149.155C223.668 147.965 224.638 147 225.834 147C227.03 147 228 147.965 228 149.155Z" stroke="black"/>
</svg>
