<svg width="330" height="330" viewBox="0 0 330 330" fill="none" xmlns="http://www.w3.org/2000/svg">
<path d="M225.962 172.127H225.818L219.703 150.866H209.838V177.67H216.373L216.005 155.674H216.148L222.715 177.67H232.18V150.865H225.602L225.962 172.127ZM100.457 150.865L95.5361 177.952H102.717L106.356 153.365H106.508L110.05 177.953H117.189L112.291 150.865H100.457ZM140.627 150.868L137.344 171.577H137.195L133.928 150.868H123.087L122.499 177.952H129.146L129.312 153.595H129.462L133.902 177.952H140.644L145.085 153.603L145.233 153.595L145.406 177.952H152.055L151.468 150.868H140.627ZM79.0678 157.833C78.9425 157.279 78.9728 156.725 79.0401 156.419C79.2314 155.549 79.8067 154.596 81.4704 154.596C83.0299 154.596 83.9376 155.579 83.9376 157.048V158.722H90.5753V156.831C90.5753 150.922 85.3744 150 81.6089 150C76.8843 150 73.0265 151.6 72.3153 156.018C72.1214 157.205 72.0976 158.293 72.38 159.664C73.5344 165.2 82.9771 166.804 84.3479 170.305C84.6052 170.958 84.5221 171.804 84.3954 172.316C84.1804 173.202 83.5827 174.124 81.8082 174.124C80.1484 174.124 79.1351 173.154 79.1351 171.676L79.1312 169.048H72.004L72 171.142C72 177.184 76.6653 179 81.6617 179C86.4774 179 90.4249 177.341 91.0635 172.819C91.3881 170.475 91.1492 168.937 91.0345 168.364C89.909 162.69 79.8265 161.012 79.0678 157.833ZM165.552 157.896C165.422 157.355 165.459 156.807 165.521 156.508C165.707 155.643 166.276 154.7 167.926 154.7C169.467 154.7 170.372 155.669 170.372 157.118V158.78H176.938V156.906C176.938 151.069 171.785 150.15 168.068 150.15C163.384 150.15 159.56 151.714 158.864 156.105C158.67 157.287 158.64 158.367 158.925 159.719C160.069 165.196 169.418 166.788 170.778 170.251C171.026 170.903 170.951 171.736 170.83 172.243C170.613 173.136 170.016 174.03 168.266 174.03C166.614 174.03 165.619 173.075 165.619 171.613L165.614 169.004H158.55V171.08C158.55 177.06 163.175 178.855 168.122 178.855C172.879 178.855 176.793 177.211 177.42 172.736C177.742 170.422 177.504 168.898 177.392 168.327C176.277 162.713 166.291 161.045 165.552 157.896ZM195.698 170.897C195.704 171.241 195.693 171.639 195.636 171.929C195.504 172.603 194.936 173.878 193.087 173.878C191.245 173.878 190.67 172.603 190.538 171.929C190.482 171.639 190.468 171.241 190.471 170.897V150.862H183.753V170.276C183.742 170.778 183.791 171.795 183.815 172.065C184.271 177.114 188.198 178.746 193.086 178.746C197.969 178.746 201.894 177.114 202.365 172.065C202.389 171.795 202.44 170.777 202.432 170.276V150.862H195.697V170.897H195.698ZM248.592 162.724V166.69H251.313V170.619C251.321 170.96 251.308 171.337 251.251 171.647C251.133 172.376 250.455 173.607 248.538 173.607C246.615 173.607 245.94 172.375 245.816 171.647C245.764 171.337 245.748 170.96 245.756 170.619V158.226C245.756 157.785 245.784 157.304 245.864 156.955C246.006 156.287 246.578 154.989 248.511 154.989C250.544 154.989 251.047 156.36 251.168 156.955C251.246 157.33 251.251 157.978 251.251 157.975V159.501H257.951V158.596C257.949 158.596 257.975 157.671 257.897 156.825C257.405 151.731 253.274 150.128 248.567 150.128C243.856 150.128 239.823 151.745 239.239 156.825C239.182 157.263 239.123 158.115 239.123 158.596L239.12 169.992C239.123 170.503 239.138 170.88 239.212 171.782C239.65 176.713 243.856 178.48 248.561 178.48C253.269 178.48 257.475 176.713 257.916 171.782C257.988 170.878 257.999 170.501 258 169.992V162.724H248.592Z" fill="black"/>
</svg>
