<svg width="330" height="330" viewBox="0 0 330 330" fill="none" xmlns="http://www.w3.org/2000/svg">
<path fill-rule="evenodd" clip-rule="evenodd" d="M132.153 149.026C134.239 149.586 135.889 151.235 136.45 153.318C137.477 157.113 137.508 164.981 137.508 164.981C137.508 164.981 137.508 172.881 136.481 176.644C135.92 178.728 134.27 180.376 132.184 180.936C128.417 181.962 113.254 181.962 113.254 181.962C113.254 181.962 98.0914 181.962 94.3241 180.936C92.238 180.376 90.5879 178.728 90.0274 176.644C89 172.85 89 164.981 89 164.981C89 164.981 89 157.113 89.9963 153.349C90.5567 151.266 92.2069 149.617 94.293 149.057C98.0603 148.031 113.223 148 113.223 148C113.223 148 128.386 148 132.153 149.026ZM120.975 164.981L108.397 172.259V157.704L120.975 164.981Z" fill="black"/>
<path d="M159.364 178.883C158.399 178.23 157.714 177.235 157.309 175.867C156.905 174.498 156.718 172.694 156.718 170.424V167.345C156.718 165.075 156.936 163.208 157.403 161.84C157.87 160.44 158.586 159.445 159.582 158.823C160.578 158.201 161.855 157.859 163.443 157.859C165 157.859 166.276 158.17 167.21 158.823C168.144 159.476 168.86 160.472 169.296 161.84C169.732 163.208 169.95 165.043 169.95 167.314V170.393C169.95 172.663 169.732 174.467 169.296 175.835C168.86 177.204 168.175 178.199 167.21 178.852C166.245 179.474 164.937 179.816 163.318 179.816C161.637 179.848 160.329 179.505 159.364 178.883ZM164.751 175.556C165.031 174.871 165.155 173.721 165.155 172.166V165.541C165.155 164.017 165.031 162.897 164.751 162.213C164.47 161.498 164.003 161.156 163.349 161.156C162.696 161.156 162.26 161.498 161.98 162.213C161.699 162.929 161.575 164.017 161.575 165.541V172.166C161.575 173.721 161.699 174.871 161.948 175.556C162.197 176.24 162.664 176.582 163.349 176.582C164.003 176.582 164.47 176.24 164.751 175.556Z" fill="black"/>
<path d="M232.998 170.486V171.575C232.998 172.943 233.03 173.969 233.123 174.654C233.216 175.338 233.372 175.835 233.621 176.147C233.87 176.458 234.275 176.613 234.804 176.613C235.52 176.613 236.018 176.333 236.268 175.773C236.548 175.213 236.672 174.28 236.703 173.005L240.844 173.254C240.876 173.441 240.876 173.69 240.876 174.001C240.876 175.96 240.346 177.422 239.257 178.386C238.167 179.35 236.672 179.848 234.711 179.848C232.345 179.848 230.694 179.101 229.76 177.639C228.826 176.178 228.328 173.876 228.328 170.797V167.034C228.328 163.862 228.826 161.529 229.791 160.067C230.788 158.606 232.469 157.859 234.835 157.859C236.486 157.859 237.731 158.17 238.603 158.761C239.474 159.352 240.097 160.285 240.471 161.56C240.844 162.835 241 164.577 241 166.816V170.455H232.998V170.486ZM233.621 161.529C233.372 161.84 233.216 162.307 233.123 162.991C233.03 163.675 232.998 164.701 232.998 166.101V167.625H236.486V166.101C236.486 164.732 236.454 163.706 236.361 162.991C236.268 162.275 236.112 161.778 235.863 161.498C235.614 161.218 235.24 161.063 234.742 161.063C234.213 161.094 233.839 161.249 233.621 161.529Z" fill="black"/>
<path d="M147.72 170.082L142.271 150.426H147.035L148.934 159.321C149.432 161.529 149.775 163.395 150.024 164.919H150.149C150.304 163.799 150.678 161.964 151.238 159.352L153.2 150.426H157.963L152.453 170.05V179.474H147.751V170.082H147.72Z" fill="black"/>
<path d="M185.393 158.263V179.505H181.656L181.252 176.893H181.158C180.131 178.852 178.605 179.848 176.581 179.848C175.18 179.848 174.122 179.381 173.468 178.448C172.783 177.515 172.472 176.084 172.472 174.125V158.263H177.266V173.845C177.266 174.778 177.36 175.462 177.578 175.867C177.796 176.271 178.138 176.458 178.605 176.458C179.01 176.458 179.415 176.333 179.788 176.084C180.162 175.836 180.442 175.493 180.629 175.12V158.263H185.393Z" fill="black"/>
<path d="M209.959 158.263V179.505H206.223L205.818 176.893H205.725C204.697 178.852 203.172 179.848 201.148 179.848C199.747 179.848 198.688 179.381 198.034 178.448C197.349 177.515 197.038 176.084 197.038 174.125V158.263H201.833V173.845C201.833 174.778 201.926 175.462 202.144 175.867C202.362 176.271 202.705 176.458 203.172 176.458C203.576 176.458 203.981 176.333 204.355 176.084C204.728 175.836 205.009 175.493 205.195 175.12V158.263H209.959Z" fill="black"/>
<path d="M198.408 154.282H193.644V179.505H188.974V154.282H184.21V150.426H198.376V154.282H198.408Z" fill="black"/>
<path d="M225.776 161.653C225.496 160.316 225.029 159.352 224.375 158.73C223.721 158.139 222.85 157.828 221.698 157.828C220.826 157.828 219.985 158.077 219.238 158.574C218.46 159.072 217.899 159.725 217.463 160.534H217.432V149.337H212.824V179.474H216.778L217.277 177.453H217.37C217.744 178.168 218.304 178.728 219.02 179.163C219.767 179.568 220.577 179.785 221.48 179.785C223.099 179.785 224.282 179.039 225.06 177.546C225.808 176.053 226.212 173.721 226.212 170.579V167.221C226.212 164.857 226.057 162.991 225.776 161.653ZM221.386 170.331C221.386 171.886 221.324 173.099 221.2 173.969C221.075 174.84 220.857 175.462 220.546 175.836C220.234 176.209 219.83 176.395 219.331 176.395C218.927 176.395 218.584 176.302 218.242 176.115C217.899 175.929 217.65 175.649 217.432 175.276V163.208C217.588 162.618 217.868 162.151 218.273 161.778C218.678 161.405 219.082 161.218 219.549 161.218C220.048 161.218 220.421 161.405 220.67 161.778C220.95 162.151 221.106 162.804 221.231 163.706C221.324 164.608 221.386 165.883 221.386 167.563V170.331Z" fill="black"/>
</svg>
