<svg width="439" height="12" viewBox="0 0 439 12" fill="none" xmlns="http://www.w3.org/2000/svg">
<g clip-path="url(#clip0_221_1081)">
<path d="M437.601 2.27354C438.26 2.27327 438.057 1.69741 438.158 1.59127C437.044 1.72814 437.652 2.44023 437.601 2.27354Z" fill="#B03A3F"/>
<path d="M426.911 3.70262L427.113 3.44489L425.492 4.06695L426.911 3.70262Z" fill="#B03A3F"/>
<path d="M416.93 3.66131C417.842 4.75216 420.527 3.49314 422.301 3.88646L422.605 4.12879L423.415 3.26465C421.236 3.40195 418.399 3.96382 416.93 3.66131Z" fill="#B03A3F"/>
<path d="M411.66 1.31414C411.964 1.73838 410.495 1.6784 412.876 1.45008L412.876 1.34398L411.66 1.31414Z" fill="#B03A3F"/>
<path d="M412.674 1.34422C413.738 1.34378 412.016 0.980747 412.674 1.34422V1.34422Z" fill="#B03A3F"/>
<path d="M407.81 1.57359L409.228 1.1941C408.924 0.951733 407.708 0.891601 408.164 0.709541C406.746 0.907156 406.999 1.16471 407.81 1.57359Z" fill="#B03A3F"/>
<path d="M406.492 2.36207L407.202 2.19509C407.049 2.08906 406.897 2.05879 406.492 2.36207Z" fill="#B03A3F"/>
<path d="M408.721 1.86094L407.201 2.19505C407.201 2.37692 407.202 2.72548 407.911 2.07348C407.759 2.40698 408.265 2.08847 408.721 1.86094Z" fill="#B03A3F"/>
<path d="M409.582 2.02758C410.342 2.26976 411.356 2.4209 409.937 2.78523C412.622 2.64772 412.217 1.89009 409.582 2.02758Z" fill="#B03A3F"/>
<path d="M416.374 4.78327L417.388 5.10106L418.3 4.73696C417.844 4.91902 416.324 4.4347 416.374 4.78327Z" fill="#B03A3F"/>
<path d="M399.197 0.986084C399.298 1.29328 399.485 1.59735 399.755 1.89517L400.768 1.63713C400.261 1.48578 399.248 1.33465 399.197 0.986084Z" fill="#B03A3F"/>
<path d="M399.754 1.8951L398.184 2.28982C399.552 2.28925 399.805 2.15273 399.754 1.8951Z" fill="#B03A3F"/>
<path d="M406.189 3.55944L408.722 2.73997L405.733 3.57479L406.189 3.55944Z" fill="#B03A3F"/>
<path d="M393.37 0.958142L394.231 0.427328L392.66 1.23124L393.37 0.958142Z" fill="#B03A3F"/>
<path d="M389.469 1.03551C390.127 0.595713 388.607 0.29325 389.468 0.0200864C388.404 0.020527 387.492 0.475612 386.682 0.809378C387.391 0.627213 388.303 0.672248 389.469 1.03551Z" fill="#B03A3F"/>
<path d="M385.162 1.31014C385.662 1.15439 386.119 0.98702 386.53 0.809492C385.959 0.945087 385.493 1.11581 385.162 1.31014Z" fill="#B03A3F"/>
<path d="M395.599 2.16999C395.49 1.91401 395.054 1.68069 394.383 1.5188L394.991 2.15507L395.599 2.16999Z" fill="#B03A3F"/>
<path d="M395.751 2.16967C395.751 2.16967 395.701 2.29013 395.751 2.16967V2.16967Z" fill="#B03A3F"/>
<path d="M402.187 2.97023C401.275 3.31919 399.4 3.71399 401.225 4.25885C401.832 3.80392 400.819 3.50125 402.187 2.97023Z" fill="#B03A3F"/>
<path d="M396.461 2.98795L398.082 3.13881C398.082 2.97209 397.778 2.71453 398.082 2.53253L396.461 2.98795Z" fill="#B03A3F"/>
<path d="M395.65 3.20052L396.461 2.988L395.853 2.94279L395.65 3.20052Z" fill="#B03A3F"/>
<path d="M387.999 1.91499C387.716 2.01971 387.362 2.10506 386.96 2.16536C386.558 2.22567 386.117 2.25949 385.668 2.26451C386.542 2.38663 387.49 2.45332 388.455 2.46039C388.505 2.29365 388.911 1.89945 387.999 1.91499Z" fill="#B03A3F"/>
<path d="M391.344 2.0957C391.344 2.0957 391.394 2.29271 391.344 2.0957V2.0957Z" fill="#B03A3F"/>
<path d="M377.005 2.29882L377.005 2.41969C376.98 2.37976 376.98 2.33877 377.005 2.29882Z" fill="#B03A3F"/>
<path d="M388.506 2.58179C389.216 2.70275 389.621 2.5813 390.026 2.35379C389.497 2.42129 388.929 2.45757 388.354 2.46058C388.304 2.55154 388.304 2.61219 388.506 2.58179Z" fill="#B03A3F"/>
<path d="M382.932 1.59907C383.298 1.73129 383.705 1.85298 384.148 1.96239C383.59 1.75043 382.932 1.43235 382.932 1.59907Z" fill="#B03A3F"/>
<path d="M390.988 1.95935C390.837 1.79325 390.887 1.85366 390.988 1.95935V1.95935Z" fill="#B03A3F"/>
<path d="M390.988 1.95956C390.598 2.07466 390.273 2.20779 390.026 2.35394C390.457 2.30697 390.854 2.23474 391.191 2.14134C391.093 2.08417 391.025 2.02288 390.988 1.95956Z" fill="#B03A3F"/>
<path d="M374.321 6.39186C374.32 5.78563 376.296 5.23917 377.867 5.89023C379.437 5.4349 378.474 3.465 377.156 2.35916C377.173 2.53339 377.026 2.70561 376.73 2.8559C376.434 3.0062 376.002 3.12843 375.485 3.20858C376.042 3.54178 379.032 3.98006 377.664 4.52624C375.485 4.83026 375.89 4.31483 374.877 3.99697C375.739 4.73926 372.141 5.07418 372.547 6.18039L374.472 5.78553C374.472 5.9674 373.814 6.22536 374.321 6.39186Z" fill="#B03A3F"/>
<path d="M380.197 2.4185L380.855 2.41823C380.095 2.31245 379.589 2.07019 378.626 1.58559C378.237 1.66863 377.911 1.77483 377.666 1.89755C377.422 2.02027 377.266 2.15679 377.207 2.29847L380.45 2.38806L380.197 2.4185Z" fill="#B03A3F"/>
<path d="M383.845 2.29564C383.288 2.94758 381.717 3.22106 382.68 3.93299C384.605 3.93219 384.048 3.38683 385.213 3.09838C382.072 3.2664 386.125 2.74936 383.845 2.3714C384.372 2.2793 384.96 2.22222 385.567 2.204C384.998 2.11767 384.456 2.01644 383.946 1.90153C383.946 1.97731 383.946 2.03793 383.946 1.99246L383.946 2.25009C383.034 2.11406 383.946 2.06824 383.946 1.99246C383.946 1.91668 383.946 1.99247 383.946 1.90153L380.805 2.26656C381.784 2.36915 382.845 2.37932 383.845 2.29564Z" fill="#B03A3F"/>
<path d="M399.503 5.66878C399.46 5.61909 399.46 5.56698 399.502 5.51726C399.502 5.51726 399.097 5.63864 399.503 5.66878Z" fill="#B03A3F"/>
<path d="M398.134 5.32094C398.134 5.23 398.59 4.97217 399.299 5.04766C400.009 5.12314 399.299 5.35074 399.299 5.57808C399.755 5.39602 400.87 5.10766 399.299 4.79003L399.299 4.88097C398.037 4.59654 397.114 4.19855 396.664 3.74536C396.934 4.28684 397.428 4.81606 398.134 5.32094Z" fill="#B03A3F"/>
<path d="M390.939 3.97523L388.305 4.29463L389.622 4.85484L389.622 4.52136C391.041 4.65718 390.737 4.23296 390.939 3.97523Z" fill="#B03A3F"/>
<path d="M376.751 1.92006L377.106 1.22274L375.536 2.19337L376.751 1.92006Z" fill="#B03A3F"/>
<path d="M373.307 1.99679L373.459 1.39049L372.547 1.75461L373.307 1.99679Z" fill="#B03A3F"/>
<path d="M181.59 9.018L180.83 9.185C181.127 9.14957 181.388 9.0921 181.59 9.018Z" fill="#B03A3F"/>
<path d="M187.164 9.07578L187.164 8.77264C187.012 8.93942 186.911 9.06073 187.164 9.07578Z" fill="#B03A3F"/>
<path d="M289.961 1.88002C288.847 1.31972 287.63 0.365395 287.783 1.12313L288.087 1.7747C288.393 1.72557 288.746 1.70924 289.087 1.7284C289.428 1.74756 289.736 1.80106 289.961 1.88002Z" fill="#B03A3F"/>
<path d="M232.76 5.67758L233.115 5.88964C233.351 5.65715 233.604 5.4448 233.874 5.25271L232.76 5.67758Z" fill="#B03A3F"/>
<path d="M231.901 8.4213L230.432 7.98242C230.829 8.15413 231.327 8.30281 231.901 8.4213Z" fill="#B03A3F"/>
<path d="M151.242 9.65197L150.33 10.3192C151.698 10.3186 151.09 9.9703 151.242 9.65197Z" fill="#B03A3F"/>
<path d="M338.549 2.16289C337.917 1.95601 337.085 1.81328 336.168 1.75464C337.333 2.13305 338.246 2.70863 338.549 2.16289Z" fill="#B03A3F"/>
<path d="M183.969 2.04514C183.771 2.09295 183.61 2.15287 183.497 2.22091C183.383 2.28894 183.32 2.36342 183.311 2.43939C183.544 2.40234 183.733 2.34447 183.851 2.27376C183.969 2.20306 184.01 2.12314 183.969 2.04514Z" fill="#B03A3F"/>
<path d="M333.381 1.75579L333.888 1.9071C334.569 1.78075 335.372 1.72704 336.168 1.75464C335.306 1.46703 334.343 1.30072 333.381 1.75579Z" fill="#B03A3F"/>
<path d="M41.1948 8.87867L40.9414 8.78784C40.9414 8.87878 41.0428 8.89389 41.1948 8.87867Z" fill="#B03A3F"/>
<path d="M9.3223 2.178C9.75952 2.16067 10.2024 2.16049 10.6397 2.17745C10.3863 2.07147 10.0316 2.08677 9.3223 2.178Z" fill="#B03A3F"/>
<path d="M359.678 1.66942C360.387 1.66913 359.678 1.59364 359.678 1.66942V1.66942Z" fill="#B03A3F"/>
<path d="M363.123 4.27453C362.917 4.36914 362.811 4.48014 362.819 4.59297C362.829 4.48091 362.934 4.37137 363.123 4.27453Z" fill="#B03A3F"/>
<path d="M326.088 5.82056C326.24 5.9569 326.189 5.92661 326.088 5.82056V5.82056Z" fill="#B03A3F"/>
<path d="M360.742 1.9718C360.483 1.88956 360.173 1.82282 359.83 1.77515C360.104 1.85249 360.41 1.91863 360.742 1.9718Z" fill="#B03A3F"/>
<path d="M360.641 1.6685L361.249 1.66825C361.35 1.62274 361.249 1.547 360.641 1.6685Z" fill="#B03A3F"/>
<path d="M358.664 1.7C359.049 1.67698 359.445 1.67681 359.829 1.69952C359.829 1.69952 359.829 1.6996 359.829 1.59351L358.664 1.7Z" fill="#B03A3F"/>
<path d="M100.22 7.24812L100.22 7.17236C99.2069 7.44559 99.6628 7.39991 100.22 7.24812Z" fill="#B03A3F"/>
<path d="M268.431 9.14833C269.596 8.32943 270.204 8.43531 271.014 8.61684L270.203 6.70752L268.431 9.14833Z" fill="#B03A3F"/>
<path d="M168.265 9.17468L170.09 9.7802C167.861 10.7511 166.29 10.4032 167.962 11.2967C168.265 9.23534 175.055 11.1119 175.358 9.05056L176.524 9.48957C176.169 9.48971 176.119 9.58065 175.815 9.56562C178.095 10.5498 177.587 8.04934 180.577 8.38154C181.59 8.53268 182.3 8.83544 181.59 9.07823L183.921 8.57719C184.63 8.57689 184.428 8.97102 183.921 8.94091L187.467 8.77266C188.097 8.4129 188.844 8.0725 189.696 7.75632C190.608 8.0439 189.24 7.96868 189.443 8.22625L191.419 7.72535C191.585 7.83182 191.657 7.94935 191.627 8.06661C191.597 8.18387 191.465 8.29681 191.246 8.39451C191.027 8.49221 190.727 8.57133 190.376 8.62419C190.024 8.67704 189.633 8.70184 189.241 8.69616C191.015 10.7566 190.862 8.18023 194.814 9.39106L192.94 9.64946C194.106 10.816 195.575 10.4062 197.652 11.1631C197.145 10.7844 193.497 9.31582 195.625 8.81479C196.233 8.9661 197.043 9.04155 198.209 8.63186C198.209 9.35935 199.323 9.19212 200.742 9.14606L200.742 10.1161C202.262 9.84263 202.161 9.34256 203.073 8.91781C204.745 9.00806 205.1 9.76571 205.505 10.4324C208.191 10.5828 203.63 9.22073 206.873 9.03751C209.102 9.41549 210.723 9.03591 213.408 8.45887C214.979 8.79165 213.104 9.05009 213.662 9.32267L215.131 8.54909C215.435 8.54897 215.131 8.80674 215.131 8.92799C216.296 8.62439 215.131 7.95802 217.107 7.69955C217.663 6.6384 220.856 9.21357 223.187 8.06076C223.744 8.33333 222.933 8.65197 223.187 9.03076C225.325 8.60223 227.138 8.0437 228.506 7.39169L230.685 8.02731C229.114 7.30048 231.191 6.51149 233.015 5.73779C232.613 5.46217 232.156 5.19416 231.646 4.93514L234.585 4.41858C234.889 4.58517 234.585 4.91876 234.129 5.31301C234.333 5.24455 234.503 5.16793 234.636 5.08542C235.7 5.44872 235.143 6.00972 234.383 6.60112C234.028 6.40424 233.674 6.20734 233.37 6.01044C232.523 6.5787 232.075 7.19272 232.053 7.81454C232.254 7.69542 232.598 7.60331 233.016 7.55652C232.88 7.68478 232.88 7.82244 233.016 7.95058C233.016 8.05668 233.421 7.82918 233.877 7.5865L234.485 8.67743L234.485 8.23794L238.235 8.9336C240.97 7.84124 243.3 6.2489 247.708 5.80756C246.594 6.59613 247.404 7.11106 247.354 8.05075C246.188 7.05094 244.01 8.46135 241.781 8.25009C242.946 8.3557 242.643 8.81046 242.389 8.96212L246.341 8.06634C246.341 8.83929 247.202 8.64186 248.216 8.95971C247.455 7.44443 251.205 7.95818 252.826 7.44221C252.826 7.94236 252.522 8.47298 250.546 8.3374C252.675 9.48836 253.433 6.56291 255.612 7.53199C255.156 7.53218 254.903 7.53229 254.701 7.7294C255.815 7.27426 258.551 7.63686 257.893 8.09181L257.437 8.092C260.629 8.2877 267.164 8.08796 267.569 6.845C267.46 7.44936 267.24 8.05154 266.911 8.64883L272.736 4.32702C272.179 5.43363 274.055 8.07 271.37 8.6925C271.587 8.75932 271.847 8.8124 272.134 8.84861C272.422 8.88482 272.73 8.9034 273.042 8.90327C273.354 8.90314 273.662 8.8843 273.95 8.84786C274.237 8.81142 274.497 8.75812 274.714 8.69112C274.157 8.53979 273.447 7.17606 274.156 6.99389C276.082 8.23588 275.474 7.66023 277.855 8.72016C277.095 8.47798 277.854 6.7347 279.222 6.79476C279.222 7.42819 279.087 8.06102 278.818 8.68942L281.604 6.8847C280.793 7.18816 281.604 8.40033 282.061 8.80935C281.756 8.47604 284.746 8.80821 285.556 8.68663L284.239 8.2931C287.684 8.54933 287.734 5.89701 291.179 6.00167C290.723 6.35045 290.066 8.15428 291.839 8.38089C292.649 7.50151 295.485 4.18125 298.525 3.51313L299.082 4.01298L301.463 3.45123C299.279 5.22352 296.637 6.94245 293.562 8.59238C294.828 8.98591 293.916 9.18329 295.842 9.13703C296.501 9.60659 294.778 9.84978 294.17 9.88035L298.68 10.1816C298.679 9.16617 302.175 9.16475 302.023 8.31608L296.957 9.36394C296.956 8.3485 299.843 6.48308 303.035 6.66363C303.846 7.0725 302.377 8.48268 302.428 8.81609C302.884 8.46731 305.519 8.16307 305.772 8.40546L304.404 8.95162C306.178 9.32978 307.342 7.60154 309.471 8.58579C310.18 8.5855 311.65 9.90341 311.751 9.29713C310.619 7.43679 310.464 5.5347 311.293 3.65936C313.091 4.16033 314.658 4.73047 315.955 5.35489C317.171 6.2789 314.081 7.52296 315.095 8.38643C315.212 8.1214 315.561 7.87031 316.108 7.65856C316.868 7.90074 315.753 8.52258 317.476 8.40062C317.779 7.36989 320.87 8.49012 318.286 7.52121C319.907 7.23258 320.009 7.74783 321.934 7.70156C321.904 7.22599 322.199 6.75352 322.8 6.3129C323.401 5.87227 324.295 5.47273 325.429 5.13876C325.41 5.39661 325.548 5.6533 325.835 5.89639C329.229 6.00108 330.901 6.47025 334.144 6.49922C334.448 6.74159 335.968 7.04404 335.31 7.49899C335.766 7.31693 336.171 6.96818 337.134 6.93747C339.009 7.8309 335.006 7.07474 336.374 8.15024C336.374 7.54401 338.907 7.33081 340.325 6.95132C339.92 6.02698 337.133 6.77077 335.715 7.1351C335.748 6.50457 336.291 5.88559 337.296 5.33097C338.302 4.77636 339.74 4.3026 341.49 3.95C344.124 3.63063 342.605 4.76793 343.06 4.58587C348.127 4.82627 347.315 2.37138 351.369 3.29421C352.991 4.11196 351.37 4.91584 351.775 5.50675C349.597 5.81077 348.482 4.97772 347.063 5.00862L348.837 5.40187C348.127 5.67497 346.709 5.87262 345.949 5.63044C347.266 6.37253 354.207 5.79373 358.008 6.47417C358.666 6.20109 359.831 5.92778 359.325 5.59456L358.109 5.71633C357.044 5.04991 360.388 4.80604 358.868 4.48839C360.489 4.03304 362.313 3.31993 364.593 3.69788L364.999 4.6223C364.999 4.34949 363.529 4.06206 362.871 4.35029C363.833 3.94068 366.316 5.60681 367.38 4.34842L365.809 3.69738C367.43 3.24203 369.456 2.25606 371.483 2.55834C370.571 1.6342 370.977 2.66471 369.608 1.5892C370.774 2.92244 364.542 1.59122 366.417 2.92416C364.998 1.68196 363.883 2.39476 362.008 1.31946C362.008 1.63774 362.667 1.91033 360.995 1.75946L360.64 2.03241C361.047 2.16427 361.327 2.32643 361.451 2.5019C360.641 3.21456 357.956 3.18535 357.044 3.53432C356.03 3.39833 357.449 3.18556 357.044 2.86745L355.676 3.39844C355.675 2.71642 353.091 2.26282 355.675 1.88285L353.598 1.88371C352.331 1.50533 350.608 1.33936 349.544 1.62776C348.582 1.4766 347.011 2.37147 347.923 1.84064L344.579 2.26634L344.579 2.08448C341.286 1.9949 337.791 3.20889 334.092 1.96764C333.503 2.09201 332.825 2.17339 332.112 2.20527C331.399 2.23715 330.672 2.21863 329.988 2.1512L329.633 1.56024C328.214 1.75786 325.427 0.955748 324.566 1.56234C323.096 -0.0284222 317.726 1.20144 315.243 0.914508L315.244 1.6723C313.312 1.68039 311.422 1.84342 309.772 2.1444L309.772 2.82643C307.898 3.38798 305.06 2.3282 302.122 2.40519C302.375 2.13228 303.084 2.20777 303.591 2.40458C300.196 0.890397 296.245 3.49885 293.154 2.40891C292.343 2.65174 291.786 2.56103 291.228 2.4097L290.924 2.40983C290.58 2.28161 290.207 2.16027 289.81 2.04656C290.058 2.17929 290.365 2.30148 290.722 2.40991C289.857 2.44121 289.027 2.52953 288.29 2.66854L287.935 1.94124C287.074 1.68394 287.226 2.29016 287.682 2.83558C287.197 2.96092 286.786 3.10963 286.466 3.27557C285.756 2.0937 284.085 3.6706 283.173 2.41304C282.514 3.01955 278.613 2.86964 278.107 4.1581C278.107 3.99139 277.803 3.9006 278.107 3.90048C277.093 3.74934 276.08 3.5982 275.168 3.9017L274.813 2.96209L272.584 4.20581C271.867 4.00209 271.416 3.72832 271.314 3.43383C271.211 3.13934 271.464 2.84348 272.026 2.59952C268.835 3.69206 269.442 3.0098 266.96 4.11721L266.96 3.5262C265.997 3.52659 264.427 4.34561 263.869 3.84569C261.69 2.7099 253.128 3.66824 247.605 2.59446C248.619 4.36728 245.021 1.79227 244.768 3.17156C244.464 2.74732 243.653 2.50519 244.768 2.15614C241.931 2.55137 240.562 1.47586 238.536 2.62855C238.232 2.20431 239.195 2.02203 238.89 1.76451C238.89 1.85544 237.979 2.12865 237.674 1.88628C237.37 1.64392 238.13 1.53755 238.586 1.35549C235.648 1.3567 235.344 2.7057 235.091 3.90312C233.622 3.3278 232.912 3.41896 231.798 4.20753C231.291 3.81368 230.481 3.38974 232.304 3.25258C231.291 3.253 226.123 2.66406 225.971 3.6341C225.667 3.37657 224.553 3.63469 224.299 3.63479C222.739 3.56014 221.148 3.5608 219.587 3.63674L220.196 3.78801C219.284 4.9554 218.321 4.04645 216.497 4.18361L216.497 4.06234C212.342 3.21533 214.673 4.4723 210.62 3.48884L210.62 4.2163C210.215 5.73206 207.022 3.29332 204.641 3.88538L205.503 4.30944C204.186 4.84044 201.955 2.17386 200.435 1.97746C200.182 1.82601 200.891 1.75 201.296 1.65889C197.952 0.720609 200.841 2.59869 198.307 2.82707C197.851 2.31196 198.915 1.50827 197.243 1.41802C196.381 0.994015 192.177 3.07212 189.947 2.08791C190.454 2.48175 190.961 2.87563 189.948 3.16401C188.935 3.4524 185.134 1.65035 183.462 2.90898C183.269 2.81285 183.164 2.70314 183.158 2.59089C181.79 2.90973 178.649 3.1232 178.092 3.80544C176.875 1.29006 169.48 5.00634 169.58 2.68745L165.324 2.79531L165.324 2.56793C162.639 2.40233 161.676 2.96349 160.714 3.5095C160.055 3.35822 160.714 3.13058 160.714 3.00933C156.761 2.54113 156.356 2.63225 153.013 3.78549L152.658 3.02784C151.746 3.46774 146.983 1.84808 143.082 2.71359C143.131 2.59221 143.288 2.47693 143.538 2.37992C139.13 3.24563 133.404 0.262338 131.429 3.00638L128.541 3.67444C132.29 3.88507 127.984 4.85677 129.504 5.31081C128.035 5.46298 125.704 4.47888 127.528 4.34172L127.781 4.47797C128.49 3.05302 123.171 3.96458 123.322 2.96422C115.976 2.96726 108.831 2.21244 101.992 2.1395L102.752 3.24554L100.32 3.24654C99.7119 2.97399 99.5089 2.36787 101.232 2.42778C100.319 1.79161 98.3439 2.94428 98.2934 3.18679C94.9492 2.7335 99.6101 1.898 98.5968 1.86811L97.2288 1.94443L97.5329 2.08075C96.3677 2.52076 96.2666 3.00571 94.1893 2.94594C92.9225 2.71913 93.581 2.26421 93.0237 2.21897C92.4663 2.17373 93.0236 2.09772 92.2637 2.21929L89.2237 2.11444L90.4401 2.99301C89.0723 3.41794 87.6027 2.99418 88.9711 3.93328C86.9438 2.41852 77.723 3.36199 76.4562 2.87752C75.7207 3.12762 74.7667 3.31142 73.7016 3.40825C72.6364 3.50509 71.5024 3.51109 70.4273 3.42561C70.9847 3.60725 71.2891 4.59234 69.313 4.45676C70.1228 2.44068 65.7154 3.57913 64.2455 2.10961C65.6139 3.07903 58.6216 2.33928 60.8008 3.71756C59.1795 3.55152 60.8005 2.95985 59.483 2.4754C55.5314 3.24999 50.8696 1.94843 46.0058 2.2081C46.0059 2.46575 46.7154 2.87468 45.6515 3.26918L43.1177 1.9365C42.1551 2.05814 42.2064 3.4525 40.4834 2.54386C40.7368 2.7711 41.0916 3.10437 40.4836 3.19556C31.0086 1.86576 21.0283 4.2039 11.4515 1.69198C12.7183 2.20676 11.857 2.25259 10.8437 2.26817C11.5024 2.4043 10.844 2.93502 10.8442 3.29876L6.84117 2.285C6.03093 3.28562 2.48393 2.28677 2.02835 3.30241L3.29493 3.13519C1.57276 4.25744 5.62657 5.6501 5.32318 7.1052C7.29861 5.81613 10.3906 9.01275 13.4804 7.10182C14.1898 7.40465 12.8726 7.57186 13.2274 7.90514C14.0378 7.28341 15.0003 7.16179 16.7738 7.44901L16.7738 7.60063C21.8404 7.46213 23.9179 8.06745 29.4914 8.48951L29.0857 7.7774C30.3018 7.86783 30.5551 8.09499 31.1125 8.27663C32.5307 7.19998 27.7179 8.27811 29.0347 7.01962C30.5553 8.53458 37.4959 7.01611 38.51 8.71315C40.3846 8.71238 38.0029 7.87973 39.8775 7.89411L40.3338 8.34867L40.8402 7.77253C42.0562 7.86296 42.6137 8.43866 42.6646 8.81754C42.3606 8.81766 41.8033 8.92393 41.4993 8.95437C43.0702 9.48418 45.9579 8.78581 46.5659 8.95227L44.7925 8.66504C49.8589 8.26889 56.0404 8.87262 60.9546 7.96123L60.5998 7.6279C64.3488 7.00496 63.5386 8.00558 67.6424 7.71592L67.6424 7.80685C67.9523 7.65141 68.4011 7.52491 68.9382 7.44166C69.4754 7.35842 70.0794 7.32176 70.6821 7.33576C69.669 7.73024 72.6078 8.1079 71.24 8.54799C75.293 7.87945 73.2664 8.03187 75.9512 6.77282L76.5594 7.33333C77.5218 6.83278 77.5724 6.55999 79.6496 6.42273C77.9272 6.89328 80.9166 7.27094 78.9916 7.9386C83.248 9.17962 85.4257 6.70831 87.3517 8.51107C89.3271 6.99466 83.6527 7.64865 84.7672 7.31476C83.855 6.79984 86.4388 6.16226 87.7562 6.31327C89.0735 6.46429 90.0369 8.31289 93.4821 8.28115C93.1275 8.2813 93.1275 8.40256 92.7729 8.38755C94.0397 8.78108 95.3059 7.85607 96.8768 8.50712C97.7884 7.56708 98.9542 8.50626 99.207 7.36946L96.0659 7.62839C97.8391 7.32454 99.5611 5.9295 102.5 6.6103C102.099 6.89021 101.513 7.14305 100.778 7.35364C101.639 7.70187 102.45 7.11048 103.311 7.47387C103.311 8.68634 99.4605 7.73305 97.5356 8.6432C98.4478 9.15813 101.183 7.77786 100.17 9.08169C101.639 7.42909 103.565 9.29247 105.946 8.03354L105.946 8.76099C106.301 8.6396 107.061 8.30589 107.77 8.32075L106.504 9.26093C108.429 8.47203 110.101 9.95661 111.925 9.53148C108.125 9.53306 111.114 8.66796 109.543 8.13815C114.255 7.18138 112.179 10.0164 117.397 9.65049C116.688 9.74172 114.762 9.21205 115.877 8.87815C117.109 9.04295 118.124 9.32485 118.765 9.68018C122.261 9.54232 118.258 8.93779 119.778 8.49764C120.943 9.3762 121.5 8.14829 123.02 7.87485L123.02 8.6024C126.922 9.08578 124.084 7.08628 127.631 7.66074L126.111 8.66171L127.986 8.40331L127.581 9.23704C129.607 8.62996 130.215 8.78125 132.191 9.02292C131.735 8.50781 132.495 7.70421 134.268 7.67316C135.433 8.1122 133.559 8.37067 136.041 8.2787C135.484 8.73361 134.826 9.30978 133.762 8.6282C133.762 8.8707 133.205 9.08314 133.103 9.32568C134.37 9.8253 136.346 9.4456 137.207 9.43009C137.015 9.42612 136.828 9.40909 136.661 9.38027C136.495 9.35144 136.352 9.31162 136.245 9.26379L139.892 8.26194C140.449 8.53451 139.892 8.74698 139.538 8.97446C140.247 8.97417 140.804 8.54956 141.868 8.4885C141.564 9.09486 141.615 9.70107 140.095 10.0048L143.54 9.3517C143.541 9.60935 145.263 10.0785 144.807 10.2908C146.733 10.6386 149.519 9.15217 152.052 9.6058C152.127 9.53934 152.247 9.47811 152.404 9.42592C152.561 9.37374 152.751 9.33168 152.964 9.30229C155.346 9.43771 157.423 10.1795 160.26 9.29927L161.831 10.3595C164.01 10.1313 159.703 9.01152 163.35 8.61595C165.985 8.28143 164.313 9.52489 165.226 9.82763C166.492 9.29665 168.772 8.20449 171.153 9.08255C169.633 9.26505 169.025 9.09859 168.265 9.17468ZM195.422 8.76937C194.915 8.92114 193.852 9.39149 193.497 8.95212C194.104 8.11829 194.561 8.52723 195.473 8.76935L195.422 8.76937ZM236.714 7.10033C236.359 7.34297 235.751 7.22199 235.042 6.93432C235.343 6.90152 235.671 6.90001 235.975 6.93015C236.278 6.96028 236.539 7.02028 236.714 7.10033ZM351.774 2.24828C350.558 1.99114 350.963 2.11218 351.774 2.30887L351.774 2.24828ZM354.206 2.56549C354.29 2.51892 354.334 2.46684 354.334 2.41392C354.334 2.36099 354.29 2.30886 354.206 2.26235C354.206 2.44422 353.446 2.45975 352.838 2.41453C353.142 2.59628 353.446 2.73252 354.206 2.56549ZM92.6691 2.31005L93.1251 2.49172C92.0612 2.70435 92.3652 2.5072 92.6691 2.31005Z" fill="#B03A3F"/>
<path d="M232.001 8.08758C231.972 7.95638 231.972 7.82474 232.001 7.69351C231.861 7.75073 231.785 7.81978 231.785 7.89064C231.785 7.96149 231.861 8.03048 232.001 8.08758Z" fill="#B03A3F"/>
<path d="M151.393 9.53027C151.369 9.57532 151.369 9.62113 151.393 9.66616L151.393 9.53027Z" fill="#B03A3F"/>
<path d="M316.311 8.68928C315.876 8.59321 315.542 8.46188 315.348 8.31078C315.319 8.35491 315.322 8.40038 315.356 8.44417C315.39 8.48796 315.454 8.52905 315.545 8.56481C315.636 8.60057 315.751 8.63018 315.883 8.65163C316.015 8.67308 316.161 8.68591 316.311 8.68928Z" fill="#B03A3F"/>
<path d="M367.125 1.36288L365.555 1.54539C366.315 1.54507 366.619 1.66616 366.974 1.78726C366.923 1.62056 366.669 1.36306 367.125 1.36288Z" fill="#B03A3F"/>
<path d="M380.553 5.90437C380.553 5.90437 381.059 5.90417 381.262 5.81315L381.262 5.46459C380.249 5.49532 379.539 5.76839 380.553 5.90437Z" fill="#B03A3F"/>
<path d="M368.494 3.81771C368.495 4.4391 369.609 4.22647 370.724 4.11992C370.875 3.22566 369.659 3.51411 368.494 3.81771Z" fill="#B03A3F"/>
<path d="M370.977 4.07445C371.307 4.04393 371.66 4.04378 371.99 4.07403C372.091 3.71025 371.585 3.98327 370.977 4.07445Z" fill="#B03A3F"/>
<path d="M357.296 2.17023C357.802 2.33673 357.65 1.38201 357.954 1.63953C358.511 0.790572 354.459 2.58061 357.296 2.17023Z" fill="#B03A3F"/>
<path d="M369.355 5.81792L369 5.06027L368.342 5.66678L369.355 5.81792Z" fill="#B03A3F"/>
<path d="M360.742 5.2456L362.465 5.45709C362.462 5.40438 362.508 5.35246 362.597 5.30699C362.687 5.26152 362.816 5.22419 362.971 5.19916C361.857 5.16931 360.691 5.01828 360.742 5.2456Z" fill="#B03A3F"/>
<path d="M362.973 5.19931C363.216 5.21694 363.471 5.21503 363.711 5.19364C363.952 5.17224 364.169 5.13218 364.341 5.07756C363.856 5.07897 363.382 5.12112 362.973 5.19931Z" fill="#B03A3F"/>
<path d="M366.924 6.04619L366.417 5.87968L365.201 5.83472L366.924 6.04619Z" fill="#B03A3F"/>
<path d="M341.945 5.0566L340.07 5.26958C340.071 5.52723 340.375 5.69376 341.084 5.58737C341.793 5.48099 342.401 5.34437 341.945 5.0566Z" fill="#B03A3F"/>
<path d="M347.469 7.14542C347.041 6.97708 346.762 6.7791 346.658 6.56982L346.659 7.50949L347.469 7.14542Z" fill="#B03A3F"/>
<path d="M342.099 7.36004C342.099 7.61769 339.312 8.10385 341.744 8.04222C341.947 7.78448 343.872 7.57149 342.099 7.36004Z" fill="#B03A3F"/>
<path d="M313.421 6.11404L313.927 6.09867L313.876 4.55279L313.421 6.11404Z" fill="#B03A3F"/>
<path d="M288.04 9.74681C290.27 10.1248 288.597 8.79175 290.624 9.26074C291.13 8.89679 288.952 8.8825 289.509 8.564C288.141 8.94346 287.432 8.73162 288.04 9.74681Z" fill="#B03A3F"/>
<path d="M289.508 8.56371L290.217 8.33613C289.925 8.39468 289.683 8.47253 289.508 8.56371Z" fill="#B03A3F"/>
<path d="M4.05342 1.33158L2.58398 1.01392L3.49618 1.52884L4.05342 1.33158Z" fill="#B03A3F"/>
<path d="M1.21641 2.45415L0.912025 1.4691L0.00037025 2.36372C0.355018 2.33326 0.962998 2.24207 1.21641 2.45415Z" fill="#B03A3F"/>
<path d="M199.425 10.7534L199.425 10.5261C199.425 10.2684 198.868 10.2383 198.209 10.2083L199.425 10.7534Z" fill="#B03A3F"/>
<path d="M179.767 9.98829L180.071 10.0033L179.463 9.10938L179.767 9.98829Z" fill="#B03A3F"/>
<path d="M163.2 11.0866C163.859 11.0863 164.669 10.9192 165.328 10.9644C163.859 11.1166 163.048 9.96508 163.2 11.0866Z" fill="#B03A3F"/>
</g>
<defs>
<clipPath id="clip0_221_1081">
<rect width="438.158" height="11.1396" fill="white" transform="translate(0 0.181396) rotate(-0.0237227)"/>
</clipPath>
</defs>
</svg>
