<svg width="135" height="76" viewBox="0 0 135 76" fill="none" xmlns="http://www.w3.org/2000/svg">
<path d="M112.554 74.9196C113.067 75.0127 112.933 74.4043 113.02 74.2969C112.144 74.3685 112.562 75.0771 112.554 74.9196Z" fill="#B03A3F"/>
<path d="M103.838 75.5496L104.02 75.3206L102.671 75.793L103.838 75.5496Z" fill="#B03A3F"/>
<path d="M95.8169 74.5897C96.4085 75.7206 98.7432 74.8044 100.116 75.3055L100.321 75.5703L101.109 74.8545C99.3347 74.7687 97.0079 75.0621 95.8169 74.5897Z" fill="#B03A3F"/>
<path d="M91.9597 71.7694C92.1411 72.1989 90.9817 71.977 92.9141 72.0414C92.859 72.0035 92.8063 71.9629 92.7563 71.9197C92.4861 71.8926 92.2194 71.8423 91.9597 71.7694Z" fill="#B03A3F"/>
<path d="M92.7571 71.9565C93.5931 72.0424 92.268 71.5486 92.7571 71.9565V71.9565Z" fill="#B03A3F"/>
<path d="M88.8757 71.5703L90.0352 71.3985C89.8537 71.1265 88.8915 70.919 89.2464 70.8116C88.1343 70.8188 88.3315 71.055 88.8757 71.5703Z" fill="#B03A3F"/>
<path d="M87.6857 72.1348L88.2852 72.0775C88.2063 71.963 88.0643 71.9057 87.6857 72.1348Z" fill="#B03A3F"/>
<path d="M89.5547 71.9636L88.2848 72.0782C88.411 72.2714 88.3637 72.5935 88.8606 72.0782C88.7029 72.3358 89.0026 72.0925 89.5547 71.9636Z" fill="#B03A3F"/>
<path d="M90.2088 72.2215C90.7767 72.5436 91.5497 72.8084 90.3823 72.9802C92.5119 73.2021 92.3305 72.4219 90.2088 72.2215Z" fill="#B03A3F"/>
<path d="M95.2331 75.578L96.0218 75.9932L96.8105 75.757C96.4083 75.8715 95.2331 75.2559 95.2331 75.578Z" fill="#B03A3F"/>
<path d="M82.2043 69.8442C82.086 70.0446 82.433 70.4813 82.4567 70.7676L83.3164 70.6745C82.9378 70.4455 82.1806 70.1735 82.2043 69.8442Z" fill="#B03A3F"/>
<path d="M82.4563 70.7685L81.1628 70.8973C82.2276 71.1622 82.4721 71.0118 82.4563 70.7685Z" fill="#B03A3F"/>
<path d="M87.2686 73.2158L89.4219 72.772L86.8743 73.1657L87.2686 73.2158Z" fill="#B03A3F"/>
<path d="M77.6447 68.8861L78.4492 68.5354L77.0532 69.0293L77.6447 68.8861Z" fill="#B03A3F"/>
<path d="M74.6079 68.2988C75.2152 68.0125 74.111 67.4614 74.7104 67.3325C73.9111 67.2692 73.106 67.3544 72.3442 67.5831C73.1674 67.5762 73.9676 67.8292 74.6079 68.2988Z" fill="#B03A3F"/>
<path d="M71.1782 67.7764C71.5783 67.7453 71.9744 67.6806 72.3613 67.5831C71.9575 67.5841 71.5571 67.6496 71.1782 67.7764Z" fill="#B03A3F"/>
<path d="M79.1426 70.3379C79.0864 70.1588 78.9863 69.9937 78.8497 69.8548C78.7131 69.716 78.5435 69.6071 78.3539 69.5362L78.6772 70.252L79.1426 70.3379Z" fill="#B03A3F"/>
<path d="M78.6855 70.2891L77.676 70.0457L78.6855 70.2891Z" fill="#B03A3F"/>
<path d="M79.2617 70.4028H79.1429C79.1746 70.4389 79.1984 70.4677 79.2617 70.4028Z" fill="#B03A3F"/>
<path d="M84.1992 72.1064C83.4105 72.3068 81.833 72.3998 83.166 73.1729C83.7654 72.8508 83.0082 72.4141 84.1992 72.1064Z" fill="#B03A3F"/>
<path d="M79.6559 71.2694L80.9021 71.6631C80.9021 71.4985 80.7444 71.2265 81.1309 71.1334L79.6559 71.2694Z" fill="#B03A3F"/>
<path d="M78.9936 71.3262L79.6641 71.2689L79.2066 71.1186L78.9936 71.3262Z" fill="#B03A3F"/>
<path d="M73.1809 68.8428C72.5437 68.9339 71.8921 68.8973 71.2722 68.7354C71.9563 69.0386 72.6724 69.2784 73.4096 69.4512C73.5595 69.2579 73.9697 68.9931 73.1809 68.8428Z" fill="#B03A3F"/>
<path d="M75.8379 69.6227H75.7112C75.7666 69.6875 75.8221 69.7164 75.8379 69.6227Z" fill="#B03A3F"/>
<path d="M64.6706 67.0388L64.7416 67.1748L64.8047 67.0818L64.6706 67.0388Z" fill="#B03A3F"/>
<path d="M73.496 69.5585C73.6861 69.6511 73.8965 69.7042 74.112 69.7141C74.3275 69.724 74.5427 69.6904 74.7422 69.6158C74.2934 69.5801 73.8479 69.5155 73.4092 69.4225C73.3461 69.4941 73.3461 69.5514 73.496 69.5585Z" fill="#B03A3F"/>
<path d="M69.2517 67.5973C69.5182 67.7991 69.8002 67.9833 70.0957 68.1484C69.8749 67.8979 69.4016 67.4756 69.2517 67.5973Z" fill="#B03A3F"/>
<path d="M75.5636 69.416H75.6582C75.5084 69.2371 75.5162 69.3087 75.5636 69.416Z" fill="#B03A3F"/>
<path d="M75.5609 69.4157C75.2893 69.4502 75.024 69.5176 74.7721 69.6161C75.0923 69.641 75.4142 69.641 75.7344 69.6161C75.6674 69.5562 75.6091 69.4889 75.5609 69.4157Z" fill="#B03A3F"/>
<path d="M61.3816 70.2534C61.6655 69.7381 63.2667 69.6235 64.3236 70.5469C65.6802 70.4681 65.4436 68.4568 64.7179 67.1756C64.6075 67.4046 64.5365 67.6194 63.1878 67.6051C63.5191 68.0202 65.7275 69.0366 64.5129 69.2585C62.7619 69.0867 63.2193 68.693 62.5095 68.192C62.967 69.0581 60.0644 68.6 60.0802 69.6808C60.6086 69.6808 61.1371 69.7237 61.6576 69.7381C61.6419 69.9027 61.0266 70.0029 61.3816 70.2534Z" fill="#B03A3F"/>
<path d="M67.0359 67.8614L67.5723 67.9258C66.9555 67.6349 66.4169 67.2244 65.9948 66.7233C65.0641 66.7591 64.8275 66.9166 64.7091 67.0812C65.5373 67.3245 66.3655 67.5894 67.2016 67.7969L67.0359 67.8614Z" fill="#B03A3F"/>
<path d="M69.907 68.4926C69.3312 68.9936 68.014 68.9363 68.5819 69.7666C70.112 70.103 69.7887 69.5376 70.7746 69.5018C68.2901 69.0437 71.5633 69.3443 69.907 68.5641C70.3662 68.5873 70.8226 68.6448 71.2715 68.7359C70.8654 68.5648 70.4728 68.3687 70.0963 68.149L70.1357 68.2062C70.2225 68.3064 70.2382 68.3566 70.1357 68.285H70.0805C70.0363 68.3607 69.9776 68.4286 69.907 68.4854C69.2366 68.1848 69.836 68.2993 70.0805 68.285C70.0805 68.285 70.1278 68.2349 70.1357 68.2062L67.6039 67.9271C68.3464 68.1916 69.1188 68.3812 69.907 68.4926Z" fill="#B03A3F"/>
<path d="M81.5254 74.2246C81.5043 74.2036 81.489 74.1784 81.4808 74.1511C81.4726 74.1237 81.4716 74.0949 81.4781 74.0671C81.2967 74.1172 81.2336 74.153 81.5254 74.2246Z" fill="#B03A3F"/>
<path d="M80.5867 73.6604C80.7337 73.5801 80.8988 73.5313 81.0697 73.5176C81.2405 73.504 81.4125 73.5259 81.5727 73.5816C82.038 73.8536 81.5017 73.8679 81.478 74.0684C81.8724 73.9753 82.8268 73.8679 81.7777 73.3526L81.5806 73.4027C80.6262 72.9947 79.5219 71.9712 79.7191 71.9354C79.8567 72.5638 80.1538 73.1544 80.5867 73.6604Z" fill="#B03A3F"/>
<path d="M75.082 71.2685L72.9445 71.0968L73.8516 71.8555V71.5262C75.0189 71.9199 74.8691 71.4761 75.082 71.2685Z" fill="#B03A3F"/>
<path d="M64.521 66.681L64.9863 66.1299L63.5351 66.6953L64.521 66.681Z" fill="#B03A3F"/>
<path d="M61.8782 66.0508L62.1543 65.5354L61.3576 65.6571L61.8782 66.0508Z" fill="#B03A3F"/>
<path d="M72.6675 2.83496L73.3379 2.75626C73.1121 2.76218 72.8875 2.78854 72.6675 2.83496Z" fill="#B03A3F"/>
<path d="M68.0067 2.3403L67.8647 2.6123C68.1014 2.46199 68.196 2.3403 68.0067 2.3403Z" fill="#B03A3F"/>
<path d="M8.66887 36.375C8.9607 35.5376 9.68634 34.6214 9.00802 34.8504L8.40859 35.2083C8.60896 35.569 8.69884 35.972 8.66887 36.375Z" fill="#B03A3F"/>
<path d="M30.7539 8.61817L30.4384 8.51079L30.044 9.22656C30.2255 9.05478 30.47 8.84006 30.7539 8.61817Z" fill="#B03A3F"/>
<path d="M30.5733 5.99842L31.8984 6.09863C31.4632 6.01435 31.0179 5.98067 30.5733 5.99842Z" fill="#B03A3F"/>
<path d="M97.7976 7.4873C98.121 7.35131 98.4286 7.23677 98.7441 7.11509C97.6005 6.75005 97.9712 7.22963 97.7976 7.4873Z" fill="#B03A3F"/>
<path d="M35.6602 57.2397C35.1914 56.8195 34.6605 56.4605 34.0827 56.1732C34.7531 56.846 35.1948 57.619 35.6602 57.2397Z" fill="#B03A3F"/>
<path d="M70.018 9.17676C70.4045 9.10518 70.5781 8.99782 70.5859 8.86183C70.1916 8.91909 69.9549 9.01214 70.018 9.17676Z" fill="#B03A3F"/>
<path d="M32.0413 55.3074C32.136 55.4148 32.2464 55.4935 32.341 55.5937C32.9418 55.7121 33.5226 55.9023 34.0684 56.1592C33.8339 55.8767 33.5262 55.6512 33.1726 55.5026C32.8189 55.354 32.4303 55.2869 32.0413 55.3074Z" fill="#B03A3F"/>
<path d="M96.748 58.0776C96.6771 58.0776 96.5903 58.0776 96.5193 58.0776C96.4483 58.0776 96.6218 58.1205 96.748 58.0776Z" fill="#B03A3F"/>
<path d="M69.6542 56.2451C69.9982 56.1807 70.3457 56.1329 70.6953 56.102C70.3416 56.0917 69.9887 56.1402 69.6542 56.2451Z" fill="#B03A3F"/>
<path d="M51.5778 62.6008C52.1299 62.744 51.6882 62.5651 51.5778 62.6008V62.6008Z" fill="#B03A3F"/>
<path d="M53.3281 65.7716C53.2578 65.7801 53.1908 65.8041 53.133 65.8415C53.0753 65.8789 53.0285 65.9287 52.9969 65.9863C53.0719 65.878 53.1909 65.8009 53.3281 65.7716Z" fill="#B03A3F"/>
<path d="M24.9639 56.4091H24.9165C25.0112 56.5737 24.9954 56.5379 24.9639 56.4091Z" fill="#B03A3F"/>
<path d="M52.2871 63.1377C52.0894 62.9884 51.8783 62.8544 51.6561 62.7369C51.8512 62.8893 52.0625 63.0236 52.2871 63.1377Z" fill="#B03A3F"/>
<path d="M52.287 62.8296L52.7366 63.0371C52.8391 62.9584 52.8391 62.8797 52.287 62.8296Z" fill="#B03A3F"/>
<path d="M50.8044 62.3794C51.1015 62.4711 51.387 62.5911 51.6562 62.7373C51.5695 62.6586 51.5379 62.6085 51.5774 62.6013L50.8044 62.3794Z" fill="#B03A3F"/>
<path d="M132.557 30.7426C132.557 30.7856 132.557 30.8357 132.557 30.8858C133.11 31.351 132.944 31.1077 132.557 30.7426Z" fill="#B03A3F"/>
<path d="M2.3578 22.7045C2.3578 22.7045 2.3578 22.7546 2.3578 22.7832L2.42188 22.7045H2.3578Z" fill="#B03A3F"/>
<path d="M3.03849 20.4423C3.15123 20.8371 3.15253 21.2513 3.04224 21.6466C2.93196 22.0419 2.71365 22.4056 2.40751 22.7042C3.1016 22.7042 3.83513 22.7543 4.53711 22.8115C3.98038 22.0527 3.47973 21.2613 3.03849 20.4423Z" fill="#B03A3F"/>
<path d="M83.7655 4.43089L82.3931 3.57912C84.4201 3.04946 85.6821 3.62925 84.4438 2.57708C84.1046 3.50758 82.6297 3.24988 81.1469 3.00652C79.664 2.76316 78.1733 2.63431 77.8815 3.57196L76.9665 3.01369C77.2426 3.07811 77.3136 2.97074 77.5897 3.01369C75.8071 1.79688 75.9096 4.13026 73.4645 3.57912C72.6127 3.32861 72.0448 2.97787 72.6758 2.81325L70.6645 3.07096C70.1045 2.96359 70.2859 2.64865 70.8459 2.74886C69.8521 2.67012 68.8504 2.64863 67.8487 2.63431V2.57708C67.2267 2.90312 66.578 3.18548 65.9084 3.42168C65.1749 3.08527 66.3028 3.24275 66.1293 2.98507L64.4572 3.33579C63.8183 2.78465 65.2459 2.39811 66.3501 2.54842C65.656 1.52488 65.2932 1.62508 64.7174 1.83266C64.2262 2.00373 63.701 2.08001 63.1754 2.05659C62.6499 2.03318 62.1355 1.91058 61.665 1.69666L63.2425 1.48911C62.2723 0.365349 61.0104 0.730377 59.2199 0.000297546C59.6616 0.365334 62.7693 1.81837 60.9315 2.26214C60.583 2.1516 60.2137 2.10542 59.8453 2.12632C59.4768 2.14722 59.1167 2.23475 58.7861 2.38381C58.7861 1.66805 57.8239 1.82553 56.6329 1.91142L56.7038 0.995224C55.4024 1.28869 55.5208 1.71101 54.7715 2.17625C54.3051 2.18178 53.8486 2.05509 53.4654 1.81387C53.0822 1.57265 52.7915 1.22891 52.6339 0.830612C50.2677 0.830612 54.2903 1.86845 51.5692 2.1977C49.6368 1.99729 48.3038 2.43391 46.1032 3.19263C44.7387 3.04232 46.2688 2.60572 45.7561 2.4053L44.6756 3.27851C44.3838 3.27851 44.4468 3.0638 44.4784 2.94212C43.5319 3.34296 44.5257 3.85827 43.0192 4.29489C42.893 4.82456 42.0491 4.55257 41.0079 4.29489C39.9668 4.03722 38.7364 4.00146 37.9082 4.73154C37.3876 4.56691 38.0186 4.1446 37.7978 3.82251C35.3448 5.02499 35.6603 4.73867 33.8541 6.22747L31.898 6.07002C33.4124 6.42075 31.9532 7.60889 30.7307 8.58949C31.2907 8.79706 31.7639 8.98317 32.0637 9.05475L31.0067 9.56296L29.9735 10.1284C29.658 10.064 29.7763 9.69893 30.0208 9.22653C29.8992 9.32874 29.7859 9.43879 29.6817 9.55579C28.7667 9.47706 29.0033 8.84 29.4214 8.18149C29.7526 8.27454 30.0918 8.37478 30.4152 8.48215C30.8017 7.76638 31.1566 7.05061 30.8727 6.59251C30.6771 6.7733 30.4439 6.91689 30.1865 7.01484C30.289 6.82874 30.3442 6.67842 30.2417 6.60685C30.1391 6.53527 29.9498 6.79293 29.6501 7.12934L28.7983 6.31335V6.73568L25.5329 7.04345C24.618 7.83079 23.8765 8.80425 22.9695 9.7419C21.9667 10.7902 20.7906 11.6908 19.4833 12.4117C19.9407 11.3953 19.1047 11.2235 18.734 10.4004C20.0512 10.88 21.1554 9.06905 22.9853 8.58949C22.0388 8.83284 22.0625 8.3676 22.236 8.14571L19.4754 10.0783C19.223 9.36253 18.5762 9.83494 17.6297 9.90651C18.8996 10.9372 15.792 11.746 14.8218 12.7696C14.4827 12.3974 14.5063 11.7961 16.0917 11.1806C14.9796 11.0947 14.6404 11.7389 14.3644 12.3974C14.0883 13.0559 13.8359 13.7144 12.7869 13.7716C13.1339 13.5569 13.3705 13.514 13.3705 13.2277C12.779 14.0293 10.6257 15.0028 10.8071 14.3729L11.1542 14.1438C9.5863 15.0278 8.19428 16.1458 7.03697 17.4507C5.83809 18.8249 5.27809 20.2565 5.71979 20.7361C5.2308 20.3364 4.81306 19.8704 4.48146 19.3546C4.52963 19.8905 4.61125 20.4233 4.72597 20.9508C4.81044 21.4585 4.93164 21.9606 5.08879 22.4539C5.22253 22.9389 5.38579 23.4168 5.5778 23.8854C5.78287 24.3507 5.99585 24.7873 6.21671 25.2096C5.47031 24.8871 4.67117 24.6768 3.85048 24.5869C2.95921 24.3721 2.2099 23.9999 2.38342 22.7974C1.71924 23.5818 1.37378 24.5501 1.4054 25.5388C1.70511 25.1237 3.3378 24.9233 3.25893 25.4959C2.74747 25.7946 2.30533 26.1812 1.95749 26.634L1.57101 27.1851C1.3896 27.4213 1.16875 27.7434 0.845367 28.223C1.17664 27.6002 2.86455 28.545 2.7068 29.4684C2.44652 29.2966 0.916367 29.4684 0.76651 29.0532C1.01102 29.5113 1.31862 29.948 1.59468 30.3703C1.86775 30.7939 2.168 31.2025 2.49385 31.5942C2.1468 31.0001 0.98735 31.5083 0.514114 32.131C0.813828 31.8447 0.671844 34.3714 1.04256 34.9941C1.09258 34.616 1.16631 34.2408 1.2634 33.8703C1.27391 34.3891 1.43657 34.896 1.73462 35.3389C2.03267 35.7817 2.45537 36.1445 2.9592 36.3898C3.37549 36.6309 3.76625 36.9065 4.12653 37.213C4.54883 37.5854 4.85616 38.0519 5.01781 38.5658C4.57611 38.394 2.56483 38.4799 2.92764 39.8899L6.16936 40.6987C6.84767 40.8848 7.55756 41.0924 8.2122 41.3286C8.52216 41.4397 8.82269 41.5712 9.11136 41.7223C9.39244 41.8532 9.65692 42.0116 9.90009 42.1947L9.70291 42.7888C10.184 43.1467 10.7125 43.4616 11.2094 43.7837C9.88544 43.7103 8.57927 43.4694 7.3288 43.0679C5.9109 42.647 4.56888 42.0392 3.34567 41.2642C3.49554 42.3808 2.90398 41.7867 3.77948 43.2039C3.66116 43.9197 2.64369 42.7387 2.40707 42.2878C2.65158 42.8962 2.95132 43.4902 3.25893 44.0772C3.56654 44.6641 3.8978 45.2439 4.23695 45.8236C4.98625 45.1866 6.98178 47.6775 7.59699 47.019C6.98178 46.6253 6.42177 46.1457 5.82233 45.7019C5.22289 45.2582 4.70232 44.7428 4.14232 44.2704C4.54457 43.9555 5.54626 44.1201 6.57951 44.5782C7.74403 45.067 8.76136 45.8036 9.54515 46.7255C9.66346 47.4413 7.77049 47.4413 7.52599 47.6918C8.03078 47.7705 9.81333 49.1233 9.82121 49.4382C9.39529 49.3022 9.03249 49.1448 8.58292 48.9873C9.00071 49.5484 9.63309 49.9488 10.3576 50.1111C10.7466 50.2202 11.1016 50.4113 11.3936 50.6688C11.6856 50.9263 11.9063 51.2429 12.0376 51.5927C12.4714 52.0078 12.637 53.6899 13.1339 53.3034C13.0551 51.8289 15.3897 49.1519 16.4387 48.8871C16.4861 48.9802 16.8962 49.6029 17.33 50.3186C17.7424 50.9185 18.0885 51.5538 18.3633 52.2154C18.4974 52.8167 17.8743 53.0529 17.2275 53.2533C16.5807 53.4537 15.9261 53.5968 16.0444 54.1408C16.2416 53.9476 16.912 53.9905 17.1802 54.0192C17.5824 54.5417 16.4388 54.5488 17.7007 55.193C18.4895 54.4772 20.0669 56.6961 18.7734 54.8423C20.0985 55.2932 19.8934 55.7298 21.3131 56.4599C21.2343 55.6797 23.7504 55.2789 25.0675 55.5938C24.8625 55.7799 24.9571 56.1951 25.0123 56.3883C27.3785 57.6481 28.5301 58.6358 30.8648 59.6451C30.9673 59.9528 31.9769 60.6829 31.2986 60.8619C31.8363 60.7518 32.3974 60.7841 32.9155 60.9549C33.9408 62.3077 31.2355 60.4038 31.8428 61.7637C32.1977 61.2913 34.0907 61.8353 35.2817 61.9427C35.3527 61.0122 32.9707 60.7974 31.7639 60.6901C32.3239 59.5878 34.698 59.2013 37.3798 59.6665C39.462 60.1533 37.8846 60.7116 38.3026 60.6901C41.8913 62.3149 42.3172 59.9743 45.0147 61.8711C45.9218 63.0307 44.4469 63.3026 44.4942 63.9325C42.759 63.6104 42.2147 62.5797 41.1105 62.2075L42.3094 63.0378C41.4966 63.0861 40.6914 62.8705 40.0378 62.4294C40.7634 63.4744 46.2609 64.8916 48.9427 66.4448C49.5579 66.3804 50.5201 66.4448 50.2441 65.9939L49.2818 65.7864C48.6824 64.9131 51.3326 65.5644 50.2835 64.8988C51.6717 64.8988 53.3123 64.6841 54.9134 65.5716V66.5021C54.9686 66.2516 53.9669 65.6503 53.3833 65.7505C54.243 65.6002 55.6233 67.7261 56.83 66.8671C56.4909 66.5594 56.1596 66.2373 55.8284 65.9152C57.2244 65.9152 59.0779 65.4356 60.5213 66.1585C60.1112 65.1278 60.127 66.1585 59.3777 64.863C59.8982 66.3446 55.4734 63.6462 56.5303 65.3569C55.8362 63.8896 54.7793 64.2761 53.6909 62.866C53.6357 63.1523 54.0064 63.5818 52.7759 63.0163C52.6591 63.0792 52.5348 63.1296 52.4052 63.1666L52.3264 63.1165L52.3816 63.1738C52.3106 63.1738 52.3027 63.1738 52.3816 63.1738C52.6026 63.3353 52.7716 63.548 52.8706 63.7894C51.9793 64.2331 49.9601 63.5102 49.1398 63.6033C48.4379 63.2167 49.5894 63.3957 49.2897 62.9662L48.0672 63.1022C48.217 62.4652 46.4897 61.4202 48.4063 61.6707C47.8779 61.4846 47.3494 61.3056 46.8288 61.0981C46.0386 60.3935 45.0223 59.9348 43.9263 59.7882C43.2401 59.3874 41.7415 59.7882 42.6012 59.5305L39.9747 58.9436L40.022 58.7861C37.6558 57.7984 34.5561 57.7626 32.3555 55.5652C31.2753 55.3828 30.2491 54.9976 29.3425 54.4343V53.8187C28.2304 53.5396 26.6844 51.9291 25.9667 52.2226C25.8484 51.3064 24.7599 50.6479 23.5453 50.0753C22.3979 49.606 21.3174 49.0123 20.3272 48.3073L19.7988 48.8585C18.6808 48.1246 17.508 47.4621 16.2889 46.8758L15.8945 47.4126C14.4432 46.9474 13.6466 44.8573 12.2979 43.4043C12.6055 43.3542 12.8894 43.7694 12.9998 44.1201C12.7948 42.753 11.8167 42.0587 10.8624 41.2213C10.3753 40.834 9.93623 40.3995 9.55305 39.9257C9.19637 39.4685 9.01361 38.9182 9.03248 38.3582C8.85457 38.2177 8.71706 38.04 8.63185 37.8405C8.54664 37.6409 8.51631 37.4256 8.54346 37.213C8.55746 37.2551 8.58491 37.2924 8.62234 37.3203L8.55923 37.1199C8.55923 36.8694 8.646 36.6117 8.66966 36.3469C8.58591 36.5618 8.53288 36.7855 8.51191 37.0126C8.28729 36.5188 8.02369 36.0404 7.72317 35.581L8.3936 35.173C8.37583 35.1311 8.35475 35.0905 8.33051 35.0514C8.44882 34.4573 7.85726 34.6863 7.38402 35.1015C7.20028 34.8577 6.9888 34.6322 6.75304 34.4286C7.31304 34.0851 7.11584 33.7129 6.95808 33.3478C6.80034 32.9828 6.68204 32.5319 7.28938 32.174C6.96599 32.0093 6.7767 31.3008 6.57951 30.5778C6.50127 30.2236 6.37405 29.8796 6.20091 29.5543C6.07603 29.2634 5.82932 29.0292 5.51471 28.9029C5.68823 28.9029 5.79866 28.7312 5.76711 29.0532C5.88895 28.7377 5.98645 28.4148 6.05894 28.087C6.16106 27.774 6.16106 27.4408 6.05894 27.1278L7.06063 27.0563C6.79247 26.5266 6.50063 25.954 6.2719 25.3527C7.19472 24.6942 7.62065 24.5511 7.99136 25.546C7.86917 24.9155 7.89876 24.2684 8.07811 23.6492L8.22008 23.0193C8.27529 22.7617 8.29106 22.4109 8.36205 21.8956L8.81953 22.2964C9.15868 21.7739 9.26122 20.4784 9.95531 20.4927C10.9333 20.3137 12.3215 19.0611 14.2461 17.9016C16.2128 16.6117 18.444 15.6918 20.8084 15.196C20.0196 14.5948 20.5875 14.5733 21.2737 14.5518C21.9599 14.5304 22.796 14.5518 22.5988 13.9148C23.0089 14.1868 23.6636 14.1868 23.1588 14.7451C23.9357 14.3267 24.783 14.0269 25.667 13.8576C26.0214 13.7779 26.3596 13.6474 26.6687 13.471C27.0191 13.2799 27.3161 13.0177 27.5363 12.7051C27.9228 13.0058 27.2918 13.4209 27.5915 13.5426C27.7335 13.4138 28.1357 13.0201 28.4433 13.1776C28.751 13.335 28.254 13.5784 27.9859 13.8432C30.0918 13.1275 29.9104 11.9178 29.6895 10.7797C30.9831 10.9587 31.5036 10.7153 32.111 9.81346C32.6237 10.0783 33.3887 10.3002 32.04 10.7583C32.8287 10.6294 36.9381 10.1499 36.7724 9.26231C37.08 9.44841 37.9003 9.13346 38.0896 8.99031C39.3384 8.8562 40.5765 8.65061 41.7967 8.37476L41.284 8.31749C41.773 7.08637 42.7195 7.87372 44.1235 7.55878V7.67333C45.8272 7.86658 46.1663 7.7234 46.4897 7.60173C46.7008 7.51593 46.9288 7.46967 47.1601 7.46573C47.7268 7.49857 48.2891 7.57764 48.8401 7.70194L48.5956 7.02912C48.6745 6.31335 49.4317 6.44935 50.3861 6.71418C51.3403 7.09366 52.3977 7.20583 53.4227 7.03629L52.7128 6.65695C53.7461 6.12729 55.6943 8.60379 56.7038 8.76126C56.9247 8.88294 56.3568 8.97599 56.0492 9.0762C58.723 9.89933 56.3805 8.15288 58.4154 7.93099C58.7861 8.42487 57.9422 9.15496 59.2751 9.27663C59.6064 9.48421 60.5844 9.11916 61.7202 8.81853C62.2872 8.65739 62.8716 8.5518 63.4633 8.5036C64.0161 8.47387 64.5658 8.59609 65.0408 8.85432C64.6622 8.45349 64.2521 8.05267 65.238 7.83794C66.7051 7.83794 68.9687 9.4842 70.3885 8.5036C70.45 8.53835 70.5019 8.58549 70.5402 8.64134C70.5785 8.69719 70.6021 8.76025 70.6093 8.8257C71.7293 8.66108 74.2217 8.71118 74.9947 8.20299C75.2944 9.45558 77.0218 9.43412 78.6466 9.37685C80.2714 9.31959 81.8015 9.31956 81.5097 10.3717L84.846 10.9229L84.6962 11.1233C86.7548 11.7532 87.6303 11.4454 88.5295 11.1233C88.9711 11.3882 88.5295 11.4955 88.4821 11.5957C89.2157 11.8892 89.7835 12.1111 90.2726 12.2685C90.6847 12.4216 91.1128 12.5366 91.5503 12.6121C92.576 12.7037 93.6106 12.67 94.6264 12.5119V13.2277C94.9907 13.2357 95.3455 13.3347 95.6518 13.514C96.1092 13.7358 96.6692 14.0651 97.3081 14.3944C98.6562 15.1747 100.164 15.7005 101.741 15.9404C101.687 15.9991 101.62 16.0458 101.543 16.0768C101.466 16.1079 101.383 16.1224 101.299 16.1194C103.074 16.3556 104.817 17.5079 106.339 18.4241C107.861 19.3403 109.171 19.9917 110.378 19.0898C111.166 19.2115 111.955 19.3331 112.744 19.4763C110.196 18.0448 113.722 18.6746 112.846 17.7728C113.998 18.1378 115.134 19.7912 113.793 19.2616L113.667 19.054C113.075 19.5264 113.824 20.0417 114.645 20.5285C115.465 21.0152 116.325 21.5234 116.017 21.9027C118.42 23.2212 120.617 24.827 122.548 26.6769C123.472 27.5523 124.343 28.4722 125.158 29.4326C125.925 30.2902 126.618 31.1994 127.233 32.1525C127.477 31.8447 127.706 31.5155 127.927 31.1791C128.221 31.6145 128.484 32.0664 128.716 32.5319C128.645 32.9828 128.148 33.312 127.69 32.4245C127.556 32.7967 127.856 33.083 128.235 33.312C128.509 33.498 128.828 33.6231 129.165 33.6771C129.213 34.171 129.102 34.3929 128.96 34.3929C128.818 34.3929 128.653 34.3929 128.463 34.2425C128.116 34.0063 127.738 33.6628 127.809 33.899C127.915 34.097 128.01 34.3001 128.093 34.5074L128.187 34.3356C128.461 34.4906 128.724 34.6603 128.976 34.8438C129.106 34.9719 129.199 35.127 129.247 35.2956C129.295 35.4641 129.297 35.6408 129.252 35.8101C128.937 36.4328 128.526 36.0463 128.424 36.261C128.345 36.261 128.282 36.3039 128.306 36.5831C128.123 37.0133 127.879 37.4199 127.58 37.7927C127.957 37.7785 128.331 37.7354 128.7 37.6639C128.763 38.5014 127.69 39.0095 129.094 38.8378C128.455 38.9949 127.863 39.284 127.367 39.6824C126.728 40.1261 125.955 40.6701 125.151 41.1926C123.573 42.2448 121.791 43.1896 121.246 43.1896C120.229 44.3134 118.88 44.9146 117.145 45.5516C117.642 45.5516 118.328 46.2674 116.806 46.7684C116.467 44.8001 113.761 47.112 111.979 46.2602C112.696 46.4821 111.679 46.9331 110.756 47.3912C109.833 47.8493 108.981 48.3002 110.094 48.608C108.784 48.9014 109.723 47.9709 108.603 47.8922C105.953 49.6387 101.914 49.61 98.294 50.8698C98.294 51.1274 99.0828 51.3279 98.3808 51.9005L96.0146 51.2277C95.3205 51.5426 95.7622 52.8024 94.1532 52.2942C94.4056 52.4516 94.7842 52.6878 94.303 52.8882C90.4382 53.2103 86.7153 54.2482 82.8742 54.9998C79.033 55.7513 75.1051 56.281 71.1299 55.4793C72.2262 55.8587 71.54 55.9804 70.7434 56.0734C71.2719 56.1378 70.7986 56.689 70.9406 57.0254C69.8285 56.8249 68.7085 56.5744 67.6121 56.3096C67.0994 57.3188 64.1417 56.5887 63.8577 57.4978L64.8831 57.2902C63.5659 58.4211 66.9732 59.5735 66.8865 60.9334C67.6279 60.2678 68.6927 60.64 69.9073 60.9334C71.122 61.2269 72.4471 61.3987 73.6302 60.4109C74.2375 60.6328 73.1964 60.8977 73.5434 61.184C74.1271 60.5469 74.9 60.3179 76.3987 60.4038L76.2567 60.5684C80.3424 59.9171 82.188 60.2177 86.881 59.7668L86.392 59.1727C86.9797 59.1044 87.5766 59.1508 88.143 59.3087C89.0343 58.0847 85.3745 59.7954 86.1475 58.4784C86.9362 59.0295 88.6872 58.7146 90.3593 58.3853C92.0315 58.0561 93.6642 57.7554 94.303 58.3853C95.8095 58.0274 93.6484 57.734 95.147 57.3761L95.6597 57.6839L95.8805 57.0683C96.2081 56.9727 96.561 56.9769 96.8857 57.0803C97.2104 57.1837 97.4889 57.3806 97.6788 57.6409C97.3662 57.7255 97.0667 57.8457 96.7875 57.9988C98.2231 58.1778 100.313 56.8751 100.802 56.9252L99.2879 57.0683C103.232 55.6368 108.319 54.6132 111.758 52.423L111.34 52.2226C112.105 51.7002 112.993 51.3451 113.935 51.1847C114.953 51.0434 115.931 50.7225 116.814 50.2399L116.735 50.3544C117.303 49.7557 118.027 49.2956 118.841 49.0159C118.225 49.6816 120.655 49.066 119.819 49.8677C122.564 47.9709 121.096 48.7583 122.516 46.8257L123.242 47.0905C123.576 46.2828 124.22 45.6118 125.056 45.2009C124.054 46.2459 126.491 45.387 125.403 46.6325C126.946 46.3417 128.314 45.5374 129.236 44.3778C130.025 43.4974 130.561 42.8174 131.926 42.6957C131.926 41.5219 131.184 42.0802 130.459 42.6528C129.733 43.2254 128.984 43.9125 129.252 43.4974C128.763 43.569 128.858 43.1323 129.165 42.617C129.497 42.0606 129.914 41.5497 130.404 41.0996C130.798 40.6844 131.531 40.6129 132.399 40.1906C133.018 39.8991 133.551 39.4772 133.953 38.9604C134.355 38.4436 134.615 37.8468 134.71 37.2201C134.615 37.5637 134.71 37.6067 134.631 37.9359C134.96 37.3179 135.072 36.6238 134.955 35.9461C134.821 35.2018 134.821 34.4428 134.955 33.6986C134.54 33.3824 134.261 32.9442 134.166 32.4603C134.016 32.0738 133.85 31.7445 133.211 31.8662C133.686 32.7413 134.019 33.6744 134.197 34.6362C133.878 33.7996 133.379 33.0285 132.73 32.3672C132.016 31.5937 131.479 30.6981 131.153 29.7332C131.701 29.9266 132.19 30.2358 132.581 30.6351C132.533 29.8048 131.634 29.5042 131.5 28.7097C132.076 28.4806 132.659 29.1177 133.211 30.0482C133.736 31.0663 134.32 32.0579 134.962 33.0186C135.104 32.5032 134.6 31.6586 134.213 31.1218C133.827 30.585 133.614 30.2128 134.442 30.406C133.353 30.1197 133.03 29.4469 132.612 28.6739C132.439 28.2269 132.163 27.8184 131.802 27.4754C131.442 27.1324 131.006 26.8627 130.522 26.6841L131.192 26.3548C130.675 26.1374 130.199 25.8475 129.78 25.4959L131.24 25.6748C130.477 25.3103 129.881 24.7116 129.56 23.9856C129.243 23.2729 128.692 22.6657 127.982 22.2463C129.244 23.3128 129.197 23.5991 128.952 23.7494C128.708 23.8997 128.235 23.9498 128.534 24.5797C126.736 23.5705 126.641 22.9263 126.523 22.1318C126.405 21.3373 126.278 20.4354 124.299 19.2687C124.882 19.5336 125.876 20.9293 124.906 20.6072C124.268 20.0077 123.736 19.3219 123.329 18.5744C120.734 17.0713 123.265 19.3904 121.94 19.0469C121.609 17.8372 120.505 18.553 119.259 18.1521L119.653 17.5652C118.336 16.5417 117.918 16.7779 117.579 16.9854C117.24 17.193 116.924 17.4221 115.757 16.5273L117.389 16.2625L115.875 15.7686L116.577 15.2318C114.739 14.9813 114.353 14.6306 112.949 13.743C113.059 14.3371 112.16 14.7809 110.811 14.2226C110.094 13.471 111.6 13.8432 109.691 13.1346C110.314 12.9199 111.04 12.6264 111.569 13.5569C111.758 13.3923 112.199 13.3565 112.357 13.1919C111.569 12.3258 109.92 12.0323 109.202 11.7603C109.458 11.8707 109.688 12.0237 109.881 12.2113C108.808 12.1182 107.743 12.0466 106.67 11.9965C106.347 11.5886 106.781 11.5313 107.223 11.474C106.554 11.4282 105.89 11.3422 105.235 11.2164C105.692 10.7798 105.882 10.2214 107.183 10.429L104.241 9.9924C104.162 9.69894 103.137 8.84718 103.571 8.78992C102.167 7.97395 99.4377 8.56085 97.5921 7.50867C97.3208 7.60444 97.0241 7.62439 96.7402 7.56594C95.8095 7.22953 94.9813 6.77861 94.0664 6.41357C93.0837 5.99012 91.996 5.80752 90.9114 5.88391L89.9019 4.59554C88.0404 4.37366 91.29 6.24895 88.2061 5.88391C86.0134 5.67634 87.654 4.86036 86.9835 4.40228C85.7768 4.65995 83.6945 5.30412 81.9277 4.10878C82.5513 4.1557 83.1675 4.2637 83.7655 4.43089ZM61.0104 2.28359C61.4599 2.1476 62.367 1.72529 62.6746 2.14043C62.1304 2.89914 61.7597 2.51266 61.0104 2.2693V2.28359ZM27.1498 8.3032C27.3785 7.98827 27.9385 7.95245 28.5301 8.0455C28.0991 8.22861 27.625 8.31224 27.1498 8.28888V8.3032ZM45.4249 61.0337H45.3697C44.6046 60.5183 44.8728 60.733 45.4249 61.0337ZM47.1286 61.9713C47.3494 61.9713 47.3731 61.8568 47.3336 61.7351C47.1364 61.8568 46.7263 61.7351 46.2767 61.5061C46.3319 61.7494 46.5291 61.9641 47.1286 62.0071V61.9713ZM128.605 36.44L128.866 36.261C128.937 36.8408 128.787 36.6547 128.605 36.4757V36.44Z" fill="#B03A3F"/>
<path d="M30.5819 6.30615C30.7157 6.37809 30.8186 6.48914 30.8737 6.62109C31.0078 6.47078 30.9763 6.34194 30.5819 6.30615Z" fill="#B03A3F"/>
<path d="M97.5999 7.55957C97.5999 7.55957 97.6472 7.55957 97.663 7.55957C97.7092 7.53589 97.7473 7.50129 97.7734 7.4594L97.5999 7.55957Z" fill="#B03A3F"/>
<path d="M16.4473 54.8848C16.2301 54.6866 16.0749 54.4396 15.9977 54.169C15.8715 54.2764 15.9267 54.5126 16.4473 54.8848Z" fill="#B03A3F"/>
<path d="M57.3262 64.1044L56.08 63.9039C56.4596 63.999 56.8016 64.1902 57.0659 64.4551C57.0974 64.2905 56.9555 64.0042 57.3262 64.1044Z" fill="#B03A3F"/>
<path d="M66.4296 71.1189C66.6346 71.1189 66.8082 71.2048 67.0132 71.169L67.0605 70.8469C66.2482 70.6751 65.6724 70.7896 66.4296 71.1189Z" fill="#B03A3F"/>
<path d="M57.6418 66.6095C57.5393 67.1892 58.3596 67.2179 59.2193 67.3682C59.168 67.3582 59.1178 67.3438 59.0694 67.3252C59.6137 66.6238 58.6277 66.6166 57.6418 66.6095Z" fill="#B03A3F"/>
<path d="M59.4412 67.4044C59.7122 67.4488 59.9768 67.5209 60.2299 67.6191C60.435 67.34 59.9381 67.476 59.4412 67.4044Z" fill="#B03A3F"/>
<path d="M49.614 62.465C49.9453 62.737 50.1424 61.8495 50.2686 62.1501C50.9943 61.5846 47.3188 62.0785 49.614 62.465Z" fill="#B03A3F"/>
<path d="M57.6738 68.6279L57.6107 67.8549L56.9403 68.2629L57.6738 68.6279Z" fill="#B03A3F"/>
<path d="M51.1828 66.0446L52.4606 66.6602C52.4606 66.5385 52.6735 66.5313 52.9102 66.5457C52.0504 66.2737 51.2617 65.8514 51.1828 66.0446Z" fill="#B03A3F"/>
<path d="M52.9093 66.56C53.2593 66.7106 53.6419 66.7888 54.0293 66.7891C53.6644 66.682 53.2895 66.6053 52.9093 66.56Z" fill="#B03A3F"/>
<path d="M55.7344 68.2842L55.3873 68.0193L54.4566 67.6686L55.7344 68.2842Z" fill="#B03A3F"/>
<path d="M37.0174 60.7832C36.5048 60.6687 36 60.5398 35.5031 60.4038C35.2428 60.5684 35.5662 60.8691 36.1341 60.9908C36.5521 60.9693 37.1279 61.091 37.0174 60.7832Z" fill="#B03A3F"/>
<path d="M40.5117 64.2754C40.1804 63.9963 40.2278 63.8317 40.1016 63.5597L39.6835 64.3613L40.5117 64.2754Z" fill="#B03A3F"/>
<path d="M36.2133 62.8382C35.9609 63.0099 33.7997 62.6664 35.6533 63.332C35.9135 63.1817 37.4516 63.5396 36.2133 62.8382Z" fill="#B03A3F"/>
<path d="M16.0291 51.5861L16.3525 51.8008L17.2832 50.6055L16.0291 51.5861Z" fill="#B03A3F"/>
<path d="M0.418863 37.2127C0.505623 38.2076 0.797442 38.2506 1.04983 38.2721C1.30223 38.2935 1.54673 38.2721 1.61772 39.1811C2.13039 39.4889 1.49942 37.7495 1.97266 38.086C1.22337 37.1125 1.30224 36.4469 0.418863 37.2127Z" fill="#B03A3F"/>
<path d="M1.97247 38.0862C2.10485 38.2526 2.24979 38.4104 2.40625 38.5586C2.2854 38.3843 2.13953 38.2255 1.97247 38.0862Z" fill="#B03A3F"/>
<path d="M65.3477 55.7582L64.1724 55.5149L64.9454 55.9658L65.3477 55.7582Z" fill="#B03A3F"/>
<path d="M63.1875 56.9473L62.8641 56.0382L62.2095 56.9115C62.4698 56.8542 62.9745 56.7397 63.1875 56.9473Z" fill="#B03A3F"/>
<path d="M57.5728 0.330048L57.4781 0.559096C57.6753 0.795297 57.9671 0.795278 58.5508 0.852539C58.2511 0.666441 57.9277 0.494673 57.5728 0.330048Z" fill="#B03A3F"/>
<path d="M74.3485 2.11145L74.0645 2.06135L74.4668 2.95605L74.3485 2.11145Z" fill="#B03A3F"/>
<path d="M88.4121 3.57829C87.86 3.41366 87.158 3.42083 86.6059 3.27768C87.8758 3.38504 88.2701 4.63762 88.4121 3.57829Z" fill="#B03A3F"/>
</svg>
