<svg width="236" height="20" viewBox="0 0 236 20" fill="none" xmlns="http://www.w3.org/2000/svg">
<g clip-path="url(#clip0_221_3620)">
<path d="M234.83 6.42912C235.309 6.41073 235.131 6.18981 235.2 6.13923C234.441 6.22829 234.903 6.49225 234.83 6.42912Z" fill="white"/>
<path d="M227.007 7.31719L227.144 7.21004L225.998 7.50577L227.007 7.31719Z" fill="white"/>
<path d="M219.624 7.61276C220.331 8.01119 222.298 7.43218 223.614 7.5315L223.829 7.61916L224.422 7.25475C222.845 7.44824 221.236 7.5683 219.624 7.61276Z" fill="white"/>
<path d="M215.657 6.84207C215.903 7.00046 214.803 7.02471 216.575 6.8608C216.516 6.85076 216.459 6.83893 216.404 6.82539C216.249 6.83134 216.024 6.83998 215.657 6.84207Z" fill="white"/>
<path d="M216.404 6.82528C217.179 6.79553 215.892 6.70709 216.404 6.82528V6.82528Z" fill="white"/>
<path d="M212.817 7.06477L213.839 6.87565C213.624 6.78202 212.708 6.79922 213.043 6.71442C211.991 6.8687 212.275 6.92373 212.817 7.06477Z" fill="white"/>
<path d="M211.855 7.41345L212.388 7.33302C212.288 7.29491 212.147 7.28838 211.855 7.41345Z" fill="white"/>
<path d="M213.51 7.15204L212.388 7.33296C212.532 7.39338 212.551 7.53049 212.908 7.26505C212.814 7.39452 213.034 7.2602 213.51 7.15204Z" fill="white"/>
<path d="M214.147 7.19348C214.728 7.26108 215.463 7.2928 214.44 7.48191C216.396 7.34089 216.103 7.05246 214.147 7.19348Z" fill="white"/>
<path d="M219.261 8.0642L220.041 8.16011L220.697 7.99105C220.362 8.07585 219.214 7.93415 219.261 8.0642Z" fill="white"/>
<path d="M206.426 7.08252C206.429 7.17229 206.787 7.31437 206.862 7.42538L207.619 7.28844C207.223 7.26169 206.488 7.23597 206.426 7.08252Z" fill="white"/>
<path d="M206.861 7.4433L205.74 7.64219C206.755 7.6212 206.936 7.54234 206.861 7.4433Z" fill="white"/>
<path d="M211.705 7.89861L213.552 7.49803L211.339 7.91866L211.705 7.89861Z" fill="white"/>
<path d="M202.115 7.26568L202.741 7.03187L201.612 7.39289L202.115 7.26568Z" fill="white"/>
<path d="M199.243 7.41816C199.715 7.22621 198.583 7.14979 199.072 7.02313C198.349 7.09652 197.658 7.23117 197.041 7.41879C197.772 7.31145 198.549 7.31121 199.243 7.41816Z" fill="white"/>
<path d="M196.049 7.65476C196.393 7.58826 196.725 7.50934 197.041 7.41887C196.687 7.47582 196.352 7.55539 196.049 7.65476Z" fill="white"/>
<path d="M203.837 7.67921C203.746 7.6122 203.617 7.55651 203.461 7.51668C203.305 7.47685 203.126 7.454 202.939 7.44995L203.386 7.69053L203.837 7.67921Z" fill="white"/>
<path d="M203.924 7.67591L203.838 7.6792C203.838 7.6792 203.839 7.70912 203.924 7.67591Z" fill="white"/>
<path d="M208.723 7.78552C208.052 7.95512 206.677 8.16373 208.024 8.32781C208.496 8.13585 207.731 8.03938 208.723 7.78552Z" fill="white"/>
<path d="M204.483 7.97227L205.697 7.97963C205.695 7.91379 205.437 7.82776 205.773 7.74296L204.483 7.97227Z" fill="white"/>
<path d="M203.91 8.07831L204.499 7.9718L204.047 7.97115L203.91 8.07831Z" fill="white"/>
<path d="M198.113 7.80919C197.574 7.92838 196.99 7.99979 196.4 8.01882C197.086 8.04321 197.78 8.04063 198.474 8.01112C198.555 7.93007 198.86 7.77453 198.113 7.80919Z" fill="white"/>
<path d="M200.681 7.77638L200.555 7.78125C200.555 7.78125 200.683 7.82426 200.681 7.77638Z" fill="white"/>
<path d="M190.09 8.27295L190.192 8.317L190.204 8.27455L190.09 8.27295Z" fill="white"/>
<path d="M198.589 8.05472C198.78 8.06883 198.98 8.0637 199.172 8.03968C199.365 8.01566 199.545 7.97342 199.699 7.91624C199.295 7.96362 198.886 7.99537 198.475 8.01115C198.434 8.04869 198.421 8.07318 198.589 8.05472Z" fill="white"/>
<path d="M194.292 7.84811C194.582 7.89105 194.881 7.92564 195.185 7.95168C194.928 7.87762 194.388 7.77849 194.292 7.84811Z" fill="white"/>
<path d="M200.384 7.73414L200.468 7.73089C200.283 7.67209 200.312 7.70093 200.384 7.73414Z" fill="white"/>
<path d="M200.384 7.73399C200.141 7.78305 199.911 7.84422 199.699 7.91611C199.991 7.88885 200.278 7.84973 200.556 7.79932L200.384 7.73399Z" fill="white"/>
<path d="M188.237 9.99238C188.312 9.74974 189.628 9.47746 190.85 9.68231C191.998 9.45841 191.207 8.70956 190.176 8.31758C190.18 8.41933 190.184 8.51509 188.978 8.70525C189.391 8.81525 191.624 8.90334 190.632 9.15721C189.059 9.34348 189.332 9.12316 188.567 9.02669C189.226 9.30106 186.583 9.54041 186.938 9.95835L188.341 9.74864C188.4 9.8183 187.854 9.94714 188.237 9.99238Z" fill="white"/>
<path d="M192.446 8.24876L192.939 8.22983C192.329 8.19593 191.75 8.11019 191.236 7.97755C190.423 8.12264 190.258 8.21889 190.204 8.29886L192.571 8.21397L192.446 8.24876Z" fill="white"/>
<path d="M195.121 8.11588C194.751 8.38784 193.586 8.54647 194.315 8.79419C195.724 8.7401 195.321 8.53979 196.162 8.39362C193.854 8.55415 196.833 8.22399 195.151 8.14472C195.562 8.09181 195.981 8.05172 196.402 8.02476C195.992 8.01305 195.586 7.99061 195.186 7.95756C195.284 7.95378 195.315 8.00656 195.187 7.99347C195.171 8.02967 195.134 8.06418 195.078 8.09358C194.414 8.06514 194.977 8.03151 195.187 7.99347C195.187 7.99347 195.186 7.96354 195.186 7.95157L192.881 8.18392C193.625 8.1966 194.376 8.17379 195.121 8.11588Z" fill="white"/>
<path d="M206.821 8.93129C206.736 8.93454 206.819 8.88941 206.734 8.8747C206.649 8.85999 206.539 8.93613 206.821 8.93129Z" fill="white"/>
<path d="M205.857 8.81852C205.968 8.76841 206.103 8.72909 206.251 8.70364C206.4 8.67819 206.557 8.6673 206.712 8.6718C207.18 8.72577 206.717 8.79152 206.72 8.87531C207.055 8.79649 207.868 8.64541 206.835 8.55921L206.667 8.60161C205.734 8.55352 204.524 8.2823 204.678 8.24044C204.961 8.47064 205.363 8.66791 205.857 8.81852Z" fill="white"/>
<path d="M200.426 8.51134L198.501 8.7171L199.496 8.90072L199.491 8.76903C200.536 8.79483 200.29 8.64244 200.426 8.51134Z" fill="white"/>
<path d="M189.858 8.15589L190.101 7.87084L189.003 8.3026L189.858 8.15589Z" fill="white"/>
<path d="M187.352 8.28814L187.428 8.05148L186.771 8.22055L187.352 8.28814Z" fill="white"/>
<path d="M38.4162 16.1345L38.4984 16.0414C38.3718 16.0942 38.3584 16.1187 38.4162 16.1345Z" fill="white"/>
<path d="M36.7094 16.8532L37.9039 16.7294C37.0882 16.7966 36.5539 16.8471 36.7094 16.8532Z" fill="white"/>
<path d="M125.718 10.7807C124.878 10.5911 123.935 10.2857 124.044 10.5512L124.322 10.7983C124.784 10.7386 125.267 10.7325 125.718 10.7807Z" fill="white"/>
<path d="M83.6002 14.058L83.8429 14.1325L84.3968 13.8595L83.6002 14.058Z" fill="white"/>
<path d="M83.0789 15.1566C82.938 15.162 82.64 15.1195 82.3712 15.0999L81.6074 15.0513L82.2446 15.1107L83.0789 15.1566Z" fill="white"/>
<path d="M64.3511 10.6431C64.3187 10.5548 64.3152 10.4642 64.3408 10.3737C62.4761 10.6851 63.8973 10.5826 64.3511 10.6431Z" fill="white"/>
<path d="M161.646 9.40118C161.071 9.33755 160.471 9.30812 159.865 9.31372C160.731 9.43633 161.43 9.64923 161.646 9.40118Z" fill="white"/>
<path d="M68.598 13.1952C68.0626 13.2157 67.3746 13.3021 66.5454 13.3879C67.0662 13.3559 67.7129 13.2951 68.598 13.1952Z" fill="white"/>
<path d="M157.809 9.42276L158.178 9.46856C158.728 9.39064 159.297 9.34661 159.866 9.33783C159.545 9.2802 159.19 9.25781 158.831 9.27261C158.473 9.28741 158.122 9.33892 157.809 9.42276Z" fill="white"/>
<path d="M30.7776 11.9261L30.5933 11.9033C30.5806 11.9397 30.6652 11.9365 30.7776 11.9261Z" fill="white"/>
<path d="M6.89913 10.3495C7.22265 10.3297 7.54717 10.3172 7.87126 10.3122C7.54875 10.3006 7.2198 10.3132 6.89913 10.3495Z" fill="white"/>
<path d="M179.922 9.50263C179.866 9.51661 179.817 9.53616 179.781 9.55953C179.745 9.5829 179.722 9.60933 179.716 9.6364C179.743 9.58323 179.817 9.53519 179.922 9.50263Z" fill="white"/>
<path d="M152.574 11.2539C152.692 11.2973 152.662 11.2865 152.574 11.2539V11.2539Z" fill="white"/>
<path d="M178.055 8.66922C177.829 8.64413 177.597 8.62698 177.361 8.61792C177.585 8.64653 177.818 8.66375 178.055 8.66922Z" fill="white"/>
<path d="M177.938 8.54769L178.403 8.52984C178.473 8.50918 178.472 8.48524 177.938 8.54769Z" fill="white"/>
<path d="M176.502 8.62707C176.787 8.60369 177.075 8.59264 177.361 8.59407C177.262 8.59786 177.219 8.56959 177.247 8.55654L176.502 8.62707Z" fill="white"/>
<path d="M74.3031 9.32022L74.1904 9.32454C73.6582 9.42889 73.897 9.40174 74.3031 9.32022Z" fill="white"/>
<path d="M110.109 14.3286C110.324 14.2034 110.623 14.1079 110.961 14.0561C111.299 14.0043 111.659 13.9989 111.989 14.0406L111.326 13.3168L110.109 14.3286Z" fill="white"/>
<path d="M48.5449 13.8875L45.2598 14.3194C44.0115 14.1455 46.4655 13.7516 42.4349 14.242C45.4619 14.0718 44.1895 14.3724 42.9171 14.673C41.6446 14.9736 40.3863 15.2737 43.6214 15.0116L41.2494 15.3364C41.5857 15.2756 41.2478 15.2945 41.5841 15.2337C39.0293 15.5775 39.8749 15.5511 40.9738 15.5089C42.0728 15.4667 43.4253 15.4147 41.7149 15.7022C40.6542 15.9133 39.5379 16.0591 38.4017 16.1351C38.3204 16.2221 38.2393 16.3151 38.1721 16.4016C37.4161 16.5565 36.2631 16.6607 37.0191 16.5058L36.3622 16.6689L36.0268 16.7537C36.0268 16.7537 35.9282 16.7575 36.0268 16.7537L36.2804 16.744L38.0979 16.6742L37.8584 16.6834L43.4842 16.2156C43.178 16.3233 42.331 16.3139 41.6014 16.4198L44.9922 16.1697C43.2736 16.422 41.4992 16.5748 39.7185 16.6239C36.9125 17.0374 37.7008 16.9891 39.1074 16.8752C40.514 16.7612 42.4973 16.6012 42.1681 16.8476L39.6476 16.9803C36.7179 17.4824 39.4759 17.2866 39.0084 17.6043C39.4001 17.5173 39.9424 17.3106 40.8938 17.1003C42.185 16.8283 43.5541 16.6423 44.9503 16.549C44.9526 16.6088 45.3912 16.6399 47.7681 16.4408C45.3824 16.7781 46.9449 16.6822 48.2981 16.6482L45.1269 17.1056C47.0826 16.9493 49.0248 16.7487 50.9452 16.5046C52.0889 16.5266 50.1137 16.8962 48.559 17.1956C49.3141 17.2165 50.0811 17.1143 50.7068 16.9093C51.6935 16.6587 52.7941 16.5134 53.9076 16.4867C54.2062 16.5329 54.5289 16.5512 54.855 16.5403C55.1414 16.5385 55.4287 16.5275 55.7144 16.5073L56.8274 16.4646C58.3751 16.3512 60.2732 16.1764 62.4524 15.9729C63.4859 16.0651 60.785 16.2767 60.7891 16.3844L64.1303 15.9444C64.4684 15.9314 63.8524 16.057 63.5302 16.1173C65.4981 15.9219 65.685 15.645 68.0759 15.4453C69.3216 15.1817 69.4825 15.3313 70.1361 15.4501C70.7258 15.5423 71.3623 15.5808 72.0069 15.5633C72.6515 15.5457 73.2906 15.4725 73.8854 15.3481C74.1995 15.4439 72.9506 15.6238 72.7307 15.776C74.9928 15.5274 75.8079 15.4421 76.6082 15.3395C77.631 15.2004 78.6377 15.0356 79.6228 14.8461C80.246 14.9061 80.9395 14.9634 81.6754 15.0191C80.8809 14.9057 81.1426 14.7398 81.6577 14.5582C82.1728 14.3766 83.0546 14.1929 83.6408 14.0265C83.2129 13.9051 82.8279 13.8 82.6145 13.7543L84.7198 13.4636C84.9757 13.5137 84.7271 13.6552 84.4374 13.8281L84.8142 13.7178C85.5946 13.8317 85.2086 14.0683 84.6681 14.3228L83.8842 14.1191C83.3719 14.3725 82.9028 14.6483 83.024 14.8654C83.232 14.8026 83.4662 14.7588 83.7104 14.7371C83.5859 14.8018 83.4896 14.8655 83.5614 14.8987C83.6333 14.9319 83.8557 14.8454 84.204 14.7302L84.7134 15.1362L84.8197 14.9643L87.6476 15.1194C89.6173 14.6062 91.3259 13.9053 94.4888 13.5981C93.7261 13.945 94.3535 14.1187 94.3255 14.4914C93.4369 14.1299 91.8805 14.7531 90.2294 14.7446C91.0902 14.7475 90.9139 14.9341 90.6908 15.0026L93.6075 14.531C93.619 14.8302 94.25 14.7281 95.0297 14.824C94.415 14.2482 97.198 14.3392 98.388 14.0957C98.3956 14.2932 98.1923 14.5108 96.7393 14.5186C98.3627 14.9058 98.7692 13.7334 100.376 14.0493C100.023 14.0629 99.8262 14.0704 99.6883 14.1537C100.513 13.9422 102.504 14.0036 102.088 14.1933L101.652 14.2101C104.021 14.1851 108.851 13.9337 109.169 13.4C109.103 13.649 108.965 13.8959 108.76 14.135L112.921 12.255C112.571 12.706 114.062 13.6857 112.113 14.0123C112.91 14.0903 113.763 14.0576 114.551 13.9187C114.168 13.8734 113.57 13.357 114.088 13.2651C115.516 13.6958 115.099 13.4841 116.932 13.8273C116.351 13.7537 116.902 13.0492 117.861 13.0304C117.724 13.1375 117.971 13.7034 117.636 13.7882L119.864 13.0254C119.305 13.1667 119.803 13.6271 120.316 13.7692C120.071 13.6468 122.274 13.694 122.878 13.6109L121.9 13.4927C124.468 13.49 124.385 12.4442 126.908 12.3773C126.618 12.5323 126.208 13.2613 127.494 13.2959C128.072 12.926 130.022 11.5325 132.252 11.1772L132.696 11.3579L134.406 11.0645C132.731 11.8943 130.869 12.6528 128.849 13.3277C129.813 13.4466 129.126 13.5509 130.548 13.4723C131.062 13.6383 129.784 13.7833 129.362 13.8115L132.705 13.797C132.535 13.402 135.24 13.2922 135.086 12.9624L131.496 13.5258C131.325 13.1248 133.522 12.2972 135.892 12.2721C136.504 12.4105 135.483 13.0071 135.53 13.1372C136.28 12.9395 137.144 12.8474 137.989 12.8749L136.997 13.1288C138.313 13.2281 139.118 12.5079 140.711 12.8304C141.26 12.8093 142.365 13.2823 142.44 13.0397C141.995 12.7186 141.714 12.3574 141.615 11.978C141.515 11.5986 141.599 11.2088 141.861 10.8322C143.08 10.9597 144.258 11.1373 145.381 11.3624C146.296 11.6809 144.005 12.2723 144.863 12.581C144.859 12.4673 145.375 12.3156 145.585 12.2596C146.166 12.3332 145.358 12.6099 146.61 12.5079C146.792 12.0934 149.133 12.4411 147.175 12.1446C148.382 11.9784 148.474 12.1727 149.896 12.1001C149.435 11.8541 151.144 11.1471 152.351 10.9869C152.355 11.0886 152.571 11.2122 152.7 11.2731C155.194 11.1774 156.555 11.335 158.879 11.2457C159.095 11.3393 160.226 11.4098 159.754 11.6077C160.155 11.4596 160.643 11.3635 161.154 11.3322C162.577 11.6252 159.564 11.4472 160.637 11.8315C160.727 11.5883 162.484 11.425 163.437 11.2386C163.113 10.8854 161.081 11.2631 160.058 11.4522C160.039 10.9494 161.794 10.3486 164.236 10.0151C166.161 9.8153 165.094 10.3118 165.429 10.221C169.053 10.1658 168.481 9.21676 171.509 9.46011C172.719 9.73133 171.534 10.1005 171.867 10.3215C170.294 10.5018 169.436 10.211 168.38 10.2696L169.696 10.3689C169.038 10.5277 168.289 10.5902 167.572 10.5463C168.584 10.7952 173.717 10.3583 176.53 10.5081C177.019 10.3814 177.931 10.2325 177.461 10.1247L176.575 10.2007C175.748 9.97467 178.224 9.77773 177.106 9.70076C178.393 9.36172 179.862 9.19033 181.32 9.20932L181.658 9.56195C181.654 9.45422 180.551 9.3887 180.09 9.52026C180.774 9.32618 182.673 9.91258 183.415 9.3926L182.236 9.18614C183.413 8.95517 184.876 8.48538 186.361 8.56026C185.671 8.22712 186.024 8.61513 184.937 8.23729C185.873 8.72881 181.147 8.38281 182.633 8.85922C181.53 8.41609 180.751 8.72767 179.327 8.38675C179.332 8.50646 179.829 8.59523 178.587 8.58299C178.509 8.62803 178.415 8.66806 178.309 8.70157C178.559 8.72769 178.781 8.78351 178.951 8.86276C178.355 9.16133 176.369 9.23159 175.698 9.40718C174.963 9.37545 176.002 9.25166 175.603 9.14112L174.611 9.39498C174.502 9.12944 172.622 9.02782 174.363 8.80514L172.616 8.87221C171.665 8.74705 170.624 8.75556 169.64 8.89656C168.905 8.86484 167.791 9.26723 168.417 9.03341L165.972 9.29509L165.97 9.22926C163.546 9.3223 161 9.87561 158.207 9.52732C157.227 9.67371 156.204 9.73946 155.195 9.72088L154.918 9.50373C153.865 9.62809 151.754 9.39746 151.312 9.64221C150.147 9.08752 146.221 9.71179 144.371 9.67492L144.312 9.98286C142.948 10.0432 141.591 10.1615 140.262 10.3362L140.371 10.6017C138.971 10.8832 136.87 10.5563 134.73 10.6685C134.867 10.5613 135.417 10.5641 135.801 10.6273C133.213 10.1273 130.408 11.2899 128.066 10.9243C127.844 10.973 127.606 11.0029 127.364 11.0122C127.122 11.0215 126.881 11.01 126.657 10.9784C126.703 10.9827 126.752 10.9808 126.798 10.973L126.558 10.9822C126.303 10.9441 126.033 10.9005 125.75 10.8694C125.961 10.9219 126.191 10.9615 126.431 10.9871C125.829 11.0228 125.231 11.0818 124.646 11.1635L124.354 10.887L124.199 10.893C123.532 10.8107 123.683 11.0506 124.043 11.2526C123.731 11.3043 123.434 11.3742 123.162 11.4602C122.609 11.0199 121.435 11.6883 120.684 11.2197C120.242 11.4824 117.352 11.5395 117.019 12.0617C117.017 11.9959 116.804 11.974 117.156 11.9545C116.459 11.879 115.704 11.908 115.015 12.0367L114.677 11.6841L113.09 12.2425C112.095 12.059 111.667 11.9435 112.629 11.6249C110.307 12.1516 110.733 11.8655 108.749 12.3732L108.839 12.136C108.12 12.1636 106.991 12.5366 106.547 12.3559C104.924 11.9747 98.6135 12.6185 94.4696 12.3641C95.3134 13.0269 92.5416 12.1264 92.4075 12.677C92.1616 12.5186 91.5805 12.451 92.2371 12.2819C90.1443 12.5301 89.0714 12.1458 87.652 12.6618C87.392 12.5039 88.0793 12.3996 87.8643 12.312C87.6966 12.3544 87.2077 12.481 86.9786 12.3939C86.7495 12.3068 87.2832 12.2444 87.6043 12.1541C85.4642 12.2722 85.2724 12.7891 85.1498 13.2733C84.7877 13.171 84.3358 13.1358 83.8896 13.1753C83.4435 13.2148 83.0381 13.3259 82.7593 13.485C82.4998 13.3391 82.0568 13.1943 83.0407 13.0966C82.2658 13.1263 80.7217 12.9638 79.9051 13.3788C79.9014 13.283 79.2993 13.402 79.0457 13.4118C78.3041 13.4125 77.5592 13.4411 76.8197 13.4973L76.8222 13.5631C75.7463 13.8381 75.3387 13.8778 75.1123 13.8625C74.8365 13.807 74.5181 13.7939 74.2079 13.8253L74.4737 13.7671C74.2137 13.6093 73.8631 13.6647 73.4136 13.7179C72.9641 13.7711 72.5145 13.8184 72.7889 13.616L70.9824 13.9731C68.839 14.3731 68.7933 14.2849 69.14 14.1278C69.4867 13.9706 70.3252 13.7586 68.7377 13.9394L67.8141 14.1367C66.5645 14.2986 67.8102 14.0349 69.6039 13.7143C71.3976 13.3937 73.8101 13.0194 74.0612 12.9438C74.524 12.8721 75.0298 12.8167 75.4652 12.7641C76.867 12.5244 75.9549 12.6553 74.3968 12.865C72.8386 13.0747 70.8181 13.368 69.8619 13.4527L73.4131 12.9687C74.1097 12.8856 74.7983 12.7871 75.4759 12.6737C74.3849 12.7662 73.3015 12.8818 72.2298 13.0201C70.2347 13.2406 68.1821 13.4333 70.3863 13.1449C68.4482 13.3811 66.6933 13.6103 64.6268 13.8095C63.8531 13.8692 65.3267 13.6628 66.2529 13.5313C66.4201 13.5103 66.5841 13.484 66.7437 13.4525C66.8423 13.4487 66.7437 13.4525 66.8423 13.4487C66.1093 13.4773 65.3793 13.5354 64.662 13.6224L66.5167 13.4193C65.1077 13.4355 63.696 13.4897 62.29 13.5816C68.8832 12.9508 67.9106 12.9762 67.3445 12.932C66.7784 12.8878 66.2398 12.8246 70.7859 12.5301L71.8773 12.2904L72.6663 12.2601C74.0703 12.0804 72.6601 12.0985 71.4595 12.0667C71.956 12.0312 72.4553 12.0121 72.953 12.0094C75.8902 11.7048 75.2298 11.7781 74.4543 11.4243L76.0923 11.4573C75.8507 11.4126 77.0467 11.3247 78.0599 11.2559C79.0732 11.187 79.8889 11.1197 80.2183 10.8793C80.2948 10.9084 80.3415 10.9493 80.3497 10.9941C80.8614 10.7228 81.6688 10.8056 83.6918 10.5781C85.3645 10.412 86.7252 10.2039 86.8997 9.60382L88.7253 9.01227C86.0444 9.37893 88.706 8.50952 87.5639 8.5294C88.5425 8.29403 90.4646 8.3761 89.233 8.63916L88.9935 8.64835C89.0117 9.12117 91.1087 8.61509 92.1085 8.56472L104.599 7.92331L91.4559 7.00139C91.1871 6.98175 91.0305 6.9458 91.0414 6.86146C85.6194 7.12957 80.311 7.04568 75.2252 7.24694L75.8478 7.66058L74.0726 7.72874C73.604 7.65083 73.4257 7.41792 74.6939 7.37522C74.0085 7.16179 72.5891 7.67783 72.5505 7.77521C70.0647 7.70882 73.4888 7.22372 72.7278 7.24694L71.7007 7.32234L71.9422 7.36699C71.1179 7.57845 71.0548 7.7727 69.5327 7.81915C68.5574 7.77269 69.0152 7.56928 68.6343 7.57192C68.633 7.53601 68.5057 7.5289 68.0567 7.59409L65.8307 7.67956L66.7455 7.98609C65.7659 8.19752 64.6462 8.06669 65.7033 8.40372C64.1446 7.86418 57.3562 8.55635 56.4192 8.40652C55.0138 8.68834 53.4973 8.83073 51.9907 8.82232C52.4159 8.87193 52.6844 9.25122 51.2316 9.26504C51.7081 8.44357 48.528 9.03917 47.3084 8.51059C48.3796 8.84708 43.0864 8.79258 44.8538 9.25818C43.6258 9.24539 44.7578 8.96214 43.8208 8.8123C40.9312 9.25291 37.404 8.89088 33.8302 9.15396C33.8344 9.26169 34.3898 9.39618 33.6352 9.58698L31.7523 9.05389C31.0499 9.13481 31.1413 9.67676 29.8318 9.3794C30.0184 9.46214 30.2911 9.58353 29.8416 9.63675C22.7791 9.4344 15.5042 10.6847 8.29756 10.0383C9.27728 10.1985 8.6442 10.2468 7.89795 10.2875C8.3929 10.3164 7.90806 10.5508 8.01197 10.6847L4.99657 10.4228C4.47659 10.8444 1.8 10.5875 1.51884 10.9819L2.46005 10.8738C1.22337 11.3709 4.28701 11.7867 4.14 12.3677C5.52912 11.7989 7.90158 12.9546 10.17 12.1362C10.6818 12.2364 9.74063 12.3445 10.0275 12.4654C10.5955 12.1918 11.2978 12.1109 12.612 12.1623L12.4734 12.2276C16.1617 12.0081 17.7486 12.1809 21.896 12.1595L21.5753 11.8901C22.1008 11.8864 22.6132 11.9322 23.076 12.0243C24.0737 11.5485 20.5823 12.1201 21.4792 11.5941C22.6998 12.1466 27.7488 11.3534 28.5466 11.9222C29.9555 11.8681 28.1257 11.6147 29.492 11.5562L29.8652 11.7217L30.1944 11.4753C31.0975 11.4766 31.613 11.6726 31.6187 11.8222C31.3327 11.8395 31.0499 11.8704 30.7757 11.9145C31.9529 12.0731 34.0549 11.6987 34.4529 11.7733L33.1387 11.7219C36.851 11.3935 41.437 11.4033 45.0159 10.9062L44.7291 10.7854C47.5367 10.4139 46.9463 10.8381 49.9701 10.5842L49.8585 10.6184C50.5474 10.4454 51.3162 10.3478 52.0911 10.3349C51.3365 10.5257 53.5115 10.5801 52.5603 10.7964C55.522 10.395 53.9607 10.5208 55.9559 9.93477L56.4293 10.1384C56.7186 10.0049 57.063 9.89528 57.4426 9.8159C57.8222 9.73651 58.2295 9.6889 58.6409 9.67584C57.4086 9.92094 59.6259 9.97367 58.2553 10.29C61.4573 10.6346 62.9271 9.59518 64.4333 10.2386C65.8192 9.58604 61.6031 10.0237 62.4713 9.85246C61.7734 9.68146 63.6369 9.34016 64.6395 9.3616C65.6421 9.38304 66.4162 10.0666 68.9653 9.94474C68.7117 9.95448 68.6995 10.0029 68.4456 10.0067C69.4097 10.1255 70.2969 9.71384 71.4759 9.92031C72.1095 9.51837 72.9975 9.86187 73.1627 9.38801L70.8288 9.6035C72.1481 9.42099 73.3522 8.81131 75.5459 8.98482C75.1835 9.13277 74.7613 9.25083 74.3035 9.33221C74.9568 9.44499 75.5253 9.18341 76.193 9.30163C76.042 9.78094 73.3798 9.52951 71.9849 9.94869C72.6829 10.1197 74.648 9.48683 73.9636 10.0346C74.9527 9.33727 76.488 10.0036 78.1732 9.42941L78.0856 9.72046C78.4896 9.60695 78.9381 9.52853 79.4031 9.49007L78.5297 9.89522C79.9264 9.52392 81.2308 10.0552 82.5624 9.82431C79.7446 9.9325 81.9153 9.50749 80.7101 9.35597C84.1465 8.82244 82.7529 10.0088 86.6222 9.72836C86.0885 9.79081 84.6295 9.64304 85.4416 9.48C86.2089 9.49105 86.9537 9.56413 87.6369 9.6954C90.1983 9.52513 87.2173 9.42379 88.2952 9.20259C89.1959 9.50966 89.5434 9.00486 90.6661 8.84787L90.6769 9.12914C91.0004 9.1333 91.3268 9.12077 91.649 9.09182L90.5929 6.57299C89.1925 6.84853 90.8554 7.16232 88.5626 7.34625L89.3313 6.78927L88.1021 7.11216L88.0885 6.75907C87.202 7.11814 86.0752 7.34546 84.8962 7.40309C85.3669 7.53487 85.0994 7.91674 83.8803 8.13737C82.9202 8.12028 84.1497 7.80338 82.4694 8.13761C82.7424 7.89936 82.9998 7.61975 83.9636 7.73259C83.9599 7.63683 84.2087 7.50142 84.2188 7.39914C83.1887 7.45789 82.1863 7.61528 81.2876 7.85933C81.529 7.83088 81.7774 7.82134 82.0202 7.83121L80.9069 8.23357C80.493 8.39243 80.0555 8.53943 79.5975 8.67345C78.9071 8.69996 79.2811 8.51776 79.7121 8.35136C78.9146 8.52584 78.4992 8.73357 77.3929 8.94987C77.3837 8.71047 76.8832 8.53788 78.673 8.11553L74.8987 9.03367C74.4601 9.00256 72.0837 9.21365 72.4729 9.06084C71.1294 9.25085 69.846 9.52445 68.6662 9.87234C67.3768 10.2547 65.9544 10.5407 64.4658 10.7169C64.4674 10.7588 64.4697 10.8186 63.9521 10.9344L59.0825 11.6249C57.8746 11.7402 56.7384 11.9909 55.7946 12.3505L51.2668 12.7521C50.5131 12.9669 52.0171 12.8192 53.3538 12.7199C54.6904 12.6206 55.8311 12.5649 54.7702 12.8633C53.6142 13.2554 51.3101 13.146 49.6672 13.3529C50.0972 13.5282 51.6971 13.6706 47.1472 14.2349C47.2138 14.1304 48.1963 13.9968 48.5449 13.8875ZM44.9383 16.6033C43.9819 16.682 41.4507 16.9051 42.5996 16.6931C45.9724 16.3419 44.9771 16.5119 44.9383 16.6033ZM86.5936 14.4946C86.3014 14.6017 85.8487 14.5711 85.3374 14.4829C85.7596 14.4411 86.1918 14.4451 86.5936 14.4946ZM171.438 9.05529C170.504 8.99523 170.816 9.04917 171.438 9.05529V9.05529ZM173.245 9.10576C173.413 9.05738 173.397 9.022 173.325 8.98281C173.201 9.0595 172.793 9.08119 172.341 9.08055C172.457 9.14804 172.684 9.19323 173.231 9.1063L173.245 9.10576ZM68.4955 7.63121L68.8646 7.68896C68.0647 7.80358 68.2733 7.72365 68.4814 7.63175L68.4955 7.63121Z" fill="white"/>
<path d="M83.1588 15.028C83.0648 14.9881 83.0038 14.9361 82.9838 14.8788C82.7743 14.9348 82.7766 14.9947 83.1588 15.028Z" fill="white"/>
<path d="M64.367 10.6904L64.4797 10.6861C64.4442 10.6713 64.4002 10.6607 64.3516 10.655L64.367 10.6904Z" fill="white"/>
<path d="M145.46 12.6776C145.193 12.6702 144.941 12.6299 144.736 12.5615C144.767 12.6323 144.882 12.6818 145.46 12.6776Z" fill="white"/>
<path d="M182.694 8.23323L181.542 8.3554C181.902 8.33067 182.264 8.34785 182.588 8.40512C182.614 8.3382 182.385 8.25112 182.694 8.23323Z" fill="white"/>
<path d="M192.835 9.61189C193.003 9.56949 193.187 9.5984 193.355 9.55001L193.35 9.41832C192.617 9.45244 192.086 9.5867 192.835 9.61189Z" fill="white"/>
<path d="M183.858 9.14768C183.952 9.38383 184.681 9.27191 185.482 9.1932L185.341 9.19861C185.54 8.85533 184.699 9.00151 183.858 9.14768Z" fill="white"/>
<path d="M185.665 9.18002C185.913 9.15858 186.163 9.14896 186.412 9.15135C186.505 9.00392 186.114 9.1268 185.665 9.18002Z" fill="white"/>
<path d="M175.51 8.86902C175.893 8.92025 175.723 8.54916 175.952 8.64225C176.362 8.29685 173.416 9.09924 175.51 8.86902Z" fill="white"/>
<path d="M184.551 9.91829L184.244 9.6304L183.802 9.89309L184.551 9.91829Z" fill="white"/>
<path d="M178.162 9.96564L179.447 9.99423C179.445 9.94635 179.585 9.91102 179.795 9.87897C178.991 9.89185 178.116 9.87151 178.162 9.96564Z" fill="white"/>
<path d="M179.795 9.90276C180.144 9.90335 180.494 9.87148 180.821 9.80939C180.476 9.82867 180.133 9.8599 179.795 9.90276Z" fill="white"/>
<path d="M182.794 10.0816L182.411 10.0364L181.494 10.0476L182.794 10.0816Z" fill="white"/>
<path d="M164.282 10.4628L162.877 10.6007C162.74 10.7139 163.122 10.7591 163.642 10.6972C164.162 10.6353 164.441 10.5526 164.282 10.4628Z" fill="white"/>
<path d="M168.582 11.1067C168.185 11.062 168.169 10.9967 167.939 10.9036L167.954 11.2806L168.582 11.1067Z" fill="white"/>
<path d="M164.471 11.3606C164.334 11.4738 162.44 11.7383 164.228 11.6457C164.365 11.5385 165.771 11.3947 164.471 11.3606Z" fill="white"/>
<path d="M143.239 11.7502L143.591 11.7307L143.511 11.1224L143.239 11.7502Z" fill="white"/>
<path d="M124.6 13.964C126.282 14.0433 124.98 13.5718 126.494 13.6935C126.883 13.5347 125.249 13.5915 125.652 13.4501C124.644 13.6447 124.119 13.5809 124.6 13.964Z" fill="white"/>
<path d="M125.652 13.4501L126.156 13.3409C125.977 13.3657 125.807 13.4027 125.652 13.4501Z" fill="white"/>
<path d="M2.95644 10.2013L1.88086 10.1167L2.57903 10.2937L2.95644 10.2013Z" fill="white"/>
<path d="M0.918155 10.7412L0.649619 10.3619L0.0291832 10.7394C0.268004 10.7122 0.77382 10.6568 0.918155 10.7412Z" fill="white"/>
<path d="M41.954 17.4848L42.8243 17.3674C43.4408 17.2538 43.2006 17.2451 42.7061 17.2281L41.954 17.4848Z" fill="white"/>
<path d="M36.722 16.0975L36.358 16.1714L39.9121 15.7652L36.722 16.0975Z" fill="white"/>
<path d="M47.1667 13.2569C46.4246 13.4053 46.3026 13.5359 45.5882 13.6712C46.4385 13.3988 50.5598 13.0667 47.1667 13.2569Z" fill="white"/>
</g>
<defs>
<clipPath id="clip0_221_3620">
<rect width="235.231" height="9.16981" fill="white" transform="translate(0 9.98511) rotate(-2.19874)"/>
</clipPath>
</defs>
</svg>
