<svg width="114" height="65" viewBox="0 0 114 65" fill="none" xmlns="http://www.w3.org/2000/svg">
<path d="M94.9867 0.917907C95.4209 0.838317 95.3074 1.35871 95.3809 1.45054C94.6392 1.38932 94.9933 0.783217 94.9867 0.917907Z" fill="#B03A3F"/>
<path d="M87.6041 0.379055L87.7578 0.574967L86.6153 0.170898L87.6041 0.379055Z" fill="#B03A3F"/>
<path d="M80.8099 1.20007C81.311 0.232758 83.2886 1.01641 84.4511 0.587849L84.6248 0.361328L85.293 0.973554C83.7897 1.04702 81.8187 0.796005 80.8099 1.20007Z" fill="#B03A3F"/>
<path d="M77.5431 3.61291C77.6968 3.24557 76.7147 3.43536 78.3516 3.38026C78.3049 3.41264 78.2603 3.4474 78.2179 3.48435C77.9891 3.50752 77.7631 3.55056 77.5431 3.61291Z" fill="#B03A3F"/>
<path d="M78.2165 3.45311C78.9247 3.37964 77.8023 3.80207 78.2165 3.45311V3.45311Z" fill="#B03A3F"/>
<path d="M74.93 3.7832L75.9121 3.93013C75.7584 4.16278 74.9433 4.34033 75.244 4.43216C74.3019 4.42604 74.469 4.22401 74.93 3.7832Z" fill="#B03A3F"/>
<path d="M73.9219 3.2998L74.4297 3.34879C74.3629 3.44675 74.2426 3.49572 73.9219 3.2998Z" fill="#B03A3F"/>
<path d="M75.5039 3.44634L74.4282 3.34838C74.5351 3.18308 74.4951 2.90758 74.916 3.34838C74.7823 3.12798 75.0362 3.33614 75.5039 3.44634Z" fill="#B03A3F"/>
<path d="M76.0581 3.22655C76.5391 2.95105 77.1939 2.72453 76.2051 2.57759C78.009 2.3878 77.8553 3.05513 76.0581 3.22655Z" fill="#B03A3F"/>
<path d="M80.3141 0.355083L80.9823 0L81.6504 0.202026C81.3096 0.10407 80.3141 0.630584 80.3141 0.355083Z" fill="#B03A3F"/>
<path d="M69.2767 5.2595C69.1765 5.08808 69.4704 4.71462 69.4905 4.46973L70.2188 4.54932C69.8981 4.74523 69.2567 4.97788 69.2767 5.2595Z" fill="#B03A3F"/>
<path d="M69.4916 4.46902L68.3959 4.35883C69.2978 4.1323 69.505 4.26087 69.4916 4.46902Z" fill="#B03A3F"/>
<path d="M73.5667 2.37598L75.3906 2.75556L73.2326 2.41883L73.5667 2.37598Z" fill="#B03A3F"/>
<path d="M65.4162 6.0785L66.0977 6.37849L64.9151 5.95605L65.4162 6.0785Z" fill="#B03A3F"/>
<path d="M62.8438 6.58105C63.3583 6.82595 62.4229 7.29736 62.9307 7.40756C62.2536 7.46177 61.5716 7.38886 60.9263 7.19328C61.6236 7.19915 62.3015 6.98272 62.8438 6.58105Z" fill="#B03A3F"/>
<path d="M59.9373 7.02832C60.2762 7.0549 60.6117 7.11025 60.9395 7.19363C60.5974 7.19275 60.2582 7.13679 59.9373 7.02832Z" fill="#B03A3F"/>
<path d="M66.6855 4.83691C66.638 4.99006 66.5532 5.13132 66.4375 5.25008C66.3217 5.36885 66.1781 5.46203 66.0174 5.5226L66.2914 4.91038L66.6855 4.83691Z" fill="#B03A3F"/>
<path d="M66.2969 4.87891L65.4417 5.08706L66.2969 4.87891Z" fill="#B03A3F"/>
<path d="M66.7852 4.78201H66.6837C66.7107 4.7512 66.731 4.72655 66.7852 4.78201Z" fill="#B03A3F"/>
<path d="M70.9688 3.32432C70.3006 3.1529 68.9644 3.07331 70.0935 2.41211C70.6013 2.68761 69.9599 3.06106 70.9688 3.32432Z" fill="#B03A3F"/>
<path d="M67.1198 4.04084L68.1754 3.7041C68.1754 3.84491 68.0418 4.07757 68.3691 4.15716L67.1198 4.04084Z" fill="#B03A3F"/>
<path d="M66.5571 3.99219L67.125 4.04117L66.7375 4.16973L66.5571 3.99219Z" fill="#B03A3F"/>
<path d="M61.6336 6.1161C61.0938 6.03815 60.5419 6.06949 60.0167 6.20793C60.5962 5.94857 61.2028 5.74345 61.8273 5.5957C61.9543 5.761 62.3017 5.98753 61.6336 6.1161Z" fill="#B03A3F"/>
<path d="M63.8867 5.44871H63.7784C63.8258 5.39325 63.8732 5.3686 63.8867 5.44871Z" fill="#B03A3F"/>
<path d="M54.4245 7.65927L54.4851 7.54297L54.5391 7.62254L54.4245 7.65927Z" fill="#B03A3F"/>
<path d="M61.9014 5.50369C62.0625 5.42452 62.2407 5.37906 62.4232 5.37059C62.6058 5.36212 62.7881 5.39086 62.957 5.45472C62.5769 5.48525 62.1995 5.54048 61.8279 5.62002C61.7745 5.55879 61.7745 5.50981 61.9014 5.50369Z" fill="#B03A3F"/>
<path d="M58.3066 7.18137C58.5323 7.00877 58.7712 6.85123 59.0215 6.70996C58.8344 6.92424 58.4335 7.28545 58.3066 7.18137Z" fill="#B03A3F"/>
<path d="M63.6516 5.62598H63.7324C63.6044 5.77903 63.6111 5.71781 63.6516 5.62598Z" fill="#B03A3F"/>
<path d="M63.6518 5.62586C63.4218 5.59634 63.1971 5.53868 62.9837 5.45444C63.2549 5.43316 63.5276 5.43316 63.7988 5.45444C63.7421 5.50566 63.6927 5.56325 63.6518 5.62586Z" fill="#B03A3F"/>
<path d="M51.6394 4.90922C51.8799 5.35002 53.2362 5.44797 54.1315 4.6582C55.2807 4.72555 55.0802 6.44591 54.4656 7.5418C54.372 7.34589 54.3119 7.16221 53.1694 7.17446C53.45 6.81937 55.3208 5.95001 54.2919 5.76022C52.8086 5.90715 53.1962 6.24387 52.5948 6.67243C52.9824 5.93164 50.5237 6.32347 50.537 5.39901C50.9847 5.39901 51.4323 5.36227 51.8733 5.35002C51.8599 5.20921 51.3388 5.1235 51.6394 4.90922Z" fill="#B03A3F"/>
<path d="M56.4285 6.95549L56.8828 6.90039C56.3604 7.14916 55.9042 7.50032 55.5466 7.92893C54.7582 7.89831 54.5578 7.76362 54.4575 7.62281C55.1591 7.41466 55.8606 7.18813 56.5688 7.01059L56.4285 6.95549Z" fill="#B03A3F"/>
<path d="M58.8617 6.41516C58.374 5.9866 57.2582 6.03558 57.7393 5.3254C59.0354 5.03766 58.7615 5.52133 59.5967 5.55194C57.4921 5.94377 60.2648 5.68663 58.8617 6.35395C59.2508 6.33414 59.6374 6.28498 60.0176 6.20701C59.6736 6.35334 59.341 6.52108 59.0221 6.70904L59.0555 6.66007C59.129 6.57436 59.1423 6.53149 59.0555 6.59271H59.0087C58.9713 6.52797 58.9215 6.46991 58.8617 6.42129C58.2938 6.67842 58.8016 6.58047 59.0087 6.59271C59.0087 6.59271 59.0488 6.63558 59.0555 6.66007L56.9108 6.89883C57.5398 6.67263 58.1941 6.51043 58.8617 6.41516Z" fill="#B03A3F"/>
<path d="M68.7031 1.5127C68.6853 1.53062 68.6723 1.55218 68.6653 1.5756C68.6584 1.59902 68.6576 1.62363 68.663 1.64739C68.5094 1.60453 68.4559 1.57392 68.7031 1.5127Z" fill="#B03A3F"/>
<path d="M67.9081 1.99544C68.0326 2.06411 68.1725 2.10587 68.3172 2.11754C68.4619 2.12921 68.6076 2.11049 68.7432 2.06279C69.1374 1.83015 68.6831 1.81791 68.6631 1.64648C68.9971 1.72607 69.8056 1.81791 68.917 2.25871L68.7499 2.21585C67.9415 2.56482 67.0061 3.44029 67.1732 3.4709C67.2897 2.93344 67.5413 2.42826 67.9081 1.99544Z" fill="#B03A3F"/>
<path d="M63.2441 4.04109L61.4335 4.18802L62.2019 3.53906V3.82068C63.1907 3.48396 63.0637 3.86355 63.2441 4.04109Z" fill="#B03A3F"/>
<path d="M54.2992 7.96537L54.6934 8.43678L53.464 7.95312L54.2992 7.96537Z" fill="#B03A3F"/>
<path d="M52.0591 8.50391L52.293 8.94471L51.6181 8.84063L52.0591 8.50391Z" fill="#B03A3F"/>
<path d="M61.1997 62.5752L61.7676 62.6425C61.5763 62.6374 61.3861 62.6149 61.1997 62.5752Z" fill="#B03A3F"/>
<path d="M57.2506 62.9983L57.1304 62.7656C57.3308 62.8942 57.411 62.9983 57.2506 62.9983Z" fill="#B03A3F"/>
<path d="M6.98832 33.8867C7.23553 34.603 7.8502 35.3867 7.27561 35.1907L6.76785 34.8846C6.93757 34.5761 7.01371 34.2315 6.98832 33.8867Z" fill="#B03A3F"/>
<path d="M25.6953 57.6288L25.4281 57.7206L25.094 57.1084C25.2477 57.2553 25.4548 57.439 25.6953 57.6288Z" fill="#B03A3F"/>
<path d="M25.5416 59.8699L26.6641 59.7842C26.2954 59.8563 25.9182 59.8851 25.5416 59.8699Z" fill="#B03A3F"/>
<path d="M82.4873 58.5957C82.7612 58.712 83.0218 58.81 83.2891 58.9141C82.3203 59.2263 82.6343 58.8161 82.4873 58.5957Z" fill="#B03A3F"/>
<path d="M29.8516 16.0408C29.4545 16.4002 29.0048 16.7072 28.5153 16.953C29.0832 16.3775 29.4574 15.7163 29.8516 16.0408Z" fill="#B03A3F"/>
<path d="M58.9565 57.1514C59.2838 57.2126 59.4308 57.3044 59.4375 57.4207C59.1034 57.3718 58.903 57.2922 58.9565 57.1514Z" fill="#B03A3F"/>
<path d="M26.7849 17.6934C26.8651 17.6016 26.9586 17.5342 27.0388 17.4485C27.5477 17.3472 28.0397 17.1846 28.502 16.9648C28.3033 17.2065 28.0427 17.3994 27.7431 17.5265C27.4436 17.6536 27.1144 17.7109 26.7849 17.6934Z" fill="#B03A3F"/>
<path d="M81.5977 15.3244C81.5375 15.3244 81.464 15.3244 81.4039 15.3244C81.3438 15.3244 81.4908 15.2866 81.5977 15.3244Z" fill="#B03A3F"/>
<path d="M58.6474 16.8916C58.9388 16.9467 59.2332 16.9875 59.5293 17.0141C59.2296 17.0229 58.9307 16.9813 58.6474 16.8916Z" fill="#B03A3F"/>
<path d="M43.3362 11.4555C43.8038 11.333 43.4297 11.4861 43.3362 11.4555V11.4555Z" fill="#B03A3F"/>
<path d="M44.8164 8.74325C44.7568 8.73601 44.7001 8.71546 44.6511 8.68344C44.6022 8.65142 44.5626 8.60888 44.5358 8.55957C44.5994 8.65221 44.7002 8.7182 44.8164 8.74325Z" fill="#B03A3F"/>
<path d="M20.7916 16.7507H20.7512C20.8321 16.6099 20.8186 16.6405 20.7916 16.7507Z" fill="#B03A3F"/>
<path d="M43.9355 10.9961C43.7681 11.1238 43.5893 11.2384 43.401 11.3389C43.5663 11.2086 43.7453 11.0937 43.9355 10.9961Z" fill="#B03A3F"/>
<path d="M43.9361 11.2596L44.3169 11.082C44.4037 11.1494 44.4037 11.2167 43.9361 11.2596Z" fill="#B03A3F"/>
<path d="M42.6808 11.644C42.9324 11.5656 43.1743 11.463 43.4023 11.3379C43.3289 11.4052 43.3021 11.4481 43.3355 11.4542L42.6808 11.644Z" fill="#B03A3F"/>
<path d="M111.93 38.7045C111.93 38.6678 111.93 38.6249 111.93 38.5821C112.398 38.1841 112.257 38.3923 111.93 38.7045Z" fill="#B03A3F"/>
<path d="M1.64252 45.58C1.64252 45.58 1.64252 45.5372 1.64252 45.5127L1.69727 45.58H1.64252Z" fill="#B03A3F"/>
<path d="M2.21884 47.5148C2.31434 47.1771 2.31544 46.8228 2.22202 46.4847C2.1286 46.1466 1.94368 45.8354 1.68435 45.5801C2.2723 45.5801 2.89366 45.5373 3.48828 45.4883C3.01669 46.1373 2.5926 46.8143 2.21884 47.5148Z" fill="#B03A3F"/>
<path d="M70.6005 61.2107L69.438 61.9393C71.1551 62.3923 72.2241 61.8964 71.1751 62.7964C70.8878 62.0005 69.6384 62.2209 68.3824 62.4291C67.1263 62.6372 65.8636 62.7474 65.6164 61.9454L64.8413 62.4229C65.0752 62.3678 65.1353 62.4597 65.3691 62.4229C63.8592 63.4637 63.946 61.4679 61.8749 61.9393C61.1533 62.1536 60.6723 62.4536 61.2068 62.5944L59.5031 62.374C59.0287 62.4658 59.1823 62.7352 59.6567 62.6495C58.8149 62.7168 57.9664 62.7352 57.1179 62.7474V62.7964C56.5909 62.5175 56.0415 62.276 55.4743 62.074C54.8529 62.3617 55.8083 62.227 55.6614 62.4474L54.2449 62.1474C53.7038 62.6188 54.9131 62.9495 55.8484 62.8209C55.2605 63.6964 54.9531 63.6107 54.4654 63.4331C54.0493 63.2868 53.6044 63.2216 53.1592 63.2416C52.714 63.2616 52.2783 63.3665 51.8798 63.5495L53.216 63.727C52.3942 64.6882 51.3252 64.376 49.8086 65.0004C50.1828 64.6882 52.8152 63.4454 51.2584 63.0658C50.9633 63.1603 50.6504 63.1998 50.3383 63.1819C50.0262 63.1641 49.7212 63.0892 49.4412 62.9617C49.4412 63.5739 48.626 63.4392 47.6172 63.3658L47.6773 64.1494C46.5749 63.8984 46.6751 63.5372 46.0404 63.1392C45.6454 63.1345 45.2587 63.2429 44.9341 63.4492C44.6095 63.6555 44.3633 63.9495 44.2298 64.2902C42.2254 64.2902 45.6329 63.4025 43.3279 63.1209C41.691 63.2923 40.5618 62.9188 38.6978 62.2699C37.5419 62.3985 38.8381 62.7719 38.4038 62.9433L37.4885 62.1964C37.2413 62.1964 37.2947 62.3801 37.3214 62.4841C36.5197 62.1413 37.3615 61.7005 36.0854 61.3271C35.9785 60.874 35.2636 61.1067 34.3817 61.3271C33.4998 61.5475 32.4575 61.5781 31.756 60.9536C31.315 61.0944 31.8495 61.4556 31.6625 61.7311C29.5846 60.7026 29.8519 60.9475 28.3219 59.6741L26.6649 59.8087C27.9477 59.5087 26.7117 58.4925 25.6761 57.6537C26.1505 57.4762 26.5513 57.317 26.8052 57.2558L25.91 56.8211L25.0347 56.3374C24.7675 56.3925 24.8677 56.7048 25.0748 57.1088C24.9718 57.0214 24.8758 56.9273 24.7875 56.8272C24.0125 56.8945 24.2129 57.4394 24.567 58.0027C24.8476 57.9231 25.1349 57.8374 25.4089 57.7455C25.7362 58.3578 26.0369 58.97 25.7964 59.3618C25.6308 59.2072 25.4331 59.0844 25.2151 59.0006C25.302 59.1598 25.3487 59.2883 25.2619 59.3496C25.175 59.4108 25.0147 59.1904 24.7608 58.9026L24.0392 59.6006V59.2394L21.2732 58.9761C20.4982 58.3027 19.8701 57.47 19.1018 56.668C18.2523 55.7714 17.2561 55.001 16.1487 54.3844C16.5362 55.2538 15.828 55.4007 15.514 56.1048C16.6298 55.6946 17.5651 57.2435 19.1152 57.6537C18.3134 57.4456 18.3335 57.8435 18.4805 58.0333L16.142 56.3803C15.9282 56.9925 15.3804 56.5884 14.5786 56.5272C15.6543 55.6456 13.0219 54.9538 12.2001 54.0783C11.9128 54.3967 11.9329 54.911 13.2758 55.4375C12.3337 55.5109 12.0464 54.9599 11.8126 54.3967C11.5788 53.8334 11.365 53.2702 10.4764 53.2212C10.7703 53.4049 10.9708 53.4416 10.9708 53.6865C10.4697 53.0008 8.64571 52.1682 8.79937 52.7069L9.09335 52.9028C7.76523 52.1468 6.58609 51.1905 5.60576 50.0744C4.59022 48.8989 4.11586 47.6744 4.49001 47.2642C4.07581 47.606 3.72195 48.0046 3.44106 48.4458C3.48185 47.9875 3.55099 47.5317 3.64817 47.0806C3.71973 46.6463 3.82239 46.2168 3.9555 45.7949C4.06879 45.38 4.20708 44.9713 4.36973 44.5704C4.54344 44.1725 4.72385 43.799 4.91093 43.4378C4.27868 43.7136 3.60175 43.8935 2.90656 43.9705C2.15159 44.1541 1.51686 44.4725 1.66385 45.501C1.10124 44.8302 0.808617 44.0019 0.835388 43.1562C1.08927 43.5113 2.47229 43.6827 2.40547 43.1929C1.97222 42.9375 1.5977 42.6068 1.30306 42.2195L0.975685 41.7481C0.822021 41.5461 0.634933 41.2705 0.361008 40.8604C0.641617 41.393 2.0714 40.5849 1.93778 39.7951C1.7173 39.942 0.421158 39.7951 0.294212 40.1502C0.501328 39.7584 0.761887 39.3849 0.995728 39.0237C1.22704 38.6614 1.48138 38.3118 1.7574 37.9768C1.46342 38.4849 0.481277 38.0502 0.0804062 37.5176C0.334297 37.7625 0.21402 35.6013 0.528038 35.0687C0.570412 35.3921 0.632874 35.713 0.715111 36.0299C0.724014 35.5861 0.861801 35.1526 1.11427 34.7738C1.36674 34.395 1.7248 34.0847 2.15159 33.8749C2.5042 33.6687 2.83521 33.433 3.14039 33.1708C3.49812 32.8522 3.75844 32.4533 3.89537 32.0137C3.52122 32.1606 1.81752 32.0872 2.12486 30.8811L4.87082 30.1893C5.4454 30.0301 6.04673 29.8525 6.60127 29.6505C6.86383 29.5555 7.11839 29.443 7.36292 29.3138C7.60102 29.2018 7.82505 29.0663 8.03104 28.9097L7.86401 28.4016C8.27156 28.0955 8.71921 27.8261 9.14012 27.5506C8.01863 27.6133 6.9122 27.8194 5.85296 28.1628C4.6519 28.5229 3.5151 29.0427 2.47896 29.7056C2.6059 28.7505 2.1048 29.2587 2.84641 28.0465C2.7462 27.4343 1.88433 28.4444 1.68389 28.8301C1.89101 28.3097 2.14491 27.8016 2.40547 27.2996C2.66604 26.7975 2.94665 26.3016 3.23394 25.8057C3.86865 26.3506 5.55901 24.2201 6.08014 24.7833C5.55901 25.12 5.08464 25.5302 4.57687 25.9098C4.06909 26.2894 3.62813 26.7302 3.15376 27.1343C3.49451 27.4037 4.34302 27.2628 5.21825 26.871C6.2047 26.4529 7.06644 25.8228 7.73038 25.0343C7.8306 24.4221 6.2271 24.4221 6.01999 24.2078C6.44759 24.1405 7.95754 22.9834 7.96422 22.714C7.60344 22.8303 7.29612 22.965 6.91529 23.0997C7.2692 22.6198 7.80486 22.2773 8.41856 22.1385C8.74809 22.0452 9.04884 21.8817 9.29618 21.6614C9.54353 21.4412 9.73044 21.1704 9.84164 20.8712C10.2091 20.5161 10.3494 19.0774 10.7703 19.408C10.7035 20.6692 12.6812 22.9589 13.5698 23.1854C13.6098 23.1058 13.9573 22.5732 14.3247 21.961C14.6741 21.4479 14.9672 20.9045 15.2 20.3386C15.3136 19.8243 14.7857 19.6223 14.2379 19.4508C13.69 19.2794 13.1355 19.157 13.2357 18.6917C13.4027 18.857 13.9706 18.8202 14.1978 18.7957C14.5385 18.3488 13.5698 18.3427 14.6388 17.7917C15.3069 18.4039 16.6431 16.506 15.5474 18.0917C16.6698 17.706 16.4961 17.3325 17.6987 16.7081C17.6319 17.3754 19.7632 17.7182 20.879 17.4489C20.7053 17.2897 20.7855 16.9346 20.8322 16.7693C22.8366 15.6918 23.8121 14.8469 25.7897 13.9837C25.8765 13.7204 26.7317 13.0959 26.1572 12.9429C26.6126 13.037 27.088 13.0094 27.5268 12.8633C28.3953 11.7062 26.1037 13.3347 26.6182 12.1715C26.9188 12.5756 28.5223 12.1103 29.5312 12.0184C29.5913 12.8143 27.5736 12.998 26.5513 13.0898C27.0257 14.0326 29.0368 14.3632 31.3084 13.9653C33.0722 13.549 31.736 13.0715 32.0901 13.0898C35.13 11.7001 35.4908 13.702 37.7758 12.0796C38.5441 11.0878 37.2947 10.8552 37.3348 10.3164C35.865 10.5919 35.4039 11.4735 34.4686 11.7919L35.4841 11.0817C34.7956 11.0404 34.1136 11.2248 33.5599 11.6021C34.1746 10.7082 38.8314 9.49605 41.103 8.16752C41.6241 8.22262 42.4392 8.16752 42.2054 8.55323L41.3903 8.73076C40.8825 9.47767 43.1274 8.92056 42.2388 9.48993C43.4147 9.48993 44.8044 9.6736 46.1607 8.91444V8.11853C46.2075 8.33281 45.3589 8.84709 44.8645 8.76138C45.5928 8.88995 46.762 7.07164 47.7842 7.80631C47.4969 8.06957 47.2163 8.34506 46.9357 8.62056C48.1183 8.62056 49.6884 9.03076 50.911 8.41241C50.5636 9.29401 50.577 8.41241 49.9423 9.52053C50.3832 8.25323 46.635 10.5613 47.5303 9.0981C46.9424 10.3532 46.0471 10.0226 45.1251 11.2286C45.0783 10.9838 45.3923 10.6164 44.3501 11.1001C44.2512 11.0463 44.1458 11.0032 44.0361 10.9715L43.9693 11.0144L44.016 10.9654C43.9559 10.9654 43.9492 10.9654 44.016 10.9654C44.2033 10.8272 44.3464 10.6453 44.4303 10.4389C43.6753 10.0593 41.9649 10.6776 41.27 10.5981C40.6754 10.9287 41.6509 10.7756 41.397 11.1429L40.3614 11.0266C40.4883 11.5715 39.0252 12.4653 40.6487 12.2511C40.201 12.4102 39.7534 12.5633 39.3124 12.7408C38.6431 13.3435 37.7822 13.7358 36.8538 13.8612C36.2725 14.2041 35.0031 13.8612 35.7313 14.0816L33.5065 14.5837L33.5466 14.7183C31.5422 15.5632 28.9165 15.5938 27.0524 17.4734C26.1375 17.6294 25.2681 17.9589 24.5002 18.4407V18.9672C23.5582 19.2059 22.2486 20.5835 21.6406 20.3324C21.5404 21.1161 20.6184 21.6793 19.5895 22.1691C18.6176 22.5705 17.7023 23.0783 16.8636 23.6813L16.4159 23.2099C15.469 23.8376 14.4755 24.4043 13.4428 24.9058L13.1088 24.4466C11.8794 24.8445 11.2046 26.6322 10.0621 27.8751C10.3227 27.9179 10.5632 27.5628 10.6567 27.2628C10.483 28.4322 9.65457 29.026 8.84615 29.7423C8.43354 30.0736 8.06164 30.4452 7.73706 30.8505C7.43492 31.2416 7.28012 31.7123 7.2961 32.1912C7.1454 32.3114 7.02892 32.4634 6.95674 32.6341C6.88456 32.8047 6.85887 32.989 6.88187 33.1708C6.89372 33.1348 6.91698 33.1028 6.94868 33.079L6.89523 33.2504C6.89523 33.4647 6.96873 33.6851 6.98877 33.9116C6.91782 33.7278 6.87291 33.5365 6.85514 33.3422C6.66487 33.7646 6.44158 34.1738 6.18702 34.5667L6.75493 34.9157C6.73987 34.9515 6.72202 34.9863 6.70148 35.0197C6.8017 35.5279 6.30061 35.332 5.89973 34.9769C5.74409 35.1854 5.56495 35.3783 5.36524 35.5524C5.83961 35.8462 5.67256 36.1646 5.53894 36.4768C5.40532 36.7891 5.30511 37.1748 5.81956 37.4809C5.54563 37.6217 5.38528 38.2278 5.21825 38.8461C5.15198 39.1492 5.04421 39.4433 4.89755 39.7216C4.79176 39.9704 4.58279 40.1707 4.31629 40.2788C4.46327 40.2788 4.55682 40.4257 4.53009 40.1502C4.63329 40.4201 4.7159 40.6963 4.77729 40.9767C4.8638 41.2444 4.8638 41.5293 4.77729 41.7971L5.6258 41.8583C5.39864 42.3113 5.15144 42.8011 4.95768 43.3154C5.73938 43.8786 6.10018 44.0011 6.4142 43.1501C6.3107 43.6894 6.33575 44.2429 6.48768 44.7725L6.60794 45.3112C6.65471 45.5316 6.66806 45.8316 6.7282 46.2724L7.11572 45.9296C7.40301 46.3765 7.48987 47.4846 8.07781 47.4724C8.90628 47.6255 10.0822 48.6969 11.7124 49.6887C13.3784 50.792 15.2684 51.5788 17.2712 52.0029C16.603 52.5171 17.0841 52.5355 17.6653 52.5539C18.2466 52.5722 18.9548 52.5539 18.7878 53.0988C19.1352 52.8661 19.6897 52.8661 19.2621 52.3886C19.9203 52.7464 20.638 53.0029 21.3868 53.1477C21.687 53.2158 21.9734 53.3275 22.2353 53.4783C22.5321 53.6418 22.7837 53.866 22.9702 54.1334C23.2976 53.8763 22.7631 53.5212 23.017 53.4171C23.1372 53.5273 23.478 53.864 23.7386 53.7293C23.9991 53.5946 23.5782 53.3865 23.351 53.16C25.1349 53.7722 24.9813 54.8069 24.7942 55.7803C25.8899 55.6273 26.3309 55.8354 26.8453 56.6068C27.2796 56.3803 27.9277 56.1905 26.7852 55.7987C27.4533 55.9089 30.9342 56.3191 30.7939 57.0782C31.0545 56.919 31.7493 57.1884 31.9097 57.3109C32.9674 57.4256 34.0163 57.6014 35.0498 57.8374L34.6156 57.8864C35.0298 58.9394 35.8315 58.2659 37.0208 58.5353V58.4373C38.4639 58.272 38.7512 58.3945 39.0252 58.4986C39.204 58.572 39.3971 58.6115 39.593 58.6149C40.0731 58.5868 40.5494 58.5192 41.0162 58.4129L40.809 58.9884C40.8758 59.6006 41.5173 59.4843 42.3257 59.2577C43.134 58.9332 44.0297 58.8372 44.8979 58.9822L44.2966 59.3067C45.1719 59.7597 46.8221 57.6415 47.6773 57.5068C47.8644 57.4027 47.3833 57.3231 47.1228 57.2374C49.3877 56.5334 47.4034 58.0272 49.1271 58.217C49.4412 57.7945 48.7263 57.17 49.8554 57.066C50.136 56.8884 50.9645 57.2007 51.9266 57.4578C52.4068 57.5956 52.9018 57.686 53.4031 57.7272C53.8713 57.7526 54.337 57.6481 54.7393 57.4272C54.4187 57.77 54.0712 58.1129 54.9064 58.2965C56.1491 58.2965 58.0666 56.8884 59.2692 57.7272C59.3213 57.6975 59.3653 57.6571 59.3977 57.6094C59.4302 57.5616 59.4502 57.5077 59.4563 57.4517C60.405 57.5925 62.5163 57.5496 63.171 57.9843C63.4249 56.9129 64.8881 56.9313 66.2644 56.9802C67.6408 57.0292 68.9369 57.0293 68.6897 56.1293L71.5158 55.6579L71.3889 55.4864C73.1327 54.9477 73.8743 55.2109 74.636 55.4864C75.0101 55.2599 74.636 55.1681 74.5959 55.0824C75.2172 54.8314 75.6983 54.6416 76.1125 54.5069C76.4617 54.376 76.8243 54.2775 77.1949 54.213C78.0637 54.1347 78.9401 54.1635 79.8006 54.2987V53.6865C80.1092 53.6796 80.4097 53.5949 80.6691 53.4416C81.0566 53.2518 81.531 52.9702 82.0722 52.6885C83.2141 52.0211 84.4911 51.5714 85.827 51.3661C85.7817 51.3159 85.7244 51.276 85.6595 51.2495C85.5946 51.2229 85.5239 51.2104 85.4529 51.2131C86.9561 51.0111 88.4327 50.0254 89.7221 49.2417C91.0116 48.4581 92.1207 47.9009 93.1429 48.6723C93.811 48.5683 94.4792 48.4642 95.1473 48.3418C92.9893 49.5662 95.9757 49.0275 95.2341 49.7989C96.2096 49.4866 97.1717 48.0724 96.0359 48.5254L95.929 48.703C95.4279 48.2989 96.0626 47.8581 96.7574 47.4418C97.4523 47.0255 98.1805 46.5908 97.92 46.2663C99.9555 45.1386 101.816 43.7651 103.452 42.1828C104.235 41.434 104.973 40.6472 105.663 39.8257C106.313 39.0922 106.9 38.3144 107.421 37.4992C107.628 37.7625 107.822 38.0441 108.009 38.3319C108.258 37.9594 108.481 37.5729 108.677 37.1748C108.617 36.7891 108.196 36.5074 107.808 37.2666C107.695 36.9482 107.948 36.7034 108.269 36.5074C108.502 36.3484 108.772 36.2414 109.058 36.1952C109.098 35.7728 109.004 35.583 108.884 35.583C108.764 35.583 108.623 35.583 108.463 35.7115C108.169 35.9136 107.848 36.2074 107.908 36.0054C107.999 35.836 108.079 35.6623 108.149 35.485L108.229 35.6319C108.461 35.4994 108.684 35.3542 108.897 35.1973C109.007 35.0877 109.086 34.955 109.127 34.8108C109.168 34.6667 109.169 34.5155 109.131 34.3708C108.864 33.8381 108.516 34.1687 108.43 33.9851C108.363 33.9851 108.309 33.9483 108.329 33.7096C108.174 33.3416 107.968 32.9938 107.715 32.6749C108.034 32.6871 108.351 32.724 108.663 32.7851C108.717 32.0688 107.808 31.6341 108.997 31.7811C108.456 31.6466 107.955 31.3994 107.534 31.0586C106.993 30.679 106.338 30.2138 105.657 29.7668C104.321 28.8669 102.811 28.0587 102.35 28.0587C101.488 27.0975 100.345 26.5833 98.8754 26.0384C99.2963 26.0384 99.8776 25.4262 98.5881 24.9976C98.3008 26.6812 96.0092 24.7037 94.4992 25.4323C95.1072 25.2425 94.2453 24.8568 93.4636 24.465C92.6819 24.0731 91.9603 23.6874 92.9024 23.4242C91.7933 23.1732 92.5884 23.969 91.6397 24.0364C89.3948 22.5426 85.974 22.5671 82.9073 21.4896C82.9073 21.2692 83.5754 21.0977 82.9808 20.6079L80.9764 21.1834C80.3885 20.9141 80.7626 19.8365 79.3997 20.2712C79.6135 20.1365 79.9342 19.9345 79.5266 19.7631C76.2528 19.4876 73.0993 18.5998 69.8455 17.957C66.5918 17.3142 63.2646 16.8611 59.8972 17.5468C60.8259 17.2223 60.2447 17.1183 59.5699 17.0387C60.0175 16.9836 59.6166 16.5122 59.7369 16.2244C58.7948 16.3958 57.8461 16.6101 56.9174 16.8366C56.4832 15.9734 53.9777 16.5979 53.7372 15.8203L54.6057 15.9979C53.49 15.0306 56.3762 14.0449 56.3027 12.8817C56.9308 13.451 57.8328 13.1327 58.8617 12.8817C59.8906 12.6307 61.013 12.4837 62.0152 13.3286C62.5296 13.1388 61.6477 12.9123 61.9417 12.6674C62.4361 13.2123 63.0909 13.4082 64.3603 13.3347L64.24 13.1939C67.7009 13.751 69.2643 13.4939 73.2396 13.8796L72.8254 14.3877C73.3232 14.4461 73.8289 14.4064 74.3086 14.2714C75.0636 15.3183 71.9635 13.8551 72.6183 14.9816C73.2864 14.5102 74.7696 14.7796 76.186 15.0612C77.6024 15.3428 78.9854 15.5999 79.5266 15.0612C80.8027 15.3673 78.9721 15.6183 80.2415 15.9244L80.6758 15.6612L80.8629 16.1877C81.1403 16.2694 81.4393 16.2658 81.7143 16.1774C81.9894 16.089 82.2253 15.9206 82.3862 15.6979C82.1214 15.6256 81.8677 15.5227 81.6312 15.3918C82.8472 15.2387 84.6177 16.353 85.0319 16.3101L83.7492 16.1877C87.0898 17.4121 91.3991 18.2876 94.3121 20.161L93.958 20.3324C94.6065 20.7792 95.3587 21.083 96.1561 21.2202C97.0188 21.341 97.8473 21.6156 98.5948 22.0283L98.528 21.9304C99.009 22.4425 99.6222 22.836 100.312 23.0752C99.7907 22.5058 101.849 23.0324 101.14 22.3467C103.465 23.9691 102.223 23.2956 103.425 24.9486L104.04 24.7221C104.323 25.413 104.869 25.9869 105.577 26.3384C104.728 25.4445 106.793 26.1792 105.871 25.1139C107.178 25.3626 108.336 26.0505 109.118 27.0424C109.786 27.7955 110.24 28.3771 111.396 28.4812C111.396 29.4852 110.768 29.0077 110.153 28.5179C109.539 28.0281 108.904 27.4404 109.131 27.7955C108.717 27.7342 108.797 28.1077 109.058 28.5485C109.338 29.0244 109.692 29.4614 110.106 29.8464C110.441 30.2015 111.062 30.2627 111.797 30.6239C112.321 30.8733 112.772 31.2341 113.113 31.6762C113.453 32.1182 113.673 32.6286 113.754 33.1647C113.674 32.8708 113.754 32.8341 113.688 32.5525C113.966 33.081 114.061 33.6748 113.962 34.2544C113.848 34.891 113.848 35.5402 113.962 36.1768C113.61 36.4472 113.374 36.8221 113.293 37.236C113.166 37.5666 113.026 37.8482 112.485 37.7441C112.887 36.9957 113.169 36.1975 113.32 35.3748C113.049 36.0904 112.627 36.75 112.077 37.3156C111.472 37.9772 111.018 38.7433 110.741 39.5686C111.205 39.4032 111.62 39.1387 111.951 38.7972C111.91 39.5073 111.149 39.7645 111.035 40.444C111.523 40.64 112.017 40.0951 112.485 39.2992C112.929 38.4284 113.424 37.5802 113.968 36.7585C114.088 37.1993 113.661 37.9217 113.334 38.3809C113.006 38.84 112.826 39.1584 113.527 38.9931C112.605 39.238 112.331 39.8134 111.977 40.4747C111.83 40.857 111.596 41.2064 111.291 41.4997C110.986 41.7931 110.616 42.0238 110.207 42.1766L110.775 42.4583C110.336 42.6443 109.933 42.8922 109.579 43.1929L110.815 43.0399C110.168 43.3516 109.664 43.8637 109.392 44.4847C109.123 45.0944 108.657 45.6137 108.055 45.9724C109.124 45.0602 109.084 44.8153 108.877 44.6868C108.67 44.5582 108.269 44.5153 108.523 43.9766C107 44.8398 106.92 45.3908 106.819 46.0704C106.719 46.75 106.612 47.5214 104.935 48.5193C105.43 48.2928 106.271 47.0989 105.45 47.3744C104.909 47.8872 104.458 48.4738 104.113 49.1132C101.915 50.3988 104.06 48.4152 102.938 48.7091C102.657 49.7437 101.722 49.1315 100.666 49.4744L101 49.9764C99.8842 50.8519 99.5301 50.6498 99.2428 50.4723C98.9556 50.2947 98.6883 50.0988 97.6995 50.8641L99.0825 51.0906L97.7997 51.5131L98.3943 51.9722C96.8376 52.1865 96.5102 52.4865 95.321 53.2457C95.4145 52.7375 94.6529 52.358 93.5104 52.8355C92.9024 53.4783 94.1785 53.16 92.5616 53.7661C93.0895 53.9497 93.7041 54.2008 94.1518 53.4049C94.3121 53.5457 94.6863 53.5763 94.8199 53.7171C94.1518 54.4579 92.7554 54.7089 92.1474 54.9416C92.3636 54.8471 92.5585 54.7163 92.722 54.5559C91.8134 54.6354 90.9114 54.6967 90.0027 54.7395C89.7288 55.0885 90.0963 55.1375 90.4704 55.1864C89.9045 55.2256 89.342 55.2992 88.7868 55.4068C89.1743 55.7803 89.3346 56.2578 90.437 56.0803L87.9449 56.4537C87.8781 56.7048 87.0096 57.4333 87.377 57.4823C86.1878 58.1802 83.8761 57.6782 82.3127 58.5782C82.0829 58.4963 81.8316 58.4792 81.5911 58.5292C80.8027 58.8169 80.1012 59.2026 79.3262 59.5149C78.4938 59.8771 77.5724 60.0333 76.6537 59.9679L75.7985 61.0699C74.2217 61.2597 76.9744 59.6557 74.362 59.9679C72.5047 60.1455 73.8944 60.8434 73.3265 61.2352C72.3042 61.0148 70.5404 60.4638 69.0438 61.4863C69.572 61.4461 70.094 61.3538 70.6005 61.2107ZM51.3252 63.0474C51.7061 63.1637 52.4744 63.525 52.735 63.1699C52.274 62.5209 51.96 62.8515 51.3252 63.0596V63.0474ZM22.6428 57.8986C22.8366 58.168 23.311 58.1986 23.812 58.119C23.447 57.9624 23.0453 57.8909 22.6428 57.9108V57.8986ZM38.1232 12.7959H38.0764C37.4283 13.2367 37.6555 13.0531 38.1232 12.7959ZM39.5663 11.9939C39.7534 11.9939 39.7734 12.0919 39.74 12.196C39.573 12.0919 39.2256 12.196 38.8448 12.3919C38.8915 12.1837 39.0586 12.0001 39.5663 11.9633V11.9939ZM108.583 33.832L108.804 33.9851C108.864 33.4892 108.737 33.6483 108.583 33.8014V33.832Z" fill="#B03A3F"/>
<path d="M25.5496 59.6063C25.6629 59.5448 25.7501 59.4498 25.7968 59.3369C25.9104 59.4655 25.8836 59.5757 25.5496 59.6063Z" fill="#B03A3F"/>
<path d="M82.3198 58.5342C82.3198 58.5342 82.3599 58.5342 82.3733 58.5342C82.4123 58.5544 82.4447 58.584 82.4668 58.6199L82.3198 58.5342Z" fill="#B03A3F"/>
<path d="M13.5762 18.0547C13.3922 18.2242 13.2608 18.4355 13.1954 18.6669C13.0885 18.5751 13.1352 18.373 13.5762 18.0547Z" fill="#B03A3F"/>
<path d="M48.2051 10.1691L47.1494 10.3405C47.471 10.2592 47.7607 10.0957 47.9846 9.86914C48.0113 10.01 47.8911 10.2548 48.2051 10.1691Z" fill="#B03A3F"/>
<path d="M55.9147 4.16946C56.0884 4.16946 56.2354 4.09599 56.4091 4.1266L56.4492 4.40211C55.7611 4.54905 55.2733 4.45109 55.9147 4.16946Z" fill="#B03A3F"/>
<path d="M48.4717 8.02591C48.3849 7.53001 49.0797 7.50552 49.808 7.37695C49.7645 7.38552 49.722 7.39782 49.681 7.41369C50.142 8.01367 49.3069 8.01979 48.4717 8.02591Z" fill="#B03A3F"/>
<path d="M49.9968 7.34676C50.2263 7.30877 50.4505 7.24715 50.6649 7.16309C50.8386 7.40185 50.4177 7.28554 49.9968 7.34676Z" fill="#B03A3F"/>
<path d="M41.6703 11.5713C41.9509 11.3387 42.1179 12.0978 42.2248 11.8407C42.8395 12.3243 39.726 11.9019 41.6703 11.5713Z" fill="#B03A3F"/>
<path d="M48.5 6.2998L48.4465 6.96101L47.8787 6.61204L48.5 6.2998Z" fill="#B03A3F"/>
<path d="M43.0017 8.5099L44.084 7.9834C44.084 8.08748 44.2644 8.09358 44.4648 8.08134C43.7366 8.31398 43.0685 8.6752 43.0017 8.5099Z" fill="#B03A3F"/>
<path d="M44.4634 8.06896C44.7599 7.94015 45.0839 7.87324 45.4121 7.87305C45.103 7.96463 44.7855 8.03021 44.4634 8.06896Z" fill="#B03A3F"/>
<path d="M46.8555 6.59381L46.5615 6.82033L45.7731 7.12032L46.8555 6.59381Z" fill="#B03A3F"/>
<path d="M31 13.0101C30.5658 13.1081 30.1381 13.2183 29.7172 13.3346C29.4968 13.1938 29.7707 12.9366 30.2517 12.8325C30.6058 12.8509 31.0936 12.7468 31 13.0101Z" fill="#B03A3F"/>
<path d="M33.9609 10.0227C33.6803 10.2615 33.7204 10.4023 33.6135 10.6349L33.2594 9.94922L33.9609 10.0227Z" fill="#B03A3F"/>
<path d="M30.3193 11.2525C30.1055 11.1056 28.2749 11.3994 29.8449 10.8301C30.0654 10.9586 31.3682 10.6525 30.3193 11.2525Z" fill="#B03A3F"/>
<path d="M13.2229 20.876L13.4968 20.6924L14.2852 21.7148L13.2229 20.876Z" fill="#B03A3F"/>
<path d="M0.000227213 33.1711C0.0737194 32.3201 0.320912 32.2833 0.534708 32.265C0.748503 32.2466 0.955618 32.265 1.01575 31.4874C1.45002 31.2242 0.91554 32.7119 1.31641 32.4241C0.681701 33.2568 0.748511 33.8261 0.000227213 33.1711Z" fill="#B03A3F"/>
<path d="M1.31615 32.4236C1.42829 32.2813 1.55106 32.1463 1.68359 32.0195C1.58122 32.1686 1.45766 32.3045 1.31615 32.4236Z" fill="#B03A3F"/>
<path d="M55 17.3074L54.0045 17.5156L54.6593 17.1299L55 17.3074Z" fill="#B03A3F"/>
<path d="M53.168 16.291L52.894 17.0686L52.3395 16.3216C52.56 16.3706 52.9876 16.4686 53.168 16.291Z" fill="#B03A3F"/>
<path d="M48.4118 64.7184L48.3316 64.5225C48.4986 64.3204 48.7458 64.3205 49.2402 64.2715C48.9863 64.4307 48.7124 64.5776 48.4118 64.7184Z" fill="#B03A3F"/>
<path d="M62.6224 63.1941L62.3819 63.237L62.7227 62.4717L62.6224 63.1941Z" fill="#B03A3F"/>
<path d="M74.5352 61.9397C74.0675 62.0805 73.4728 62.0743 73.0052 62.1968C74.0808 62.105 74.4149 61.0336 74.5352 61.9397Z" fill="#B03A3F"/>
</svg>
