<svg width="132" height="30" viewBox="0 0 132 30" fill="none" xmlns="http://www.w3.org/2000/svg">
<path d="M55.9833 28.9786C55.9183 29.187 56.3689 29.1215 56.4428 29.1564C56.3924 28.8069 55.8668 28.983 55.9833 28.9786Z" fill="#B03A3F"/>
<path d="M55.9237 25.4289L56.0714 25.5093L55.8848 24.9473L55.9237 25.4289Z" fill="#B03A3F"/>
<path d="M57.8619 22.2586C57.4059 22.3346 57.1973 22.6214 57.0678 22.959C56.9806 23.2952 56.8 23.6233 56.5312 23.9337L56.3136 24.0009L56.7507 24.3452C57.047 23.6438 57.292 22.7014 57.8619 22.2586Z" fill="#B03A3F"/>
<path d="M60.7584 21.0019C60.398 21.031 60.8459 20.6137 60.327 21.3399C60.3686 21.3218 60.413 21.3054 60.4597 21.2906C60.5488 21.1917 60.6485 21.0953 60.7584 21.0019Z" fill="#B03A3F"/>
<path d="M60.4595 21.2909C60.1872 21.5984 60.8736 21.1458 60.4595 21.2909V21.2909Z" fill="#B03A3F"/>
<path d="M61.7256 19.8663L61.537 20.3225C61.7809 20.2819 62.1805 19.9462 62.1581 20.1048C62.4737 19.6786 62.2457 19.7166 61.7256 19.8663Z" fill="#B03A3F"/>
<path d="M61.6813 19.3609L61.5374 19.5899C61.6429 19.5748 61.7275 19.5278 61.6813 19.3609Z" fill="#B03A3F"/>
<path d="M61.268 20.0854C61.3539 19.922 61.4398 19.756 61.5416 19.5954C61.3719 19.6207 61.1499 19.5662 61.3864 19.8138C61.2229 19.7174 61.3226 19.8557 61.268 20.0854Z" fill="#B03A3F"/>
<path d="M60.9007 20.2969C60.5181 20.4793 60.1137 20.7462 60.3076 20.2927C59.9499 20.6894 59.9537 20.8958 60.0967 20.8942C60.2397 20.8925 60.5325 20.683 60.9007 20.2969Z" fill="#B03A3F"/>
<path d="M57.2568 21.95L56.8045 22.2403L56.8022 22.5683C56.814 22.4044 57.4949 21.9755 57.2568 21.95Z" fill="#B03A3F"/>
<path d="M65.2218 17.5877C65.1851 17.5452 65.0101 17.5704 64.814 17.6007C64.7219 17.6159 64.6281 17.6284 64.533 17.6383C64.4718 17.6439 64.4088 17.6434 64.3477 17.637L64.1123 17.9606C64.2557 17.9088 64.4416 17.8255 64.6169 17.7606L64.9407 17.6492C65.0629 17.5998 65.1583 17.5794 65.2218 17.5877Z" fill="#B03A3F"/>
<path d="M64.3474 17.6266C64.3595 17.6036 64.3775 17.5815 64.4008 17.5608L64.502 17.4716L64.7046 17.2906L65.0937 16.9416C64.7813 17.1112 64.5066 17.2972 64.2742 17.4964C64.1941 17.5884 64.2681 17.6075 64.3474 17.6266Z" fill="#B03A3F"/>
<path d="M61.0366 19.0759C60.9233 19.366 60.7995 19.6481 60.7232 19.9411C60.8475 19.6008 61.0299 19.2742 61.1965 18.9342L61.0366 19.0759Z" fill="#B03A3F"/>
<path d="M68.6619 14.8779C68.7092 14.9338 68.7565 14.9923 68.7984 15.0534C68.8403 15.1146 68.9141 15.168 68.8817 15.2444C68.9017 15.1864 68.8874 15.1266 68.8406 15.0723L68.7464 14.9129C68.6812 14.8072 68.6041 14.7033 68.5156 14.6018C68.5732 14.6948 68.6202 14.785 68.6619 14.8779Z" fill="#B03A3F"/>
<path d="M67.546 13.1747C67.8844 13.2458 67.8799 13.14 67.8594 13.0341C67.839 12.9281 67.7921 12.8273 68.1039 12.9221C68.0139 12.8772 67.9187 12.8351 67.8188 12.7958C67.7691 12.7748 67.7161 12.7558 67.6603 12.7391L67.4276 12.7004C67.1208 12.6506 66.8192 12.6088 66.5229 12.5696C65.9356 12.494 65.3747 12.4371 64.8613 12.3884C65.376 12.4648 65.8782 12.5612 66.3633 12.6769C66.6118 12.7369 66.8602 12.8048 67.1033 12.8753C67.2917 12.9583 67.4427 13.0604 67.546 13.1747Z" fill="#B03A3F"/>
<path d="M63.2266 12.2285C63.7081 12.2875 64.2479 12.331 64.8618 12.3883C64.3286 12.3072 63.7806 12.2537 63.2266 12.2285Z" fill="#B03A3F"/>
<path d="M66.7364 15.8666C67.2115 15.7495 67.612 15.5695 67.8947 15.3459C67.6133 15.4365 67.3373 15.5244 67.0614 15.6044C66.9654 15.6884 66.8536 15.7748 66.7364 15.8666Z" fill="#B03A3F"/>
<path d="M67.0371 15.6307C67.2182 15.4918 67.3673 15.3686 67.4845 15.2795C67.5568 15.2203 67.6142 15.1568 67.6553 15.0903C67.6153 15.1502 67.5653 15.2082 67.5058 15.2638L67.0371 15.6307Z" fill="#B03A3F"/>
<path d="M66.6581 15.9293L66.7376 15.8664C66.6584 15.8923 66.6268 15.892 66.6581 15.9293Z" fill="#B03A3F"/>
<path d="M62.8024 18.0704C62.9317 17.7593 63.4391 17.1679 62.4249 17.5388C62.4282 17.8139 63.007 17.5985 62.8024 18.0704Z" fill="#B03A3F"/>
<path d="M65.6548 16.1761C65.4917 16.283 65.314 16.3843 65.1231 16.479L64.5913 16.7767C64.7183 16.7935 65.079 16.7114 64.9081 16.9165L65.3133 16.5386C65.4477 16.4229 65.5619 16.3016 65.6548 16.1761Z" fill="#B03A3F"/>
<path d="M65.8998 15.8526L65.6539 16.1735L66.0051 15.9433L65.8998 15.8526Z" fill="#B03A3F"/>
<path d="M65.7036 12.9764C64.8741 12.8917 64.0613 12.769 63.2754 12.6099C64.0997 12.8234 64.945 13.0157 65.808 13.1861C66.0518 13.1534 66.6926 13.158 65.7036 12.9764Z" fill="#B03A3F"/>
<path d="M67.7736 14.0781C67.7475 14.0567 67.7266 14.0301 67.7004 14.0088C67.6948 14.0484 67.705 14.0961 67.7736 14.0781Z" fill="#B03A3F"/>
<path d="M56.3867 11.759L56.4654 11.8098L56.5025 11.7731L56.3867 11.759Z" fill="#B03A3F"/>
<path d="M65.8715 13.2419C65.9903 13.2735 66.1019 13.3116 66.2043 13.3554C66.2939 13.3888 66.3875 13.4195 66.4843 13.4473C66.664 13.5041 66.8437 13.5477 67.0129 13.5966C66.8463 13.5175 66.6699 13.4438 66.4848 13.3759C66.2837 13.2935 66.0544 13.23 65.8083 13.1886C65.6918 13.1824 65.6441 13.1953 65.8715 13.2419Z" fill="#B03A3F"/>
<path d="M60.4882 11.9604C60.669 12.0111 60.8562 12.0557 61.0486 12.094L61.7202 12.2337C61.4956 12.1578 61.2586 12.0915 61.012 12.0355C60.8942 12.0062 60.7722 11.9815 60.6471 11.9615C60.5571 11.9476 60.5254 11.9474 60.4882 11.9604Z" fill="#B03A3F"/>
<path d="M67.736 13.8849C67.7582 13.8981 67.7775 13.9124 67.7936 13.9276C67.7945 13.8086 67.7627 13.8295 67.736 13.8849Z" fill="#B03A3F"/>
<path d="M67.7362 13.8848C67.5501 13.7574 67.3056 13.654 67.0234 13.5835C67.287 13.7089 67.5141 13.8521 67.6982 14.0088C67.7045 13.967 67.7172 13.9256 67.7362 13.8848Z" fill="#B03A3F"/>
<path d="M54.1323 13.0413C54.2767 12.8467 55.6067 12.7425 56.6105 13.0776C57.7283 13.0275 57.2994 12.2892 56.4661 11.8098C56.4019 11.8966 56.3748 11.9757 55.2148 12.0071C55.574 12.1419 57.5945 12.4949 56.5928 12.5909C55.0943 12.559 55.4184 12.4158 54.7365 12.2417C55.2639 12.5496 52.7543 12.4602 52.9685 12.8717C53.4081 12.8563 53.8424 12.8515 54.2821 12.8414C54.287 12.8943 53.7993 12.957 54.1323 13.0413Z" fill="#B03A3F"/>
<path d="M58.605 12.0421L59.0815 12.064C58.5387 11.9579 58.0322 11.8096 57.5806 11.6248C56.7701 11.6507 56.5844 11.7102 56.5204 11.7732L58.7958 12.0276L58.605 12.0421Z" fill="#B03A3F"/>
<path d="M61.5078 12.3486C61.2954 12.3865 61.075 12.4124 60.8505 12.4259C60.6451 12.4341 60.4424 12.4539 60.2464 12.485C59.9706 12.5386 59.8324 12.6117 60.1119 12.7697L60.6412 12.8185C60.8001 12.8196 60.9323 12.8364 61.0435 12.8399C61.2206 12.8469 61.3986 12.8429 61.5732 12.8278C61.9161 12.7758 62.2811 12.7693 62.6325 12.8089L62.1776 12.7316L61.8284 12.6895C61.7147 12.6766 61.6032 12.659 61.4951 12.6368C61.4106 12.6124 61.5589 12.6108 61.7496 12.6069C62.1202 12.6096 62.6817 12.5951 61.55 12.3754C61.8887 12.4016 62.2116 12.433 62.5185 12.4643L63.3066 12.5996L62.5666 12.4038L61.7522 12.234L61.8209 12.2583C61.9477 12.3042 61.9793 12.3282 61.8207 12.29L61.7465 12.2895C61.6829 12.3171 61.609 12.3381 61.529 12.3514C60.5822 12.1912 61.413 12.2739 61.7465 12.2895C61.7717 12.2824 61.7949 12.2737 61.8156 12.2636C61.5192 12.2323 61.2175 12.2117 60.9264 12.1884L60.5083 12.1537L60.2277 12.1358L59.1055 12.0696C59.3714 12.1181 59.6436 12.1571 59.9202 12.1865L61.5078 12.3486Z" fill="#B03A3F"/>
<path d="M62.2886 16.7974C62.3072 16.7911 62.3293 16.7878 62.3519 16.7879C62.3745 16.7881 62.3965 16.7917 62.415 16.7984C62.4629 16.7246 62.4632 16.6929 62.2886 16.7974Z" fill="#B03A3F"/>
<path d="M63.1043 16.4991C63.0908 16.6529 62.9566 16.7973 62.7307 16.901C62.3431 17.0437 62.5459 16.8362 62.4137 16.8009C62.3225 16.9642 62.0604 17.3273 62.7882 17.0125C62.7995 16.9826 62.8175 16.9534 62.8418 16.9256C63.2686 16.735 63.7249 16.5614 64.2066 16.4065C64.6631 16.259 65.0293 16.1479 65.0024 16.1979C64.3506 16.2665 63.7148 16.3674 63.1043 16.4991Z" fill="#B03A3F"/>
<path d="M66.4116 14.1237C66.2114 13.9745 65.9413 13.8518 65.6251 13.7663C65.4753 13.723 65.3199 13.6847 65.1598 13.6519L64.9113 13.6026L64.6309 13.5662C64.7437 13.6109 64.8417 13.6642 64.921 13.7243C65.006 13.7782 65.0852 13.8344 65.1581 13.8926L65.344 13.8225C65.5666 13.9267 65.805 14.0221 66.0569 14.108C66.1944 14.1354 66.2899 14.1044 66.4116 14.1237Z" fill="#B03A3F"/>
<path d="M56.2129 11.6282L56.5375 11.4137L55.3654 11.6592L56.2129 11.6282Z" fill="#B03A3F"/>
<path d="M53.8203 11.4603L53.97 11.2604L53.3021 11.3376L53.8203 11.4603Z" fill="#B03A3F"/>
<path d="M118.513 1.50667L119.001 1.3885C118.831 1.42012 118.668 1.45968 118.513 1.50667Z" fill="#B03A3F"/>
<path d="M114.79 1.93235L114.747 2.04314C114.885 1.95685 114.943 1.92023 114.79 1.93235Z" fill="#B03A3F"/>
<path d="M45.8942 10.4541C46.7139 10.6081 47.6495 10.8581 47.4817 10.6294L47.1867 10.4158C46.7678 10.4761 46.3264 10.4892 45.8942 10.4541Z" fill="#B03A3F"/>
<path d="M84.5779 6.27513L84.3293 6.22573L83.8985 6.48711L84.5779 6.27513Z" fill="#B03A3F"/>
<path d="M84.7598 5.29244L85.8186 5.34499C85.4703 5.30761 85.1151 5.28998 84.7598 5.29244Z" fill="#B03A3F"/>
<path d="M104.89 3.75217L104.279 3.99639C105.254 3.98222 104.81 3.86796 104.89 3.75217Z" fill="#B03A3F"/>
<path d="M29.9512 10.0568C29.4549 9.94256 28.9399 9.85037 28.4121 9.78125C29.1203 9.98204 29.6852 10.2294 29.9512 10.0568Z" fill="#B03A3F"/>
<path d="M118.225 4.0517C118.522 3.97448 118.634 3.9118 118.597 3.86394C118.295 3.94111 118.13 4.00605 118.225 4.0517Z" fill="#B03A3F"/>
<path d="M26.5857 9.58575C26.6855 9.61911 26.7897 9.64902 26.8976 9.67527C27.4071 9.67929 27.9148 9.71131 28.4115 9.77076C28.146 9.68079 27.8476 9.61808 27.5341 9.58631C27.2205 9.55453 26.8981 9.55434 26.5857 9.58575Z" fill="#B03A3F"/>
<path d="M28.6501 3.98302L28.4764 3.95534C28.4604 3.98167 28.55 3.9823 28.6501 3.98302Z" fill="#B03A3F"/>
<path d="M6.62879 1.18069C6.84591 1.18225 7.20073 1.18479 7.53435 1.18719C7.23415 1.16383 6.9293 1.16165 6.62879 1.18069Z" fill="#B03A3F"/>
<path d="M44.3202 10.7733C44.8498 10.7771 44.4051 10.7528 44.3202 10.7733V10.7733Z" fill="#B03A3F"/>
<path d="M46.5681 11.8053C46.4567 11.8257 46.3665 11.8541 46.345 11.9068C46.3896 11.8596 46.4697 11.8232 46.5681 11.8053Z" fill="#B03A3F"/>
<path d="M21.1808 10.3509L21.1387 10.3506C21.2594 10.407 21.2384 10.3963 21.1808 10.3509Z" fill="#B03A3F"/>
<path d="M45.048 10.9163C44.8449 10.8748 44.6363 10.8407 44.4238 10.814C44.6268 10.8555 44.8354 10.8897 45.048 10.9163Z" fill="#B03A3F"/>
<path d="M44.9707 10.802L45.3993 10.8474C45.4737 10.8135 45.4474 10.7869 44.9707 10.802Z" fill="#B03A3F"/>
<path d="M43.625 10.75C43.8941 10.7609 44.1613 10.7823 44.4242 10.8139C44.3343 10.7948 44.2921 10.7786 44.3186 10.7735L43.625 10.75Z" fill="#B03A3F"/>
<path d="M69.5231 3.32137C69.4914 3.32114 69.449 3.32083 69.4121 3.29941C68.9188 3.40166 69.1361 3.38206 69.5231 3.32137Z" fill="#B03A3F"/>
<path d="M58.1191 7.30726L58.0663 7.3201L58.14 7.32063L58.1191 7.30726Z" fill="#B03A3F"/>
<path d="M59.8319 7.01797C59.6331 7.14076 59.3709 7.23399 59.073 7.28774C58.7752 7.34148 58.4528 7.35374 58.1403 7.32321L58.9144 7.94233L59.8319 7.01797Z" fill="#B03A3F"/>
<path d="M116.645 3.50607L117.888 3.71069C116.424 4.04929 115.302 3.95662 116.496 4.22965C116.568 3.87049 117.807 3.84235 118.92 3.83445C120.032 3.82656 121.038 3.84965 121.204 3.50968C121.432 3.57478 121.648 3.64245 121.86 3.71008C121.664 3.68752 121.621 3.72688 121.431 3.707C121.573 3.76245 121.737 3.80237 121.912 3.82417L121.658 0.870868C120.762 0.9623 121.081 1.54378 119.343 1.66355C118.617 1.69273 118.077 1.65448 118.513 1.50949L117.043 1.86921C116.582 1.90822 116.636 1.77372 117.092 1.73467L114.743 2.06958L114.743 2.04579C114.332 2.23555 113.891 2.40922 113.426 2.56529C112.775 2.53417 113.697 2.45614 113.496 2.38594L112.26 2.70766C111.636 2.58682 112.644 2.28462 113.566 2.2066C111.982 1.64779 112.558 2.50881 109.704 2.40372L110.908 2.17167C109.92 1.86574 109.018 2.12111 107.493 2.02554C107.89 2.12095 110.605 2.33876 109.252 2.67287C108.65 2.66435 108.061 2.75286 107.572 2.9253C107.452 2.67583 106.725 2.81873 105.782 2.93627L105.699 2.59715C104.723 2.80437 104.876 2.96416 104.345 3.17722C104.005 3.22495 103.643 3.21904 103.308 3.16032C102.973 3.1016 102.681 2.99292 102.472 2.84907C100.623 2.98392 103.916 3.12389 101.78 3.41536C100.191 3.44628 99.1987 3.69041 97.4589 4.07729C96.3468 4.06931 97.5611 3.85322 97.1379 3.79729L96.3356 4.15386C96.1025 4.1707 96.1455 4.08109 96.167 4.03629C95.4084 4.21862 96.2387 4.37532 95.0191 4.58873C94.8309 4.98673 92.225 4.30423 90.844 4.87087C90.426 4.81233 90.9462 4.64946 90.7775 4.53188C88.7564 5.00137 89.0326 4.89756 87.4188 5.42815L85.8306 5.34535C87.0264 5.49409 85.7365 5.92123 84.5953 6.27538C85.0343 6.36051 85.4098 6.43461 85.6531 6.46545L83.7547 6.81944C83.4955 6.78584 83.65 6.65471 83.9213 6.48739C83.7992 6.52619 83.6824 6.56504 83.5921 6.59877C82.8405 6.5352 83.1334 6.31249 83.5958 6.08308C83.8603 6.12729 84.1247 6.17678 84.3786 6.2262C84.7934 5.98322 85.1555 5.70284 84.982 5.52969C84.7995 5.59654 84.5949 5.64697 84.3772 5.67875C84.4783 5.61336 84.5422 5.55563 84.4736 5.52869C84.4049 5.50175 84.2137 5.5903 83.9428 5.70208L83.3573 5.36994L83.3032 5.52558L80.6554 5.5066C78.9569 6.04187 77.5486 6.72734 74.6702 7.11399C75.3027 6.78265 74.6734 6.65648 74.6017 6.32009C75.5212 6.59115 76.8177 5.9948 78.3539 5.93705C77.554 5.96834 77.6718 5.79993 77.8258 5.72963L75.2324 6.25849C75.2025 5.99381 74.5927 6.10579 73.8516 6.05552C74.5631 6.53138 71.9573 6.57088 70.907 6.81195C70.7811 6.63914 70.989 6.44492 72.3399 6.37791C70.7532 6.10207 70.6292 7.14055 69.0632 6.9151C69.3918 6.88836 69.593 6.90038 69.6784 6.80049C68.9619 7.01487 67.0288 7.03275 67.4379 6.84791L67.7665 6.81852C65.5732 6.92974 61.1273 7.29986 60.9333 7.76129C60.951 7.53778 61.0291 7.31682 61.1658 7.10443C60.0176 7.69566 58.8642 8.28422 57.7055 8.87009C57.9361 8.46445 56.3586 7.63593 58.1086 7.30202C57.3385 7.2601 56.5619 7.31641 55.8514 7.46567C56.2219 7.49742 56.907 7.96251 56.4193 8.03042C54.9654 7.68941 55.4302 7.86201 53.6897 7.60357C54.219 7.65233 53.8172 8.28946 52.9696 8.3257C53.0762 8.22861 52.7408 7.73693 53.0274 7.65435L51.0945 8.37043C51.588 8.2338 51.0505 7.86498 50.5378 7.72643C50.786 7.82871 48.7259 7.82188 48.1851 7.91585L49.1059 7.99915C46.7224 8.04817 46.9806 8.97302 44.618 9.06716C44.8732 8.92882 45.1532 8.27758 43.9247 8.26877C43.451 8.59861 41.8426 9.85919 39.8012 10.1989L39.3628 10.0451L37.8038 10.3221C39.3058 9.55833 40.949 8.8671 42.712 8.25745C41.7964 8.1689 42.4168 8.06755 41.0975 8.15595C40.5689 8.01728 41.7615 7.86979 42.1589 7.83826C41.0996 7.85711 40.0879 7.88424 39.0498 7.89796C39.2698 8.24334 36.7692 8.36558 36.926 8.65498L40.2027 8.12309C40.4226 8.47377 38.4895 9.22423 36.2755 9.26918C35.6885 9.15389 36.5609 8.61798 36.4876 8.50373C36.2271 8.63939 34.4569 8.83563 34.235 8.75205L35.1264 8.51776C33.8824 8.44537 33.2317 9.08337 31.6979 8.8079C31.1684 8.8041 30.112 8.41571 30.0469 8.62946C30.9498 8.99826 31.3646 10.2416 30.8697 10.5686C30.6845 10.5514 28.1178 10.3003 27.5047 10.124C26.6064 9.85309 28.6174 9.31476 27.8565 9.06864C27.8558 9.16649 27.4047 9.30607 27.219 9.35235C26.6899 9.29037 27.3854 9.04411 26.2356 9.13108C26.1058 9.49776 23.8732 9.19083 25.7407 9.45547C24.6275 9.60088 24.5228 9.42821 23.1984 9.49277C23.6629 9.71032 22.1332 10.3314 21.0148 10.4768C21.0193 10.4694 21.0186 10.4614 21.0129 10.4542C21.0072 10.447 20.9967 10.4409 20.9833 10.4369L21.0654 10.062C20.9907 10.1408 21.1381 10.2582 21.2118 10.3275C23.444 10.6873 24.5963 10.9997 26.7448 11.2346C26.9029 11.3415 27.9076 11.5497 27.409 11.6572C27.8358 11.582 28.294 11.5598 28.744 11.5928C29.341 11.798 28.9598 11.7821 28.5416 11.7632C28.1233 11.7443 27.6627 11.7225 28.09 11.9583C28.2502 11.7691 29.9286 11.8287 30.9193 11.7803C30.7259 11.4298 28.7444 11.5452 27.7433 11.5644C27.8243 11.3455 28.3181 11.1639 29.071 11.045C30.0095 10.8884 30.9929 10.8062 31.9855 10.8014C33.7913 10.8144 32.6768 11.1423 33.0054 11.1023C34.042 11.2324 35.1315 11.191 36.1096 10.9844C36.5274 10.8954 36.9786 10.8512 37.4346 10.8544C37.8905 10.8577 38.341 10.9084 38.7574 11.0034C39.8142 11.3468 38.6952 11.5689 38.9001 11.7978C37.4117 11.8242 36.6886 11.491 35.6986 11.439L36.8887 11.6485C36.2322 11.7257 35.5443 11.7125 34.8977 11.6104C35.7692 11.9314 40.5986 11.9925 43.1592 12.3599C43.6416 12.2894 44.4629 12.2318 44.1037 12.1022L43.2723 12.0963C42.554 11.8267 44.8627 11.8617 43.863 11.7012C44.997 11.5956 46.2958 11.4145 47.8407 11.6292L48.066 11.9693C48.0667 11.8715 47.0827 11.719 46.6214 11.795C47.3054 11.6835 48.9263 12.3669 49.734 11.9919L48.6769 11.7013C49.8268 11.6038 51.3274 11.35 52.6816 11.5555C52.1281 11.1945 52.3532 11.569 51.4455 11.1287C52.1938 11.6392 47.8619 10.8809 49.1394 11.4534C48.2109 10.9574 47.4202 11.1766 46.1631 10.7259C46.1623 10.8343 46.5957 10.9538 45.4314 10.837C45.3499 10.8704 45.2587 10.8973 45.1608 10.9171L45.0813 10.9165L45.1448 10.9328C45.0918 10.9324 45.0864 10.9483 45.1448 10.9328C45.3633 10.9722 45.5581 11.0392 45.71 11.1273C45.0836 11.337 43.2361 11.2339 42.5893 11.3271C41.9068 11.2402 42.8973 11.2208 42.5434 11.0887L41.5786 11.2272C41.5273 10.9862 39.8291 10.7387 41.4711 10.6975L40.0154 10.6104C39.159 10.4179 38.2216 10.3357 37.2897 10.3713C36.6284 10.2793 35.5251 10.5253 36.1564 10.3791C35.3991 10.3737 34.6311 10.3867 33.8738 10.3786L33.8743 10.3178C32.7787 10.2253 31.6135 10.2434 30.4382 10.1873C29.2038 10.1572 27.9973 9.98374 26.9148 9.68075C25.9991 9.67027 25.0913 9.58605 24.2262 9.43137L24.1008 9.20039C23.3265 9.09484 22.5682 8.96124 21.8318 8.80065L21.1904 11.8322C21.4872 11.8463 21.783 11.8061 22.0227 11.7191C23.1735 12.2272 26.7894 11.6607 28.5527 11.684L28.5546 11.4195C29.8287 11.3635 31.0893 11.2522 32.3224 11.0868L32.181 10.8557C33.4115 10.6001 35.4802 10.8794 37.4777 10.7509C37.3605 10.8479 36.8467 10.8495 36.4763 10.8125C37.7299 11.0198 38.9756 10.8621 40.1843 10.6857C41.393 10.5092 42.5702 10.3087 43.7025 10.4464C44.1114 10.3511 44.5734 10.3265 45.0164 10.3765C44.9708 10.3808 44.9264 10.3876 44.8838 10.3967C44.9579 10.3992 45.0321 10.3998 45.1062 10.3983C45.3549 10.4265 45.6354 10.4603 45.8894 10.4833C45.6742 10.4407 45.4507 10.4099 45.2228 10.3912C45.7818 10.3524 46.3331 10.2909 46.8711 10.2073L47.1978 10.445L47.3409 10.4302C47.976 10.4876 47.8027 10.2801 47.4279 10.1082C47.7039 10.0578 47.9659 9.99034 48.2079 9.90747C48.8089 10.2873 49.7983 9.67291 50.5845 10.07C50.9464 9.83189 53.6586 9.72704 53.8632 9.25511C53.8999 9.31091 54.0904 9.32814 53.7566 9.3522C54.4362 9.39115 55.1224 9.33853 55.7436 9.19983L56.1281 9.50144L57.5087 8.98239C58.4769 9.11893 58.8893 9.20916 58.0345 9.51511C60.1195 9.00111 59.7734 9.2631 61.5247 8.74672L61.5232 8.96093C62.1855 8.9075 63.1625 8.55482 63.6168 8.71147C64.4208 8.8574 66.2646 8.73046 68.384 8.58962C70.5373 8.40558 72.7175 8.3045 74.9054 8.28728C73.9561 7.73831 76.7686 8.417 76.7562 7.93293C77.0254 8.05916 77.5864 8.09757 77.0132 8.27066C78.9113 7.97484 80.0161 8.25515 81.2113 7.74271C81.4858 7.86898 80.8759 7.99156 81.1032 8.05931C81.2465 8.01537 81.6711 7.88089 81.9089 7.94872C82.1468 8.01654 81.6696 8.09511 81.3777 8.18294C83.3544 7.98818 83.3895 7.52824 83.3767 7.09971C84.4351 7.21044 84.9652 7.14019 85.566 6.80069C85.9625 6.90403 86.6238 6.99341 85.394 7.15385C86.0881 7.11122 89.6903 6.96515 89.6345 6.62623C89.8829 6.69148 90.6094 6.5618 90.7792 6.50748C91.8579 6.43809 92.9281 6.34072 93.9854 6.21575L93.5405 6.21256C93.9781 5.75287 94.7654 5.99918 95.9741 5.8333L95.9738 5.87562C98.9022 5.89662 97.1248 5.6194 100.032 5.66669L99.774 5.43475C99.7781 4.8741 102.358 5.49823 103.87 5.12824L103.23 5.04696C104.026 4.7882 105.996 5.50845 106.934 5.48344C107.145 5.50876 106.668 5.58998 106.403 5.65419C108.849 5.71669 106.554 5.29559 108.234 5.03524C108.631 5.1756 108.03 5.52303 109.201 5.43093C109.846 5.5149 112.279 4.49034 114.01 4.64556C113.597 4.55268 113.19 4.4572 113.933 4.26417C115.126 4.07966 117.475 4.39801 118.358 3.84102C118.533 3.85814 118.607 3.88511 118.628 3.91964C119.503 3.69847 121.555 3.37731 121.997 3.08162C122.109 3.14258 122.247 3.19043 122.401 3.22171C122.555 3.253 122.72 3.26693 122.885 3.26253L131.077 3.30541L122.733 1.51065C121.834 1.31643 120.388 1.39598 119.275 1.46999C118.163 1.544 117.294 1.57479 117.291 1.2389L114.351 1.29453L114.426 1.21308C112.547 1.16786 111.888 1.36413 111.246 1.56052C110.807 1.50713 111.12 1.43268 111.157 1.38799C108.405 1.23866 108.134 1.28169 105.859 1.69911L105.607 1.43283C104.997 1.58978 101.622 1.05251 98.9505 1.3851C98.9782 1.35554 99.0188 1.3295 99.0693 1.30882C99.1198 1.28815 99.179 1.27336 99.2426 1.26553C96.2374 1.60102 91.9548 0.612922 90.9099 1.57868L88.9328 1.82898C91.5168 1.87395 88.5749 2.24693 89.6489 2.3948C88.6369 2.4616 87.0029 2.13515 88.2479 2.07267L88.4488 2.11908C88.8708 1.61432 85.2299 1.97698 85.2747 1.63878C80.2007 1.72141 75.2135 1.50316 70.4841 1.53273L71.0586 1.9124L69.4011 1.90052C68.9568 1.81535 68.7995 1.60265 69.9804 1.60847C69.3465 1.39499 68.0089 1.81119 67.9818 1.89562C65.6579 1.76259 68.8589 1.4338 68.1493 1.434L67.1852 1.47206L67.4073 1.51331C66.6329 1.67967 66.5735 1.8485 65.1542 1.84361C64.2491 1.77101 64.6793 1.60748 64.3246 1.59436C64.3247 1.56791 64.203 1.55646 63.795 1.59056L61.7085 1.5756L62.559 1.87261C61.6417 2.03265 60.5943 1.87439 61.5769 2.21202C60.1348 1.6939 53.7824 2.06886 52.9044 1.90653C51.6212 2.138 50.3396 2.13675 48.7563 2.11217C49.153 2.17584 49.3994 2.51878 48.0281 2.47721C48.5098 1.76924 45.52 2.1736 44.4063 1.65783C45.3942 2.0008 40.5239 1.73314 42.0774 2.21768C40.9392 2.15662 42.0052 1.95269 41.1379 1.7825C39.6763 1.88996 38.1895 1.89443 36.721 1.79579C35.0965 1.68752 33.4598 1.6369 31.8234 1.6443C31.7698 1.73648 32.3513 1.88346 31.6036 2.01562L29.8435 1.53753C29.1865 1.57778 29.2254 2.06205 28.0257 1.72815C28.1946 1.8087 28.4426 1.9295 28.0241 1.95294C21.4874 1.42474 14.5821 2.09458 8.01753 1.03723C8.89516 1.24452 8.29673 1.24287 7.60836 1.23C8.04751 1.28605 7.56965 1.45982 7.64817 1.58733L4.90815 1.1366C4.3762 1.46602 1.92191 1.04642 1.5859 1.37725L2.47578 1.35189C1.24994 1.70014 3.99959 2.28847 3.76829 2.78666C5.1375 2.38655 7.17307 3.58861 9.41742 3.00436C9.88263 3.11877 8.99269 3.1547 9.23549 3.26752C9.80887 3.06799 10.4763 3.04104 11.6987 3.17411L11.5554 3.22333C15.0185 3.2799 16.4837 3.52313 20.364 3.73873L20.0906 3.47229C20.5752 3.49951 21.0476 3.56822 21.4872 3.67538C22.4642 3.31742 19.1416 3.60566 20.0395 3.20481C21.0948 3.74132 25.9224 3.31047 26.649 3.90016C27.9358 3.92261 26.2858 3.60399 27.5672 3.6264L27.905 3.78752L28.2348 3.59153C29.0765 3.63723 29.4987 3.83861 29.5242 3.97102C29.2557 3.97181 28.9881 3.98406 28.7243 4.00761C29.8138 4.20849 31.812 3.97421 32.1823 4.03241L30.9491 3.9257C32.7078 3.8669 34.6564 3.89675 36.5894 3.90796C38.4449 3.9279 40.2987 3.86774 42.1301 3.72817L41.8715 3.60995C44.4521 3.39837 43.9412 3.7438 46.7805 3.64515L46.6744 3.67349C47.349 3.54582 48.0704 3.48889 48.7939 3.50621C48.0833 3.64657 50.153 3.78041 49.2146 3.92972C52.0125 3.68531 50.5981 3.74394 52.4284 3.29688L52.8665 3.49043C53.4622 3.26348 54.1972 3.1456 54.9502 3.15627C53.7945 3.33047 55.8643 3.4511 54.5758 3.68253C57.5649 4.09802 58.9693 3.22741 60.363 3.84304C61.6962 3.28928 57.7753 3.56002 58.5335 3.43851C57.8833 3.26723 59.638 3.02592 60.5751 3.07231C61.523 3.07911 62.2225 3.75323 64.6112 3.72275C64.3729 3.72104 64.3566 3.76325 64.1183 3.76419C65.023 3.89497 65.8621 3.56247 66.9673 3.78461C67.5629 3.45036 68.3919 3.79482 68.5591 3.37022L66.3764 3.4868C67.6111 3.36606 68.7428 2.86376 70.8013 3.08216C70.4449 3.20009 70.0503 3.28669 69.6344 3.33827C70.2373 3.45631 70.779 3.24333 71.4083 3.36421C71.257 3.78627 68.7595 3.48274 67.4438 3.81447C68.0939 3.98575 69.9405 3.48592 69.2964 3.94677C70.2221 3.36099 71.6527 3.99539 73.2447 3.5387L73.1528 3.80251C73.5463 3.71342 73.9672 3.65747 74.3985 3.6369L73.57 3.97212C74.859 3.67986 76.1052 4.18601 77.3509 4.02039C74.7027 4.05958 76.7387 3.72508 75.6172 3.55571C78.8344 3.18207 77.5244 4.19089 81.1427 4.02906C80.6551 4.07053 79.29 3.89941 80.0482 3.77526C80.7506 3.80608 81.4399 3.89225 82.0906 4.03056C84.4902 3.95256 81.7059 3.76334 82.7185 3.61192C83.5585 3.90886 83.8899 3.47486 84.934 3.36333L84.9321 3.62779C87.6797 3.75857 85.6244 3.0853 88.1123 3.25653L87.0928 3.62212L88.3699 3.51491L88.1242 3.80935C89.5081 3.57861 89.9473 3.62937 91.3025 3.69463C90.9754 3.52038 91.4541 3.23025 92.6617 3.20982C93.4975 3.35069 92.2151 3.45786 93.9314 3.40141C93.5542 3.56532 93.1397 3.77127 92.3787 3.54365C92.3092 3.62779 92.0068 3.70761 91.932 3.7917C92.8365 3.95422 94.1721 3.80776 94.7918 3.79634C94.564 3.79647 94.3372 3.77878 94.1196 3.74392L96.5849 3.36489C96.9814 3.45765 96.6737 3.53743 96.3713 3.61461C96.8942 3.54009 97.425 3.47944 97.9613 3.43293C97.785 3.64324 97.8418 3.85523 96.7978 3.95353L99.1562 3.70597C99.3198 3.79442 100.388 3.94226 100.081 4.02204C101.404 4.12938 103.261 3.58731 105.034 3.73754C105.221 3.67057 105.441 3.63094 105.671 3.62309C107.307 3.65863 108.772 3.90981 110.697 3.6036L111.811 3.97127C113.327 3.87899 110.3 3.51082 112.827 3.35704C114.613 3.22967 113.508 3.67136 114.138 3.77108C115.008 3.58161 116.578 3.18823 118.186 3.49068C117.674 3.51763 117.159 3.52277 116.645 3.50607ZM109.295 2.67583C109.624 2.58298 110.25 2.34151 110.578 2.45759C110.311 2.7889 109.935 2.68835 109.295 2.67583ZM81.6844 6.02705C81.8578 5.97664 82.0521 5.94647 82.2529 5.93876C82.4537 5.93104 82.6559 5.94599 82.8445 5.98248C82.4688 6.03674 82.074 6.0519 81.6844 6.02705ZM38.8603 10.6921L38.8179 10.6917C38.0351 10.5565 38.3154 10.6114 38.8603 10.6921ZM40.5059 10.8916C40.6808 10.8664 40.6758 10.8294 40.6125 10.7919C40.485 10.8491 40.0826 10.833 39.6805 10.7852C39.7858 10.8653 39.9973 10.9223 40.5059 10.8916ZM64.107 1.65362L64.4349 1.71681C63.6982 1.79616 63.9052 1.72887 64.107 1.65362Z" fill="#B03A3F"/>
<path d="M84.7344 5.40601C84.8279 5.43411 84.8988 5.47772 84.9347 5.5291C85.0622 5.47448 85.0467 5.42411 84.7344 5.40601Z" fill="#B03A3F"/>
<path d="M105.003 3.70807L104.951 3.70769C104.924 3.71982 104.904 3.73513 104.892 3.75223L105.003 3.70807Z" fill="#B03A3F"/>
<path d="M27.1367 8.99707C27.3781 9.00484 27.6133 9.03999 27.8244 9.09985C27.8302 9.03642 27.6663 9.00087 27.1367 8.99707Z" fill="#B03A3F"/>
<path d="M49.5287 10.9511L48.4219 10.9431C48.7596 10.9547 49.0887 11.0041 49.3847 11.0875C49.3745 11.0319 49.1846 10.9327 49.5287 10.9511Z" fill="#B03A3F"/>
<path d="M58.4306 13.2627C58.6002 13.2454 58.7587 13.2968 58.923 13.2821L58.9239 13.1631C58.2677 13.0923 57.7695 13.1495 58.4306 13.2627Z" fill="#B03A3F"/>
<path d="M50.3396 11.8531C50.3751 12.0703 51.0691 12.0435 51.8369 12.0596C51.7911 12.0618 51.7449 12.0615 51.6992 12.0586C52.0031 11.7699 51.166 11.8141 50.3396 11.8531Z" fill="#B03A3F"/>
<path d="M52.0115 12.0636C52.248 12.0691 52.4835 12.084 52.7156 12.1083C52.8541 11.9956 52.4352 12.064 52.0115 12.0636Z" fill="#B03A3F"/>
<path d="M42.6569 10.862C43.0006 10.9359 42.9289 10.5995 43.1188 10.6987C43.5656 10.4374 40.6813 10.9034 42.6569 10.862Z" fill="#B03A3F"/>
<path d="M50.7793 12.5943L50.5748 12.3125L50.1022 12.4968L50.7793 12.5943Z" fill="#B03A3F"/>
<path d="M44.8768 12.0523L46.0674 12.1931C46.0677 12.1481 46.2162 12.1281 46.4069 12.1188C45.6711 12.0713 44.8668 11.9729 44.8768 12.0523Z" fill="#B03A3F"/>
<path d="M46.4081 12.1186C46.7321 12.1487 47.0634 12.1511 47.3878 12.1256C47.0618 12.111 46.7343 12.1086 46.4081 12.1186Z" fill="#B03A3F"/>
<path d="M49.1208 12.5693L48.7771 12.4928L47.9355 12.4207L49.1208 12.5693Z" fill="#B03A3F"/>
<path d="M31.9981 11.2458C31.5532 11.2426 31.119 11.2395 30.6743 11.2178C30.5149 11.296 30.8532 11.3804 31.351 11.384C31.6743 11.3493 32.1721 11.3449 31.9981 11.2458Z" fill="#B03A3F"/>
<path d="M35.7772 12.233C35.4335 12.1564 35.4234 12.0955 35.2493 11.9964L35.1305 12.3209L35.7772 12.233Z" fill="#B03A3F"/>
<path d="M31.9135 12.0493C31.7593 12.1354 29.9214 12.1593 31.6047 12.2719C31.7641 12.2042 33.1092 12.2139 31.9135 12.0493Z" fill="#B03A3F"/>
<path d="M29.3283 9.80631L28.9998 9.82511L29.1496 10.3578L29.3283 9.80631Z" fill="#B03A3F"/>
<path d="M46.4088 7.6649C44.8203 7.62177 46.1256 8.01726 44.691 7.93292C44.3563 8.07862 45.8662 7.99952 45.521 8.12928C46.4173 7.94794 46.9254 7.99126 46.4088 7.6649Z" fill="#B03A3F"/>
<path d="M45.5193 8.12928C45.3708 8.15995 45.2223 8.19328 45.0578 8.23706C45.2213 8.21228 45.3767 8.17598 45.5193 8.12928Z" fill="#B03A3F"/>
<path d="M3.00991 0.7553L2.03125 0.605469L2.64939 0.810899L3.00991 0.7553Z" fill="#B03A3F"/>
<path d="M1.03008 1.0821L0.841951 0.731645L0.199086 1.01795C0.437445 1.01172 0.877097 0.999015 1.03008 1.0821Z" fill="#B03A3F"/>
<path d="M106.279 2.29177L106.242 2.38143C106.432 2.45155 106.66 2.43467 107.126 2.38777L106.279 2.29177Z" fill="#B03A3F"/>
<path d="M119.575 1.03288L119.348 1.05241L119.918 1.3051L119.575 1.03288Z" fill="#B03A3F"/>
<path d="M113.187 4.18747C113.653 4.19081 114.193 4.12858 114.665 4.13989C113.653 4.19875 113.041 3.79501 113.187 4.18747Z" fill="#B03A3F"/>
</svg>
