<svg width="157" height="20" viewBox="0 0 157 20" fill="none" xmlns="http://www.w3.org/2000/svg">
<g clip-path="url(#clip0_221_3865)">
<path d="M155.916 8.33528C156.233 8.32308 156.108 7.98019 156.152 7.9053C155.651 8.01605 155.966 8.434 155.916 8.33528Z" fill="#B03A3F"/>
<path d="M150.745 9.43078L150.833 9.27185L150.081 9.68505L150.745 9.43078Z" fill="#B03A3F"/>
<path d="M145.85 9.63704C146.333 10.2682 147.621 9.45009 148.498 9.64517L148.644 9.78602L149.026 9.24974C147.985 9.49272 146.92 9.62259 145.85 9.63704Z" fill="#B03A3F"/>
<path d="M143.189 8.32995C143.358 8.57971 142.628 8.5803 143.799 8.3889C143.76 8.37164 143.722 8.3517 143.685 8.32923C143.582 8.33318 143.433 8.3389 143.189 8.32995Z" fill="#B03A3F"/>
<path d="M143.686 8.3293C144.2 8.30957 143.342 8.13205 143.686 8.3293V8.3293Z" fill="#B03A3F"/>
<path d="M141.309 8.57608L141.983 8.32145C141.836 8.17149 141.228 8.16739 141.448 8.04913C140.754 8.24965 140.945 8.343 141.309 8.57608Z" fill="#B03A3F"/>
<path d="M140.683 9.07619L141.035 8.97115C140.967 8.9097 140.873 8.89504 140.683 9.07619Z" fill="#B03A3F"/>
<path d="M141.773 8.7318L141.033 8.97065C141.131 9.06757 141.148 9.27736 141.376 8.88426C141.318 9.07866 141.46 8.88106 141.773 8.7318Z" fill="#B03A3F"/>
<path d="M142.198 8.81635C142.586 8.93871 143.076 9.01143 142.402 9.26606C143.697 9.11568 143.493 8.66598 142.198 8.81635Z" fill="#B03A3F"/>
<path d="M145.625 10.3139L146.146 10.4861L146.577 10.2499C146.357 10.3682 145.589 10.114 145.625 10.3139Z" fill="#B03A3F"/>
<path d="M137.062 8.39136C137.068 8.52842 137.31 8.75701 137.364 8.92883L137.862 8.74499C137.598 8.69107 137.109 8.6275 137.062 8.39136Z" fill="#B03A3F"/>
<path d="M137.367 8.95641L136.628 9.22269C137.302 9.22428 137.419 9.10995 137.367 8.95641Z" fill="#B03A3F"/>
<path d="M140.598 9.81087L141.812 9.26095L140.356 9.82933L140.598 9.81087Z" fill="#B03A3F"/>
<path d="M134.206 8.52809L134.614 8.19213L133.876 8.70548L134.206 8.52809Z" fill="#B03A3F"/>
<path d="M132.301 8.66537C132.609 8.38819 131.854 8.23415 132.175 8.05712C131.697 8.14514 131.242 8.32766 130.839 8.59345C131.321 8.4539 131.837 8.47924 132.301 8.66537Z" fill="#B03A3F"/>
<path d="M130.187 8.92064C130.414 8.83061 130.632 8.72122 130.839 8.59367C130.606 8.66883 130.386 8.77912 130.187 8.92064Z" fill="#B03A3F"/>
<path d="M135.364 9.21588C135.301 9.11063 135.213 9.0214 135.108 8.95547C135.003 8.88955 134.884 8.84878 134.76 8.83643L135.064 9.21821L135.364 9.21588Z" fill="#B03A3F"/>
<path d="M135.42 9.21364L135.363 9.21582C135.363 9.21582 135.365 9.26151 135.42 9.21364Z" fill="#B03A3F"/>
<path d="M138.614 9.53964C138.173 9.77616 137.267 10.0489 138.167 10.3438C138.475 10.0666 137.963 9.89406 138.614 9.53964Z" fill="#B03A3F"/>
<path d="M135.803 9.68427L136.61 9.73568C136.606 9.63517 136.433 9.49541 136.653 9.37715L135.803 9.68427Z" fill="#B03A3F"/>
<path d="M135.424 9.82697L135.811 9.68398L135.511 9.66804L135.424 9.82697Z" fill="#B03A3F"/>
<path d="M131.566 9.22482C131.211 9.3888 130.826 9.4784 130.434 9.48788C130.891 9.5478 131.352 9.56684 131.812 9.5448C131.863 9.42385 132.061 9.19667 131.566 9.22482Z" fill="#B03A3F"/>
<path d="M133.27 9.25971L133.186 9.26294C133.186 9.26294 133.272 9.33281 133.27 9.25971Z" fill="#B03A3F"/>
<path d="M126.248 9.6665L126.317 9.73706L126.324 9.67274L126.248 9.6665Z" fill="#B03A3F"/>
<path d="M131.89 9.61502C132.017 9.64288 132.15 9.64166 132.277 9.61139C132.404 9.58112 132.522 9.52264 132.622 9.4405C132.356 9.49943 132.085 9.53431 131.812 9.54477C131.786 9.60067 131.778 9.6376 131.89 9.61502Z" fill="#B03A3F"/>
<path d="M129.027 9.15744C129.221 9.23256 129.42 9.2952 129.623 9.34499C129.45 9.22352 129.088 9.05442 129.027 9.15744Z" fill="#B03A3F"/>
<path d="M133.069 9.18528L133.125 9.18313C133 9.08728 133.021 9.13225 133.069 9.18528Z" fill="#B03A3F"/>
<path d="M133.071 9.1853C132.911 9.25211 132.761 9.33781 132.622 9.44047C132.815 9.40853 133.004 9.35834 133.187 9.29064L133.071 9.1853Z" fill="#B03A3F"/>
<path d="M125.075 12.2282C125.117 11.8606 125.982 11.4888 126.8 11.8417C127.556 11.5382 127.006 10.3696 126.308 9.73756C126.314 9.8929 126.319 10.0391 125.524 10.2893C125.803 10.4707 127.289 10.679 126.638 11.0335C125.599 11.2655 125.774 10.9385 125.262 10.766C125.709 11.2064 123.961 11.484 124.21 12.1333L125.135 11.8598C125.177 11.968 124.819 12.1465 125.075 12.2282Z" fill="#B03A3F"/>
<path d="M127.813 9.7075L128.14 9.69494C127.734 9.62305 127.346 9.4731 127 9.25373C126.465 9.44815 126.358 9.58949 126.325 9.70972L127.895 9.65859L127.813 9.7075Z" fill="#B03A3F"/>
<path d="M129.587 9.5935C129.35 9.99611 128.581 10.1995 129.073 10.6015C130.008 10.5657 129.734 10.2468 130.288 10.0516C128.759 10.2201 130.728 9.81508 129.607 9.63846C129.879 9.57139 130.156 9.52408 130.435 9.49689C130.162 9.46545 129.891 9.41778 129.624 9.35412C129.69 9.35161 129.712 9.43313 129.627 9.40895C129.617 9.46363 129.593 9.51503 129.557 9.55805C129.115 9.49267 129.488 9.46002 129.627 9.40895C129.627 9.40895 129.625 9.36325 129.624 9.34498L128.1 9.6231C128.595 9.6671 129.094 9.65719 129.587 9.5935Z" fill="#B03A3F"/>
<path d="M137.387 11.225C137.331 11.2271 137.384 11.161 137.327 11.1358C137.27 11.1105 137.199 11.223 137.387 11.225Z" fill="#B03A3F"/>
<path d="M136.743 11.0206C136.816 10.9479 136.904 10.8924 137.002 10.8584C137.099 10.8245 137.204 10.8131 137.307 10.8251C137.619 10.9229 137.314 11.0079 137.319 11.1358C137.539 11.0267 138.074 10.8231 137.384 10.6574L137.274 10.7166C136.653 10.6123 135.84 10.1585 135.941 10.0998C136.136 10.4603 136.41 10.7745 136.743 11.0206Z" fill="#B03A3F"/>
<path d="M133.126 10.3725L131.853 10.6226L132.52 10.9357L132.513 10.7346C133.208 10.8086 133.04 10.568 133.126 10.3725Z" fill="#B03A3F"/>
<path d="M126.092 9.48023L126.244 9.05345L125.529 9.67573L126.092 9.48023Z" fill="#B03A3F"/>
<path d="M124.43 9.59923L124.472 9.24071L124.042 9.47687L124.43 9.59923Z" fill="#B03A3F"/>
<path d="M25.7295 16.6375L25.7811 16.4982C25.6987 16.5746 25.6906 16.6115 25.7295 16.6375Z" fill="#B03A3F"/>
<path d="M24.6199 17.6772L25.4096 17.5279C24.8697 17.6035 24.5164 17.6629 24.6199 17.6772Z" fill="#B03A3F"/>
<path d="M83.56 11.3605C82.9958 11.0436 82.3591 10.5464 82.4403 10.9551L82.6329 11.3412C82.9382 11.2654 83.2586 11.2721 83.56 11.3605Z" fill="#B03A3F"/>
<path d="M55.6837 14.9658L55.8474 15.0876L56.2064 14.6895L55.6837 14.9658Z" fill="#B03A3F"/>
<path d="M55.3738 16.6247C55.2803 16.6283 55.081 16.5536 54.9017 16.5147L54.3926 16.4153L54.8179 16.5271L55.3738 16.6247Z" fill="#B03A3F"/>
<path d="M42.7794 9.11939C42.755 8.9837 42.7496 8.84534 42.7636 8.70818C41.535 9.1214 42.4758 9.01208 42.7794 9.11939Z" fill="#B03A3F"/>
<path d="M107.386 10.446C107.001 10.3299 106.602 10.2652 106.199 10.2537C106.778 10.4694 107.25 10.8173 107.386 10.446Z" fill="#B03A3F"/>
<path d="M45.6864 13.1529C45.3314 13.1666 44.877 13.2755 44.3289 13.3789C44.6739 13.3474 45.1016 13.2761 45.6864 13.1529Z" fill="#B03A3F"/>
<path d="M104.839 10.3515L105.085 10.4335C105.448 10.3329 105.825 10.2846 106.202 10.29C105.987 10.1914 105.751 10.1455 105.513 10.1563C105.275 10.167 105.044 10.2339 104.839 10.3515Z" fill="#B03A3F"/>
<path d="M20.5149 9.9648L20.3916 9.92379C20.3844 9.97897 20.4405 9.97681 20.5149 9.9648Z" fill="#B03A3F"/>
<path d="M4.59675 6.76934C4.81107 6.74981 5.02628 6.74155 5.24145 6.74459C5.02677 6.71625 4.80863 6.72462 4.59675 6.76934Z" fill="#B03A3F"/>
<path d="M119.533 11.2056C119.496 11.225 119.464 11.2532 119.441 11.2877C119.418 11.3221 119.403 11.3617 119.4 11.4028C119.416 11.3226 119.464 11.2517 119.533 11.2056Z" fill="#B03A3F"/>
<path d="M101.42 12.9717C101.5 13.0418 101.48 13.0243 101.42 12.9717V12.9717Z" fill="#B03A3F"/>
<path d="M118.265 9.8727C118.114 9.82694 117.959 9.79309 117.803 9.77148C117.952 9.82254 118.107 9.85651 118.265 9.8727Z" fill="#B03A3F"/>
<path d="M118.183 9.68349L118.491 9.67165C118.537 9.64245 118.536 9.6059 118.183 9.68349Z" fill="#B03A3F"/>
<path d="M117.231 9.75679C117.42 9.73057 117.611 9.72324 117.801 9.7349C117.736 9.73741 117.706 9.69285 117.724 9.67386L117.231 9.75679Z" fill="#B03A3F"/>
<path d="M49.3503 7.43066L49.2756 7.43353C48.9254 7.57508 49.0832 7.54157 49.3503 7.43066Z" fill="#B03A3F"/>
<path d="M73.3065 16.2563C73.4451 16.0724 73.6402 15.9367 73.8632 15.8689C74.0862 15.801 74.3254 15.8047 74.5459 15.8793L74.0816 14.7532L73.3065 16.2563Z" fill="#B03A3F"/>
<path d="M32.3855 13.5451L30.217 14.0951C29.3818 13.7886 30.9994 13.2689 28.3375 13.8836C30.3432 13.7242 29.5076 14.1406 28.6721 14.5571C27.8366 14.9735 27.0104 15.3895 29.1514 15.0969L27.586 15.5139C27.8074 15.4322 27.5835 15.4499 27.805 15.3682C26.1189 15.8081 26.6798 15.7958 27.4086 15.7678C28.1374 15.7398 29.0344 15.7054 27.9074 16.0872C27.2096 16.3741 26.4727 16.5597 25.7203 16.6379C25.6691 16.768 25.6183 16.9072 25.5765 17.0369C25.0794 17.2482 24.3167 17.3689 24.8139 17.1577L24.3828 17.3847L24.1628 17.5029C24.1628 17.5029 24.0974 17.5055 24.1628 17.5029L24.331 17.4965L25.5363 17.4502L25.3774 17.4563L29.1001 16.9291C28.9001 17.0831 28.3371 17.0407 27.8558 17.1782L30.1005 16.909C28.9669 17.2369 27.793 17.4113 26.6115 17.4272C24.7607 17.965 25.2829 17.9175 26.2137 17.7903C27.1445 17.663 28.457 17.4845 28.2465 17.8495L26.5761 17.9685C24.6461 18.6375 26.4722 18.4301 26.172 18.8992C26.4295 18.7795 26.783 18.4822 27.4081 18.1928C28.2571 17.8207 29.1606 17.5822 30.0852 17.4861C30.0887 17.5774 30.3812 17.6394 31.9539 17.4143C30.3799 17.8499 31.4149 17.7553 32.3129 17.7483L30.221 18.3411C31.5153 18.1674 32.7991 17.9256 34.067 17.6169C34.8277 17.6883 33.5275 18.1867 32.5044 18.592C33.0068 18.6488 33.513 18.5183 33.922 18.2264C34.5694 17.8767 35.2958 17.6915 36.0348 17.6877C36.2348 17.768 36.4498 17.8065 36.666 17.8008C36.8563 17.8075 37.0468 17.8002 37.236 17.7789L37.9741 17.7505C38.9987 17.6288 40.2541 17.4251 41.6953 17.1867C42.3851 17.3615 40.5975 17.5949 40.6038 17.7594L42.8093 17.1988C43.0335 17.1902 42.6284 17.3613 42.4163 17.4427C43.7174 17.2097 43.8324 16.7936 45.4144 16.5681C46.2334 16.2072 46.3453 16.4408 46.7835 16.6436C47.1784 16.8038 47.6026 16.8836 48.0303 16.8782C48.458 16.8728 48.8802 16.7823 49.2713 16.6121C49.4832 16.7687 48.6593 17.0017 48.5182 17.2267C50.0131 16.9223 50.5518 16.8192 51.0802 16.6891C51.7552 16.5108 52.4186 16.2928 53.0669 16.0363C53.4829 16.1485 53.9457 16.2588 54.4364 16.3681C53.9048 16.1689 54.0732 15.9245 54.4094 15.6645C54.7457 15.4045 55.3255 15.1534 55.7095 14.9191C55.4211 14.7197 55.1619 14.5466 55.0186 14.4698L56.4078 14.0961C56.5795 14.181 56.419 14.3885 56.2323 14.6428L56.4789 14.4869C57.0012 14.6865 56.7526 15.0346 56.4019 15.405L55.8743 15.0684C55.5423 15.438 55.2397 15.8431 55.3274 16.1783C55.4636 16.0894 55.6177 16.0304 55.7793 16.0054C55.6987 16.1 55.6368 16.1939 55.6856 16.2469C55.7345 16.2999 55.8794 16.1754 56.107 16.0111L56.4589 16.6473L56.5239 16.3886L58.408 16.7189C59.6998 16.0013 60.8118 14.9886 62.9032 14.6246C62.4079 15.1286 62.8306 15.4144 62.8243 15.982C62.2219 15.4011 61.2084 16.3003 60.111 16.2326C60.6831 16.2655 60.5721 16.5443 60.4262 16.6414L62.3485 16.0186C62.3661 16.4755 62.782 16.3405 63.3032 16.5127C62.8757 15.614 64.7279 15.8449 65.5106 15.5128C65.5221 15.8144 65.3943 16.1396 64.4291 16.1034C65.5205 16.7478 65.7518 14.9728 66.8297 15.5079C66.5961 15.5169 66.4653 15.5219 66.3765 15.6443C66.9172 15.349 68.2427 15.5086 67.9725 15.7843L67.6829 15.7954C69.2565 15.8357 72.4574 15.6121 72.6511 14.8086C72.6152 15.1862 72.5321 15.5582 72.4036 15.9162L75.1059 13.1861C74.8886 13.8625 75.9116 15.4063 74.6276 15.84C75.1595 15.9854 75.7249 15.9637 76.244 15.7779C75.9883 15.6962 75.5736 14.8885 75.9151 14.7656C76.8779 15.4699 76.5936 15.1331 77.8231 15.7173C77.4344 15.5858 77.7775 14.5294 78.4139 14.5324C78.3264 14.6913 78.5096 15.5628 78.2895 15.6811L79.7448 14.5911C79.3781 14.7882 79.7239 15.507 80.0697 15.7408C79.9031 15.5459 81.3684 15.6909 81.7667 15.5841L81.1129 15.3714C82.819 15.4523 82.7296 13.8542 84.4038 13.8357C84.216 14.0625 83.9681 15.161 84.8232 15.2563C85.1953 14.7113 86.4449 12.6501 87.9147 12.1818L88.2159 12.4722L89.3425 12.0813C88.257 13.2916 87.0445 14.3871 85.7251 15.3498C86.3696 15.563 85.9163 15.6994 86.8586 15.6266C87.2059 15.8969 86.3612 16.0758 86.0816 16.1048L88.3027 16.1934C88.1764 15.5851 89.97 15.5071 89.8569 14.999L87.4899 15.7396C87.3632 15.1222 88.796 13.9325 90.3696 13.9727C90.7808 14.204 90.122 15.0803 90.1578 15.2803C90.6498 15.0036 91.2205 14.8917 91.783 14.9617L91.1323 15.3161C92.01 15.5112 92.5209 14.4392 93.5898 14.9838C93.9542 14.9698 94.7038 15.728 94.7458 15.3604C94.4394 14.8558 94.2409 14.2956 94.1622 13.7135C94.0836 13.1314 94.1265 12.5395 94.2883 11.9737C95.1019 12.2086 95.8908 12.5184 96.6444 12.899C97.2631 13.4152 95.7602 14.2416 96.3408 14.7409C96.3342 14.5673 96.6722 14.353 96.8095 14.2745C97.1982 14.406 96.6707 14.8014 97.4991 14.6873C97.606 14.0609 99.1733 14.6688 97.8622 14.1518C98.6587 13.9382 98.7263 14.2375 99.6689 14.1739C99.3545 13.7833 100.466 12.7614 101.263 12.557C101.269 12.7123 101.417 12.908 101.505 13.0052C103.159 12.9417 104.068 13.2272 105.61 13.168C105.756 13.3179 106.51 13.4628 106.203 13.7491C106.464 13.5364 106.785 13.406 107.124 13.3752C108.079 13.8693 106.071 13.4979 106.797 14.1198C106.848 13.7518 108.011 13.5608 108.637 13.3079C108.41 12.7584 107.073 13.2673 106.4 13.522C106.37 12.7544 107.516 11.8959 109.128 11.468C110.401 11.227 109.708 11.9491 109.928 11.8217C112.334 11.8574 111.922 10.3907 113.942 10.8622C114.755 11.316 113.98 11.84 114.209 12.1881C113.169 12.411 112.59 11.9391 111.89 11.9934L112.768 12.1885C112.336 12.4089 111.84 12.4795 111.362 12.3888C112.043 12.802 115.439 12.3055 117.313 12.6271C117.634 12.45 118.235 12.2531 117.919 12.073L117.333 12.1596C116.776 11.7875 118.414 11.569 117.669 11.4146C118.513 10.94 119.484 10.7272 120.453 10.8044L120.689 11.3536C120.683 11.1891 119.948 11.0526 119.646 11.2381C120.094 10.9646 121.375 11.9221 121.851 11.1534L121.061 10.7994C121.835 10.486 122.792 9.81783 123.78 9.98119C123.311 9.45015 123.559 10.0538 122.824 9.44139C123.462 10.2222 120.311 9.5379 121.314 10.3138C120.566 9.60132 120.059 10.0509 119.101 9.48366C119.109 9.66642 119.442 9.81831 118.616 9.7585C118.565 9.82461 118.505 9.88259 118.436 9.9302C118.602 9.97831 118.751 10.0708 118.867 10.1973C118.481 10.6331 117.163 10.6745 116.724 10.9201C116.234 10.8474 116.921 10.693 116.652 10.5111L116.001 10.8656C115.92 10.4569 114.667 10.2396 115.817 9.95753L114.658 10.002C114.022 9.77961 113.331 9.75812 112.681 9.94062C112.192 9.8679 111.466 10.4449 111.874 10.1089L110.258 10.4272L110.254 10.3267C108.647 10.3884 106.973 11.1481 105.106 10.5243C104.46 10.7152 103.782 10.7816 103.111 10.7199L102.92 10.3795C102.224 10.5343 100.814 10.1126 100.528 10.4713C99.7361 9.58659 97.1477 10.4089 95.9174 10.2914L95.8885 10.7592C94.984 10.806 94.0864 10.9417 93.2092 11.1641L93.2904 11.5728C92.3694 11.9559 90.9627 11.3876 89.5443 11.4879C89.6318 11.3289 89.9976 11.3515 90.2544 11.4606C88.5188 10.6121 86.6932 12.2928 85.1249 11.6575C84.9795 11.7245 84.8218 11.7622 84.6613 11.7684C84.5007 11.7745 84.3406 11.7491 84.1905 11.6934C84.2213 11.7014 84.2539 11.7001 84.284 11.6898L84.1251 11.6959C83.9541 11.6293 83.7735 11.5539 83.5841 11.4971C83.7264 11.5842 83.8801 11.6522 84.041 11.6991C83.6419 11.7337 83.2468 11.804 82.8607 11.9092L82.657 11.4778L82.5542 11.4817C82.1088 11.3341 82.2166 11.7051 82.4628 12.0251C82.2571 12.0937 82.0623 12.1905 81.8844 12.3127C81.5023 11.6227 80.7446 12.6035 80.2296 11.8637C79.945 12.2499 78.0265 12.2412 77.8227 13.0269C77.8189 12.9264 77.6769 12.886 77.9102 12.8679C77.4442 12.7296 76.944 12.7488 76.49 12.9224L76.2537 12.3733L75.2176 13.1726C74.5506 12.8597 74.2626 12.6694 74.8908 12.2152C73.3654 12.9418 73.6393 12.5195 72.3378 13.2283L72.3895 12.8694C71.913 12.8877 71.1755 13.4194 70.8743 13.1289C69.7831 12.4937 65.6115 13.2669 62.8496 12.7415C63.4323 13.7807 61.5607 12.3152 61.4898 13.1507C61.3212 12.9009 60.9328 12.7785 61.3636 12.5423C59.9812 12.8516 59.2556 12.2298 58.3295 12.97C58.1515 12.7206 58.6048 12.5842 58.459 12.4434C58.349 12.5025 58.0283 12.6796 57.8732 12.5391C57.7181 12.3987 58.0707 12.321 58.281 12.194C56.8629 12.3033 56.7526 13.0854 56.6873 13.82C56.4433 13.6519 56.1418 13.5833 55.8467 13.6288C55.5515 13.6743 55.2859 13.8303 55.1059 14.0638C54.9286 13.8327 54.6295 13.5971 55.28 13.4806C54.7661 13.5003 53.7347 13.2013 53.2059 13.8073C53.2003 13.6611 52.8041 13.8227 52.636 13.8292C52.1432 13.8057 51.6492 13.8247 51.1597 13.8859L51.1636 13.9864C50.4578 14.3704 50.1882 14.4173 50.0373 14.3865C49.8522 14.2927 49.6403 14.2622 49.4352 14.2998L49.6099 14.2199C49.4319 13.9705 49.2007 14.0434 48.9039 14.1097C48.607 14.176 48.3097 14.2332 48.4854 13.9336L47.2969 14.4185C45.886 14.9577 45.8527 14.8217 46.0779 14.5934C46.303 14.3652 46.8531 14.0695 45.8043 14.2928L45.1971 14.5632C44.3722 14.7687 45.1912 14.4078 46.3724 13.9781C47.5536 13.5484 49.1442 13.0573 49.3085 12.9503C49.6137 12.8562 49.9479 12.7885 50.2355 12.7226C51.1589 12.4034 50.5572 12.5729 49.5289 12.8412C48.5005 13.1094 47.1677 13.49 46.5352 13.5875L48.8787 12.9668C49.3388 12.863 49.7931 12.7357 50.2395 12.5851C49.5177 12.6901 48.8017 12.8306 48.0942 13.0061C46.7759 13.2763 45.4184 13.5023 46.8734 13.1353C45.5935 13.4315 44.435 13.7231 43.0685 13.9586C42.5564 14.024 43.5287 13.7579 44.1397 13.588C44.2501 13.5615 44.3583 13.5268 44.4633 13.4841C44.5287 13.4815 44.4633 13.4841 44.5287 13.4815C44.0426 13.5008 43.5594 13.5653 43.0857 13.6742L44.3113 13.4258C43.3757 13.4039 42.4395 13.4399 41.5083 13.5334C45.8682 12.7895 45.2228 12.796 44.8452 12.7098C44.4676 12.6237 44.1077 12.5094 47.1186 12.2108L47.8358 11.8813L48.359 11.8612C49.286 11.6334 48.3496 11.6144 47.5508 11.5261C47.8795 11.4885 48.2106 11.4758 48.5412 11.4881C50.4827 11.1207 50.0464 11.2107 49.5194 10.6453L50.6089 10.7499C50.4469 10.6737 51.2386 10.5793 51.9096 10.5077C52.5805 10.4362 53.1204 10.3606 53.3313 10.0048C53.383 10.0517 53.4154 10.1156 53.4224 10.1843C53.7533 9.78725 54.2926 9.94037 55.6293 9.66028C56.7352 9.46225 57.6323 9.18989 57.7284 8.28024L58.9219 7.43828C57.1527 7.90885 58.8924 6.67072 58.1342 6.66322C58.7767 6.33657 60.0565 6.5254 59.2469 6.88592L59.0881 6.89202C59.1158 7.61389 60.4924 6.91131 61.155 6.86756L69.4332 6.30263L60.6697 4.46114C60.4904 4.42226 60.3851 4.36224 60.3896 4.23395C56.7959 4.46344 53.2659 4.15972 49.8933 4.29836L50.3207 4.94996L49.1434 4.99517C48.8295 4.8608 48.7033 4.49961 49.5446 4.47646C49.0821 4.12818 48.156 4.86839 48.1336 5.01567C46.4797 4.83209 48.7388 4.20545 48.2339 4.21568L47.5539 4.29669L47.7159 4.3728C47.1752 4.66809 47.1397 4.96232 46.1299 4.98279C45.4803 4.87962 45.7778 4.58448 45.5248 4.5759C45.5227 4.52107 45.4379 4.50602 45.1417 4.5906L43.6655 4.64728L44.2834 5.14518C43.6396 5.43528 42.8913 5.19863 43.6048 5.74775C42.5513 4.87309 38.0637 5.70425 37.4361 5.44466C36.5117 5.82803 35.5087 5.99505 34.5074 5.93233C34.7915 6.02208 34.9825 6.60957 34.0177 6.58256C34.307 5.3452 32.2138 6.1485 31.3859 5.30178C32.1088 5.85054 28.5899 5.59217 29.7797 6.36094C28.9633 6.30077 29.7061 5.90616 29.0786 5.64657C27.1731 6.22304 24.8175 5.55399 22.4517 5.83699C22.458 6.00147 22.8315 6.22502 22.3364 6.49111L21.0677 5.61555C20.6037 5.71573 20.6823 6.5455 19.8024 6.04852C19.9291 6.18092 20.1143 6.37513 19.8174 6.44143C15.118 5.89893 10.3256 7.56538 5.51583 6.34078C6.1721 6.61757 5.75305 6.67028 5.25856 6.70757C5.58838 6.76811 5.27399 7.10961 5.34746 7.31726L3.33522 6.818C3.00367 7.44385 1.21672 6.96341 1.04296 7.55575L1.66477 7.42207C0.859516 8.13932 2.90891 8.87506 2.83047 9.75657C3.73463 8.93487 5.34927 10.7763 6.82944 9.60304C7.17282 9.77287 6.55102 9.9066 6.74561 10.1004C7.11395 9.70196 7.57796 9.60176 8.45286 9.72374L8.36294 9.81868C10.8063 9.6059 11.8665 9.92214 14.6215 10.0268L14.3995 9.60523C14.7485 9.61692 15.0905 9.70379 15.4011 9.85962C16.0482 9.16674 13.7473 9.92311 14.3259 9.15051C15.1551 10.0338 18.4837 8.99087 19.0327 9.8849C19.967 9.84903 18.7427 9.40188 19.6487 9.35795L19.9022 9.62274L20.1127 9.25775C20.7128 9.28962 21.0618 9.6057 21.0706 9.83414C20.8811 9.85098 20.6942 9.88883 20.5135 9.94701C21.3009 10.2279 22.6852 9.72637 22.9521 9.85339L22.0772 9.73142C24.533 9.35345 27.5804 9.5201 29.942 8.88036L29.7474 8.68654C31.6006 8.21274 31.2224 8.84038 33.2231 8.55309L33.1501 8.60164C33.6021 8.36058 34.1097 8.23708 34.6241 8.24304C34.1291 8.50913 35.576 8.66409 34.9512 8.96262C36.9058 8.44832 35.8726 8.58862 37.1788 7.76063L37.5002 8.08688C37.688 7.89283 37.9132 7.73705 38.1628 7.62851C38.4124 7.51998 38.6814 7.46083 38.9543 7.45452C38.1437 7.78763 39.6187 7.94148 38.7184 8.37869C40.8574 9.01035 41.7996 7.47339 42.8217 8.50483C43.721 7.55519 40.9341 8.08318 41.5053 7.85077C41.0359 7.56681 42.2628 7.10786 42.9297 7.17376C43.5966 7.23967 44.1335 8.30803 45.8233 8.20655C45.6551 8.21301 45.6486 8.28647 45.48 8.28379C46.1245 8.49698 46.7004 7.89839 47.4906 8.2524C47.8983 7.66023 48.4997 8.21363 48.5938 7.49623L47.0502 7.74769C47.9207 7.51294 48.7006 6.62276 50.1639 6.96007C49.928 7.17377 49.6514 7.33988 49.3499 7.44888C49.7878 7.64255 50.1568 7.26234 50.6044 7.46478C50.52 8.19096 48.7427 7.71928 47.8298 8.31255C48.2992 8.59651 49.584 7.69615 49.1473 8.50906C49.7815 7.47809 50.8237 8.54537 51.9244 7.72526L51.8758 8.16636C52.1405 8.00658 52.4359 7.9018 52.7436 7.85852L52.1767 8.44765C53.0924 7.92748 53.9767 8.7812 54.8538 8.47299C52.9851 8.54474 54.4134 7.96827 53.6076 7.69722C55.8732 6.99711 54.9865 8.76071 57.5482 8.46103C57.1956 8.53863 56.2213 8.26491 56.7555 8.04307C57.2657 8.08534 57.763 8.22149 58.2213 8.44435C59.9176 8.26941 57.9335 8.01612 58.6424 7.71437C59.251 8.21262 59.4652 7.45406 60.206 7.25174L60.2225 7.68119C60.4376 7.69823 60.654 7.68992 60.8672 7.65643L60.082 3.77905C59.1607 4.15301 60.276 4.68674 58.7586 4.89142L59.251 4.06721L58.4449 4.51908L58.4242 3.97999C57.847 4.4984 57.1059 4.80786 56.3244 4.85675C56.6415 5.07335 56.4764 5.64703 55.6737 5.94323C55.0352 5.88539 55.8416 5.44266 54.7362 5.8969C54.9097 5.54249 55.0715 5.12447 55.7156 5.32852C55.71 5.18231 55.8708 4.98399 55.8742 4.82829C55.1916 4.88381 54.5308 5.09072 53.9417 5.43326C54.1012 5.39785 54.2659 5.39152 54.4276 5.41461L53.7012 5.99154C53.4315 6.22018 53.1456 6.42994 52.8457 6.61923C52.3879 6.63681 52.6303 6.37124 52.9112 6.13168C52.3871 6.37143 52.118 6.67457 51.39 6.9679C51.376 6.6024 51.0377 6.32255 52.213 5.73752L49.7355 7.01316C49.4431 6.95118 47.8711 7.19452 48.1246 6.97431C47.2382 7.21967 46.3945 7.59456 45.6222 8.0862C44.778 8.62677 43.8424 9.01592 42.8591 9.23547C42.8616 9.29943 42.8651 9.39082 42.525 9.5503L39.3123 10.4424C38.5135 10.5783 37.7669 10.9232 37.1517 11.4404L34.1565 11.9032C33.6628 12.2058 34.6573 12.0303 35.5421 11.9231C36.4269 11.816 37.183 11.7686 36.488 12.1888C35.7328 12.7486 34.1983 12.5055 33.1135 12.7668C33.4051 13.0484 34.4728 13.3186 31.4683 14.0287C31.5091 13.8716 32.1575 13.7003 32.3855 13.5451ZM30.079 17.5686C29.4461 17.657 27.7717 17.9135 28.528 17.6282C30.7575 17.204 30.1018 17.4305 30.079 17.5686ZM57.687 15.7308C57.4964 15.8846 57.1946 15.823 56.8519 15.6714C57.131 15.6217 57.4184 15.6421 57.687 15.7308ZM113.881 10.2423C113.259 10.1198 113.468 10.2124 113.881 10.2423V10.2423ZM115.084 10.3791C115.194 10.3109 115.182 10.2564 115.133 10.1942C115.053 10.3071 114.783 10.3267 114.483 10.3107C114.562 10.4175 114.714 10.494 115.075 10.3795L115.084 10.3791ZM45.4345 4.66175L45.6817 4.76207C45.154 4.91044 45.2899 4.79541 45.4252 4.6621L45.4345 4.66175Z" fill="#B03A3F"/>
<path d="M55.4224 16.4308C55.3587 16.367 55.3164 16.2856 55.3012 16.1976C55.1638 16.276 55.1673 16.3674 55.4224 16.4308Z" fill="#B03A3F"/>
<path d="M42.7927 9.19192L42.8674 9.18905C42.8433 9.16538 42.8138 9.1477 42.7812 9.13745L42.7927 9.19192Z" fill="#B03A3F"/>
<path d="M96.7408 14.9083C96.5627 14.8882 96.3944 14.8184 96.2559 14.7073C96.2788 14.8162 96.3567 14.8956 96.7408 14.9083Z" fill="#B03A3F"/>
<path d="M121.335 9.36121L120.573 9.50942C120.811 9.48361 121.052 9.52179 121.27 9.6199C121.284 9.51867 121.129 9.37824 121.335 9.36121Z" fill="#B03A3F"/>
<path d="M128.118 11.8C128.228 11.7409 128.351 11.7911 128.461 11.7228L128.453 11.5218C127.968 11.5496 127.619 11.7368 128.118 11.8Z" fill="#B03A3F"/>
<path d="M122.138 10.7944C122.208 11.1578 122.689 11.0112 123.218 10.9176L123.125 10.9212C123.245 10.4041 122.692 10.5993 122.138 10.7944Z" fill="#B03A3F"/>
<path d="M123.34 10.9036C123.504 10.8791 123.67 10.8727 123.835 10.8845C123.892 10.6627 123.637 10.8373 123.34 10.9036Z" fill="#B03A3F"/>
<path d="M116.581 10.0929C116.837 10.1837 116.712 9.61198 116.867 9.76158C117.128 9.24825 115.197 10.3747 116.581 10.0929Z" fill="#B03A3F"/>
<path d="M122.624 11.993L122.41 11.5437L122.126 11.9298L122.624 11.993Z" fill="#B03A3F"/>
<path d="M118.379 11.8539L119.234 11.9401C119.231 11.867 119.323 11.8177 119.462 11.7758C118.928 11.7688 118.346 11.7088 118.379 11.8539Z" fill="#B03A3F"/>
<path d="M119.462 11.812C119.694 11.8244 119.925 11.7874 120.141 11.7035C119.912 11.7215 119.685 11.7578 119.462 11.812Z" fill="#B03A3F"/>
<path d="M121.46 12.1843L121.204 12.1026L120.596 12.0894L121.46 12.1843Z" fill="#B03A3F"/>
<path d="M109.173 12.1526L108.243 12.3164C108.156 12.4845 108.412 12.5661 108.755 12.4889C109.098 12.4116 109.281 12.2948 109.173 12.1526Z" fill="#B03A3F"/>
<path d="M112.053 13.2771C111.788 13.1958 111.775 13.0956 111.619 12.946L111.641 13.5217L112.053 13.2771Z" fill="#B03A3F"/>
<path d="M109.33 13.5286C109.243 13.6966 107.993 14.0374 109.178 13.9553C109.266 13.7964 110.195 13.6235 109.33 13.5286Z" fill="#B03A3F"/>
<path d="M95.2334 13.4197L95.4666 13.4016L95.3935 12.471L95.2334 13.4197Z" fill="#B03A3F"/>
<path d="M82.9227 16.1799C84.043 16.3565 83.1622 15.5942 84.1725 15.8299C84.4257 15.6006 83.3415 15.6331 83.6051 15.4308C82.9415 15.6942 82.5909 15.5795 82.9227 16.1799Z" fill="#B03A3F"/>
<path d="M83.6049 15.4308L83.936 15.2808C83.818 15.3128 83.7062 15.3635 83.6049 15.4308Z" fill="#B03A3F"/>
<path d="M1.97332 6.41267L1.25586 6.24805L1.72561 6.54115L1.97332 6.41267Z" fill="#B03A3F"/>
<path d="M0.634874 7.16878L0.443887 6.58127L0.0441375 7.13656C0.201923 7.10304 0.536177 7.0353 0.634874 7.16878Z" fill="#B03A3F"/>
<path d="M28.1247 18.8148L28.699 18.6646C29.1049 18.5117 28.945 18.4904 28.6159 18.4482L28.1247 18.8148Z" fill="#B03A3F"/>
<path d="M24.6029 16.5251L24.3634 16.6258L26.7115 16.1238L24.6029 16.5251Z" fill="#B03A3F"/>
<path d="M31.4491 12.5377C30.9609 12.7394 30.8842 12.9346 30.414 13.1174C30.9699 12.73 33.6973 12.3598 31.4491 12.5377Z" fill="#B03A3F"/>
</g>
<defs>
<clipPath id="clip0_221_3865">
<rect width="156" height="14" fill="white" transform="translate(0 5.98486) rotate(-2.19874)"/>
</clipPath>
</defs>
</svg>
