<svg width="385" height="33" viewBox="0 0 385 33" fill="none" xmlns="http://www.w3.org/2000/svg">
<g clip-path="url(#clip0_221_3759)">
<path d="M383.866 6.69097C384.444 6.69074 384.266 4.99585 384.354 4.68359C383.377 5.08542 383.911 7.18159 383.866 6.69097Z" fill="#B03A3F"/>
<path d="M374.491 10.8871L374.668 10.1288L373.247 11.9581L374.491 10.8871Z" fill="#B03A3F"/>
<path d="M365.735 10.7569C366.536 13.9679 368.89 10.265 370.446 11.4241L370.713 12.1375L371.423 9.59506C369.512 9.99727 367.024 11.6484 365.735 10.7569Z" fill="#B03A3F"/>
<path d="M361.111 3.84466C361.379 5.09343 360.09 4.91567 362.178 4.24577L362.178 3.93351L361.111 3.84466Z" fill="#B03A3F"/>
<path d="M361.999 3.93469C362.933 3.9343 361.421 2.86446 361.999 3.93469V3.93469Z" fill="#B03A3F"/>
<path d="M357.734 4.60514L358.977 3.48956C358.711 2.77602 357.644 2.59802 358.044 2.06262C356.799 2.64297 357.022 3.40116 357.734 4.60514Z" fill="#B03A3F"/>
<path d="M356.578 6.92426L357.2 6.43343C357.067 6.12127 356.934 6.03205 356.578 6.92426Z" fill="#B03A3F"/>
<path d="M358.534 5.45184L357.202 6.4338C357.202 6.96903 357.202 7.99482 357.824 6.07664C357.691 7.05796 358.135 6.12105 358.534 5.45184Z" fill="#B03A3F"/>
<path d="M359.289 5.94266C359.956 6.65603 360.845 7.10169 359.601 8.17267C361.956 7.77027 361.6 5.54027 359.289 5.94266Z" fill="#B03A3F"/>
<path d="M365.249 14.0587L366.139 14.9948L366.938 13.9241C366.538 14.4595 365.204 13.0329 365.249 14.0587Z" fill="#B03A3F"/>
<path d="M350.178 2.8689C350.266 3.77304 350.43 4.66805 350.668 5.54475L351.556 4.78621C351.112 4.34037 350.223 3.89474 350.178 2.8689Z" fill="#B03A3F"/>
<path d="M350.667 5.5446L349.29 6.70488C350.49 6.70439 350.712 6.30282 350.667 5.5446Z" fill="#B03A3F"/>
<path d="M356.313 10.4479L358.534 8.03847L355.913 10.4927L356.313 10.4479Z" fill="#B03A3F"/>
<path d="M345.066 2.78203L345.821 1.22062L344.444 3.58514L345.066 2.78203Z" fill="#B03A3F"/>
<path d="M341.643 3.0061C342.22 1.71238 340.887 0.82095 341.642 0.0177867C340.708 0.0181732 339.909 1.35668 339.198 2.33823C339.82 1.80274 340.62 1.93605 341.643 3.0061Z" fill="#B03A3F"/>
<path d="M337.868 3.81081C338.306 3.35288 338.707 2.86071 339.067 2.33861C338.567 2.73717 338.157 3.23919 337.868 3.81081Z" fill="#B03A3F"/>
<path d="M347.023 6.35006C346.927 5.59664 346.544 4.90964 345.955 4.43262L346.489 6.30564L347.023 6.35006Z" fill="#B03A3F"/>
<path d="M347.156 6.34887C347.156 6.34887 347.113 6.70334 347.156 6.34887V6.34887Z" fill="#B03A3F"/>
<path d="M352.802 8.71055C352.003 9.73675 350.359 10.897 351.959 12.502C352.492 11.1637 351.603 10.2721 352.802 8.71055Z" fill="#B03A3F"/>
<path d="M347.78 8.75822L349.202 9.20355C349.202 8.71292 348.935 7.95468 349.202 7.41933L347.78 8.75822Z" fill="#B03A3F"/>
<path d="M347.069 9.383L347.78 8.75827L347.246 8.62468L347.069 9.383Z" fill="#B03A3F"/>
<path d="M340.357 5.59269C340.109 5.90064 339.799 6.15152 339.446 6.32864C339.093 6.50577 338.707 6.60492 338.313 6.61931C339.079 6.97944 339.912 7.17654 340.758 7.19816C340.802 6.70751 341.157 5.54776 340.357 5.59269Z" fill="#B03A3F"/>
<path d="M343.289 6.12769C343.289 6.12769 343.333 6.7075 343.289 6.12769V6.12769Z" fill="#B03A3F"/>
<path d="M330.714 6.71337L330.714 7.06909C330.692 6.95155 330.692 6.83093 330.714 6.71337Z" fill="#B03A3F"/>
<path d="M340.801 7.5558C341.423 7.91237 341.779 7.55529 342.134 6.8861C341.67 7.08431 341.172 7.19057 340.667 7.19896C340.623 7.4666 340.623 7.64508 340.801 7.5558Z" fill="#B03A3F"/>
<path d="M335.91 4.65929C336.232 5.04872 336.589 5.4072 336.977 5.72955C336.488 5.10531 335.91 4.16866 335.91 4.65929Z" fill="#B03A3F"/>
<path d="M342.979 5.72602C342.845 5.23707 342.89 5.41487 342.979 5.72602V5.72602Z" fill="#B03A3F"/>
<path d="M342.979 5.72646C342.637 6.06484 342.352 6.45636 342.135 6.88625C342.514 6.74841 342.861 6.53616 343.157 6.26159C343.071 6.09325 343.011 5.91284 342.979 5.72646Z" fill="#B03A3F"/>
<path d="M328.362 18.7562C328.361 16.9721 330.094 15.3656 331.472 17.2829C332.85 15.9443 332.003 10.1462 330.846 6.89065C330.861 7.40339 330.732 7.9101 330.472 8.35215C330.213 8.79421 329.834 9.15357 329.38 9.389C329.87 10.3701 332.492 11.6624 331.293 13.2686C329.382 14.1615 329.737 12.6449 328.848 11.7087C329.604 13.8939 326.449 14.8765 326.806 18.1323L328.495 16.9719C328.495 17.5071 327.917 18.2657 328.362 18.7562Z" fill="#B03A3F"/>
<path d="M333.512 7.06823L334.09 7.06799C333.423 6.75604 332.978 6.04264 332.133 4.6157C331.792 4.85973 331.506 5.17198 331.292 5.53293C331.078 5.89388 330.941 6.29553 330.89 6.71241L333.734 6.97884L333.512 7.06823Z" fill="#B03A3F"/>
<path d="M336.712 6.71013C336.224 8.62825 334.847 9.43175 335.692 11.5277C337.381 11.527 336.891 9.92158 337.913 9.07371C335.158 9.56548 338.713 8.04733 336.712 6.93309C337.175 6.66247 337.69 6.495 338.223 6.44189C337.724 6.18736 337.248 5.88899 336.8 5.55037C336.801 5.77339 336.801 5.95179 336.801 5.81798L336.801 6.57615C336.001 6.17506 336.801 6.04099 336.801 5.81798C336.8 5.59496 336.801 5.81799 336.8 5.55037L334.045 6.62194C334.904 6.9247 335.835 6.95554 336.712 6.71013Z" fill="#B03A3F"/>
<path d="M350.449 16.6502C350.412 16.5039 350.411 16.3506 350.449 16.2043C350.449 16.2043 350.094 16.5611 350.449 16.6502Z" fill="#B03A3F"/>
<path d="M349.25 15.6249C349.25 15.3573 349.649 14.5989 350.272 14.8216C350.894 15.0444 350.272 15.7136 350.272 16.3826C350.672 15.8472 351.65 14.9996 350.271 14.0635L350.271 14.3311C349.164 13.4929 348.354 12.3209 347.959 10.9868C348.196 12.5806 348.63 14.1385 349.25 15.6249Z" fill="#B03A3F"/>
<path d="M342.936 11.6585L340.625 12.5962L341.782 14.246L341.781 13.2646C343.026 13.6655 342.759 12.4168 342.936 11.6585Z" fill="#B03A3F"/>
<path d="M330.489 5.59841L330.8 3.54655L329.423 6.4017L330.489 5.59841Z" fill="#B03A3F"/>
<path d="M327.468 5.82143L327.601 4.03727L326.801 5.10806L327.468 5.82143Z" fill="#B03A3F"/>
<path d="M159.299 26.32L158.633 26.8109C158.893 26.7069 159.123 26.538 159.299 26.32Z" fill="#B03A3F"/>
<path d="M164.188 26.4951L164.188 25.603C164.055 26.0937 163.966 26.4506 164.188 26.4951Z" fill="#B03A3F"/>
<path d="M254.357 5.4062C253.379 3.75631 252.311 0.94677 252.445 3.17686L252.713 5.09463C252.981 4.95032 253.291 4.90257 253.59 4.95924C253.889 5.01592 254.16 5.17364 254.357 5.4062Z" fill="#B03A3F"/>
<path d="M204.184 16.5334L204.495 17.1578C204.703 16.4738 204.925 15.8491 205.161 15.284L204.184 16.5334Z" fill="#B03A3F"/>
<path d="M203.432 24.6071L202.143 23.3142C202.491 23.8199 202.928 24.2578 203.432 24.6071Z" fill="#B03A3F"/>
<path d="M132.679 28.1598L131.88 30.1227C133.08 30.1222 132.546 29.0965 132.679 28.1598Z" fill="#B03A3F"/>
<path d="M296.98 6.28016C296.425 5.67076 295.695 5.25003 294.891 5.07666C295.913 6.19131 296.714 7.88597 296.98 6.28016Z" fill="#B03A3F"/>
<path d="M161.38 5.80176C161.207 5.9423 161.066 6.11851 160.966 6.31863C160.867 6.51876 160.811 6.73789 160.803 6.96145C161.008 6.85263 161.174 6.68247 161.277 6.4745C161.381 6.26652 161.417 6.03137 161.38 5.80176Z" fill="#B03A3F"/>
<path d="M292.446 5.0777L292.89 5.52344C293.488 5.15216 294.192 4.99478 294.89 5.07669C294.134 4.22955 293.29 3.73927 292.446 5.0777Z" fill="#B03A3F"/>
<path d="M36.1442 25.7902L35.9219 25.5227C35.922 25.7903 36.0109 25.8349 36.1442 25.7902Z" fill="#B03A3F"/>
<path d="M8.17978 6.04295C8.5633 5.99233 8.95181 5.99217 9.33537 6.04248C9.11302 5.73035 8.80189 5.77508 8.17978 6.04295Z" fill="#B03A3F"/>
<path d="M315.512 4.84594C316.134 4.84569 315.512 4.62293 315.512 4.84594V4.84594Z" fill="#B03A3F"/>
<path d="M318.537 12.5158C318.356 12.794 318.263 13.1206 318.27 13.4526C318.279 13.1229 318.371 12.8006 318.537 12.5158Z" fill="#B03A3F"/>
<path d="M286.051 17.0339C286.185 17.4353 286.141 17.3461 286.051 17.0339V17.0339Z" fill="#B03A3F"/>
<path d="M316.445 5.737C316.217 5.49474 315.945 5.29807 315.645 5.15747C315.885 5.38532 316.154 5.58022 316.445 5.737Z" fill="#B03A3F"/>
<path d="M316.356 4.8443L316.889 4.84408C316.978 4.71023 316.889 4.48725 316.356 4.8443Z" fill="#B03A3F"/>
<path d="M314.623 4.93503C314.961 4.86759 315.308 4.86745 315.645 4.9346C315.645 4.9346 315.645 4.93484 315.645 4.62262L314.623 4.93503Z" fill="#B03A3F"/>
<path d="M87.9198 21.0418L87.9197 20.8189C87.0312 21.6221 87.4311 21.4881 87.9198 21.0418Z" fill="#B03A3F"/>
<path d="M235.478 26.7784C236.499 24.3694 237.032 24.6815 237.744 25.2165L237.03 19.5968L235.478 26.7784Z" fill="#B03A3F"/>
<path d="M147.611 26.7699L149.212 28.5534C147.257 31.4088 145.879 30.3835 147.347 33.0145C147.611 26.9484 153.569 32.4768 153.833 26.4107L154.856 27.7036C154.545 27.7038 154.5 27.9714 154.234 27.9269C156.235 30.8252 155.787 23.4661 158.41 24.4463C159.299 24.8919 159.922 25.7835 159.3 26.4974L161.344 25.0249C161.966 25.0246 161.788 26.1843 161.344 26.0953L164.455 25.6032C165.007 24.545 165.662 23.5439 166.409 22.6141C167.21 23.4612 166.009 23.2387 166.188 23.9968L167.92 22.5244C168.066 22.8379 168.129 23.1838 168.103 23.5289C168.076 23.874 167.962 24.2062 167.769 24.4936C167.577 24.7809 167.314 25.0135 167.006 25.1687C166.698 25.324 166.355 25.3966 166.01 25.3796C167.568 31.4449 167.432 23.8626 170.9 27.4294L169.256 28.1882C170.28 31.6222 171.568 30.4174 173.391 32.6468C172.946 31.5319 169.744 27.2068 171.61 25.7342C172.144 26.18 172.855 26.4027 173.877 25.198C173.878 27.339 174.855 26.8478 176.1 26.7134L176.101 29.5681C177.434 28.7647 177.344 27.2929 178.144 26.0437C179.611 26.3107 179.923 28.5407 180.279 30.5031C182.635 30.9482 178.633 26.9356 181.477 26.3992C183.433 27.5135 184.855 26.3978 187.21 24.7019C188.588 25.6826 186.944 26.4416 187.433 27.2442L188.721 24.9689C188.988 24.9688 188.721 25.7272 188.722 26.084C189.743 25.1915 188.72 23.2294 190.453 22.4704C190.941 19.3481 193.744 26.9293 195.787 23.5387C196.276 24.3413 195.566 25.2783 195.788 26.3933C197.664 25.134 199.253 23.4918 200.453 21.5742L202.365 23.4466C200.986 21.3063 202.807 18.9861 204.407 16.7107C204.054 15.8993 203.653 15.1102 203.206 14.3474L205.783 12.8297C206.05 13.3203 205.783 14.3018 205.384 15.4616C205.562 15.2603 205.712 15.035 205.828 14.7923C206.762 15.8623 206.273 17.5128 205.608 19.2526C205.296 18.6729 204.985 18.0932 204.718 17.5134C203.976 19.1851 203.583 20.9917 203.565 22.8216C203.741 22.4713 204.042 22.2005 204.409 22.0631C204.29 22.4405 204.29 22.8456 204.409 23.2228C204.409 23.5351 204.765 22.8659 205.164 22.1521L205.699 25.3632L205.698 24.0698L208.988 26.1202C211.387 22.9078 213.429 18.2237 217.295 16.9286C216.319 19.2484 217.03 20.7645 216.987 23.5299C215.964 20.5865 214.054 24.7354 212.098 24.1118C213.121 24.4236 212.855 25.7616 212.633 26.2078L216.098 23.5749C216.099 25.8496 216.854 25.2693 217.744 26.2056C217.075 21.7456 220.365 23.2608 221.786 21.7437C221.787 23.2156 221.521 24.7769 219.787 24.3762C221.655 27.7652 222.319 19.1565 224.231 22.0103C223.831 22.0104 223.609 22.0106 223.431 22.5905C224.408 21.252 226.809 22.3214 226.232 23.6597L225.832 23.6599C228.632 24.2386 234.365 23.6563 234.719 19.9988C234.623 21.7772 234.431 23.5492 234.143 25.3067L239.249 12.5929C238.762 15.8491 240.409 23.6094 238.054 25.4391C238.245 25.6359 238.473 25.7923 238.725 25.8991C238.977 26.0059 239.248 26.0609 239.521 26.0608C239.795 26.0607 240.066 26.0055 240.317 25.8985C240.569 25.7915 240.797 25.6348 240.988 25.4378C240.499 24.992 239.875 20.978 240.497 20.4425C242.187 24.0993 241.653 22.4047 243.743 25.526C243.076 24.8126 243.741 19.6829 244.941 19.8609C244.941 21.725 244.823 23.5873 244.588 25.4363L247.03 20.1276C246.319 21.0199 247.032 24.588 247.432 25.7921C247.165 24.8109 249.788 25.791 250.499 25.4339L249.343 24.2747C252.365 25.0317 252.407 17.2261 255.429 17.5371C255.029 18.5631 254.454 23.8711 256.01 24.5395C256.72 21.9523 259.204 12.1834 261.87 10.2198L262.36 11.6912L264.448 10.0401C262.534 15.254 260.218 20.3104 257.521 25.1634C258.632 26.3226 257.833 26.9027 259.522 26.7682C260.1 28.1506 258.589 28.8649 258.056 28.9543L262.012 29.8448C262.01 26.8564 265.077 26.8552 264.943 24.3575L260.5 27.4369C260.498 24.4486 263.029 18.9612 265.83 19.4953C266.541 20.6993 265.254 24.8481 265.299 25.8293C265.698 24.8033 268.009 23.9102 268.232 24.6237L267.032 26.2299C268.588 27.3443 269.609 22.2592 271.476 25.1576C272.099 25.1574 273.389 29.0371 273.477 27.253C272.483 21.7772 272.346 16.1793 273.07 10.661C274.648 12.1369 276.024 13.8161 277.161 15.6548C278.229 18.3752 275.52 22.0337 276.409 24.5757C276.512 23.7958 276.818 23.0572 277.297 22.4345C277.964 23.1479 276.987 24.9769 278.498 24.6195C278.764 21.5864 281.476 24.8858 279.208 22.0322C280.63 21.1841 280.72 22.7006 282.409 22.566C282.382 21.1664 282.64 19.7763 283.167 18.48C283.694 17.1838 284.478 16.0088 285.472 15.0269C285.456 15.7857 285.577 16.5412 285.829 17.2569C288.806 17.5679 290.274 18.9501 293.118 19.0381C293.385 19.7516 294.719 20.643 294.142 21.9813C294.541 21.4459 294.897 20.4199 295.741 20.3304C297.386 22.9613 293.874 20.7325 295.076 23.8988C295.075 22.1147 297.297 21.4895 298.541 20.3739C298.184 17.6532 295.741 19.8398 294.497 20.9108C294.525 19.0552 295.001 17.234 295.882 15.6027C296.764 13.9714 298.025 12.5784 299.56 11.5422C301.87 10.6046 300.538 13.9502 300.938 13.4148C305.383 14.1267 304.669 6.9014 308.225 9.6207C309.649 12.0287 308.227 14.393 308.584 16.1324C306.673 17.0252 305.694 14.5727 304.45 14.6624L306.006 15.8212C305.384 16.6243 304.14 17.2048 303.473 16.4914C304.629 18.6765 310.717 16.979 314.051 18.9848C314.629 18.1817 315.651 17.3783 315.206 16.3973L314.139 16.7546C313.205 14.7925 316.138 14.0776 314.805 13.1415C316.226 11.8028 317.825 9.70575 319.826 10.82L320.182 13.5408C320.182 12.738 318.893 11.8908 318.315 12.7385C319.159 11.5339 321.339 16.4393 322.271 12.7369L320.892 10.8195C322.314 9.48088 324.091 6.58096 325.869 7.47228C325.068 4.75184 325.424 7.78489 324.223 4.61859C325.247 8.54321 319.779 4.62018 321.425 8.54454C320.179 4.88763 319.202 6.98437 317.556 3.81826C317.557 4.75492 318.135 5.5577 316.668 5.11228L316.357 5.91523C316.714 6.30363 316.959 6.78109 317.069 7.29761C316.358 9.39423 314.003 9.30597 313.203 10.3322C312.314 9.93111 313.558 9.30614 313.203 8.36963L312.003 9.93112C312.002 7.92399 309.735 6.58685 312.001 5.47084L310.179 5.47159C309.068 4.35698 307.556 3.86705 306.623 4.71489C305.779 4.26921 304.402 6.90142 305.201 5.33999L302.269 6.58994L302.268 6.05473C299.379 5.78831 296.314 9.358 293.068 5.70191C292.552 6.06741 291.957 6.30634 291.332 6.39955C290.707 6.49276 290.069 6.43763 289.468 6.23861L289.157 4.49917C287.912 5.07952 285.467 2.71658 284.712 4.50101C283.421 -0.181754 278.712 3.43306 276.534 2.5865L276.535 4.81664C274.84 4.83878 273.183 5.31697 271.735 6.20131L271.736 8.20849C270.092 9.85947 267.602 6.73818 265.024 6.96226C265.246 6.15931 265.869 6.38207 266.313 6.96172C263.334 2.50268 259.87 10.1758 257.158 6.96551C256.447 7.67945 255.958 7.41204 255.469 6.96621L255.202 6.96632C254.9 6.58868 254.573 6.23128 254.224 5.89631C254.442 6.28713 254.711 6.64697 255.024 6.9664C254.266 7.05777 253.538 7.31698 252.891 7.72545L252.579 5.58473C251.824 4.8268 251.958 6.61098 252.358 8.21651C251.933 8.58496 251.573 9.02224 251.292 9.51034C250.669 6.03158 249.204 10.6708 248.402 6.96914C247.825 8.75349 244.403 8.30899 243.96 12.1004C243.96 11.6098 243.693 11.3424 243.96 11.3422C243.071 10.8966 242.182 10.4509 241.382 11.3433L241.07 8.57781L239.116 12.2361C238.486 11.636 238.091 10.8299 238.001 9.96312C237.911 9.09636 238.132 8.2259 238.625 7.5084C235.826 10.721 236.359 8.71361 234.182 11.9705L234.181 10.2312C233.337 10.2316 231.96 12.6405 231.471 11.1688C229.558 7.82441 222.048 10.6374 217.203 7.47262C218.094 12.6908 214.935 5.10963 214.714 9.16858C214.447 7.91981 213.736 7.20654 214.713 6.18027C212.225 7.34097 211.024 4.17466 209.247 7.56521C208.98 6.31644 209.824 5.78083 209.557 5.02269C209.557 5.29031 208.758 6.09356 208.491 5.38003C208.224 4.66649 208.89 4.35411 209.29 3.81871C206.712 3.81978 206.447 7.7895 206.227 11.3132C204.937 9.61884 204.315 9.8865 203.338 12.2063C202.893 11.0468 202.181 9.79843 203.781 9.39634C202.892 9.39671 198.358 7.65908 198.226 10.5137C197.959 9.75557 196.982 10.5142 196.76 10.5143C195.391 10.2933 193.995 10.2939 192.626 10.516L193.16 10.9617C192.361 14.3965 191.516 11.7207 189.916 12.1228L189.916 11.7659C186.27 9.26964 188.316 12.9708 184.759 10.0731L184.76 12.2139C184.407 16.6744 181.604 9.49461 179.515 11.235L180.272 12.4837C179.117 14.0453 177.158 6.1958 175.824 5.61651C175.602 5.17058 176.224 4.94748 176.579 4.67972C173.645 1.91556 176.181 7.44507 173.959 8.11503C173.558 6.5987 174.49 4.2344 173.024 3.96739C172.268 2.71883 168.581 8.83095 166.624 5.93258C167.069 7.09206 167.514 8.25165 166.626 9.09947C165.737 9.94729 162.402 4.64074 160.937 8.34338C160.767 8.0603 160.675 7.73736 160.67 7.40701C159.47 8.34417 156.715 8.96969 156.227 10.977C155.157 3.5734 148.673 14.5038 148.759 7.67955L145.025 7.99335L145.025 7.32419C142.669 6.83454 141.826 8.48517 140.982 10.0912C140.404 9.64543 140.981 8.97607 140.981 8.61925C137.514 7.238 137.159 7.50581 134.227 10.8968L133.915 8.66682C133.115 9.96064 128.935 5.19004 125.514 7.73382C125.557 7.37665 125.695 7.03754 125.914 6.75225C122.048 9.29621 117.022 0.511689 115.292 8.58551L112.76 10.5491C116.049 11.1722 112.273 14.0281 113.606 15.3657C112.318 15.8122 110.272 12.9141 111.872 12.512L112.094 12.9132C112.715 8.72026 108.049 11.3984 108.181 8.45452C101.737 8.45719 95.4694 6.2297 89.4693 6.00917L90.1373 9.26481L88.004 9.26569C87.4704 8.46306 87.2918 6.67912 88.803 6.85691C88.0022 4.98392 86.2704 8.37445 86.2262 9.08811C83.2923 7.75124 87.3802 5.29642 86.4912 5.20758L85.2913 5.43104L85.5581 5.83247C84.5365 7.12638 84.4482 8.55346 82.6259 8.37581C81.5145 7.70723 82.0917 6.36899 81.6028 6.23538C81.1138 6.10178 81.6027 5.87856 80.9361 6.23566L78.2693 5.92451L79.3371 8.51111C78.1376 9.76048 76.8482 8.51212 78.0493 11.277C76.2697 6.81745 68.182 9.58612 67.0703 8.15929C66.4253 8.89467 65.5886 9.43476 64.6544 9.71883C63.7201 10.0029 62.7254 10.0196 61.7822 9.76711C62.2713 10.3021 62.5391 13.2015 60.8056 12.8007C61.5143 6.86828 57.649 10.2149 56.3583 5.88894C57.5595 8.74302 51.4253 6.56001 53.3381 10.6181C51.9156 10.128 53.3372 8.38817 52.181 6.96136C48.7153 9.23754 44.6248 5.40315 40.3585 6.16317C40.3588 6.92142 40.9815 8.12549 40.0487 9.28555L37.8248 5.3614C36.9805 5.71857 37.0267 9.82212 35.5145 7.14658C35.737 7.81553 36.0485 8.79663 35.5153 9.06446C27.2026 5.14286 18.4499 12.0153 10.0469 4.61473C11.1586 6.13076 10.4031 6.26491 9.51427 6.30988C10.0922 6.71106 9.51508 8.27237 9.51552 9.34284L6.00322 6.35598C5.29333 9.30006 2.18103 6.35748 1.78227 9.34604L2.89317 8.85501C1.38344 12.1562 4.94065 16.2582 4.67575 20.5402C6.40751 16.7482 9.12251 26.1583 11.8313 20.5372C12.4539 21.429 11.2985 21.92 11.61 22.9011C12.3204 21.0721 13.1646 20.715 14.7205 21.5618L14.7207 22.008C19.165 21.6047 20.988 23.3879 25.8774 24.6348L25.5209 22.5387C26.5877 22.8059 26.8102 23.4747 27.2993 24.0097C28.5424 20.8424 24.3215 24.0111 25.4755 20.3086C26.8107 24.7683 32.8978 20.3055 33.7887 25.3007C35.4331 25.3 33.3432 22.8475 34.9877 22.8914L35.3883 24.2296L35.832 22.5345C36.8987 22.8016 37.3883 24.4964 37.4332 25.6114C37.1666 25.6115 36.6778 25.9238 36.4112 26.0131C37.7896 27.5736 40.3221 25.5209 40.8556 26.0113L39.2997 25.1644C43.7436 24.0029 49.1666 25.785 53.4766 23.107L53.1651 22.1257C56.4532 20.2957 55.7433 23.2397 59.3429 22.3908L59.343 22.6584C59.6147 22.2012 60.0083 21.8293 60.4794 21.5848C60.9505 21.3403 61.4803 21.2329 62.0091 21.2746C61.1207 22.4347 63.6989 23.5486 62.4995 24.8426C66.0542 22.8786 64.2766 23.3254 66.6306 19.6224L67.1646 21.2725C68.0085 19.8002 68.0526 18.9975 69.8746 18.5953C68.3641 19.9786 70.9867 21.0926 69.2987 23.0558C73.0335 26.7117 74.9416 19.4407 76.6327 24.7477C78.3642 20.2867 73.3872 22.2065 74.3646 21.2249C73.5639 19.7087 75.8299 17.8346 76.9856 18.2801C78.1413 18.7257 78.988 24.1668 82.0102 24.0763C81.699 24.0765 81.6992 24.4333 81.3881 24.3888C82.4996 25.5481 83.6096 22.8269 84.9882 24.7443C85.787 21.9786 86.8104 24.7435 87.0313 21.3982L84.2761 22.1575C85.8312 21.2648 87.3406 17.1608 89.9192 19.1669C89.5677 19.9903 89.0541 20.7339 88.409 21.353C89.165 22.3785 89.8754 20.6388 90.6314 21.709C90.6328 25.2772 87.2539 22.4684 85.5661 25.1453C86.3668 26.6615 88.7651 22.6018 87.8778 26.438C89.1647 21.5757 90.8558 27.0612 92.9432 23.3583L92.944 25.4991C93.255 25.1422 93.9213 24.1607 94.5435 24.2051L93.4335 26.9709C95.1215 24.6509 96.5899 29.0213 98.1894 27.7718C94.8561 27.7731 97.4772 25.2298 96.0988 23.6692C100.231 20.8575 98.4122 29.199 102.99 28.1267C102.367 28.3945 100.678 26.8341 101.655 25.8524C102.736 26.3385 103.627 27.1689 104.19 28.2152C107.256 27.8125 103.744 26.03 105.077 24.7359C106.1 27.3225 106.588 23.7093 107.921 22.9059L107.922 25.047C111.344 26.4729 108.853 20.5861 111.965 22.2797L110.633 25.2242L112.277 24.4654L111.922 26.9186C113.699 25.1338 114.233 25.5795 115.966 26.2924C115.566 24.7761 116.232 22.4118 117.787 22.322C118.81 23.615 117.166 24.374 119.343 24.1055C118.855 25.4438 118.278 27.1389 117.344 25.1321C117.344 25.8458 116.855 26.4705 116.767 27.1842C117.879 28.6556 119.611 27.5399 120.367 27.495C120.198 27.4831 120.034 27.4328 119.888 27.3479C119.742 27.2629 119.617 27.1456 119.522 27.0047L122.721 24.0595C123.21 24.8621 122.722 25.4869 122.411 26.1561C123.033 26.1558 123.521 24.9067 124.455 24.7279C124.189 26.5121 124.234 28.2962 122.901 29.1888L125.922 27.2697C125.923 28.0279 127.434 29.41 127.035 30.0346C128.724 31.0598 131.167 26.6876 133.389 28.0248C133.455 27.8293 133.56 27.6491 133.697 27.4957C133.835 27.3423 134.002 27.2187 134.189 27.1323C136.278 27.5329 138.101 29.7177 140.589 27.1297L141.968 30.2514C143.879 29.5815 140.1 26.2824 143.299 25.1214C145.61 24.1392 144.145 27.7972 144.945 28.6889C146.056 27.1273 148.054 23.9151 150.144 26.5012C148.811 27.037 148.278 26.5466 147.611 26.7699ZM171.433 25.6003C170.988 26.0465 170.056 27.4298 169.744 26.1365C170.276 23.6831 170.677 24.887 171.477 25.6003L171.433 25.6003ZM207.653 20.7238C207.342 21.4375 206.808 21.081 206.186 20.2338C206.449 20.1375 206.738 20.1333 207.004 20.2223C207.271 20.3112 207.499 20.488 207.653 20.7238ZM308.58 6.54295C307.513 5.78514 307.868 6.14172 308.58 6.72126L308.58 6.54295ZM310.713 7.47855C310.787 7.34156 310.826 7.18835 310.826 7.03259C310.826 6.87683 310.787 6.72338 310.713 6.58644C310.713 7.12168 310.046 7.16672 309.513 7.03313C309.78 7.56825 310.047 7.96946 310.713 7.47855ZM81.2918 6.50312L81.692 7.03816C80.7589 7.66299 81.0254 7.08307 81.2918 6.50312Z" fill="#B03A3F"/>
<path d="M203.52 23.625C203.494 23.2388 203.494 22.8514 203.519 22.4653C203.396 22.6335 203.33 22.8367 203.33 23.0452C203.33 23.2537 203.397 23.4568 203.52 23.625Z" fill="#B03A3F"/>
<path d="M132.811 27.8022C132.79 27.9348 132.79 28.0696 132.811 28.2022L132.811 27.8022Z" fill="#B03A3F"/>
<path d="M277.476 25.4677C277.094 25.1846 276.801 24.7979 276.631 24.353C276.605 24.4829 276.608 24.6167 276.638 24.7456C276.667 24.8745 276.724 24.9955 276.804 25.1008C276.884 25.2061 276.985 25.2933 277.101 25.3566C277.216 25.4198 277.344 25.4577 277.476 25.4677Z" fill="#B03A3F"/>
<path d="M322.044 3.95036L320.666 4.48614C321.333 4.48586 321.6 4.84246 321.911 5.19915C321.866 4.70854 321.644 3.95052 322.044 3.95036Z" fill="#B03A3F"/>
<path d="M333.827 17.3271C333.827 17.3271 334.271 17.327 334.449 17.0593L334.448 16.0335C333.559 16.1231 332.938 16.9261 333.827 17.3271Z" fill="#B03A3F"/>
<path d="M323.246 11.1761C323.247 13.0049 324.225 12.3801 325.202 12.0674C325.335 9.43582 324.268 10.2837 323.246 11.1761Z" fill="#B03A3F"/>
<path d="M325.424 11.9333C325.714 11.8438 326.023 11.8436 326.313 11.933C326.401 10.8625 325.957 11.6655 325.424 11.9333Z" fill="#B03A3F"/>
<path d="M313.423 6.3177C313.868 6.80815 313.733 3.99834 314 4.75647C314.488 2.25851 310.935 7.52301 313.423 6.3177Z" fill="#B03A3F"/>
<path d="M324.005 17.0633L323.693 14.8333L323.116 16.6176L324.005 17.0633Z" fill="#B03A3F"/>
<path d="M316.449 15.3719L317.96 15.9957C317.958 15.8406 317.998 15.6879 318.077 15.5541C318.155 15.4204 318.268 15.3106 318.404 15.2371C317.427 15.1483 316.404 14.7028 316.449 15.3719Z" fill="#B03A3F"/>
<path d="M318.404 15.2375C318.618 15.2896 318.842 15.2842 319.052 15.2214C319.263 15.1587 319.454 15.041 319.604 14.8804C319.179 14.8841 318.763 15.0077 318.404 15.2375Z" fill="#B03A3F"/>
<path d="M321.873 17.7327L321.428 17.2423L320.361 17.1089L321.873 17.7327Z" fill="#B03A3F"/>
<path d="M299.961 14.7991L298.317 15.4243C298.317 16.1826 298.584 16.6729 299.206 16.3604C299.828 16.048 300.361 15.6464 299.961 14.7991Z" fill="#B03A3F"/>
<path d="M304.808 20.9515C304.432 20.4557 304.187 19.8728 304.096 19.2568L304.097 22.0222L304.808 20.9515Z" fill="#B03A3F"/>
<path d="M300.097 21.5781C300.097 22.3364 297.653 23.7647 299.787 23.5854C299.964 22.8271 301.653 22.2019 300.097 21.5781Z" fill="#B03A3F"/>
<path d="M274.939 17.8868L275.384 17.842L275.337 13.2926L274.939 17.8868Z" fill="#B03A3F"/>
<path d="M252.678 28.556C254.634 29.6702 253.166 25.7458 254.944 27.1277C255.388 26.0571 253.477 26.0132 253.966 25.0763C252.766 26.1919 252.144 25.5678 252.678 28.556Z" fill="#B03A3F"/>
<path d="M253.965 25.0754L254.587 24.4062C254.331 24.5783 254.118 24.8072 253.965 25.0754Z" fill="#B03A3F"/>
<path d="M3.55685 3.54745L2.26758 2.61133L3.0682 4.12749L3.55685 3.54745Z" fill="#B03A3F"/>
<path d="M1.06984 6.84905L0.801984 3.94986L0.00304275 6.58188C0.314115 6.49255 0.84736 6.2247 1.06984 6.84905Z" fill="#B03A3F"/>
<path d="M174.946 31.4424L174.946 30.7732C174.946 30.015 174.457 29.9259 173.879 29.8369L174.946 31.4424Z" fill="#B03A3F"/>
<path d="M157.701 29.1743L157.968 29.2188L157.434 26.5874L157.701 29.1743Z" fill="#B03A3F"/>
<path d="M143.169 32.3918C143.747 32.3915 144.458 31.9005 145.035 32.0341C143.747 32.4807 143.034 29.0912 143.169 32.3918Z" fill="#B03A3F"/>
</g>
<defs>
<clipPath id="clip0_221_3759">
<rect width="384.354" height="32.7831" fill="white" transform="translate(0 0.15918) rotate(-0.0237227)"/>
</clipPath>
</defs>
</svg>
