<svg xmlns="http://www.w3.org/2000/svg" width="24" height="24" viewBox="0 0 24 24" fill="none"><rect width="24" height="24" rx="2" fill="#E0F2FA"></rect><path d="M4.5 7C4.5 6.83424 4.56585 6.67527 4.68306 6.55806C4.80027 6.44085 4.95924 6.375 5.125 6.375H18.875C19.0408 6.375 19.1997 6.44085 19.3169 6.55806C19.4342 6.67527 19.5 6.83424 19.5 7C19.5 7.16576 19.4342 7.32473 19.3169 7.44194C19.1997 7.55915 19.0408 7.625 18.875 7.625H5.125C4.95924 7.625 4.80027 7.55915 4.68306 7.44194C4.56585 7.32473 4.5 7.16576 4.5 7ZM5.125 12.625H10.75C10.9158 12.625 11.0747 12.5592 11.1919 12.4419C11.3092 12.3247 11.375 12.1658 11.375 12C11.375 11.8342 11.3092 11.6753 11.1919 11.5581C11.0747 11.4408 10.9158 11.375 10.75 11.375H5.125C4.95924 11.375 4.80027 11.4408 4.68306 11.5581C4.56585 11.6753 4.5 11.8342 4.5 12C4.5 12.1658 4.56585 12.3247 4.68306 12.4419C4.80027 12.5592 4.95924 12.625 5.125 12.625ZM12 16.375H5.125C4.95924 16.375 4.80027 16.4408 4.68306 16.5581C4.56585 16.6753 4.5 16.8342 4.5 17C4.5 17.1658 4.56585 17.3247 4.68306 17.4419C4.80027 17.5592 4.95924 17.625 5.125 17.625H12C12.1658 17.625 12.3247 17.5592 12.4419 17.4419C12.5592 17.3247 12.625 17.1658 12.625 17C12.625 16.8342 12.5592 16.6753 12.4419 16.5581C12.3247 16.4408 12.1658 16.375 12 16.375ZM20.5672 16.5578L18.9812 14.9688C19.4076 14.3225 19.5789 13.541 19.4619 12.7757C19.345 12.0104 18.9481 11.3158 18.3482 10.8264C17.7483 10.337 16.9881 10.0877 16.2149 10.1268C15.4417 10.1659 14.7105 10.4907 14.1631 11.0381C13.6157 11.5855 13.2909 12.3167 13.2518 13.0899C13.2127 13.8631 13.462 14.6233 13.9514 15.2232C14.4408 15.8231 15.1354 16.22 15.9007 16.3369C16.666 16.4539 17.4475 16.2826 18.0938 15.8562L19.6797 17.4422C19.797 17.5595 19.956 17.6253 20.1219 17.6253C20.2877 17.6253 20.4468 17.5595 20.5641 17.4422C20.6813 17.3249 20.7472 17.1659 20.7472 17C20.7472 16.8341 20.6813 16.6751 20.5641 16.5578H20.5672Z" fill="#1C90FF"></path></svg>