<svg xmlns="http://www.w3.org/2000/svg" width="24" height="24" viewBox="0 0 24 24" fill="none"><rect width="24" height="24" rx="2" fill="#E0F2FA"></rect><path d="M18.75 17C18.75 17.1989 18.671 17.3897 18.5303 17.5303C18.3897 17.671 18.1989 17.75 18 17.75H6C5.80109 17.75 5.61032 17.671 5.46967 17.5303C5.32902 17.3897 5.25 17.1989 5.25 17V7C5.25 6.80109 5.32902 6.61032 5.46967 6.46967C5.61032 6.32902 5.80109 6.25 6 6.25C6.19891 6.25 6.38968 6.32902 6.53033 6.46967C6.67098 6.61032 6.75 6.80109 6.75 7V13.1875L9.46938 10.4675C9.53905 10.3976 9.62185 10.3421 9.71301 10.3042C9.80417 10.2664 9.90191 10.2469 10.0006 10.2469C10.0993 10.2469 10.1971 10.2664 10.2882 10.3042C10.3794 10.3421 10.4622 10.3976 10.5319 10.4675L12 11.9375L14.6875 9.25H14C13.8011 9.25 13.6103 9.17098 13.4697 9.03033C13.329 8.88968 13.25 8.69891 13.25 8.5C13.25 8.30109 13.329 8.11032 13.4697 7.96967C13.6103 7.82902 13.8011 7.75 14 7.75H16.5C16.6989 7.75 16.8897 7.82902 17.0303 7.96967C17.171 8.11032 17.25 8.30109 17.25 8.5V11C17.25 11.1989 17.171 11.3897 17.0303 11.5303C16.8897 11.671 16.6989 11.75 16.5 11.75C16.3011 11.75 16.1103 11.671 15.9697 11.5303C15.829 11.3897 15.75 11.1989 15.75 11V10.3125L12.5306 13.5325C12.4609 13.6024 12.3782 13.6579 12.287 13.6958C12.1958 13.7336 12.0981 13.7531 11.9994 13.7531C11.9007 13.7531 11.8029 13.7336 11.7118 13.6958C11.6206 13.6579 11.5378 13.6024 11.4681 13.5325L10 12.0625L6.75 15.3125V16.25H18C18.1989 16.25 18.3897 16.329 18.5303 16.4697C18.671 16.6103 18.75 16.8011 18.75 17Z" fill="#1C90FF"></path></svg>