<svg xmlns="http://www.w3.org/2000/svg" width="36" height="36" viewBox="0 0 36 36" fill="none"><rect width="36" height="36" rx="3" fill="#E0F2FA"></rect><path d="M26.851 20.5461C26.6904 20.4448 26.5069 20.3857 26.3174 20.3744C26.1279 20.3631 25.9386 20.3999 25.7672 20.4815C25.5312 20.5939 25.2699 20.6427 25.0092 20.6231C24.7485 20.6035 24.4975 20.516 24.281 20.3694C24.0645 20.2229 23.8901 20.0223 23.775 19.7875C23.66 19.5528 23.6083 19.292 23.625 19.0311C23.6506 18.6698 23.8045 18.3295 24.0589 18.0716C24.3133 17.8137 24.6515 17.6553 25.0125 17.6249C25.2705 17.6056 25.5291 17.6541 25.7625 17.7655C25.9339 17.8479 26.1234 17.8855 26.3133 17.8749C26.5031 17.8642 26.6872 17.8055 26.8483 17.7044C27.0093 17.6033 27.1421 17.4629 27.2342 17.2966C27.3263 17.1302 27.3748 16.9432 27.375 16.753V12.7499C27.375 12.2526 27.1775 11.7757 26.8258 11.4241C26.4742 11.0724 25.9973 10.8749 25.5 10.8749H22.5C22.4992 10.3627 22.3938 9.85606 22.1904 9.386C21.987 8.91594 21.6897 8.49234 21.3169 8.14114C20.944 7.7884 20.5021 7.51667 20.019 7.34306C19.5359 7.16945 19.0222 7.09772 18.51 7.13239C17.6065 7.19176 16.7548 7.5754 16.1116 8.21273C15.4684 8.85006 15.077 9.69821 15.0094 10.6011C15 10.694 15 10.7811 15 10.8749H12C11.5027 10.8749 11.0258 11.0724 10.6742 11.4241C10.3226 11.7757 10.125 12.2526 10.125 12.7499V15.3749C9.61283 15.3757 9.10619 15.4811 8.63613 15.6845C8.16607 15.888 7.74247 16.1852 7.39127 16.558C6.90617 17.0745 6.57732 17.7178 6.44282 18.4135C6.30831 19.1092 6.37366 19.8288 6.6313 20.4888C6.88893 21.1489 7.3283 21.7225 7.89851 22.1431C8.46872 22.5637 9.14644 22.8142 9.85315 22.8655C9.94355 22.8733 10.0343 22.8764 10.125 22.8749V25.4999C10.125 25.9972 10.3226 26.4741 10.6742 26.8257C11.0258 27.1773 11.5027 27.3749 12 27.3749H25.5C25.9973 27.3749 26.4742 27.1773 26.8258 26.8257C27.1775 26.4741 27.375 25.9972 27.375 25.4999V21.4977C27.3751 21.3077 27.3271 21.1209 27.2355 20.9545C27.1438 20.7881 27.0115 20.6476 26.851 20.5461ZM25.125 25.1249H12.375V21.4977C12.375 21.3078 12.327 21.1211 12.2354 20.9548C12.1438 20.7885 12.0116 20.6481 11.8511 20.5466C11.6906 20.4452 11.5071 20.386 11.3175 20.3746C11.128 20.3632 10.9387 20.4 10.7672 20.4815C10.5325 20.5944 10.2723 20.6438 10.0125 20.6249C9.65244 20.5947 9.31493 20.437 9.06062 20.1803C8.80631 19.9236 8.65186 19.5846 8.62502 19.2243C8.60765 18.9634 8.65878 18.7024 8.77335 18.4674C8.88792 18.2323 9.06194 18.0313 9.27816 17.8843C9.49437 17.7372 9.74527 17.6493 10.006 17.6291C10.2667 17.6089 10.5281 17.6572 10.7644 17.7693C10.936 17.8514 11.1256 17.8887 11.3155 17.8776C11.5055 17.8665 11.6895 17.8074 11.8503 17.7059C12.0112 17.6044 12.1438 17.4637 12.2355 17.2971C12.3273 17.1305 12.3753 16.9433 12.375 16.753V13.1249H16.3781C16.5679 13.1248 16.7546 13.0766 16.9208 12.9849C17.0869 12.8933 17.2272 12.761 17.3285 12.6006C17.4299 12.4401 17.489 12.2566 17.5003 12.0672C17.5117 11.8777 17.4749 11.6885 17.3935 11.5171C17.2805 11.2824 17.2311 11.0222 17.25 10.7624C17.2801 10.4022 17.4376 10.0646 17.6944 9.81028C17.9511 9.55593 18.2902 9.40155 18.6507 9.37489C18.9115 9.35743 19.1724 9.40846 19.4075 9.52291C19.6425 9.63736 19.8436 9.81126 19.9907 10.0274C20.1379 10.2435 20.226 10.4943 20.2463 10.7549C20.2666 11.0156 20.2184 11.277 20.1066 11.5133C20.0243 11.685 19.9868 11.8747 19.9978 12.0647C20.0088 12.2548 20.0678 12.4389 20.1693 12.6C20.2709 12.761 20.4116 12.8936 20.5784 12.9854C20.7451 13.0772 20.9325 13.1252 21.1228 13.1249H25.125V15.3749C25.0313 15.3749 24.9441 15.3749 24.8531 15.3852C23.8858 15.4571 22.984 15.901 22.337 16.6236C21.6901 17.3463 21.3483 18.2916 21.3835 19.2609C21.4187 20.2303 21.8281 21.1483 22.5257 21.8221C23.2234 22.496 24.1551 22.8733 25.125 22.8749V25.1249Z" fill="#1C90FF"></path></svg>