<?xml version="1.0" standalone="no"?>
<!DOCTYPE svg PUBLIC "-//W3C//DTD SVG 20010904//EN"
 "http://www.w3.org/TR/2001/REC-SVG-20010904/DTD/svg10.dtd">
<svg version="1.0" xmlns="http://www.w3.org/2000/svg"
 width="700.000000pt" height="700.000000pt" viewBox="0 0 700.000000 700.000000"
 preserveAspectRatio="xMidYMid meet">
<metadata>
Created by potrace 1.14, written by Peter Selinger 2001-2017
</metadata>
<g transform="translate(0.000000,700.000000) scale(0.100000,-0.100000)"
fill="#000000" stroke="none">
<path d="M3509 5836 c-2 -2 -60 -6 -129 -10 -193 -9 -289 -23 -460 -67 -563
-145 -1041 -486 -1365 -973 -191 -287 -339 -686 -371 -1001 -4 -38 -8 -83 -10
-100 -5 -50 -4 -326 2 -390 7 -83 20 -169 39 -265 3 -14 7 -34 9 -45 23 -121
103 -348 174 -495 145 -302 370 -589 617 -788 39 -31 72 -59 75 -62 37 -38
291 -191 410 -248 170 -80 441 -167 575 -185 22 -3 47 -8 55 -11 15 -4 85 -13
185 -22 97 -8 351 -5 440 5 283 34 528 106 770 225 475 235 839 599 1070 1071
159 325 235 649 237 1007 1 259 -26 453 -92 678 -187 629 -627 1148 -1215
1435 -277 136 -564 215 -837 230 -56 3 -119 8 -139 10 -20 2 -38 3 -40 1z m-9
-2338 l0 -2138 -102 5 c-57 3 -116 8 -133 10 -16 2 -52 7 -80 10 -345 45 -735
216 -1025 450 -329 265 -578 629 -698 1020 -46 146 -67 246 -88 400 -10 75
-12 350 -3 435 9 94 17 158 24 190 3 14 8 39 10 55 3 17 8 38 11 47 3 9 7 26
9 37 22 115 112 346 192 493 143 264 298 448 559 668 132 111 425 271 618 339
149 52 352 96 491 107 44 4 81 8 83 9 1 1 31 2 67 2 l65 0 0 -2139z"/>
</g>
</svg>
