<svg xmlns="http://www.w3.org/2000/svg" width="67" height="67" viewBox="0 0 67 67" fill="none"><rect width="67" height="67" rx="13.9583" fill="#FFEEDA"></rect><path fill-rule="evenodd" clip-rule="evenodd" d="M42.6382 21.0589C43.6127 20.8153 44.5992 21.3481 44.9452 22.2656L45.0134 22.484L48.711 37.2746C48.7373 37.3799 48.7549 37.4872 48.7634 37.5954C48.8425 38.5968 48.1539 39.4815 47.1917 39.671L46.9651 39.7021L39.0793 40.3247C38.7535 40.3505 38.491 40.6004 38.4467 40.9244C38.0836 43.5832 35.9225 45.7335 33.1366 45.9773C30.3161 46.2241 27.7871 44.4352 27 41.8281C26.9057 41.5155 26.6071 41.3104 26.2816 41.336L21.1542 41.7398C20.28 41.8088 19.4774 41.2897 19.171 40.4878L19.1 40.2623L18.2891 37.0187C18.0982 36.2549 18.3838 35.4596 18.9971 34.9896L19.1907 34.8587L42.1147 21.2741C42.278 21.1774 42.4543 21.105 42.6382 21.0589ZM35.574 40.6016L29.7862 41.0585C29.2728 41.099 28.9843 41.6629 29.2452 42.1069C29.9872 43.3693 31.41 44.1623 32.9658 44.0262C34.499 43.892 35.7483 42.8918 36.2738 41.5498C36.4612 41.0713 36.0863 40.5612 35.574 40.6016Z" fill="#FF991F"></path></svg>