<svg xmlns="http://www.w3.org/2000/svg" width="128.281" height="145.318" viewBox="0 0 128.281 145.318">
  <g id="Group_391" data-name="Group 391" transform="translate(-4253.891 -326.13)">
    <g id="Group_263" data-name="Group 263" transform="translate(4253.891 326.13)">
      <path id="Path_104" data-name="Path 104" d="M4393.147,326.13h-28.28V471.448h43.427V341.277Z" transform="translate(-4280.013 -326.13)" fill="#ddd6cd"/>
      <path id="Path_105" data-name="Path 105" d="M4282.171,326.13h-28.28v67.253h43.427V341.277Z" transform="translate(-4253.891 -326.13)" fill="#ddd6cd"/>
    </g>
    <g id="Group_264" data-name="Group 264" transform="translate(4253.891 435.347)">
      <path id="Path_106" data-name="Path 106" d="M4263.965,469.59h1.823a.51.51,0,0,1,.044.042c.012.014.031.031.031.046q.011,8.392.016,16.783a2.207,2.207,0,0,1-.029.247h-1.864c-.045-.865-.015-1.72-.021-2.573s0-1.682,0-2.523v-2.566c-.465-.107-7.035-.146-8.175-.051,0,.633-.006,1.273-.008,1.913s0,1.291,0,1.936v3.874c-.638.039-1.25.008-1.89.02V469.6h1.876c.035,2.479,0,4.952.021,7.419.576.1,7.653.1,8.135-.011a14.483,14.483,0,0,0,.038-1.85c.013-.606,0-1.213,0-1.819v-3.75Z" transform="translate(-4253.891 -469.116)" fill="#ddd6cd"/>
      <path id="Path_107" data-name="Path 107" d="M4283.742,488.213h-1.357l-.339-.825c-.166.091-.314.166-.457.254a5.484,5.484,0,0,1-2.819.839,6.835,6.835,0,0,1-2.823-.352,3.056,3.056,0,0,1-1.988-2.465,4.432,4.432,0,0,1,.17-2.181,2.728,2.728,0,0,1,1.664-1.7,5.208,5.208,0,0,1,1.879-.384c1.367-.022,2.733-.077,4.106-.119a4.325,4.325,0,0,0-.166-2.364A1.7,1.7,0,0,0,4280.6,478a4.008,4.008,0,0,0-1.317-.233,6.8,6.8,0,0,0-2.433.246c-.508.189-1.006.405-1.571.635l-.722-1.281c.056-.242.236-.327.407-.417a8.067,8.067,0,0,1,2.416-.831,10.558,10.558,0,0,1,2.511-.08,4.779,4.779,0,0,1,2.319.708,3.173,3.173,0,0,1,1.41,2.2,8.574,8.574,0,0,1,.118,1.51c.012,2.385,0,4.77,0,7.154Zm-1.881-5.147c-1.435,0-2.784-.013-4.132.011a2.492,2.492,0,0,0-.9.218,1.751,1.751,0,0,0-.5,2.891,2.116,2.116,0,0,0,1.093.511,6.079,6.079,0,0,0,2.321,0,4.366,4.366,0,0,0,1.871-.768.573.573,0,0,0,.232-.369C4281.872,484.745,4281.861,483.929,4281.861,483.067Z" transform="translate(-4258.599 -470.626)" fill="#ddd6cd"/>
      <path id="Path_108" data-name="Path 108" d="M4308.007,482.837h-8.077a4.064,4.064,0,0,0,.509,2.918,2.526,2.526,0,0,0,1.646.931,6.332,6.332,0,0,0,4.746-.973,1.029,1.029,0,0,1,.157-.073.651.651,0,0,1,.135.009l.77,1.371a4.5,4.5,0,0,1-.494.387,7.453,7.453,0,0,1-3.721,1.072,7.934,7.934,0,0,1-2.887-.345,3.811,3.811,0,0,1-2.68-3.3,13.5,13.5,0,0,1-.1-1.512c-.015-.939-.022-1.879,0-2.817a6.3,6.3,0,0,1,.177-1.324,3.794,3.794,0,0,1,3.046-2.966,7.17,7.17,0,0,1,4.089.151,3.807,3.807,0,0,1,2.566,3.2A26.567,26.567,0,0,1,4308.007,482.837Zm-1.806-1.666a10.9,10.9,0,0,0-.115-1.349,2.3,2.3,0,0,0-1.79-1.937,6.093,6.093,0,0,0-2.271-.064,2.213,2.213,0,0,0-1.653,1,3.516,3.516,0,0,0-.448,2.353Z" transform="translate(-4264.273 -470.623)" fill="#ddd6cd"/>
      <path id="Path_109" data-name="Path 109" d="M4291.427,468.97h1.668c.094.457.108,16.954.013,17.593h-1.671C4291.341,486.093,4291.33,469.579,4291.427,468.97Z" transform="translate(-4262.71 -468.97)" fill="#ddd6cd"/>
    </g>
  </g>
</svg>
