<svg xmlns="http://www.w3.org/2000/svg" width="17.967" height="26.987" viewBox="0 0 17.967 26.987">
  <g id="Group_253" data-name="Group 253" transform="translate(-268 -856.526)">
    <path id="Path_81" data-name="Path 81" d="M-389.515,293.766V292.18a.467.467,0,0,0,.043-.116,8.108,8.108,0,0,1,.355-1.756,8.818,8.818,0,0,1,4.608-5.412,8.738,8.738,0,0,1,5.726-.754,8.734,8.734,0,0,1,4.734,2.6,8.817,8.817,0,0,1,2.49,5.869,8.627,8.627,0,0,1-1.106,4.691c-.784,1.4-1.591,2.779-2.391,4.166q-2.531,4.391-5.064,8.78c-.13.226-.263.451-.409.7-.049-.075-.084-.122-.113-.172q-.508-.88-1.015-1.76l-6.608-11.454a9.065,9.065,0,0,1-1.154-3.264C-389.444,294.12-389.482,293.944-389.515,293.766Zm8.977-5.286a4.475,4.475,0,0,0-4.474,4.489,4.45,4.45,0,0,0,4.482,4.479,4.461,4.461,0,0,0,4.478-4.487A4.487,4.487,0,0,0-380.538,288.48Z" transform="translate(657.515 572.564)" fill="#bab7b2"/>
    <ellipse id="Ellipse_3" data-name="Ellipse 3" cx="6.5" cy="6" rx="6.5" ry="6" transform="translate(271 859)" fill="#bab7b2"/>
    <g id="Group_228" data-name="Group 228" transform="translate(273.542 863.248)">
      <path id="Path_1" data-name="Path 1" d="M4158.609,1258.878H4157.1v7.771h2.323v-6.961Z" transform="translate(-4152.559 -1258.878)" fill="#2f3031"/>
      <path id="Path_2" data-name="Path 2" d="M4088.325,1258.878h-1.512v3.6h2.322v-2.787Z" transform="translate(-4086.813 -1258.878)" fill="#2f3031"/>
    </g>
  </g>
</svg>
