<svg xmlns="http://www.w3.org/2000/svg" width="67" height="67" viewBox="0 0 67 67" fill="none"><rect width="67" height="67" rx="13.9583" fill="#F1ECFC"></rect><path d="M40.9541 29.207C40.8339 29.0385 40.67 28.9061 40.48 28.8241C40.29 28.7421 40.0812 28.7137 39.8762 28.7418C39.6722 28.7707 39.4799 28.8546 39.32 28.9846C39.1601 29.1145 39.0386 29.2855 38.9685 29.4793C38.7855 29.8798 38.5611 30.2601 38.299 30.6139C38.0914 28.5518 37.336 26.5827 36.111 24.9108C34.8861 23.2389 33.2362 21.9252 31.3325 21.1058C31.1645 21.0277 30.98 20.9919 30.795 21.0015C30.6101 21.0112 30.4303 21.066 30.2713 21.1611C30.1124 21.2562 29.9792 21.3888 29.8833 21.5473C29.7874 21.7057 29.7318 21.8853 29.7213 22.0702C29.6426 25.0164 28.6294 27.8614 26.828 30.1941C25.2885 32.1004 24.4406 34.4722 24.4226 36.9224C24.4226 39.3298 25.3789 41.6386 27.0812 43.3408C28.7835 45.0431 31.0922 45.9994 33.4996 45.9994C34.6954 46.0131 35.8819 45.7877 36.9893 45.3363C38.0968 44.885 39.1029 44.2169 39.9485 43.3713C40.7941 42.5257 41.4622 41.5196 41.9135 40.4122C42.3648 39.3047 42.5903 38.1182 42.5766 36.9224C42.5766 31.6237 41.1243 29.4453 40.9541 29.207Z" fill="#BF83FF"></path></svg>