<svg xmlns="http://www.w3.org/2000/svg" width="67" height="67" viewBox="0 0 67 67" fill="none"><rect width="67" height="67" rx="13.9583" fill="#E8F7F5"></rect><path d="M30.0135 22.6922C29.5895 21.6324 28.563 20.9374 27.4215 20.9374H23.5819C22.1212 20.9374 20.9371 22.1212 20.9371 23.5818C20.9371 35.9973 31.0022 46.0624 43.4177 46.0624C44.8784 46.0624 46.0622 44.8782 46.0622 43.4175L46.0628 39.5773C46.0628 38.4358 45.368 37.4094 44.3081 36.9855L40.6281 35.514C39.676 35.1332 38.5921 35.3046 37.8043 35.961L36.8546 36.7531C35.7454 37.6775 34.1133 37.604 33.0923 36.583L30.418 33.9062C29.397 32.8852 29.3215 31.2545 30.2459 30.1453L31.0379 29.1956C31.6943 28.4078 31.8672 27.3235 31.4864 26.3715L30.0135 22.6922Z" fill="#0DADA3"></path></svg>