<svg xmlns="http://www.w3.org/2000/svg" width="41" height="30" viewBox="0 0 41 30" fill="none"><path fill-rule="evenodd" clip-rule="evenodd" d="M40.229 17.7273C40.6046 17.7273 40.9091 17.4196 40.9091 17.0432V0.684065C40.9091 0.306265 40.6017 0 40.2257 0H23.8828C23.5054 0 23.1991 0.307687 23.1987 0.684065L23.1818 17.7273C23.554 24.5649 29.2104 30 36.1363 30H36.1383C36.5138 30 36.8181 29.6893 36.8181 29.3213V23.8605C36.8181 23.4857 36.5092 23.1818 36.1383 23.1818H36.1363C32.9778 23.1818 30.3766 20.7954 30.0374 17.7273H40.229ZM17.0472 17.7273C17.4228 17.7273 17.7272 17.4196 17.7272 17.0432V0.684065C17.7272 0.306265 17.4199 0 17.0439 0H0.700991C0.323569 0 0.0173021 0.307687 0.0169282 0.684065L-3.18939e-05 17.7273C0.372157 24.5649 6.02862 30 12.9545 30H12.9565C13.3319 30 13.6363 29.6893 13.6363 29.3213V23.8605C13.6363 23.4857 13.3273 23.1818 12.9565 23.1818H12.9545C9.79595 23.1818 7.19477 20.7954 6.8556 17.7273H17.0472Z" fill="#1C90FF"></path></svg>