<svg xmlns="http://www.w3.org/2000/svg" width="36" height="36" viewBox="0 0 36 36" fill="none"><rect width="36" height="36" rx="3" fill="#E0F2FA"></rect><path d="M15.5521 10.2668C15.2461 9.5017 14.505 9 13.681 9H10.9092C9.85478 9 9 9.85457 9 10.909C9 19.8716 16.2658 27.1374 25.2284 27.1374C26.2828 27.1374 27.1374 26.2826 27.1374 25.2281L27.1379 22.4559C27.1379 21.6319 26.6363 20.8909 25.8712 20.5849L23.2146 19.5227C22.5274 19.2478 21.7448 19.3715 21.1762 19.8454L20.4906 20.4172C19.6899 21.0844 18.5117 21.0314 17.7747 20.2944L15.8441 18.362C15.1071 17.625 15.0526 16.4478 15.7199 15.647L16.2916 14.9615C16.7654 14.3928 16.8903 13.6101 16.6154 12.9228L15.5521 10.2668Z" fill="#1C90FF"></path></svg>