<svg xmlns="http://www.w3.org/2000/svg" width="36" height="36" viewBox="0 0 36 36" fill="none"><rect width="36" height="36" rx="3" fill="#E0F2FA"></rect><g clip-path="url(#clip0_71_3419)"><path d="M8.17353 18.8811L19.9366 6.24402C20.0975 6.07589 20.2953 5.9475 20.5143 5.869C20.7334 5.79051 20.9677 5.76406 21.1988 5.79175C21.4298 5.81944 21.6513 5.90051 21.8456 6.02855C22.0399 6.15659 22.2018 6.32808 22.3184 6.52947L29.0684 18.2208C29.2673 18.5653 29.3212 18.9748 29.2183 19.359C29.1153 19.7433 28.8639 20.0709 28.5194 20.2699C28.3952 20.3416 28.2613 20.3952 28.1219 20.429L20.1432 22.262L20.6247 23.0958C20.8236 23.4403 20.8775 23.8498 20.7745 24.234C20.6715 24.6183 20.4201 24.9459 20.0756 25.1449L17.4775 26.6449C17.133 26.8438 16.7236 26.8977 16.3393 26.7947C15.955 26.6917 15.6274 26.4403 15.4285 26.0958L14.0269 23.6682L11.2996 24.2956C10.9849 24.3699 10.6547 24.3411 10.3576 24.2134C10.0605 24.0857 9.81236 23.866 9.64965 23.5866L7.96215 20.6637C7.80177 20.3831 7.73575 20.0585 7.7738 19.7375C7.81185 19.4166 7.95198 19.1164 8.17353 18.8811ZM16.7275 25.3458L19.3256 23.8458L18.6141 22.6134L15.5557 23.3161L16.7275 25.3458ZM10.9487 22.8366L10.9576 22.8314L17.8294 21.2542L14.0714 14.7452L9.27012 19.9086L9.26119 19.9137L10.9487 22.8366Z" fill="#1C90FF"></path></g><defs><clipPath id="clip0_71_3419"><rect width="24" height="24" fill="white" transform="matrix(-1 0 0 1 30 6)"></rect></clipPath></defs></svg>