<svg xmlns="http://www.w3.org/2000/svg" width="231" height="27" viewBox="0 0 231 27" fill="none"><path d="M9.28875 26.1312C7.531 26.1312 5.84109 25.8475 4.21903 25.2862C2.61547 24.725 1.37579 23.9787 0.5 23.0536L1.48064 21.1231C2.33793 21.9804 3.47892 22.6774 4.89746 23.2201C6.31599 23.7382 7.78387 23.9972 9.29492 23.9972C11.4166 23.9972 13.0016 23.6148 14.0624 22.8501C15.1232 22.0606 15.6537 21.043 15.6537 19.8033C15.6537 18.8535 15.3576 18.1011 14.7717 17.5336C14.2104 16.9724 13.5073 16.5407 12.6747 16.2508C11.8421 15.9362 10.6826 15.597 9.19007 15.2393C7.40765 14.7891 5.98911 14.3574 4.9283 13.9565C3.86748 13.5309 2.95468 12.8833 2.18991 12.026C1.4498 11.1687 1.07358 10.0092 1.07358 8.54136C1.07358 7.34486 1.38813 6.26554 2.01722 5.29107C2.6463 4.29809 3.62078 3.50865 4.9283 2.92273C6.23581 2.33681 7.85788 2.04077 9.80065 2.04077C11.1513 2.04077 12.4712 2.23197 13.754 2.61435C15.0616 2.97207 16.1902 3.48398 17.1339 4.13774L16.2889 6.13602C15.2959 5.48226 14.2351 4.99502 13.1126 4.68048C11.984 4.34126 10.88 4.17474 9.80065 4.17474C7.72836 4.17474 6.1618 4.5818 5.10099 5.38975C4.06484 6.17919 3.54677 7.20917 3.54677 8.46735C3.54677 9.41715 3.83047 10.1819 4.39172 10.7678C4.97764 11.3353 5.69924 11.7732 6.55653 12.0877C7.43849 12.3837 8.61032 12.7045 10.072 13.0683C11.8113 13.4939 13.2051 13.9256 14.266 14.3512C15.3514 14.7582 16.2642 15.3873 17.0043 16.2446C17.7506 17.0772 18.1207 18.2182 18.1207 19.6614C18.1207 20.8579 17.7938 21.9496 17.14 22.9426C16.5109 23.9109 15.5303 24.688 14.1981 25.2739C12.8659 25.8352 11.2315 26.1189 9.29492 26.1189L9.28875 26.1312Z" fill="#1C90FF"></path><path d="M60.2881 8.13428V25.9276H57.9876V22.6773C57.3585 23.7628 56.4889 24.6078 55.3849 25.2122C54.2809 25.7981 53.0165 26.0942 51.598 26.0942C49.279 26.0942 47.4411 25.4527 46.0842 24.1637C44.752 22.8562 44.0859 20.9504 44.0859 18.4464V8.13428H46.4851V18.212C46.4851 20.087 46.9477 21.5055 47.8728 22.4738C48.7979 23.4421 50.1178 23.9294 51.8324 23.9294C53.7011 23.9294 55.1813 23.3681 56.2607 22.2394C57.3462 21.0861 57.8827 19.5011 57.8827 17.4719V8.13428H60.2819H60.2881Z" fill="#1C90FF"></path><path d="M69.3421 11.6189C69.9033 10.4224 70.7421 9.52192 71.8461 8.91133C72.9747 8.30074 74.3624 7.99854 76.003 7.99854V10.3299L75.4294 10.2929C73.5607 10.2929 72.0928 10.8664 71.032 12.0198C69.9711 13.1669 69.4469 14.7828 69.4469 16.8551V25.9214H67.0477V8.13422H69.3482V11.6189H69.3421Z" fill="#1C90FF"></path><path d="M87.4933 26.0941C85.7355 26.0941 84.1566 25.7117 82.7566 24.9408C81.3812 24.176 80.2958 23.1028 79.5063 21.7275C78.7169 20.3275 78.3221 18.7609 78.3221 17.0278C78.3221 15.2947 78.7169 13.7344 79.5063 12.359C80.2958 10.9836 81.3751 9.91047 82.7566 9.1457C84.1505 8.38092 85.7355 7.99854 87.4933 7.99854C89.0228 7.99854 90.392 8.30074 91.5824 8.91133C92.7974 9.49725 93.7595 10.3669 94.4564 11.514L92.6617 12.7352C92.0758 11.8532 91.3295 11.1995 90.429 10.7739C89.5286 10.3237 88.5479 10.0955 87.4871 10.0955C86.2043 10.0955 85.0386 10.3915 84.0024 10.9775C82.9848 11.5449 82.1892 12.3528 81.6033 13.4136C81.042 14.4745 80.7583 15.6771 80.7583 17.034C80.7583 18.3908 81.042 19.6244 81.6033 20.6852C82.1892 21.7213 82.991 22.5354 84.0024 23.1214C85.0386 23.6826 86.1981 23.9663 87.4871 23.9663C88.5479 23.9663 89.5286 23.7504 90.429 23.3249C91.3295 22.8993 92.0758 22.2394 92.6617 21.3636L94.4564 22.5786C93.7595 23.7319 92.7974 24.6077 91.5824 25.2183C90.3674 25.8042 88.9982 26.1003 87.4933 26.1003V26.0941Z" fill="#1C90FF"></path><path fill-rule="evenodd" clip-rule="evenodd" d="M109.468 23.3866C110.418 22.9796 111.214 22.3936 111.867 21.6289L113.224 23.1831C112.435 24.1329 111.454 24.8483 110.282 25.3479C109.11 25.8413 107.815 26.0942 106.391 26.0942C104.565 26.0942 102.943 25.7118 101.518 24.9408C100.1 24.1514 98.9957 23.0721 98.2063 21.6905C97.4168 20.3152 97.0221 18.761 97.0221 17.0217C97.0221 15.2825 97.3922 13.7282 98.1384 12.3529C98.9032 10.9775 99.9517 9.90437 101.284 9.13959C102.616 8.37482 104.127 7.99243 105.817 7.99243C107.396 7.99243 108.814 8.35015 110.079 9.07792C111.362 9.79952 112.379 10.8048 113.119 12.0877C113.884 13.3705 114.291 14.8384 114.334 16.4851L99.7235 19.3284C100.174 20.7716 100.988 21.9126 102.16 22.7452C103.356 23.5593 104.775 23.9664 106.421 23.9664C107.525 23.9664 108.543 23.7752 109.462 23.3928L109.468 23.3866ZM105.817 10.0586C104.577 10.0586 103.461 10.3546 102.468 10.9405C101.5 11.5018 100.735 12.3035 100.168 13.3397C99.6248 14.3573 99.3534 15.5292 99.3534 16.8614C99.3534 17.2006 99.3658 17.4473 99.3904 17.6076L111.935 15.1715C111.664 13.6851 110.979 12.4639 109.875 11.5203C108.771 10.552 107.421 10.0647 105.817 10.0647V10.0586Z" fill="#1C90FF"></path><path d="M152.598 2.25049V16.7257C152.598 19.8156 151.845 22.147 150.334 23.7259C148.823 25.3048 146.702 26.0942 143.976 26.0942C142.014 26.0942 140.368 25.6748 139.035 24.8422C137.703 24.0096 136.76 22.7761 136.198 21.154C135.637 22.7761 134.687 24.0096 133.355 24.8422C132.023 25.6748 130.376 26.0942 128.415 26.0942C125.689 26.0942 123.567 25.3048 122.056 23.7259C120.545 22.147 119.793 19.8156 119.793 16.7257V2.25049H121.52V16.6579C121.52 19.3407 122.105 21.3267 123.277 22.6095C124.474 23.8739 126.182 24.503 128.415 24.503C130.647 24.503 132.325 23.8616 133.522 22.5725C134.718 21.2897 135.316 19.3161 135.316 16.6517V2.25049H137.074V16.6579C137.074 19.3407 137.66 21.3267 138.832 22.6095C140.028 23.8739 141.737 24.503 143.969 24.503C146.202 24.503 147.88 23.8616 149.076 22.5725C150.273 21.2897 150.865 19.3161 150.865 16.6517V2.25049H152.592H152.598Z" fill="#0E1433"></path><path d="M168.701 8.13422C170.909 8.13422 172.655 8.77565 173.944 10.0647C175.227 11.3475 175.874 13.1978 175.874 15.6155V25.9338H174.184V15.7511C174.184 13.7652 173.679 12.2541 172.661 11.218C171.668 10.1818 170.274 9.66377 168.467 9.66377C166.395 9.66377 164.76 10.2805 163.564 11.5202C162.367 12.7599 161.769 14.4313 161.769 16.5282V25.9338H160.079V0.825684H161.769V11.9581C162.38 10.7431 163.28 9.80563 164.477 9.15187C165.673 8.47344 167.079 8.14039 168.701 8.14039V8.13422Z" fill="#0E1433"></path><path fill-rule="evenodd" clip-rule="evenodd" d="M198.62 8.27003V25.9277H196.961V21.7646C196.264 23.14 195.283 24.2008 194.019 24.9409C192.755 25.6872 191.324 26.0572 189.726 26.0572C188.129 26.0572 186.593 25.6748 185.261 24.9039C183.929 24.1391 182.88 23.0783 182.116 21.7276C181.369 20.3707 180.999 18.8289 180.999 17.0958C180.999 15.3627 181.369 13.8146 182.116 12.4578C182.88 11.0824 183.929 10.0216 185.261 9.2815C186.593 8.51673 188.08 8.12817 189.726 8.12817C191.373 8.12817 192.712 8.49823 193.951 9.2445C195.216 9.99077 196.202 11.0269 196.93 12.3591V8.26386H198.62V8.27003ZM189.831 24.54C191.182 24.54 192.391 24.2255 193.452 23.5964C194.537 22.9673 195.382 22.0853 195.987 20.9567C196.616 19.828 196.936 18.5452 196.936 17.1019C196.936 15.6587 196.622 14.3697 195.987 13.2472C195.376 12.1186 194.531 11.2366 193.452 10.6075C192.391 9.97844 191.188 9.66389 189.831 9.66389C188.474 9.66389 187.259 9.97844 186.18 10.6075C185.119 11.2366 184.274 12.1186 183.645 13.2472C183.035 14.3759 182.732 15.6587 182.732 17.1019C182.732 18.5452 183.041 19.828 183.645 20.9567C184.274 22.0853 185.119 22.9673 186.18 23.5964C187.259 24.2255 188.481 24.54 189.831 24.54Z" fill="#0E1433"></path><path d="M210.381 26.0633C208.895 26.0633 207.754 25.6439 206.965 24.8113C206.175 23.954 205.78 22.7821 205.78 21.2896V0.825684H207.47V21.0861C207.47 22.2394 207.729 23.1152 208.247 23.7258C208.765 24.3117 209.543 24.6077 210.579 24.6077C211.165 24.6077 211.732 24.4967 212.269 24.2685L212.404 25.687C211.775 25.9338 211.097 26.0571 210.375 26.0571L210.381 26.0633Z" fill="#0E1433"></path><path fill-rule="evenodd" clip-rule="evenodd" d="M222.797 24.54C223.944 24.54 225.005 24.3365 225.973 23.9294C226.966 23.5039 227.786 22.8809 228.44 22.0668L229.421 23.1831C228.656 24.1329 227.694 24.8484 226.547 25.348C225.399 25.8229 224.135 26.0572 222.76 26.0572C221.002 26.0572 219.423 25.6748 218.023 24.9039C216.648 24.1391 215.568 23.0783 214.779 21.7276C214.014 20.3707 213.626 18.8289 213.626 17.0958C213.626 15.3627 213.989 13.8146 214.711 12.4578C215.457 11.1071 216.481 10.0463 217.789 9.2815C219.096 8.51673 220.57 8.12817 222.217 8.12817C223.753 8.12817 225.122 8.48589 226.343 9.21366C227.583 9.91059 228.563 10.8912 229.285 12.1556C230.025 13.3953 230.432 14.7953 230.5 16.3495L215.587 19.2606C216.012 20.8827 216.87 22.1655 218.159 23.1153C219.442 24.0651 220.99 24.5338 222.791 24.5338L222.797 24.54ZM222.223 9.62072C220.891 9.62072 219.701 9.93526 218.64 10.5705C217.579 11.1811 216.759 12.0446 216.173 13.1732C215.587 14.2772 215.291 15.5416 215.291 16.9601C215.291 17.2068 215.316 17.5583 215.359 18.0086L228.816 15.3689C228.662 14.3081 228.286 13.3397 227.7 12.4578C227.114 11.5758 226.343 10.8912 225.399 10.3978C224.45 9.87976 223.395 9.62072 222.223 9.62072Z" fill="#0E1433"></path><path d="M31.1403 7.96777C29.3517 7.96777 27.7358 8.35633 26.3111 9.13961C24.8802 9.92288 23.7639 11.0084 22.9621 12.4022C22.1542 13.7961 21.7533 15.3812 21.7533 17.1512C21.7533 18.9213 22.1542 20.5002 22.9621 21.8941C23.7639 23.288 24.8802 24.3858 26.3111 25.1752C27.1684 25.6501 28.0874 25.9832 29.0742 26.1744C29.4566 25.792 29.8328 25.1259 29.9746 23.9664C29.987 23.9294 29.987 23.8924 29.9931 23.8554C30.0116 23.6827 30.0301 23.5038 30.0116 23.325C30.0116 23.288 30.0116 23.2509 30.0055 23.2139C29.987 22.8871 29.9315 22.5663 29.8389 22.258C29.5306 21.2095 28.8151 20.309 27.9948 19.6738C27.2547 19.1064 26.3975 18.8597 25.6573 18.3292C25.3921 18.1504 25.1454 17.9345 24.9296 17.6878C24.7446 17.4905 24.5842 17.2684 24.4608 17.0279C24.4115 16.9415 24.3683 16.8552 24.3252 16.7627C24.2141 16.4975 24.1278 16.2199 24.0846 15.9486C23.9798 15.3812 24.0168 14.7891 24.0846 14.2093C24.1093 14.0058 24.1463 13.8023 24.1771 13.5987C24.2141 13.4075 24.2326 13.2102 24.2943 13.0252C24.319 12.9511 24.3498 12.8771 24.393 12.8093C24.4053 12.7908 24.4793 12.6983 24.4547 12.6859C24.7075 12.8956 24.9851 13.0498 25.2688 13.167C25.3675 13.204 25.4723 13.241 25.5772 13.2719C26.4591 13.5556 27.4336 13.5679 28.3156 13.7221C29.3394 13.9071 30.4187 14.3512 30.9984 15.3442C31.7385 14.3512 32.9412 14.2772 34.002 14.4005C34.8778 14.4992 35.7104 14.6472 36.5307 14.5115C36.6664 14.4992 36.7959 14.4684 36.9316 14.4314C37.0673 14.3944 37.203 14.345 37.3387 14.2833C37.4929 14.2278 37.6471 14.1477 37.8074 14.0428C37.8444 14.0181 37.8876 13.9996 37.9308 14.0058C37.9739 14.0181 38.0109 14.0798 38.0294 14.123C38.418 15.0111 38.1898 16.1028 37.6964 16.9354C37.6841 16.9662 37.6717 16.9786 37.6594 17.0094C37.573 17.1389 37.4867 17.2746 37.3819 17.4041C37.3387 17.4658 37.2955 17.5275 37.2462 17.5891C37.2462 17.5891 37.2462 17.5953 37.24 17.6015C37.1413 17.731 37.0303 17.8605 36.9193 17.9839C36.1607 18.8103 35.2479 19.4764 34.3783 20.0438C33.447 20.6667 32.3121 21.4685 32.0408 22.7514C32.0099 22.8686 31.9976 22.9857 31.9852 23.1091C31.9852 23.1399 31.9791 23.1646 31.9791 23.1954C31.9667 23.4236 31.9852 23.6272 32.0161 23.8307C32.1764 24.725 32.75 25.5021 33.4778 26.1189C34.3536 25.9215 35.18 25.6069 35.951 25.1752C37.3695 24.3796 38.4797 23.288 39.2815 21.8941C40.0894 20.5002 40.4903 18.9152 40.4903 17.1512C40.4903 15.3873 40.0894 13.8023 39.2815 12.4022C38.4735 11.0022 37.3633 9.91672 35.951 9.13961C34.5324 8.35633 32.9289 7.96777 31.1403 7.96777Z" fill="#1C90FF"></path></svg>