<svg xmlns="http://www.w3.org/2000/svg" width="230" height="26" viewBox="0 0 230 26" fill="none"><path d="M8.78875 25.3055C7.031 25.3055 5.34109 25.0218 3.71903 24.4606C2.11547 23.8993 0.875791 23.153 0 22.2279L0.980639 20.2975C1.83793 21.1548 2.97892 21.8517 4.39746 22.3944C5.81599 22.9125 7.28387 23.1715 8.79492 23.1715C10.9166 23.1715 12.5016 22.7892 13.5624 22.0244C14.6232 21.2349 15.1537 20.2173 15.1537 18.9776C15.1537 18.0278 14.8576 17.2754 14.2717 16.708C13.7104 16.1467 13.0073 15.715 12.1747 15.4251C11.3421 15.1106 10.1826 14.7713 8.69007 14.4136C6.90765 13.9634 5.48911 13.5317 4.4283 13.1308C3.36748 12.7052 2.45468 12.0576 1.68991 11.2003C0.949802 10.3431 0.573582 9.18355 0.573582 7.71568C0.573582 6.51917 0.888126 5.43985 1.51722 4.46538C2.1463 3.47241 3.12078 2.68296 4.4283 2.09705C5.73581 1.51113 7.35788 1.21509 9.30065 1.21509C10.6513 1.21509 11.9712 1.40628 13.254 1.78867C14.5616 2.14639 15.6902 2.65829 16.6339 3.31205L15.7889 5.31034C14.7959 4.65658 13.7351 4.16934 12.6126 3.8548C11.484 3.51558 10.38 3.34906 9.30065 3.34906C7.22836 3.34906 5.6618 3.75612 4.60099 4.56406C3.56484 5.35351 3.04677 6.38349 3.04677 7.64167C3.04677 8.59147 3.33047 9.35625 3.89172 9.94216C4.47764 10.5096 5.19924 10.9475 6.05653 11.262C6.93849 11.5581 8.11032 11.8788 9.57203 12.2427C11.3113 12.6682 12.7051 13.0999 13.766 13.5255C14.8514 13.9326 15.7642 14.5617 16.5043 15.4189C17.2506 16.2516 17.6207 17.3926 17.6207 18.8358C17.6207 20.0323 17.2938 21.1239 16.64 22.1169C16.0109 23.0852 15.0303 23.8623 13.6981 24.4482C12.3659 25.0095 10.7315 25.2932 8.79492 25.2932L8.78875 25.3055Z" fill="#1C90FF"></path><path d="M59.7881 7.30859V25.102H57.4876V21.8517C56.8585 22.9371 55.9889 23.7821 54.8849 24.3865C53.7809 24.9724 52.5166 25.2685 51.098 25.2685C48.779 25.2685 46.9411 24.6271 45.5843 23.338C44.2521 22.0305 43.586 20.1247 43.586 17.6207V7.30859H45.9851V17.3864C45.9851 19.2613 46.4477 20.6798 47.3728 21.6481C48.298 22.6164 49.6178 23.1037 51.3324 23.1037C53.2012 23.1037 54.6814 22.5424 55.7607 21.4138C56.8462 20.2604 57.3828 18.6754 57.3828 16.6463V7.30859H59.7819H59.7881Z" fill="#1C90FF"></path><path d="M68.8421 10.7932C69.4033 9.5967 70.2421 8.69623 71.3461 8.08565C72.4747 7.47506 73.8624 7.17285 75.503 7.17285V9.50418L74.9294 9.46718C73.0607 9.46718 71.5928 10.0408 70.532 11.1941C69.4711 12.3413 68.9469 13.9571 68.9469 16.0294V25.0957H66.5477V7.30854H68.8482V10.7932H68.8421Z" fill="#1C90FF"></path><path d="M86.9933 25.2684C85.2356 25.2684 83.6567 24.886 82.2566 24.1151C80.8813 23.3503 79.7958 22.2772 79.0063 20.9018C78.2169 19.5018 77.8222 17.9352 77.8222 16.2021C77.8222 14.4691 78.2169 12.9087 79.0063 11.5333C79.7958 10.1579 80.8751 9.08479 82.2566 8.32001C83.6505 7.55524 85.2356 7.17285 86.9933 7.17285C88.5229 7.17285 89.8921 7.47506 91.0824 8.08565C92.2974 8.67156 93.2595 9.54119 93.9565 10.6884L92.1617 11.9095C91.5758 11.0276 90.8295 10.3738 89.9291 9.94825C89.0286 9.49801 88.048 9.26982 86.9871 9.26982C85.7043 9.26982 84.5386 9.56586 83.5025 10.1518C82.4848 10.7192 81.6892 11.5271 81.1033 12.588C80.5421 13.6488 80.2584 14.8514 80.2584 16.2083C80.2584 17.5652 80.5421 18.7987 81.1033 19.8595C81.6892 20.8956 82.491 21.7098 83.5025 22.2957C84.5386 22.8569 85.6981 23.1406 86.9871 23.1406C88.048 23.1406 89.0286 22.9248 89.9291 22.4992C90.8295 22.0736 91.5758 21.4137 92.1617 20.5379L93.9565 21.7529C93.2595 22.9063 92.2974 23.782 91.0824 24.3926C89.8674 24.9785 88.4982 25.2746 86.9933 25.2746V25.2684Z" fill="#1C90FF"></path><path fill-rule="evenodd" clip-rule="evenodd" d="M108.968 22.5609C109.918 22.1539 110.714 21.568 111.367 20.8032L112.724 22.3574C111.935 23.3072 110.954 24.0226 109.782 24.5222C108.61 25.0156 107.315 25.2685 105.891 25.2685C104.065 25.2685 102.443 24.8861 101.018 24.1152C99.5997 23.3257 98.4957 22.2464 97.7062 20.8649C96.9168 19.4895 96.5221 17.9353 96.5221 16.196C96.5221 14.4568 96.8921 12.9026 97.6384 11.5272C98.4032 10.1518 99.4516 9.07869 100.784 8.31391C102.116 7.54914 103.627 7.16675 105.317 7.16675C106.896 7.16675 108.314 7.52447 109.579 8.25224C110.862 8.97384 111.879 9.97915 112.619 11.262C113.384 12.5448 113.791 14.0127 113.834 15.6595L99.2235 18.5027C99.6737 19.9459 100.488 21.0869 101.66 21.9195C102.856 22.7336 104.275 23.1407 105.921 23.1407C107.025 23.1407 108.043 22.9495 108.962 22.5671L108.968 22.5609ZM105.317 9.23288C104.077 9.23288 102.961 9.52892 101.968 10.1148C101 10.6761 100.235 11.4779 99.6675 12.514C99.1248 13.5317 98.8534 14.7035 98.8534 16.0357C98.8534 16.3749 98.8657 16.6216 98.8904 16.7819L111.435 14.3458C111.164 12.8594 110.479 11.6382 109.375 10.6946C108.271 9.72628 106.921 9.23904 105.317 9.23904V9.23288Z" fill="#1C90FF"></path><path d="M152.098 1.4248V15.9C152.098 18.99 151.345 21.3213 149.834 22.9002C148.323 24.4791 146.202 25.2685 143.476 25.2685C141.514 25.2685 139.868 24.8491 138.535 24.0165C137.203 23.1839 136.259 21.9504 135.698 20.3283C135.137 21.9504 134.187 23.1839 132.855 24.0165C131.523 24.8491 129.876 25.2685 127.915 25.2685C125.189 25.2685 123.067 24.4791 121.556 22.9002C120.045 21.3213 119.293 18.99 119.293 15.9V1.4248H121.019V15.8322C121.019 18.5151 121.605 20.501 122.777 21.7839C123.974 23.0482 125.682 23.6773 127.915 23.6773C130.147 23.6773 131.825 23.0359 133.022 21.7469C134.218 20.464 134.816 18.4904 134.816 15.826V1.4248H136.574V15.8322C136.574 18.5151 137.16 20.501 138.332 21.7839C139.528 23.0482 141.237 23.6773 143.469 23.6773C145.702 23.6773 147.38 23.0359 148.576 21.7469C149.773 20.464 150.365 18.4904 150.365 15.826V1.4248H152.092H152.098Z" fill="white"></path><path d="M168.201 7.30854C170.409 7.30854 172.155 7.94996 173.444 9.23898C174.727 10.5218 175.374 12.3721 175.374 14.7898V25.1081H173.684V14.9255C173.684 12.9395 173.179 11.4285 172.161 10.3923C171.168 9.35616 169.774 8.83809 167.967 8.83809C165.895 8.83809 164.26 9.45484 163.064 10.6945C161.867 11.9342 161.269 13.6056 161.269 15.7026V25.1081H159.579V0H161.269V11.1324C161.88 9.91741 162.78 8.97994 163.977 8.32618C165.173 7.64775 166.579 7.31471 168.201 7.31471V7.30854Z" fill="white"></path><path fill-rule="evenodd" clip-rule="evenodd" d="M198.12 7.44434V25.102H196.461V20.9389C195.764 22.3143 194.783 23.3751 193.519 24.1152C192.255 24.8615 190.824 25.2315 189.226 25.2315C187.629 25.2315 186.093 24.8491 184.761 24.0782C183.429 23.3134 182.38 22.2526 181.616 20.9019C180.869 19.5451 180.499 18.0032 180.499 16.2701C180.499 14.537 180.869 12.989 181.616 11.6321C182.38 10.2567 183.429 9.19593 184.761 8.45582C186.093 7.69105 187.58 7.30249 189.226 7.30249C190.873 7.30249 192.212 7.67254 193.451 8.41882C194.716 9.16509 195.702 10.2012 196.43 11.5334V7.43818H198.12V7.44434ZM189.331 23.7143C190.682 23.7143 191.891 23.3998 192.952 22.7707C194.037 22.1416 194.882 21.2596 195.487 20.131C196.116 19.0023 196.436 17.7195 196.436 16.2763C196.436 14.8331 196.122 13.544 195.487 12.4216C194.876 11.2929 194.031 10.4109 192.952 9.78184C191.891 9.15275 190.688 8.83821 189.331 8.83821C187.974 8.83821 186.759 9.15275 185.68 9.78184C184.619 10.4109 183.774 11.2929 183.145 12.4216C182.535 13.5502 182.232 14.8331 182.232 16.2763C182.232 17.7195 182.541 19.0023 183.145 20.131C183.774 21.2596 184.619 22.1416 185.68 22.7707C186.759 23.3998 187.981 23.7143 189.331 23.7143Z" fill="white"></path><path d="M209.881 25.2376C208.395 25.2376 207.254 24.8182 206.465 23.9856C205.675 23.1283 205.28 21.9565 205.28 20.4639V0H206.97V20.2604C206.97 21.4137 207.229 22.2895 207.747 22.9001C208.265 23.486 209.043 23.782 210.079 23.782C210.665 23.782 211.232 23.671 211.769 23.4428L211.904 24.8614C211.275 25.1081 210.597 25.2314 209.875 25.2314L209.881 25.2376Z" fill="white"></path><path fill-rule="evenodd" clip-rule="evenodd" d="M222.297 23.7143C223.444 23.7143 224.505 23.5108 225.473 23.1037C226.466 22.6782 227.286 22.0553 227.94 21.2411L228.921 22.3575C228.156 23.3073 227.194 24.0227 226.047 24.5223C224.899 24.9972 223.635 25.2315 222.26 25.2315C220.502 25.2315 218.923 24.8491 217.523 24.0782C216.148 23.3134 215.068 22.2526 214.279 20.9019C213.514 19.5451 213.126 18.0032 213.126 16.2701C213.126 14.537 213.49 12.989 214.211 11.6321C214.957 10.2814 215.981 9.2206 217.289 8.45582C218.596 7.69105 220.07 7.30249 221.717 7.30249C223.253 7.30249 224.622 7.66021 225.843 8.38798C227.083 9.08491 228.063 10.0655 228.785 11.3299C229.525 12.5696 229.932 13.9696 230 15.5238L215.087 18.4349C215.513 20.057 216.37 21.3398 217.659 22.2896C218.942 23.2394 220.49 23.7082 222.291 23.7082L222.297 23.7143ZM221.723 8.79504C220.391 8.79504 219.201 9.10958 218.14 9.74484C217.079 10.3554 216.259 11.2189 215.673 12.3475C215.087 13.4515 214.791 14.7159 214.791 16.1344C214.791 16.3811 214.816 16.7327 214.859 17.1829L228.316 14.5432C228.162 13.4824 227.786 12.5141 227.2 11.6321C226.614 10.7501 225.843 10.0655 224.9 9.57215C223.95 9.05407 222.895 8.79504 221.723 8.79504Z" fill="white"></path><path d="M30.6404 7.14209C28.8518 7.14209 27.2359 7.53064 25.8112 8.31392C24.3803 9.0972 23.264 10.1827 22.4622 11.5766C21.6542 12.9704 21.2534 14.5555 21.2534 16.3256C21.2534 18.0956 21.6542 19.6745 22.4622 21.0684C23.264 22.4623 24.3803 23.5601 25.8112 24.3495C26.6685 24.8244 27.5874 25.1575 28.5742 25.3487C28.9566 24.9663 29.3328 24.3002 29.4747 23.1407C29.487 23.1037 29.487 23.0667 29.4932 23.0297C29.5117 22.857 29.5302 22.6781 29.5117 22.4993C29.5117 22.4623 29.5117 22.4253 29.5055 22.3883C29.487 22.0614 29.4315 21.7407 29.339 21.4323C29.0306 20.3838 28.3152 19.4833 27.4949 18.8481C26.7548 18.2807 25.8975 18.034 25.1574 17.5036C24.8922 17.3247 24.6455 17.1088 24.4296 16.8621C24.2446 16.6648 24.0843 16.4427 23.9609 16.2022C23.9116 16.1159 23.8684 16.0295 23.8252 15.937C23.7142 15.6718 23.6279 15.3943 23.5847 15.1229C23.4798 14.5555 23.5168 13.9634 23.5847 13.3836C23.6094 13.1801 23.6464 12.9766 23.6772 12.7731C23.7142 12.5819 23.7327 12.3845 23.7944 12.1995C23.8191 12.1255 23.8499 12.0515 23.8931 11.9836C23.9054 11.9651 23.9794 11.8726 23.9547 11.8603C24.2076 12.07 24.4851 12.2241 24.7689 12.3413C24.8675 12.3783 24.9724 12.4153 25.0772 12.4462C25.9592 12.7299 26.9337 12.7422 27.8156 12.8964C28.8394 13.0814 29.9188 13.5255 30.4985 14.5185C31.2386 13.5255 32.4413 13.4515 33.5021 13.5748C34.3779 13.6735 35.2105 13.8215 36.0308 13.6859C36.1665 13.6735 36.296 13.6427 36.4317 13.6057C36.5674 13.5687 36.7031 13.5193 36.8387 13.4577C36.9929 13.4021 37.1471 13.322 37.3075 13.2171C37.3445 13.1925 37.3876 13.1739 37.4308 13.1801C37.474 13.1925 37.511 13.2541 37.5295 13.2973C37.9181 14.1854 37.6899 15.2771 37.1965 16.1097C37.1841 16.1405 37.1718 16.1529 37.1594 16.1837C37.0731 16.3132 36.9868 16.4489 36.8819 16.5784C36.8387 16.6401 36.7956 16.7018 36.7462 16.7635C36.7462 16.7635 36.7462 16.7696 36.7401 16.7758C36.6414 16.9053 36.5304 17.0348 36.4193 17.1582C35.6607 17.9846 34.7479 18.6507 33.8783 19.2181C32.947 19.8411 31.8122 20.6428 31.5408 21.9257C31.51 22.0429 31.4976 22.1601 31.4853 22.2834C31.4853 22.3142 31.4791 22.3389 31.4791 22.3698C31.4668 22.598 31.4853 22.8015 31.5161 23.005C31.6765 23.8993 32.2501 24.6764 32.9779 25.2932C33.8536 25.0958 34.6801 24.7813 35.451 24.3495C36.8696 23.5539 37.9797 22.4623 38.7815 21.0684C39.5895 19.6745 39.9904 18.0895 39.9904 16.3256C39.9904 14.5616 39.5895 12.9766 38.7815 11.5766C37.9736 10.1765 36.8634 9.09103 35.451 8.31392C34.0325 7.53064 32.4289 7.14209 30.6404 7.14209Z" fill="#1C90FF"></path></svg>