<svg xmlns="http://www.w3.org/2000/svg" width="67" height="67" viewBox="0 0 67 67" fill="none"><rect width="67" height="67" rx="13.9583" fill="#F1ECFC"></rect><path d="M42.4368 43.5736V40.9841C42.4368 39.2157 40.9842 37.7631 39.2158 37.7631H34.4474V34.4473C34.1316 34.4473 33.8158 34.4473 33.5 34.4473C33.1842 34.4473 32.8684 34.4473 32.5526 34.4473V37.7631H27.7842C26.0158 37.7631 24.5632 39.2157 24.5632 40.9841V43.5736C23.6158 43.9525 22.9526 44.8683 22.9526 45.942C22.9526 47.3631 24.0895 48.4999 25.5105 48.4999C26.9316 48.4999 28.0684 47.3631 28.0684 45.942C28.0684 44.8683 27.4053 43.9525 26.4579 43.5736V40.9841C26.4579 40.2578 27.0579 39.6578 27.7842 39.6578H32.5526V43.5736C31.6053 43.9525 30.9421 44.8683 30.9421 45.942C30.9421 47.3631 32.079 48.4999 33.5 48.4999C34.9211 48.4999 36.0579 47.3631 36.0579 45.942C36.0579 44.8683 35.3947 43.9525 34.4474 43.5736V39.6578H39.2158C39.9421 39.6578 40.5421 40.2578 40.5421 40.9841V43.5736C39.5947 43.9525 38.9316 44.8683 38.9316 45.942C38.9316 47.3631 40.0684 48.4999 41.4895 48.4999C42.9105 48.4999 44.0474 47.3631 44.0474 45.942C44.0474 44.8683 43.3842 43.9525 42.4368 43.5736Z" fill="#BF83FF"></path><path d="M29.4579 32.9C31.4789 32.9631 35.4895 32.9631 37.5105 32.9C38.1737 32.8684 38.6474 32.3 38.5842 31.6684L38.2684 28.6052C38.0789 27.0895 36.9737 25.921 35.5526 25.5737L34.1316 29.1105L33.8158 26.5526H34.0053C34.1316 26.5526 34.2263 26.4579 34.2263 26.3316V25.6368C34.2263 25.5105 34.1316 25.4158 34.0053 25.4158H32.9C32.7737 25.4158 32.6789 25.5105 32.6789 25.6368V26.3316C32.6789 26.4579 32.7737 26.5526 32.9 26.5526H33.0895L32.7737 29.1105L31.3526 25.5737C29.9316 25.921 28.8263 27.0895 28.6368 28.6052L28.321 31.6684C28.321 32.3 28.8263 32.8684 29.4579 32.9Z" fill="#BF83FF"></path><path d="M33.5001 24.8158C35.2441 24.8158 36.658 23.402 36.658 21.6579C36.658 19.9138 35.2441 18.5 33.5001 18.5C31.756 18.5 30.3422 19.9138 30.3422 21.6579C30.3422 23.402 31.756 24.8158 33.5001 24.8158Z" fill="#BF83FF"></path></svg>