<svg xmlns="http://www.w3.org/2000/svg" width="67" height="67" viewBox="0 0 67 67" fill="none"><rect width="67" height="67" rx="13.9583" fill="#E8F7F5"></rect><path d="M38.5 28.5H31V25.1667C31 24.7083 30.625 24.3333 30.1666 24.3333V21.8333C30.1666 21.375 29.7916 21 29.3333 21H24.3333C23.875 21 23.5 21.375 23.5 21.8333V24.3333C23.0416 24.3333 22.6666 24.7083 22.6666 25.1667V31C22.6666 34.2167 25.2833 36.8333 28.5 36.8333H36V41.8333C36 42.2917 36.375 42.6667 36.8333 42.6667V45.1667C36.8333 45.625 37.2083 46 37.6666 46H42.6666C43.125 46 43.5 45.625 43.5 45.1667V42.6667C43.9583 42.6667 44.3333 42.2917 44.3333 41.8333V34.3333C44.3333 31.1167 41.7166 28.5 38.5 28.5ZM25.1666 22.6667H28.5V24.3333H25.1666V22.6667ZM41.8333 44.3333H38.5V42.6667H41.8333V44.3333Z" fill="#0DADA3"></path></svg>