<?xml version="1.0" encoding="UTF-8"?>
<!-- Generator: Adobe Illustrator 27.1.1, SVG Export Plug-In . SVG Version: 6.00 Build 0)  -->
<svg xmlns="http://www.w3.org/2000/svg" xmlns:xlink="http://www.w3.org/1999/xlink" version="1.1" id="Layer_1" x="0px" y="0px" viewBox="0 0 445.5 77.2" style="enable-background:new 0 0 445.5 77.2;" xml:space="preserve">
<style type="text/css">
	.st0{fill:none;}
	.st1{fill:#1A1E21;}
	.st2{enable-background:new    ;}
</style>
<rect class="st0" width="78.4" height="77.2"></rect>
<g>
	<path class="st1" d="M38.6,0C17.3,0,0,17.2,0,38.6s17.3,38.6,38.6,38.6s38.6-17.3,38.6-38.6S59.9,0,38.6,0z M35.3,53.5l-2.5-7.2   H19.7l-2.4,7.2h-3.8l10.6-30.3h4.4l10.7,30.3H35.3z M59.4,45c0,5.5-3,9.1-8.6,9c-2.4,0.1-4.7-0.9-6.3-2.6c-1.8-1.8-2.4-4.1-2.4-7.2   h3.8c0,2.1,0.3,3.8,1.6,5c0.9,0.8,2.1,1.3,3.3,1.2c3.5,0,4.8-2.1,4.8-5.5V23.2h3.8L59.4,45L59.4,45z"></path>
	<polygon class="st1" points="20.9,42.8 31.6,42.8 26.2,27.1  "></polygon>
</g>
<g class="st2">
	<path class="st1" d="M113.4,54.3l-2.5-7.3H97.5L95,54.3h-3.9L102,23.5h4.5l10.9,30.8H113.4z M104.1,27.4l-5.4,16h10.9L104.1,27.4z"></path>
	<path class="st1" d="M130.7,35.8c-1.7,0-3.2,0.8-4.2,1.7c-1.8,1.7-2,4.7-2,7v9.8h-3.6v-22h3.3l0.3,3.9c1.1-2.7,3.8-4,6.6-4   c0.6,0,1.2,0,1.7,0.1v3.6C132.1,35.8,131.3,35.8,130.7,35.8z"></path>
</g>
<g class="st2">
	<path class="st1" d="M150.8,52.5c-1.6,1.5-3.6,2.4-6.3,2.4c-4,0-6.5-1.8-8-4.1c-1.2-1.7-1.8-4.1-1.8-7.4c0-3.3,0.7-5.7,1.8-7.4   c1.6-2.3,4-4.1,8-4.1c2.6,0,4.7,0.9,6.3,2.3c1.5,1.4,2.4,3.3,2.6,5.6h-3.7c-0.2-1.5-0.7-2.6-1.6-3.4c-0.9-0.8-2.1-1.3-3.6-1.3   c-1.7,0-2.9,0.6-3.8,1.4c-1.7,1.5-2.2,4.2-2.2,6.9s0.5,5.4,2.2,6.9c1,0.8,2.1,1.4,3.8,1.4c1.5,0,2.9-0.6,3.7-1.5   c0.8-0.8,1.3-1.8,1.5-3.3h3.7C153.2,49.3,152.3,51.1,150.8,52.5z"></path>
</g>
<g class="st2">
	<path class="st1" d="M171.6,54.3V40.4c0-3.3-1.3-5.3-4.8-5.3c-2.1,0-3.8,1.4-4.8,3.4c-0.7,1.6-0.8,3.9-0.8,5.6v10.2h-3.7V23h3.7   v12.3c1.3-2.3,4-3.5,6.4-3.5c5,0,7.6,3,7.6,8.1v14.5h-3.6L171.6,54.3L171.6,54.3z"></path>
</g>
<g class="st2">
	<path class="st1" d="M180.4,27.3V23h4.3v4.3H180.4z M180.6,54.3v-22h3.8v22H180.6z"></path>
</g>
<g class="st2">
	<path class="st1" d="M198.7,54.6c-4.7,0-6-3-6-5.9V35.5h-4.3v-3.2h4.3v-5.6l3.7-0.9v6.5h6.5v3.2h-6.5v12.7c0,2.1,0.9,3,3,3   c1.6,0,3.8-0.4,3.8-0.4V54C202.1,54.3,200.8,54.6,198.7,54.6z"></path>
</g>
<g class="st2">
	<path class="st1" d="M225.1,44.5h-15.5c0,2,0.8,4.2,2.1,5.5c1,1,2.3,1.6,4,1.6s3.2-0.5,4.1-1.4c0.6-0.6,1-1.2,1.3-2.4h3.6   c-0.3,2.2-1.6,4.2-3.4,5.4c-1.6,1-3.5,1.7-5.6,1.7c-3.1,0-5.6-1.3-7.3-3.3c-1.8-2.1-2.7-5-2.7-8.2c0-2.6,0.5-5,1.7-7   c1.6-2.6,4.5-4.6,8.3-4.6c2.8,0,5.1,1.1,6.7,2.8c1.8,2,2.8,4.8,2.8,7.7L225.1,44.5z M220,36.9c-0.9-1.2-2.4-2-4.3-2   c-4,0-5.9,3.3-6,6.5h11.7C221.4,39.7,220.9,38.1,220,36.9z"></path>
</g>
<g class="st2">
	<path class="st1" d="M245.3,52.5c-1.6,1.5-3.6,2.4-6.3,2.4c-4,0-6.5-1.8-8-4.1c-1.2-1.7-1.8-4.1-1.8-7.4c0-3.3,0.7-5.7,1.8-7.4   c1.6-2.3,4-4.1,8-4.1c2.6,0,4.7,0.9,6.3,2.3c1.5,1.4,2.4,3.3,2.6,5.6h-3.8c-0.2-1.5-0.7-2.6-1.6-3.4c-0.9-0.8-2.1-1.3-3.6-1.3   c-1.7,0-2.9,0.6-3.8,1.4c-1.7,1.5-2.2,4.2-2.2,6.9s0.5,5.4,2.2,6.9c1,0.8,2.1,1.4,3.8,1.4c1.5,0,2.9-0.6,3.7-1.5   c0.8-0.8,1.3-1.8,1.5-3.3h3.7C247.7,49.3,246.8,51.1,245.3,52.5z"></path>
	<path class="st1" d="M260.3,54.6c-4.7,0-6-3-6-5.9V35.5H250v-3.2h4.3v-5.6l3.7-0.9v6.5h6.5v3.2H258v12.7c0,2.1,0.9,3,3,3   c1.6,0,3.8-0.4,3.8-0.4V54C263.7,54.3,262.3,54.6,260.3,54.6z"></path>
</g>
<g class="st2">
	<path class="st1" d="M283.9,52.4c-1.7,1.7-4.3,2.5-7.2,2.5c-2.7,0-5.3-0.7-7.1-2.5c-1.3-1.3-2.1-3.2-2.1-5h3.7   c0,1.5,0.7,2.6,1.8,3.4c1,0.7,2.6,1,4,1c1.5,0,2.9-0.3,4-1.2c0.6-0.5,1.1-1.4,1.1-2.4c0-1.6-1.2-2.8-3.4-3.1   c-1-0.1-3.4-0.4-4.9-0.7c-3.3-0.5-5.4-2.6-5.4-5.9c0-1.7,0.8-3.3,1.8-4.3c1.4-1.5,3.7-2.4,6.5-2.4c2.9,0,5.5,0.9,7,2.8   c1,1.2,1.6,2.4,1.6,4.2h-3.7c0-1.1-0.6-2.2-1.3-2.7c-0.9-0.8-2.1-1.2-3.6-1.2c-0.9,0-1.5,0-2.6,0.4c-1.4,0.6-2.2,1.7-2.2,3   c0,1.8,1.1,2.6,3,2.9c1.2,0.2,3,0.3,5.3,0.7c3.1,0.5,5.6,2.8,5.6,6.1C285.6,49.8,284.9,51.3,283.9,52.4z"></path>
</g>
<g class="st2">
	<path class="st1" d="M289.8,35.6l-1.1-2c2.3-1,2.8-2.3,2.8-4.8h-2.7v-5.1h5.3v5.1C294,32,292.9,34.3,289.8,35.6z"></path>
</g>
<g class="st2">
	<path class="st1" d="M316.7,54.9c-2.8,0-4.9-1-6.4-2.6c-1.8-1.8-2.5-4.2-2.5-7.3h3.9c0,2.1,0.3,3.8,1.6,5c0.8,0.8,1.9,1.3,3.4,1.3   c3.5,0,4.8-2.2,4.8-5.6V23.5h3.9v22.2C325.4,51.2,322.3,54.9,316.7,54.9z"></path>
</g>
<g class="st2">
	<path class="st1" d="M346.2,52.3c-1.6,1.6-3.9,2.6-6.6,2.6c-2.8,0-5-1-6.6-2.6c-2.4-2.3-3.1-5.5-3.1-9s0.7-6.6,3.1-9   c1.6-1.6,3.9-2.6,6.6-2.6c2.8,0,5,1,6.6,2.6c2.4,2.3,3.1,5.5,3.1,9S348.5,50,346.2,52.3z M343.5,36.5c-0.9-0.9-2.2-1.6-4-1.6   s-3,0.7-4,1.6c-1.6,1.6-2,4.3-2,6.8s0.5,5.2,2,6.8c0.9,0.9,2.2,1.6,4,1.6s3-0.7,4-1.6c1.6-1.6,2-4.3,2-6.8S345,38.1,343.5,36.5z"></path>
</g>
<g class="st2">
	<path class="st1" d="M367.7,54.3l-0.3-3.3c-1.1,2.5-4,3.9-6.5,3.9c-5,0-7.5-3-7.5-8.1V32.3h3.7v13.9c0,3.3,1.2,5.3,4.7,5.3   c1.5,0,2.7-0.7,3.6-1.7c1.4-1.4,1.8-3.8,1.8-6.1V32.3h3.7v22H367.7z"></path>
</g>
<g class="st2">
	<path class="st1" d="M386.4,35.8c-1.7,0-3.2,0.8-4.2,1.7c-1.8,1.7-2,4.7-2,7v9.8h-3.6v-22h3.3l0.3,3.9c1.1-2.7,3.8-4,6.6-4   c0.6,0,1.2,0,1.7,0.1v3.6C387.8,35.8,387.1,35.8,386.4,35.8z"></path>
</g>
<g class="st2">
	<path class="st1" d="M406.6,54.3V40.4c0-3.3-1.3-5.3-4.8-5.3c-2.1,0-3.8,1.4-4.8,3.4c-0.7,1.6-0.8,3.9-0.8,5.6v10.2h-3.7v-22h3.2   l0.3,3.3c1.1-2.5,4.2-3.9,6.6-3.9c5,0,7.6,3,7.6,8.1v14.5C410.2,54.3,406.6,54.3,406.6,54.3z"></path>
	<path class="st1" d="M432.2,54.6c-2,0-3.2-1.5-3.2-3.3h-0.1c-1.3,2.2-4,3.6-7.1,3.6c-5,0-7.6-3.4-7.6-6.8c0-2.8,1.8-6.5,7.8-6.9   l6.7-0.4v-1.6c0-1.1-0.1-2.4-1.1-3.3c-0.7-0.7-1.8-1.1-3.6-1.1c-2,0-3.3,0.6-4,1.3s-1.1,1.6-1.1,2.6h-3.6c0-2,0.8-3.4,1.9-4.6   c1.5-1.6,4.1-2.3,6.8-2.3c4.3,0,6.7,1.8,7.7,4.2c0.4,1,0.7,2.1,0.7,3.4V50c0,1.2,0.5,1.5,1.2,1.5c0.4,0,1-0.1,1-0.1v2.7   C433.8,54.5,433.1,54.6,432.2,54.6z M428.8,43.7l-5.9,0.3c-2.2,0.1-4.8,1.2-4.8,4c0,2,1.2,3.8,4.3,3.8c1.7,0,3.3-0.6,4.5-1.8   c1.3-1.3,1.9-3.2,1.9-5V43.7z"></path>
</g>
<g class="st2">
	<path class="st1" d="M442.9,54.6c-3.2,0-4.6-1.9-4.6-5.4V23h3.7v26c0,1.5,0.5,2.3,2,2.3c1.2,0,1.5,0,1.5,0v3.1   C445.5,54.3,444.7,54.6,442.9,54.6z"></path>
</g>
</svg>
