<svg width="75" height="14" viewBox="0 0 75 14" fill="none" xmlns="http://www.w3.org/2000/svg">
<g clip-path="url(#clip0_180_807)">
<path d="M35.2893 6.97129L33.4995 7.93681C33.2433 7.62171 32.9146 7.37006 32.54 7.2023C32.1655 7.03454 31.7557 6.95539 31.344 6.97129C30.9819 6.95304 30.6199 7.00698 30.2799 7.12981C29.9399 7.25265 29.6291 7.44182 29.3664 7.68578C29.1212 7.93595 28.9329 8.23381 28.8136 8.55989C28.6943 8.88598 28.6468 9.23297 28.6742 9.57819C28.6608 9.90712 28.718 10.2352 28.8423 10.5412C28.9667 10.8471 29.1553 11.1243 29.396 11.3547C29.6462 11.5895 29.9426 11.7722 30.2673 11.8917C30.5919 12.0112 30.938 12.065 31.2846 12.0499C31.7102 12.0727 32.1352 11.9971 32.5252 11.8294C32.9152 11.6616 33.2592 11.4064 33.5292 11.0844L35.2299 12.243C34.7717 12.8345 34.1708 13.3062 33.4808 13.6162C32.7907 13.9261 32.0329 14.0647 31.2748 14.0196C30.6217 14.0549 29.9685 13.9544 29.3582 13.7247C28.748 13.495 28.1946 13.1414 27.7349 12.6872C26.8999 11.8551 26.4375 10.7334 26.4494 9.56854C26.4422 8.76491 26.6574 7.9743 27.0724 7.28026C27.4861 6.58667 28.0884 6.01854 28.8127 5.63888C29.5815 5.23748 30.4426 5.03473 31.3143 5.04991C32.1109 5.02717 32.9013 5.19279 33.6182 5.53267C34.2939 5.8621 34.8699 6.35797 35.2893 6.97129Z" fill="black"/>
<path d="M42.9821 3.5918H45.0783V6.62352H46.3242V8.40007H45.0783V14.0001H42.9821V8.40007H41.9043V6.62352H42.9821V3.5918Z" fill="black"/>
<path d="M1.07779 3.59167H3.16414V6.6234H4.41002V8.39995H3.16414V14H1.07779V8.39995H0V6.6234H1.07779V3.59167Z" fill="black"/>
<path d="M56.7478 5.03016C57.5662 5.0247 58.3714 5.23126 59.0814 5.62878C59.7826 6.01499 60.3662 6.57601 60.7727 7.25453C61.1792 7.93305 61.394 8.70476 61.3951 9.49085C61.3987 10.2836 61.1871 11.0631 60.7821 11.7502C60.386 12.4396 59.8048 13.0104 59.1011 13.4012C58.387 13.7961 57.5784 13.9993 56.7577 13.9902C56.1567 13.9915 55.5614 13.8762 55.0063 13.6511C54.4513 13.4259 53.9476 13.0953 53.5244 12.6786C53.1013 12.2618 52.7671 11.7671 52.5414 11.2232C52.3156 10.6793 52.2027 10.097 52.2093 9.51016C52.204 8.32787 52.6786 7.19169 53.5292 6.35027C54.3797 5.50884 55.5371 5.03071 56.7478 5.02051V5.03016ZM56.7478 7.03844C56.4359 7.03358 56.1263 7.09199 55.8386 7.20999C55.551 7.32799 55.2916 7.503 55.0768 7.72396C54.8458 7.96198 54.6657 8.24249 54.5469 8.54915C54.428 8.85581 54.3729 9.18249 54.3846 9.51016C54.3569 10.1749 54.5984 10.8236 55.057 11.3157C55.2805 11.537 55.5468 11.7127 55.8405 11.8326C56.1342 11.9525 56.4493 12.0143 56.7676 12.0143C57.0859 12.0143 57.401 11.9525 57.6947 11.8326C57.9884 11.7127 58.2547 11.537 58.4782 11.3157C58.7077 11.0751 58.8861 10.7926 59.0032 10.4843C59.1203 10.1761 59.1737 9.84831 59.1605 9.51982C59.178 9.19249 59.1285 8.86503 59.0147 8.55664C58.901 8.24826 58.7253 7.96516 58.498 7.72396C58.2764 7.49834 58.0087 7.32073 57.7123 7.20263C57.416 7.08454 57.0974 7.0286 56.7775 7.03844H56.7478Z" fill="black"/>
<path d="M15.2085 4.66368C16.0276 4.66299 16.8324 4.87277 17.5421 5.27196C18.0683 5.56331 18.53 5.95382 18.9005 6.42081C19.2709 6.88781 19.5426 7.422 19.6999 7.99237C19.8572 8.56274 19.897 9.15794 19.8168 9.74342C19.7366 10.3289 19.5382 10.893 19.2329 11.403C18.8431 12.0912 18.2644 12.6596 17.5619 13.0444C16.8454 13.4435 16.0334 13.65 15.2085 13.643C14.61 13.6522 14.016 13.5413 13.4632 13.317C12.9104 13.0928 12.4106 12.7601 11.995 12.3395C11.5631 11.9264 11.222 11.4316 10.9925 10.8855C10.763 10.3393 10.6499 9.75325 10.6601 9.16299C10.641 8.52698 10.7668 7.89478 11.0284 7.31204C11.2901 6.7293 11.681 6.21057 12.1729 5.79333C12.9986 5.04992 14.0856 4.6454 15.2085 4.66368ZM15.2085 6.68161C14.8909 6.67391 14.5752 6.73187 14.2821 6.85167C13.989 6.97147 13.7251 7.15042 13.5078 7.37678C13.2847 7.61644 13.1122 7.89672 13.0003 8.20157C12.8883 8.50642 12.839 8.82985 12.8552 9.15333C12.8393 9.48276 12.8906 9.812 13.006 10.1219C13.1214 10.4319 13.2987 10.7163 13.5276 10.9589C13.745 11.1844 14.0091 11.3623 14.3024 11.4805C14.5956 11.5987 14.9112 11.6545 15.2283 11.6444C15.5489 11.6524 15.8677 11.5946 16.164 11.4749C16.4604 11.3552 16.7277 11.1761 16.9488 10.9492C17.1783 10.7086 17.3567 10.4261 17.4738 10.1179C17.5909 9.80964 17.6443 9.48183 17.6311 9.15333C17.6568 8.49467 17.4152 7.85273 16.9587 7.36713C16.7371 7.14152 16.4695 6.9639 16.1731 6.84581C15.8767 6.72771 15.5582 6.67177 15.2382 6.68161H15.2085Z" fill="black"/>
<path d="M19.8554 4.66309H17.6504V13.9996H19.8554V4.66309Z" fill="black"/>
<path fill-rule="evenodd" clip-rule="evenodd" d="M67.6426 14H69.4817L74.9992 0H73.16L67.6426 14Z" fill="black"/>
</g>
<defs>
<clipPath id="clip0_180_807">
<rect width="75" height="14" fill="white"/>
</clipPath>
</defs>
</svg>
