<svg version="1.1" xmlns="http://www.w3.org/2000/svg" xmlns:xlink="http://www.w3.org/1999/xlink" x="0px" y="0px"
	 viewBox="0 0 32 32" style="enable-background:new 0 0 32 32;" xml:space="preserve">
     <style>
        path {
            fill: #5F615E;
        }
        @media (prefers-color-scheme: dark) {
            path {
                fill: #fff;
            }
        }
    </style>
<g transform="translate(0.000000,500.000000) scale(0.100000,-0.100000)">
	<path d="M89.2,4999.2c-14-2-24.7-8.6-29.9-18.3c-4.7-8.7-4.5-7.8-4.9-43.3c-0.3-34.7,0.1-40.7,3.1-51.9
		c5.6-21.1,19.2-40.3,37.3-52.4c3.1-2,6.5-4.2,7.6-4.7c1.1-0.5,1.9-1.1,1.9-1.5c0-0.3-11.3-0.6-25-0.6H54.3l0.3-58.3
		c0.1-52.5,0.3-58.7,1.4-61.7c4.6-13.1,12.8-20.6,27.2-24.7c5.4-1.6,5.5-1.6,94-1.8l88.6-0.2v23.7v23.6l-76.8,0.1l-76.8,0.2l-1.9,2
		l-2,1.9l-0.2,47.1l-0.1,47.1l4-1.6c6.2-2.5,15.6-5.1,21.6-5.9c3.5-0.5,23.5-0.8,54.6-0.8h49.2l0.4,13.2c0.3,7.3,0.5,17.5,0.5,22.8
		v9.7l-49.5,0.2c-48.9,0.2-49.6,0.3-54.1,1.8c-9.4,3.2-16.6,9.6-21.2,18.9c-5,10.3-5.2,11.7-5.2,39.7v24.9l2.3,2l2.3,2h76.5h76.5
		v23.6v23.6l-86.1-0.1C132.2,4999.9,91.5,4999.6,89.2,4999.2z"/>
</g>
</svg>
