<?xml version="1.0" standalone="no"?>
<!DOCTYPE svg PUBLIC "-//W3C//DTD SVG 20010904//EN"
 "http://www.w3.org/TR/2001/REC-SVG-20010904/DTD/svg10.dtd">
<svg version="1.0" xmlns="http://www.w3.org/2000/svg"
 width="500.000000pt" height="500.000000pt" viewBox="0 0 500.000000 500.000000"
 preserveAspectRatio="xMidYMid meet">
<metadata>
Created by potrace 1.14, written by Peter Selinger 2001-2017
</metadata>
<g transform="translate(0.000000,500.000000) scale(0.100000,-0.100000)"
fill="#000000" stroke="none">
<path d="M1495 4759 c-199 -29 -351 -122 -424 -259 -66 -123 -64 -111 -69
-615 -4 -493 1 -577 44 -736 80 -300 273 -572 529 -744 44 -29 92 -59 108 -66
15 -7 27 -16 27 -21 0 -4 -160 -8 -355 -8 l-356 0 4 -827 c2 -745 4 -833 20
-876 65 -186 182 -292 386 -350 76 -22 78 -22 1334 -25 l1257 -3 0 336 0 335
-1090 2 -1090 3 -27 28 -28 27 -3 669 -2 669 57 -23 c88 -36 222 -72 307 -84
49 -7 333 -11 775 -11 l698 0 6 188 c4 103 7 249 7 324 l0 137 -702 3 c-694 3
-704 4 -768 25 -134 46 -236 136 -301 268 -71 146 -74 166 -74 563 l0 354 33
29 32 29 1085 0 1085 0 0 335 0 335 -1222 -1 c-673 -1 -1250 -5 -1283 -10z"/>
</g>
</svg>
