<svg width="21" height="25" viewBox="0 0 21 25" fill="none" xmlns="http://www.w3.org/2000/svg">
<g clip-path="url(#clip0_355_255)">
<path d="M5.44054 20.0726C5.55133 20.142 5.66767 20.1984 5.78828 20.2412C5.68128 20.1627 5.56417 20.1059 5.44054 20.0726Z" fill="#B03A3F"/>
<path d="M4.8273 19.3648L4.95581 19.4272L4.64209 19.2388L4.8273 19.3648Z" fill="#B03A3F"/>
<path d="M4.95274 18.9538C4.37823 18.796 4.99812 19.1449 4.77513 19.1455L4.65417 19.0869L5.08507 19.2958C5.04348 19.1911 4.794 18.9734 4.95274 18.9538Z" fill="#B03A3F"/>
<path d="M6.22975 19.1631C6.01701 19.0599 6.0474 19.0746 6.14629 19.1951L6.19947 19.2209C6.19947 19.2209 6.20699 19.1762 6.22975 19.1631Z" fill="#B03A3F"/>
<path d="M6.13567 18.9599L6.32466 19.0516C6.45317 19.1139 6.50609 19.0429 6.59302 19.0971C6.45628 19.0018 6.29917 18.9547 6.13567 18.9599Z" fill="#B03A3F"/>
<path d="M5.76123 18.7661L5.83721 18.803C5.87178 18.8307 5.89799 18.8324 5.76123 18.7661Z" fill="#B03A3F"/>
<path d="M5.97199 18.9407L5.79813 18.8564C5.71497 18.8161 5.5411 18.7318 5.86616 18.8894C5.74107 18.8178 5.86202 18.8765 5.97199 18.9407Z" fill="#B03A3F"/>
<path d="M5.88139 18.9455C5.73641 18.9598 5.59673 18.9174 5.48075 18.8237C5.52611 18.9665 5.9192 19.0847 5.88139 18.9455Z" fill="#B03A3F"/>
<path d="M4.3741 18.7338L4.20024 18.722L4.38167 18.81C4.29095 18.766 4.54796 18.794 4.3741 18.7338Z" fill="#B03A3F"/>
<path d="M6.5312 18.7053L6.05118 18.5571L6.18725 18.6231C6.3061 18.6301 6.42177 18.6577 6.5312 18.7053Z" fill="#B03A3F"/>
<path d="M6.05153 18.5567L5.85498 18.4614C5.84365 18.5405 5.90413 18.5699 6.05153 18.5567Z" fill="#B03A3F"/>
<path d="M5.12647 18.5305L5.52335 18.7834L5.12646 18.5063L5.12647 18.5305Z" fill="#B03A3F"/>
<path d="M6.61813 18.4698L6.88271 18.5981L6.48584 18.3936L6.61813 18.4698Z" fill="#B03A3F"/>
<path d="M6.61582 18.2864C6.8426 18.3963 7.01268 18.3942 7.14498 18.4705C7.03196 18.3597 6.90455 18.2734 6.76699 18.2147C6.83503 18.2718 6.81992 18.3128 6.61582 18.2864Z" fill="#B03A3F"/>
<path d="M6.52836 18.0622L6.77781 18.1832C6.69801 18.1342 6.61457 18.0937 6.52836 18.0622Z" fill="#B03A3F"/>
<path d="M5.96161 18.3437C6.07411 18.3853 6.19235 18.4061 6.3131 18.4054L5.97293 18.313L5.96161 18.3437Z" fill="#B03A3F"/>
<path d="M5.47845 18.4715C5.28348 18.3133 5.06311 18.2064 4.82833 18.1562C5.04 18.3072 5.21387 18.319 5.47845 18.4715Z" fill="#B03A3F"/>
<path d="M5.52262 18.2278L5.42814 18.2666L5.73052 18.4132L5.52262 18.2278Z" fill="#B03A3F"/>
<path d="M5.43128 18.1597L5.52249 18.2281L5.56422 18.2121L5.43128 18.1597Z" fill="#B03A3F"/>
<path d="M6.17678 18.0736C6.03315 18.0039 6.01802 17.9966 6.02557 17.9036C6.03312 17.8106 5.90085 17.9519 5.88952 17.9826C5.87818 18.0134 6.18056 18.1116 6.17678 18.0736Z" fill="#B03A3F"/>
<path d="M5.82099 17.974C5.76021 17.9445 5.82098 17.974 5.94255 18.0329C5.9301 18.0243 5.92003 18.0114 5.91334 17.9954C5.90666 17.9795 5.90359 17.961 5.90446 17.9419C5.83997 17.9711 5.80958 17.9563 5.82099 17.974Z" fill="#B03A3F"/>
<path d="M6.39554 17.9143L6.199 17.8915C6.30483 17.9186 6.48247 17.9444 6.39554 17.9143Z" fill="#B03A3F"/>
<path d="M6.11624 18.1896C6.20738 18.2096 6.17321 18.2051 6.11624 18.1896V18.1896Z" fill="#B03A3F"/>
<path d="M4.00312 16.6933C4.3055 16.84 4.58521 16.9756 4.22615 16.9344C4.82413 17.1928 5.44043 17.3948 6.07063 17.5389C5.91668 17.5 5.77131 17.4295 5.63974 17.33C5.39401 17.3269 5.15449 17.2758 4.92918 17.1787C4.79688 17.0299 5.06524 17.148 5.2391 17.1598C4.83846 17.0621 4.69482 16.8958 4.15054 16.6318L4.34709 16.7272C4.23452 16.7034 4.11946 16.6921 4.00312 16.6933Z" fill="#B03A3F"/>
<path d="M5.99916 17.661L6.03696 17.6793C6.1911 17.6748 6.34317 17.6918 6.49052 17.7301C6.37526 17.6568 6.25382 17.5979 6.12767 17.5541L6.07854 17.6874L5.99916 17.661Z" fill="#B03A3F"/>
<path d="M5.99451 17.8168C5.73387 17.6551 5.46083 17.5227 5.17809 17.4209C5.14786 17.5029 5.45024 17.5528 5.57497 17.6737C5.53338 17.5207 5.76398 17.7654 5.97185 17.7574C6.00442 17.7651 6.03508 17.78 6.06257 17.8014L6.23643 17.7891L6.03988 17.6937C6.10791 17.7267 6.12304 17.7341 6.16083 17.7524L6.21376 17.7781L6.0701 17.5876C5.97184 17.7091 5.97561 17.7472 5.99451 17.8168Z" fill="#B03A3F"/>
<path d="M4.10126 17.8767L4.17724 17.9136C4.14681 17.8746 4.11642 17.8599 4.10126 17.8767Z" fill="#B03A3F"/>
<path d="M4.30623 17.8794C4.35159 17.9014 4.4801 17.9637 4.44987 17.9491C4.35627 17.9221 4.26731 17.879 4.18528 17.8207C4.29854 17.9264 4.43341 17.9918 4.57838 18.0114L4.53302 17.9894C4.74203 17.9985 4.94806 18.0297 5.14909 18.0828L4.30623 17.8794Z" fill="#B03A3F"/>
<path d="M5.07739 17.8183L4.94132 17.6557L4.63139 17.602L4.79769 17.6827C4.71833 17.7046 4.9451 17.7663 5.07739 17.8183Z" fill="#B03A3F"/>
<path d="M6.30563 17.6043L6.65337 17.7488L6.17334 17.5039L6.30563 17.6043Z" fill="#B03A3F"/>
<path d="M6.3008 17.4453L6.60696 17.5575L6.42931 17.4593L6.3008 17.4453Z" fill="#B03A3F"/>
<path d="M7.27676 14.0032C7.58669 14.0568 8.04403 14.1699 7.6963 14.0496L7.35232 13.9432C7.40524 13.9931 7.35613 14.0054 7.27676 14.0032Z" fill="#B03A3F"/>
<path d="M4.52787 10.4106L4.76977 10.4313C4.69111 10.4125 4.60995 10.4056 4.52787 10.4106Z" fill="#B03A3F"/>
<path d="M4.80836 6.84859L4.47574 6.68728C4.42283 6.73412 4.60803 6.76352 4.80836 6.84859Z" fill="#B03A3F"/>
<path d="M6.59683 15.9691C6.74423 15.9801 6.81226 15.9648 6.82737 15.948C6.62327 15.9215 6.31713 15.8576 6.59683 15.9691Z" fill="#B03A3F"/>
<path d="M8.35987 9.56286L8.15576 9.46387C8.21761 9.51211 8.28661 9.54558 8.35987 9.56286Z" fill="#B03A3F"/>
<path d="M6.84464 15.8243L6.76904 15.7876C6.82952 15.8169 6.87487 15.8389 6.82196 15.91C6.98827 15.9664 7.09033 15.9555 6.84464 15.8243Z" fill="#B03A3F"/>
<path d="M6.38817 2.39394L6.43354 2.41594C6.3916 2.38467 6.38403 2.381 6.38817 2.39394Z" fill="#B03A3F"/>
<path d="M10.2241 2.28564C10.2246 2.29508 10.2231 2.30481 10.2198 2.31381C10.2165 2.32282 10.2114 2.33083 10.2052 2.33699C10.2052 2.33699 10.2626 2.3285 10.2241 2.28564Z" fill="#B03A3F"/>
<path d="M6.60693 16.9775C6.62629 17.0232 6.66077 17.0278 6.60693 16.9775V16.9775Z" fill="#B03A3F"/>
<path d="M6.61171 16.8949L6.57373 16.8765L6.62691 16.9023C6.62691 16.9023 6.61247 16.9171 6.61171 16.8949Z" fill="#B03A3F"/>
<path d="M6.58337 5.14881C6.48834 5.06646 6.50735 5.08777 6.58337 5.14881V5.14881Z" fill="#B03A3F"/>
<path d="M3.74259 11.7939C4.1508 11.9919 4.10544 11.9699 3.98828 11.9977L4.98612 12.3124L3.74259 11.7939Z" fill="#B03A3F"/>
<path d="M4.82626 7.61887L4.49744 7.59231C4.01364 7.35767 4.21395 7.3219 3.7415 7.22569C4.80359 7.60786 3.76418 7.5509 4.83006 7.94699L4.59194 7.9161C4.59194 7.9161 4.53903 7.89044 4.54658 7.89411C4.0061 7.81324 5.30254 8.26072 5.106 8.31041C4.97284 8.32146 4.84333 8.29172 4.72805 8.22372L4.96996 8.41355C4.96996 8.41355 4.77341 8.31822 4.78853 8.32556L4.83389 8.49262L5.35548 8.74558C5.18918 8.73743 5.24209 8.69059 5.12114 8.63193L5.37061 8.75292C5.08335 8.68611 4.84901 8.49995 4.87924 8.51462C3.79448 8.21812 5.14384 8.64288 4.45595 8.62344L4.34256 8.49595C4.06549 8.41654 3.77698 8.38635 3.48458 8.40613C3.91321 8.46215 4.33017 8.57925 4.7281 8.75542C4.6525 8.71876 4.59203 8.76196 4.79614 8.88511C4.43328 8.70913 4.49376 8.83514 4.49755 8.89739L4.01374 8.66276C4.20944 8.78352 4.41419 8.88281 4.62606 8.95972C4.34003 8.9572 4.06104 8.89928 3.79831 8.78787C3.68871 8.86764 4.45219 8.92373 4.49378 9.12516C4.27079 9.14993 4.43711 9.27889 4.72816 9.50463C4.57189 9.47493 4.42 9.42562 4.27458 9.35722L4.66011 9.5442L4.47869 9.45621C4.62988 9.52954 4.95494 9.68718 5.09101 9.75317C5.62773 10.0135 4.24439 9.63252 4.83403 9.94265C4.70552 9.88033 4.53919 9.79972 4.33886 9.76299C4.58863 9.96339 4.85279 10.1359 5.12885 10.279L4.76979 10.262C5.18199 10.3571 5.57503 10.5274 5.93772 10.768L6.36862 10.8561L6.60296 11.0664C6.44834 11.0113 6.29916 10.9389 6.15695 10.8501L6.2779 10.9088C6.00589 10.8497 5.74348 10.7508 5.4955 10.6139L5.81678 10.6851C5.52221 10.5179 5.21945 10.3711 4.90964 10.2452L5.0457 10.3112L4.8416 10.2122C4.79624 10.1902 4.90208 10.2415 5.02303 10.3002L4.45987 10.1358L4.67154 10.2384L4.27469 10.2756C4.80782 10.5236 5.31423 10.842 5.7866 11.2263C5.39351 11.0357 5.11757 10.9865 4.62999 10.8104C5.15915 10.9462 4.45233 10.5913 4.58462 10.5467C4.45194 10.5391 4.32407 10.5016 4.20665 10.4359L4.63 10.7621C4.47944 10.6848 4.31226 10.6576 4.14242 10.6827C4.94372 10.9263 4.65646 10.932 4.86435 11.1416C4.60733 11.0169 4.33141 10.9435 4.40322 10.918C3.78336 10.8107 5.29526 11.3505 4.76233 11.2733C4.76233 11.2733 4.76233 11.2733 4.66406 11.2257C4.89084 11.3356 4.67162 11.3985 4.44484 11.2885C4.30878 11.3917 4.30125 11.6781 4.97782 11.9458L4.04803 11.5915L6.21759 12.6437C5.66575 12.376 4.25594 12.0186 3.96489 11.7928C3.8893 11.7562 3.76457 11.8045 3.91577 11.9261C4.21955 11.9978 4.51742 12.0938 4.80777 12.2137C4.14633 12.0742 4.4487 12.1483 3.87798 12.0528C4.21704 12.1406 4.54284 12.2784 4.84936 12.4635C4.72085 12.4012 3.96491 12.1554 3.87797 12.1012L4.73219 12.5154C4.40335 12.379 4.06641 12.268 3.72302 12.1831C3.88932 12.2638 3.68147 12.2958 3.75707 12.3566L3.97249 12.3766C3.79485 12.4717 5.17444 12.9595 5.08752 13.0744C4.68546 12.8994 4.26974 12.7665 3.84401 12.6768C4.28246 12.8894 5.97955 13.5795 6.27816 13.8573L6.03625 13.74L6.30085 13.9408C5.64317 13.6218 4.25978 12.9509 3.72306 12.6906C3.50006 12.667 3.42825 12.5476 3.41314 12.6853C3.27352 12.6787 3.14412 12.616 3.04272 12.5057L2.8273 12.6308C3.36023 12.8046 3.31867 12.9657 3.76468 13.0854L3.27707 12.6918C3.81001 12.8657 4.7436 13.3306 4.6151 13.4374C4.411 13.3384 3.67774 13.0795 3.50388 13.0193C3.67775 13.1036 3.81384 13.2663 3.68155 13.2384L3.40184 13.1027C3.18641 13.107 4.08218 13.4327 3.5417 13.376C3.5417 13.376 2.83869 13.2284 3.14484 13.3406C3.76093 13.5065 5.63567 14.1498 6.07412 14.3383C5.76042 14.3255 5.4499 14.2879 5.14431 14.2257C4.66051 14.1119 4.04066 13.7629 3.6249 13.658L3.98775 13.8339C3.87436 13.779 3.55685 13.625 3.58709 13.7605C4.10114 14.0098 3.53797 13.8938 4.02555 13.9732C4.17674 14.0465 3.88949 14.0038 3.89328 14.0902C4.33942 14.2472 4.76939 14.4557 5.17839 14.7135C5.04988 14.6511 4.87601 14.5668 4.77775 14.5917C4.67948 14.6165 4.42246 14.7094 4.37712 14.8324C4.19449 14.8143 4.01594 14.7723 3.84419 14.7069C3.94425 14.7317 4.03866 14.7775 4.12388 14.8425C3.63631 14.7631 4.08231 14.7378 3.50025 14.6005C3.71038 14.6889 3.9063 14.8165 4.08233 14.9795C4.56991 15.1313 4.21081 14.8726 4.03316 14.7502C4.60215 14.9159 5.14331 15.1783 5.64333 15.5311C5.77941 15.6938 5.20112 15.4254 5.28806 15.4796C5.11421 15.637 6.41442 16.0259 5.87017 16.0519C5.32591 16.078 5.03107 15.7658 4.71735 15.6741C4.58506 15.5254 5.02728 15.6311 5.03106 15.5725L4.80805 15.5731C4.67198 15.5071 4.58884 15.3942 4.71734 15.4082C4.32048 15.3245 4.54728 15.7245 4.15042 15.7617C4.28651 15.8579 4.43388 15.9294 4.58888 15.9743L4.5284 15.945C4.88369 16.0206 4.98953 16.1686 5.13316 16.2383C5.27679 16.3079 5.71525 16.593 5.49226 16.6178L5.00468 16.4659C5.14075 16.5319 5.31081 16.5057 5.17096 16.4258C5.37507 16.5248 4.4793 16.3441 5.10295 16.6103L5.45825 16.6617C5.69259 16.7754 6.19153 17.0899 5.99121 17.1015C6.47879 17.2292 5.93829 17.0758 6.51657 17.1992C5.80977 17.0135 6.59215 16.9942 5.83622 16.8692C6.11856 16.9212 6.40505 16.9512 6.6942 16.959C6.54301 16.8857 6.38427 16.8812 6.47497 16.8527L6.46742 16.8491C6.37916 16.8454 6.29287 16.8279 6.2104 16.7969C5.86267 16.6283 5.90045 16.5258 5.7228 16.4275C5.79084 16.4605 5.89667 16.5119 6.06298 16.5925L5.78328 16.4569C6.05975 16.4986 6.32562 16.591 6.57322 16.7313L6.60724 16.639C6.82268 16.6589 6.92093 16.6099 6.78486 16.5197C6.87179 16.5015 6.42956 16.2749 6.69036 16.4135L6.51271 16.1943L6.59587 16.2347C6.68279 16.1197 6.09691 15.7511 6.75078 15.8144C6.66763 15.7741 6.58825 15.651 6.7092 15.613L7.01535 15.701C6.90952 15.6497 7.37062 15.6317 7.08715 15.5063C7.89977 15.7191 7.34791 15.2824 7.52554 15.2356L7.14 15.0486C7.16645 14.9769 7.09465 14.8815 6.95857 14.7431L6.6184 14.5781C6.3387 14.4424 6.92452 14.4728 6.92828 14.3418C7.05679 14.4041 7.02656 14.3894 6.9094 14.393C7.74847 14.5341 6.42557 13.8925 7.06055 13.9829C6.93204 13.9206 6.9963 13.8913 7.09079 13.9009L7.28734 13.9237L7.08323 13.8972C7.08323 13.8972 7.06052 13.8138 6.97737 13.7493L7.3629 13.8638C7.51787 13.8785 7.18903 13.7794 6.92445 13.6511L6.69766 13.5411C7.31375 13.7312 6.51624 13.3806 7.18525 13.5721C6.92231 13.354 6.63846 13.1759 6.33857 13.0407C6.42172 13.081 6.45952 13.0994 6.46708 13.103C6.47464 13.1067 6.63715 13.0768 6.46328 12.9683L6.95086 13.1202L6.32343 12.8159C6.61806 12.8537 6.90187 12.9466 7.16629 13.0917C6.63712 12.7626 6.98485 12.9071 6.45568 12.6021L6.75807 12.7488C6.75807 12.7488 6.3423 12.5471 6.62199 12.5619C7.23808 12.6794 6.83738 12.1468 7.44967 12.1054C6.52743 11.8273 7.89945 12.1423 7.19264 11.8841C7.37328 11.9192 7.54814 11.9797 7.71424 12.0645C7.53659 11.8696 8.11111 12.0032 7.54037 11.7143C7.74447 11.8133 7.84274 11.861 7.97125 11.9233C7.92589 11.9013 7.78227 11.8317 7.91079 11.894C8.00607 11.9153 8.09563 11.9588 8.17536 12.0223C7.78489 11.7209 7.35079 11.5104 6.89025 11.399C7.20396 11.4424 7.17371 11.4036 6.77306 11.2093C6.9696 11.3046 7.2115 11.3011 7.24931 11.4403C7.28711 11.5795 7.62725 11.2853 7.12454 11.1019C7.2455 11.1605 7.14722 11.0404 7.14722 11.0404C7.14722 11.0404 7.25304 10.9709 7.21901 10.8456L7.14341 10.8089C6.55377 10.523 7.03001 10.6814 6.97709 10.5833L7.03757 10.6126C7.52513 10.5953 6.83347 10.5136 7.4004 10.4744L7.01865 10.3497C6.23247 10.065 7.53646 10.3712 7.25675 10.163L7.02998 10.1256C6.7654 9.99725 8.179 10.3686 8.29616 10.3409C8.35449 10.3496 8.40883 10.3759 8.45492 10.4178C8.98028 10.443 7.98621 10.1906 7.88415 10.0806C8.12237 10.1833 8.37044 10.255 8.62498 10.2949C8.85176 10.3324 7.82366 9.78547 8.36415 9.86634C8.16583 9.83334 7.97513 9.76524 7.79719 9.66388C7.74427 9.56571 8.65895 9.74345 8.00506 9.43841L8.15625 9.51173C7.98908 9.33065 7.80091 9.18255 7.59681 9.07131C8.91592 9.48146 7.06763 8.50048 8.26579 8.92447L8.25067 8.72376L8.37162 8.78242C8.48122 8.70266 8.20529 8.55676 7.92559 8.42111C8.01337 8.44796 8.09711 8.48857 8.17505 8.54209C8.4623 8.4639 8.42072 8.43165 7.86131 8.08785L8.25439 8.20599C8.03517 8.09967 8.93092 8.18372 8.5227 7.86491L8.69658 7.94923C8.28835 7.60625 9.90228 7.89348 8.50378 7.33608L8.18625 7.08547C8.03508 7.20549 7.59664 6.79946 7.32451 6.83666C7.24136 6.79633 7.80071 6.82599 7.85363 6.92416L7.7856 6.89116C8.51887 7.17428 8.0993 6.78953 8.602 6.97291C8.65489 6.66022 9.15756 6.50525 9.26714 6.23214L8.68508 6.07066L8.72286 5.96817C8.85137 6.0305 9.18399 6.09514 9.13108 6.16615C9.46747 6.24471 8.9005 5.94556 8.77199 5.90741C9.04412 5.84605 9.41455 6.21902 9.45612 6.1546L9.42965 6.08136L9.36162 6.04837C9.13483 5.93838 8.90049 5.82471 8.9534 5.7537C9.08442 5.77215 9.21321 5.80237 9.33891 5.84405C9.33891 5.84405 9.39183 5.86971 9.33891 5.84405L9.42208 5.73931L8.95338 5.63289C8.73416 5.52657 8.99495 5.52013 8.47714 5.40192C9.29733 5.59427 8.89663 5.03745 9.1612 5.0691C8.8437 4.91512 8.88528 4.80235 8.94953 4.72476C8.85881 4.68076 8.33722 4.54864 8.42792 4.47179C9.4749 4.8708 8.9344 4.47572 9.70545 4.68049C9.18764 4.56228 9.64873 4.39923 8.89658 4.28821C8.99863 4.25311 9.29345 4.42025 9.55802 4.4519C9.19516 4.15508 9.92083 4.19287 9.84522 3.9387C9.66048 3.87721 9.48322 3.79124 9.31606 3.68207L10.0304 3.82311C9.96237 3.79012 9.27446 3.45649 9.74692 3.60103C9.6354 3.56622 9.52888 3.51456 9.42942 3.44705C10.2193 3.28639 9.11186 2.44716 10.4952 2.4897C10.2155 2.45073 10.2155 2.35405 10.2004 2.34672C10.1853 2.33939 9.87532 2.18908 9.67122 2.16259L10.2457 2.1754C9.74677 1.93343 10.2608 1.98939 9.76943 1.79943L9.86016 1.84343C9.29319 1.56846 8.52215 1.48453 7.77755 1.208C8.4201 1.51962 6.72681 1.06093 7.65663 1.53603C7.513 1.46638 7.42228 1.42238 7.25597 1.34173C7.56591 1.49204 7.63396 1.52502 7.46388 1.57546L7.38072 1.53513C7.39964 1.77389 7.0557 1.73999 6.7798 1.90827L7.15777 2.01908C7.05941 2.03209 6.96165 2.02931 6.86675 2.01084C7.41103 2.27481 6.91964 1.86736 7.55464 2.15115C6.74201 1.93829 7.42995 2.4894 6.56062 2.23696C6.53417 2.30872 7.00285 2.36685 6.9764 2.4386L6.7307 2.37992L7.02552 2.5229C6.82998 2.52571 6.63884 2.49 6.45859 2.41707C6.45859 2.41707 6.40567 2.39141 6.38299 2.38041C6.09196 2.34802 6.42837 2.59575 6.3112 2.57518L6.46992 2.55554C6.63247 2.83979 6.25076 2.98087 6.66655 3.35169L6.83286 3.43235C7.10879 3.69909 6.59852 3.4879 6.72704 3.7194L6.68169 3.69741C6.85556 3.78173 6.94628 3.82568 6.88959 3.90694C6.69304 3.81162 6.46627 3.84668 6.25838 3.7096C6.52037 3.94223 6.81356 4.11704 7.12772 4.2279L6.82534 4.15376C7.08237 4.27841 7.21845 4.3444 7.27137 4.44257C7.02946 4.32525 6.81025 4.33978 6.48897 4.14771C5.7973 4.09019 7.05217 4.62624 6.09969 4.38182C6.85564 4.74843 6.58726 4.38871 6.75357 4.49353C6.91988 4.59836 7.33565 4.77583 7.23738 4.80067C7.13912 4.82551 6.17909 4.52905 6.14886 4.68356L6.09594 4.6579C5.87295 4.63433 6.3454 4.85142 5.99012 4.79995C6.4588 5.02725 5.95989 4.88196 6.56464 5.07858L6.46257 4.89618C6.62132 4.97317 7.32435 5.31412 6.91994 5.34758L6.54952 5.16793C6.37565 5.08361 6.67049 5.22657 6.45883 5.24476C5.83896 5.01664 6.36433 5.04181 5.91076 4.79768C5.63862 4.7382 6.32276 5.10623 5.66131 4.82169C6.48529 5.22131 5.50634 4.92784 6.13378 5.2563L5.77849 5.08399C5.8314 5.10966 6.00527 5.19396 5.97882 5.24155L5.51013 5.01425C5.91078 5.20856 5.10573 5.04769 5.30984 5.19501C5.36652 5.04125 5.77095 5.32199 6.06198 5.35438C6.50044 5.71203 5.0528 5.11873 5.15865 5.38757C5.10574 5.3619 5.41946 5.35692 5.57443 5.46833C5.42051 5.48645 5.26791 5.47753 5.12087 5.44174C5.1549 5.61533 5.51396 5.55988 5.71051 5.7277C5.24561 5.61099 5.89195 5.81565 6.00157 5.97757L5.63872 5.80159C5.35148 5.87979 6.39466 6.1682 6.08474 6.1629L5.57825 5.91727L5.68409 6.04109L5.27588 5.84312C5.58582 5.99343 5.47998 6.03883 5.33258 6.07609C5.57858 6.11742 5.80815 6.22876 6.00538 6.40238C5.76726 6.37149 5.65764 6.23372 5.67655 6.37581C5.44977 6.26583 5.16251 6.1265 5.52158 6.21606L5.17385 6.04742C4.90171 6.01211 5.0756 6.16892 5.06426 6.19967C5.09385 6.20757 5.12186 6.22116 5.14741 6.24L5.63122 6.57132C5.50445 6.53871 5.38464 6.4806 5.27592 6.39901C5.32128 6.421 5.48759 6.50166 5.49516 6.57783C5.2288 6.4976 4.97496 6.37449 4.73921 6.21121L5.04158 6.47874C4.87214 6.45254 4.7055 6.41205 4.54268 6.35758C4.33858 6.37944 5.07941 6.76288 4.81485 6.77957L4.9736 6.85656C4.87534 6.92974 4.46337 6.88701 4.86403 7.15382L4.2895 7.02026C4.39156 7.15434 5.01518 7.17886 5.16639 7.44553C5.3176 7.7122 4.67884 7.31777 4.51631 7.29937C4.78845 7.43135 5.33274 7.69532 4.83761 7.68478C4.77336 7.6657 4.86028 7.67162 4.82626 7.61887ZM4.75833 8.79428C4.67518 8.75395 4.44083 8.6403 4.67517 8.68145C5.0985 8.88675 4.87927 8.8288 4.74698 8.82506L4.75833 8.79428ZM5.17048 10.8188C5.04953 10.7601 5.10245 10.7858 5.26875 10.7698C5.43505 10.7537 5.26499 10.8525 5.15916 10.8495L5.17048 10.8188ZM6.41068 16.4711C6.55431 16.4683 6.48248 16.4939 6.39933 16.5019L6.41068 16.4711ZM6.21793 16.5106C6.26681 16.5463 6.32026 16.5723 6.37668 16.5876C6.2784 16.5399 6.27084 16.5362 6.29352 16.5472C6.20281 16.5032 6.12721 16.4908 6.20659 16.5413L6.21793 16.5106ZM9.24442 5.68944L9.15371 5.64545C9.04032 5.59046 9.13859 5.63811 9.24442 5.68944Z" fill="#B03A3F"/>
<path d="M3.45143 13.8638L3.66309 13.894C3.59776 13.8608 3.52498 13.8504 3.45143 13.8638Z" fill="#B03A3F"/>
<path d="M6.68969 17.3082L6.59142 17.2606C6.59142 17.2606 6.5385 17.2349 6.45536 17.2671C6.53615 17.2646 6.61521 17.2785 6.68969 17.3082Z" fill="#B03A3F"/>
<path d="M4.18845 17.0367C4.23381 17.0587 4.18844 17.0367 4.24136 17.0623L4.40767 17.143C4.35087 17.0716 4.27266 17.0337 4.18845 17.0367Z" fill="#B03A3F"/>
<path d="M5.41675 16.9199C5.11437 16.7733 5.19376 16.8963 5.2429 16.9564C5.68134 17.1207 5.51881 17.0057 5.41675 16.9199Z" fill="#B03A3F"/>
<path d="M5.24756 16.9702C5.40723 17.1202 5.27047 17.0538 5.24756 16.9702V16.9702Z" fill="#B03A3F"/>
<path d="M6.38051 16.7467C6.30491 16.7101 6.7736 16.9374 6.65265 16.8787C7.04952 17.0349 6.20285 16.5518 6.38051 16.7467Z" fill="#B03A3F"/>
<path d="M4.35562 16.5859L4.75249 16.718L4.44633 16.5816L4.35562 16.5859Z" fill="#B03A3F"/>
<path d="M4.74768 16.3416L4.61866 16.3758L4.74782 16.4384C4.74782 16.4384 4.86161 16.3727 4.74768 16.3416Z" fill="#B03A3F"/>
<path d="M4.74756 16.438C4.74756 16.438 4.74757 16.438 4.81595 16.4712C4.88433 16.5043 4.82012 16.4841 4.74756 16.438Z" fill="#B03A3F"/>
<path d="M4.27201 16.4487L4.35555 16.4651L4.40102 16.4146L4.27201 16.4487Z" fill="#B03A3F"/>
<path d="M5.04964 15.5941L4.9627 15.4673C4.83419 15.405 4.75859 15.3684 4.78883 15.4555C4.86912 15.5174 4.95684 15.564 5.04964 15.5941Z" fill="#B03A3F"/>
<path d="M3.90816 15.451C3.98376 15.4876 4.06689 15.528 4.21429 15.5149L3.72293 15.3491L3.90816 15.451Z" fill="#B03A3F"/>
<path d="M3.86305 15.1631C3.73454 15.1008 3.51151 14.908 3.52286 14.9981C3.53421 15.0882 3.72699 15.2179 3.86305 15.1631Z" fill="#B03A3F"/>
<path d="M4.82658 14.2168L4.82658 14.2409L5.6241 14.519L4.82658 14.2168Z" fill="#B03A3F"/>
<path d="M3.2123 12.5035C3.00064 12.5217 3.68854 12.7345 3.43531 12.6963C3.62429 12.7879 3.65831 12.6957 3.81705 12.7726C3.64158 12.6177 3.43397 12.5253 3.2123 12.5035Z" fill="#B03A3F"/>
<path d="M10.7139 2.20975L10.8991 2.21498L10.6194 2.15184L10.7139 2.20975Z" fill="#B03A3F"/>
<path d="M10.1938 1.90819L10.7116 2.07472L10.2656 1.85842C10.2656 1.85842 10.2769 1.92435 10.1938 1.90819Z" fill="#B03A3F"/>
<path d="M3.6702 8.62889L3.78359 8.68388C3.9121 8.7462 3.91966 8.74987 3.96501 8.69937L3.6702 8.62889Z" fill="#B03A3F"/>
<path d="M4.28896 7.96288L4.27006 7.9658L4.7463 8.10009L4.28896 7.96288Z" fill="#B03A3F"/>
<path d="M3.89709 7.07145C3.89709 7.07145 3.98024 7.11178 3.93867 7.17621C3.8971 7.24063 4.47916 7.25707 3.89709 7.07145Z" fill="#B03A3F"/>
<path d="M13.6526 22.1587C13.7698 22.207 13.8912 22.2416 14.0155 22.2621C13.8992 22.211 13.7776 22.1763 13.6526 22.1587Z" fill="#B03A3F"/>
<path d="M12.9643 21.6078L13.1041 21.6393L12.7791 21.5059L12.9643 21.6078Z" fill="#B03A3F"/>
<path d="M13.0566 21.2645C12.4707 21.1617 13.1208 21.4045 12.9016 21.419L12.7807 21.3603L13.238 21.4975C13.17 21.4404 12.86 21.2659 13.0566 21.2645Z" fill="#B03A3F"/>
<path d="M14.3462 21.3703C14.1184 21.3323 14.1638 21.2818 14.2627 21.4023L14.3159 21.4281C14.3159 21.4281 14.3045 21.4347 14.3462 21.3703Z" fill="#B03A3F"/>
<path d="M14.3097 21.4385C14.3097 21.4385 14.5072 21.4617 14.3097 21.4385V21.4385Z" fill="#B03A3F"/>
<path d="M14.2348 21.2083L14.4237 21.2999C14.5144 21.2976 14.6041 21.3047 14.6921 21.3213C14.5502 21.2453 14.3949 21.207 14.2348 21.2083Z" fill="#B03A3F"/>
<path d="M13.8272 21.0587L13.9032 21.0956C13.9601 21.1111 13.9791 21.1082 13.8272 21.0587Z" fill="#B03A3F"/>
<path d="M14.0683 21.2004L13.8944 21.1161C13.8113 21.0757 13.6147 21.0529 13.9625 21.149C13.8075 21.1101 13.9549 21.1454 14.0683 21.2004Z" fill="#B03A3F"/>
<path d="M13.9559 21.2661C13.8144 21.2741 13.6767 21.2444 13.5514 21.1787C13.627 21.2395 14.039 21.3064 13.9559 21.2661Z" fill="#B03A3F"/>
<path d="M12.4655 21.0996L12.2803 21.0944L12.4693 21.1861C12.3786 21.1421 12.6469 21.1393 12.4655 21.0996Z" fill="#B03A3F"/>
<path d="M14.5981 20.9734C14.4847 20.9184 14.2731 20.9124 14.1143 20.8837L14.2428 20.9461C14.3629 20.9415 14.4818 20.9506 14.5981 20.9734Z" fill="#B03A3F"/>
<path d="M14.1143 20.8841L13.9253 20.7925C13.9253 20.7925 13.9744 20.8526 14.1143 20.8841Z" fill="#B03A3F"/>
<path d="M13.1812 20.9021L13.612 21.0869L13.1812 20.8779L13.1812 20.9021Z" fill="#B03A3F"/>
<path d="M14.6614 20.775L14.9373 20.8725L14.5215 20.7192L14.6614 20.775Z" fill="#B03A3F"/>
<path d="M14.6431 20.6331C14.8623 20.7394 15.0475 20.6963 15.1874 20.752C15.06 20.6714 14.9259 20.6063 14.7867 20.5577C14.8812 20.6156 14.8699 20.6464 14.6431 20.6331Z" fill="#B03A3F"/>
<path d="M13.9638 20.6895C14.0817 20.7137 14.2016 20.7274 14.3229 20.7306L13.9714 20.6689L13.9638 20.6895Z" fill="#B03A3F"/>
<path d="M13.5285 20.8295C13.3135 20.7166 13.081 20.6528 12.8406 20.6409C13.0636 20.7128 13.2488 20.7181 13.5285 20.8295Z" fill="#B03A3F"/>
<path d="M13.5539 20.637L13.4632 20.6655L13.7807 20.747L13.5539 20.637Z" fill="#B03A3F"/>
<path d="M13.4529 20.5752L13.5555 20.637L13.5896 20.6173L13.4529 20.5752Z" fill="#B03A3F"/>
<path d="M14.1866 20.4719C14.0429 20.4022 14.0278 20.3949 14.0051 20.3839C13.9824 20.3729 13.8842 20.4219 13.8804 20.4563C13.8766 20.4907 14.1903 20.5099 14.1866 20.4719Z" fill="#B03A3F"/>
<path d="M14.3905 20.3289C14.3235 20.3194 14.2551 20.3186 14.1864 20.3266C14.2998 20.3333 14.4925 20.318 14.3905 20.3289Z" fill="#B03A3F"/>
<path d="M14.1403 20.5706C14.231 20.5904 14.1932 20.572 14.1403 20.5706V20.5706Z" fill="#B03A3F"/>
<path d="M11.8869 19.4296C12.212 19.5147 12.4917 19.6504 12.1364 19.6231C12.7545 19.8104 13.3857 19.947 14.0262 20.0321C13.8744 19.9862 13.7298 19.916 13.5953 19.8231C13.3519 19.8283 13.1122 19.7972 12.881 19.7304C12.7222 19.6534 13.0095 19.6961 13.1871 19.6976C12.7827 19.6344 12.6428 19.4337 12.0343 19.344L12.2384 19.4429C12.1213 19.4949 11.9739 19.4355 11.8869 19.4296Z" fill="#B03A3F"/>
<path d="M13.963 20.1341L14.0084 20.1561C14.1587 20.1489 14.3077 20.1566 14.4544 20.1791C14.3406 20.1095 14.2218 20.0519 14.0991 20.0068L14.0537 20.1298L13.963 20.1341Z" fill="#B03A3F"/>
<path d="M13.974 20.2721C13.6946 20.1604 13.4066 20.0773 13.1122 20.0234C13.0895 20.0849 13.3843 20.1554 13.5355 20.2287C13.4675 20.099 13.717 20.3167 13.9362 20.278C13.97 20.281 14.0014 20.2962 14.0269 20.322L14.1932 20.3059L14.1176 20.2693L13.9966 20.2106C14.0199 20.2086 14.0426 20.2128 14.0634 20.2229C14.0842 20.233 14.1027 20.2487 14.1176 20.2693L14.1705 20.2949L14.0042 20.1418C13.9475 20.1747 13.9513 20.2128 13.974 20.2721Z" fill="#B03A3F"/>
<path d="M12.3307 20.4055C12.3761 20.4275 12.5046 20.4898 12.4743 20.4752C12.4441 20.4605 12.3156 20.3982 12.1946 20.412C12.3267 20.4716 12.4665 20.5068 12.6104 20.517L12.565 20.495C12.7759 20.4866 12.9846 20.5029 13.1887 20.5437C12.8674 20.4966 12.6444 20.4489 12.3307 20.4055Z" fill="#B03A3F"/>
<path d="M13.0673 20.3159L12.9123 20.1803L12.5986 20.1611L12.7649 20.2417C12.7044 20.2366 12.9312 20.2741 13.0673 20.3159Z" fill="#B03A3F"/>
<path d="M14.2611 20.0735L14.6239 20.177L14.1175 20.0039L14.2611 20.0735Z" fill="#B03A3F"/>
<path d="M14.2464 19.9453L14.5639 20.0268L14.3787 19.949L14.2464 19.9453Z" fill="#B03A3F"/>
<path d="M14.8772 17.0493C15.1833 17.089 15.6596 17.1508 15.2967 17.0715L14.9414 16.9958C15.0019 17.0493 14.9566 17.0515 14.8772 17.0493Z" fill="#B03A3F"/>
<path d="M11.8074 14.1831L12.0418 14.1759L11.8074 14.1831Z" fill="#B03A3F"/>
<path d="M11.6837 11.2341L11.3511 11.0728C11.3511 11.0728 11.506 11.1842 11.6837 11.2341Z" fill="#B03A3F"/>
<path d="M14.3974 18.7135C14.541 18.7107 14.6053 18.7056 14.6242 18.6785C14.4125 18.6725 14.1064 18.6328 14.3974 18.7135Z" fill="#B03A3F"/>
<path d="M15.5161 13.3348L15.312 13.2358C15.3744 13.2829 15.4432 13.3163 15.5161 13.3348Z" fill="#B03A3F"/>
<path d="M14.6515 18.5824L14.5759 18.5458C14.6288 18.5714 14.6817 18.5971 14.6402 18.6373C14.7838 18.6828 14.8858 18.6719 14.6515 18.5824Z" fill="#B03A3F"/>
<path d="M16.646 7.22461C16.646 7.22461 16.6886 7.25623 16.646 7.22461V7.22461Z" fill="#B03A3F"/>
<path d="M14.3452 19.5098C14.3728 19.5312 14.4037 19.5462 14.4364 19.554L14.3452 19.5098Z" fill="#B03A3F"/>
<path d="M14.5073 19.5518C14.5269 19.5722 14.5687 19.5815 14.5073 19.5518V19.5518Z" fill="#B03A3F"/>
<path d="M11.151 15.3866C11.5517 15.5809 11.5063 15.5589 11.4232 15.5186L12.4437 15.7236L11.151 15.3866Z" fill="#B03A3F"/>
<path d="M11.8537 11.9089L11.5211 11.8925C11.0373 11.6579 11.2149 11.6837 10.7273 11.6285C11.8234 11.8942 10.7803 11.8958 11.8688 12.1821L11.6307 12.1753C11.6307 12.1753 11.5778 12.1496 11.5854 12.1533C11.0411 12.1069 12.3829 12.4072 12.1901 12.4466C12.058 12.4664 11.9276 12.4486 11.8084 12.3944L12.073 12.5227C12.073 12.5227 11.8537 12.4889 11.8915 12.4348L11.9558 12.5746L12.4699 12.8239C12.3111 12.8195 12.364 12.7726 12.2355 12.7103L12.4925 12.8349C12.2053 12.7923 11.9369 12.6742 12.0012 12.5966C10.8937 12.41 12.2657 12.725 11.593 12.7129L11.4569 12.6469C11.1898 12.5924 10.9141 12.5846 10.6367 12.6237C11.0671 12.645 11.4899 12.7206 11.8991 12.8492C11.8311 12.8162 11.7669 12.8697 11.9823 12.9621C11.5892 12.8681 11.6761 12.9224 11.6913 12.978L11.1735 12.8598C11.3171 12.9295 11.559 13.0468 11.8009 13.0916C11.5256 13.0963 11.2544 13.062 10.992 12.9894C10.8862 13.0589 11.6459 13.0769 11.7215 13.2102C11.5061 13.2386 11.6762 13.3332 11.9937 13.5114C11.8326 13.4997 11.6754 13.4639 11.525 13.4049L11.9105 13.5919C11.8458 13.5751 11.7847 13.5454 11.7291 13.5039C11.8803 13.5772 12.2431 13.6324 12.3679 13.7291C12.9348 13.8832 11.5023 13.6598 12.1373 13.8952C12.0013 13.8292 11.8198 13.8137 11.6233 13.7667C11.8888 13.9313 12.1669 14.0662 12.4548 14.17L12.092 14.1632C12.5096 14.228 12.9151 14.3517 13.3015 14.5323L13.7437 14.5897L14.0083 14.718L13.5396 14.5874L13.653 14.6424C13.3876 14.61 13.1282 14.5448 12.8782 14.4478L13.1994 14.4949C12.9122 14.3556 12.5531 14.2902 12.2508 14.216L12.3793 14.2784L12.1827 14.183C12.1374 14.161 12.2432 14.2124 12.3642 14.271L11.7821 14.1579L11.9937 14.2606L11.6045 14.3014C12.1518 14.4977 12.6803 14.7539 13.1844 15.0676C12.7913 14.877 12.5003 14.8929 12.0014 14.7717C12.5381 14.8629 11.8048 14.604 11.9295 14.5557C11.7969 14.5584 11.6671 14.5361 11.544 14.4895L12.0051 14.7132C11.8495 14.659 11.6846 14.6403 11.5175 14.658C12.3453 14.8298 12.024 14.9036 12.2735 15.0246C12.0014 14.9651 11.7292 14.8815 11.8199 14.8046C11.1925 14.742 12.7422 15.1311 12.2092 15.078C12.2092 15.078 12.2092 15.078 12.111 15.0304C12.3378 15.1404 12.1337 15.1863 11.8955 15.1071C11.7746 15.1935 11.8162 15.4432 12.4965 15.6282L11.5365 15.3801L13.8043 16.1174C13.2185 15.9662 11.7936 15.6981 11.4836 15.5236C11.408 15.4869 11.2908 15.5389 11.4836 15.6445C11.5592 15.6811 12.3189 15.7958 12.3907 15.8427C11.7217 15.7479 12.0317 15.8015 11.4534 15.7506C11.8013 15.8079 12.1404 15.9077 12.4663 16.0486C12.3378 15.9863 11.5479 15.8327 11.4572 15.7887L12.3454 16.1107C12.1866 16.0337 11.5744 15.9301 11.3136 15.8882C11.4723 15.9652 11.2795 15.9805 11.3514 16.0274L11.5744 16.0268C11.4156 16.119 12.8254 16.4523 12.7385 16.5914C12.3249 16.4576 11.9004 16.3649 11.4685 16.3139C11.9259 16.4511 13.6759 16.9735 14.0085 17.159L13.7402 17.1134L14.0274 17.2528C13.3395 17.04 11.8995 16.5469 11.3438 16.3379C11.1208 16.3385 11.0264 16.2806 11.0377 16.3465C10.8981 16.3399 10.7687 16.2772 10.6673 16.1669L10.4707 16.2891C11.015 16.4081 10.9848 16.5384 11.4384 16.6375L10.9016 16.3772C11.4459 16.4962 12.4173 16.8344 12.2963 16.9207C12.0733 16.8971 11.3363 16.6726 11.1549 16.6329C11.3288 16.7173 11.4951 16.7979 11.3514 16.8008L11.0793 16.6688C10.8601 16.6833 11.7748 16.9336 11.2381 16.8908C11.2381 16.8908 10.5237 16.7981 10.8412 16.8796C11.4724 16.9803 13.3925 17.4281 13.8574 17.569C13.8574 17.569 13.2262 17.565 12.9125 17.5216C12.4211 17.4525 11.771 17.1855 11.3477 17.1252C11.4721 17.1742 11.5933 17.2329 11.7105 17.3012C11.5972 17.2462 11.257 17.1779 11.3099 17.2519C11.8542 17.395 11.2646 17.3749 11.7672 17.3891C11.9184 17.4624 11.6387 17.4235 11.6463 17.4996C12.1083 17.5934 12.5584 17.7389 12.9919 17.9347L12.5837 17.8575C12.5383 17.9806 12.2397 17.9687 12.2095 18.0749C12.0258 18.0697 11.8449 18.0427 11.669 17.994C11.7673 18.0245 11.8612 18.07 11.9487 18.1297C11.4574 18.0847 11.892 18.0417 11.31 17.9528C11.5241 18.0135 11.7275 18.1121 11.9147 18.2461C12.4136 18.343 12.0394 18.1495 11.8504 18.0578C12.4281 18.1798 12.9868 18.3819 13.5173 18.6608C13.6836 18.7414 13.06 18.5961 13.162 18.6335C13.0033 18.774 14.3148 19.0596 13.7895 19.0828C13.2641 19.1059 12.9277 18.8824 12.6102 18.8251C12.4439 18.7444 12.9126 18.7783 12.905 18.7263L12.6896 18.7306C12.5535 18.6646 12.4401 18.6096 12.5762 18.6031C12.1831 18.5574 12.4704 18.8901 12.0508 18.9163C12.1896 19.0062 12.3364 19.0774 12.4893 19.1289L12.4288 19.0996C12.7879 19.1408 12.8824 19.3196 13.0676 19.2765C13.2528 19.2334 13.6723 19.5697 13.4645 19.5776L12.958 19.477C13.0941 19.543 13.2717 19.4963 13.1243 19.4369C13.3284 19.5358 12.4251 19.3998 13.0676 19.5906L13.4229 19.6179C13.6572 19.7315 14.1788 19.9845 14.0125 19.9039C14.5077 19.9869 13.9596 19.8782 14.5417 19.9672C13.8236 19.8364 14.6059 19.7929 13.8689 19.6409C14.5417 19.7497 14.1713 19.6184 14.742 19.6897C14.5908 19.6164 14.4245 19.6324 14.5227 19.5834L14.3867 19.5174L14.1297 19.4895C13.9414 19.43 13.7613 19.3426 13.5929 19.2291C13.661 19.2621 13.7668 19.3135 13.952 19.3187L13.6345 19.1647C13.918 19.1786 14.1941 19.2433 14.4547 19.357L14.4811 19.2853C14.7041 19.2847 14.7986 19.2459 14.6474 19.1726C14.7155 19.2056 14.2695 18.9893 14.5341 19.1176L14.3375 18.9498L14.4206 18.9901C14.4622 18.8774 13.8726 18.6156 14.5491 18.6416C14.4584 18.5976 14.3526 18.5463 14.4773 18.4738L14.8023 18.5348C14.6889 18.4798 15.1501 18.4618 14.859 18.381C15.6981 18.5221 15.1009 18.1842 15.271 18.1338L14.8628 18.0325C14.8854 17.971 14.7985 17.8926 14.6511 17.7848L14.2883 17.7055C14.001 17.5661 14.5793 17.5929 14.5641 17.4889C14.6927 17.5512 14.6624 17.5365 14.5641 17.4889C15.4259 17.5685 14.0312 17.0975 14.6888 17.1506C14.5603 17.0882 14.6057 17.1102 14.7115 17.0891L14.9156 17.0914L14.7153 17.0788C14.6729 17.0423 14.624 17.0186 14.5717 17.0091L14.9647 17.079C15.1159 17.0798 14.7909 16.9946 14.4923 16.9586L14.2655 16.8486C14.9043 16.9771 14.0614 16.7496 14.7568 16.8452C14.4746 16.6698 14.1787 16.5264 13.8724 16.4163C13.9555 16.4566 13.9933 16.475 14.0009 16.4786C14.0084 16.4823 14.1748 16.4421 13.9896 16.3643L14.4847 16.4716L13.8383 16.2427C14.1238 16.2514 14.403 16.3057 14.6699 16.4043C14.118 16.1367 14.4582 16.3016 13.9139 16.0377L14.2314 16.1192C14.2314 16.1192 13.8156 15.9175 14.084 15.9631C14.7076 16.0359 14.2578 15.6123 14.8663 15.557C13.9101 15.3712 15.3086 15.5661 14.5715 15.414C14.7557 15.4385 14.9364 15.4817 15.112 15.5433C14.9117 15.3857 15.5013 15.4783 14.8965 15.2576C15.1195 15.3053 15.2254 15.3566 15.3577 15.3845C15.3123 15.3625 15.1687 15.2929 15.2896 15.3515C15.3832 15.3873 15.4741 15.4314 15.5618 15.4835C15.1376 15.2606 14.6868 15.111 14.22 15.0382C14.5337 15.0574 14.4997 15.0288 14.0801 14.8857C14.2594 14.8886 14.4326 14.9357 14.5904 15.0245C14.5904 15.0245 14.9457 14.8826 14.4316 14.7541C14.5526 14.8128 14.4316 14.7541 14.4316 14.7541C14.4316 14.7541 14.5261 14.6912 14.4883 14.6004L14.4127 14.5637C13.8004 14.3876 14.2766 14.4977 14.2313 14.379L14.2917 14.4084C14.7755 14.3772 14.0876 14.3094 14.6357 14.2731L14.2464 14.1931C13.4299 13.9905 14.7679 14.1801 14.4693 14.0232L14.235 14.0063C14.6667 14.0155 15.0945 14.0575 15.5163 14.1322C15.5742 14.1427 15.6282 14.1689 15.6751 14.2092C16.1929 14.2066 15.1724 14.0742 15.0854 13.9232C15.3319 14.0006 15.5862 14.0471 15.8451 14.0622C16.0681 14.0857 15.006 13.6552 15.5314 13.7287C15.3342 13.7132 15.1424 13.6648 14.9606 13.5848C14.8775 13.5445 15.7922 13.6015 15.1383 13.3931L15.2895 13.4664C15.0998 13.3312 14.8939 13.2313 14.6771 13.1694C16.0227 13.4353 14.0875 12.7143 15.3272 13.0014L15.297 12.8417L15.4104 12.8967C15.5162 12.8272 15.2251 12.7223 14.9266 12.662C15.0176 12.6657 15.1065 12.6844 15.1911 12.7179C15.4708 12.636 15.4179 12.6104 14.8283 12.3486L15.2327 12.4359C15.0135 12.3296 15.9092 12.3895 15.4745 12.1424L15.6409 12.2231C15.1873 12.0031 16.839 12.1154 15.3914 11.7154L15.0436 11.5467C14.9038 11.6602 14.4162 11.3874 14.1592 11.3836C14.076 11.3433 14.6354 11.3488 14.6921 11.4367L14.6241 11.4037C15.3762 11.6114 14.934 11.3123 15.4518 11.4305C15.4669 11.172 15.9507 11.0199 16.0338 10.7944L15.4366 10.674L15.4668 10.592C15.5954 10.6543 15.9355 10.6743 15.8977 10.7284C16.2455 10.7762 15.6256 10.5965 15.5122 10.5415C15.7768 10.4764 16.1925 10.7506 16.2152 10.7132L16.1699 10.6912L16.1018 10.6582C15.875 10.5482 15.6143 10.5064 15.6558 10.4419C15.6974 10.3775 16.03 10.5147 16.0527 10.5015C16.0754 10.4883 16.1132 10.5308 16.0527 10.5015L16.0942 10.3887L15.618 10.327C15.3988 10.2207 15.6558 10.2244 15.1304 10.1509C15.9733 10.2818 15.5084 9.82668 15.7767 9.84807C15.4517 9.69043 15.4706 9.63917 15.531 9.57182C15.4403 9.52783 14.896 9.45723 14.9792 9.40088C16.0526 9.6798 15.4743 9.38721 16.2718 9.52022C15.7389 9.44302 16.1849 9.29681 15.4365 9.1997C15.6609 9.21947 15.883 9.25456 16.1017 9.30483C15.7011 9.11052 16.4456 9.0729 16.3436 8.86632C16.149 8.8375 15.9582 8.78939 15.7728 8.72243L16.5099 8.80191C16.4418 8.76891 15.701 8.57881 16.1924 8.64793C16.0746 8.63501 15.9595 8.60748 15.8484 8.56572C16.6232 8.39772 15.4439 7.75333 16.8159 7.72995C16.5287 7.71148 16.5173 7.66973 16.5286 7.59064C16.3414 7.56541 16.1571 7.52444 15.9768 7.46801L16.5513 7.45663C16.0184 7.30692 16.5475 7.29771 16.0221 7.2L16.1129 7.244C15.527 7.04446 14.756 7.00886 13.9811 6.81434C14.6539 7.04396 12.9266 6.74997 13.8791 7.09107C13.7204 7.08659 13.6523 6.9811 13.4558 6.98245C13.7657 7.13277 13.8338 7.16576 13.6826 7.16494L13.607 7.12828C13.641 7.32604 13.2971 7.31632 13.0401 7.45752L13.4218 7.53388C13.3278 7.55405 13.2337 7.5572 13.1422 7.54323C13.7053 7.73177 13.1837 7.43052 13.83 7.63522C13.0325 7.5022 13.728 7.91198 12.8549 7.7423C12.8322 7.8038 13.3009 7.83776 13.2631 7.94027L13.0212 7.89545L13.3274 7.98353C13.1345 7.99437 12.9442 7.97507 12.7604 7.92607C12.7604 7.92607 12.7075 7.90041 12.6848 7.88941C12.3938 7.88119 12.7416 8.07397 12.6244 8.0534L12.7831 8.03376C12.9759 8.26017 12.6055 8.3947 13.0515 8.68351L13.2178 8.76417C13.5429 8.92181 13.0024 8.81675 13.1309 8.99992L13.0856 8.97792C13.2594 9.06224 13.3502 9.10624 13.335 9.09891C13.1309 8.99992 12.9004 9.06939 12.6812 8.96307C12.9603 9.1607 13.2627 9.30735 13.5807 9.39934L13.2784 9.34932C13.4462 9.38055 13.6031 9.45665 13.7395 9.57296C13.4976 9.45564 13.2708 9.51486 12.9269 9.36013C12.2352 9.35094 13.5354 9.73986 12.5603 9.58111C13.3578 9.83497 13.0516 9.55353 13.2255 9.63786C13.3994 9.72218 13.8265 9.84473 13.732 9.88349C13.6375 9.92225 12.6472 9.70785 12.6397 9.82502C12.6321 9.94219 12.5867 9.79935 12.5867 9.79935C12.3637 9.79996 12.8589 9.93136 12.4923 9.93481C12.9912 10.0801 12.4658 10.0066 13.0895 10.1519L12.9647 10.0069C13.131 10.0875 13.853 10.353 13.4637 10.3696L13.0932 10.19C12.9005 10.1811 13.2142 10.2487 13.0025 10.2669C12.3675 10.1039 12.8967 10.0947 12.428 9.91568C12.1446 9.88696 12.8665 10.1283 12.1748 9.94996C13.0403 10.2126 12.0312 10.0495 12.6926 10.2857L12.3071 10.1954C12.36 10.2211 12.5339 10.3054 12.5263 10.3017L12.0425 10.1396C12.4356 10.3302 11.6381 10.1731 11.8611 10.2933C11.9064 10.1703 12.3222 10.3719 12.6208 10.3838C13.1122 10.6221 11.5965 10.2375 11.7061 10.4477C11.6532 10.4221 11.9594 10.4135 12.1257 10.4941C11.9727 10.5183 11.8203 10.5175 11.6721 10.4917C11.7289 10.6279 12.0728 10.5651 12.2996 10.6751C11.8196 10.5994 12.481 10.7631 12.6246 10.8328L12.2316 10.7388C11.9519 10.8206 13.0366 10.9721 12.7229 10.9771L12.1938 10.7929L12.3298 10.8589L11.8914 10.743C12.2013 10.8933 12.1257 10.8566 11.9745 10.9283C12.2238 10.9513 12.4621 11.0341 12.6776 11.1726C12.4357 11.1519 12.3374 11.0076 12.3525 11.16C12.1257 11.05 11.8082 10.9927 12.1635 11.0683L11.8045 10.9546C11.5248 10.9398 11.7138 11.0556 11.7478 11.1083C11.7818 11.1611 11.7478 11.1083 11.8234 11.145L12.3374 11.3943C12.2085 11.3809 12.083 11.3484 11.9632 11.2974C12.0476 11.3259 12.1286 11.3652 12.2052 11.4147C11.9337 11.3513 11.6674 11.2665 11.4076 11.1609L11.7478 11.3258C11.5755 11.3182 11.405 11.2962 11.2376 11.2596C11.041 11.2852 11.8272 11.5456 11.5513 11.5931L11.71 11.6701C11.6231 11.7367 11.2149 11.7078 11.6231 11.9058L11.0373 11.8271C11.1658 11.8894 11.7705 11.9169 11.9595 12.1052C12.1485 12.2935 11.4644 12.0221 11.2981 12.014C11.5702 12.146 12.141 12.3382 11.661 12.3108C11.7668 11.9271 11.8499 11.9191 11.8537 11.9089ZM11.8878 12.9042C11.8122 12.8675 11.5779 12.7538 11.782 12.8528C12.2015 12.9234 11.9823 12.8896 11.85 12.8858L11.8878 12.9042ZM12.5002 14.5546C12.3793 14.4959 12.4322 14.5216 12.5947 14.5158C12.7572 14.51 12.5645 14.5495 12.4738 14.5055L12.5002 14.5546ZM14.2959 19.1834C14.398 19.1483 14.3337 19.1534 14.2581 19.1651L14.2959 19.1834ZM14.1032 19.2228C14.1493 19.2579 14.2003 19.2826 14.2544 19.2962C14.1637 19.2522 14.1561 19.2485 14.1788 19.2595C14.0616 19.1664 13.9822 19.1642 14.0654 19.2045L14.1032 19.2228ZM16.0375 10.1317L15.9468 10.0877C15.7843 10.0693 15.875 10.1132 15.9808 10.1646L16.0375 10.1317Z" fill="#B03A3F"/>
<path d="M11.9593 14.2563L12.1785 14.2901L11.9593 14.2563Z" fill="#B03A3F"/>
<path d="M11.0629 17.1207C11.1333 17.1162 11.203 17.1216 11.2707 17.1369C11.2069 17.104 11.1344 17.0984 11.0629 17.1207Z" fill="#B03A3F"/>
<path d="M14.6233 19.8146L14.525 19.7669C14.525 19.7669 14.4645 19.7375 14.3852 19.7836C14.4872 19.7727 14.6232 19.7904 14.6233 19.8146Z" fill="#B03A3F"/>
<path d="M12.1061 19.7052C12.1514 19.7272 12.1061 19.7052 12.159 19.7309L12.3253 19.8116C12.3253 19.8116 12.1892 19.6972 12.1061 19.7052Z" fill="#B03A3F"/>
<path d="M13.321 19.5561C12.9922 19.4812 13.0943 19.5428 13.1472 19.5926C13.6045 19.7057 13.4609 19.636 13.321 19.5561Z" fill="#B03A3F"/>
<path d="M13.132 19.6582C13.337 19.6851 13.1776 19.6803 13.132 19.6582V19.6582Z" fill="#B03A3F"/>
<path d="M14.254 19.369C14.1784 19.3323 14.6773 19.4776 14.5261 19.5009C14.9532 19.5752 14.0612 19.215 14.254 19.369Z" fill="#B03A3F"/>
<path d="M12.2274 19.3286L12.6356 19.4057L12.3143 19.3103L12.2274 19.3286Z" fill="#B03A3F"/>
<path d="M12.5992 19.0975L12.4702 19.1316L12.5994 19.1943C12.5994 19.1943 12.7512 19.147 12.5992 19.0975Z" fill="#B03A3F"/>
<path d="M12.1255 19.2187L12.2128 19.2248L12.2545 19.1846L12.1255 19.2187Z" fill="#B03A3F"/>
<path d="M12.8202 18.4686L12.7068 18.4136C12.5783 18.3513 12.4801 18.3762 12.5292 18.4121C12.6228 18.4457 12.7205 18.4646 12.8202 18.4686Z" fill="#B03A3F"/>
<path d="M11.6684 18.4048L11.9821 18.4482L11.4832 18.3271L11.6684 18.4048Z" fill="#B03A3F"/>
<path d="M11.5974 18.1888C11.4689 18.1265 11.2195 18.0055 11.2346 18.0853C11.2497 18.1652 11.4689 18.2232 11.5974 18.1888Z" fill="#B03A3F"/>
<path d="M12.4624 17.3393L12.4624 17.3635L13.2826 17.5558L12.4624 17.3393Z" fill="#B03A3F"/>
<path d="M10.6734 16.0497C10.4579 16.0781 11.176 16.1847 10.9304 16.1743C11.1118 16.2623 11.142 16.1562 11.3045 16.2229C11.1126 16.1032 10.8969 16.044 10.6734 16.0497Z" fill="#B03A3F"/>
<path d="M17.1281 7.1448L17.3095 7.13612L17.0298 7.09714L17.1281 7.1448Z" fill="#B03A3F"/>
<path d="M16.544 6.89693L17.0732 7.00856L16.6007 6.86402C16.6007 6.86402 16.6763 6.8765 16.544 6.89693Z" fill="#B03A3F"/>
<path d="M10.7564 12.7788L10.8773 12.8375C10.9983 12.8961 11.0059 12.8998 11.0588 12.8288L10.7564 12.7788Z" fill="#B03A3F"/>
<path d="M11.313 12.1902L11.3017 12.1967L11.7742 12.293L11.313 12.1902Z" fill="#B03A3F"/>
<path d="M10.8366 11.4765C10.8366 11.4765 10.9198 11.5169 10.8858 11.5608C10.8518 11.6047 11.4376 11.5867 10.8366 11.4765Z" fill="#B03A3F"/>
</g>
<defs>
<clipPath id="clip0_355_255">
<rect width="15.4673" height="18.5947" fill="white" transform="matrix(0.899769 0.436367 -0.345868 0.938283 6.43115 0)"/>
</clipPath>
</defs>
</svg>
