<svg width="109" height="76" viewBox="0 0 109 76" fill="none" xmlns="http://www.w3.org/2000/svg">
<path d="M18.5297 74.9196C18.1161 75.0127 18.2243 74.4043 18.1543 74.2969C18.8607 74.3685 18.5234 75.0771 18.5297 74.9196Z" fill="#B03A3F"/>
<path d="M25.5604 75.5496L25.4141 75.3206L26.5022 75.793L25.5604 75.5496Z" fill="#B03A3F"/>
<path d="M32.0317 74.5897C31.5544 75.7206 29.6708 74.8044 28.5635 75.3055L28.3981 75.5703L27.7617 74.8545C29.1935 74.7687 31.0708 75.0621 32.0317 74.5897Z" fill="#B03A3F"/>
<path d="M35.145 71.7694C34.9986 72.1989 35.9341 71.977 34.375 72.0414C34.4194 72.0035 34.4619 71.9629 34.5023 71.9197C34.7203 71.8926 34.9355 71.8423 35.145 71.7694Z" fill="#B03A3F"/>
<path d="M34.5025 71.9565C33.828 72.0424 34.8971 71.5486 34.5025 71.9565V71.9565Z" fill="#B03A3F"/>
<path d="M37.6327 71.5703L36.6973 71.3985C36.8436 71.1265 37.62 70.919 37.3336 70.8116C38.2309 70.8188 38.0718 71.055 37.6327 71.5703Z" fill="#B03A3F"/>
<path d="M38.593 72.1348L38.1094 72.0775C38.173 71.963 38.2876 71.9057 38.593 72.1348Z" fill="#B03A3F"/>
<path d="M37.0859 71.9636L38.1105 72.0782C38.0087 72.2714 38.0468 72.5935 37.6459 72.0782C37.7732 72.3358 37.5314 72.0925 37.0859 71.9636Z" fill="#B03A3F"/>
<path d="M36.5577 72.2215C36.0995 72.5436 35.4759 72.8084 36.4177 72.9802C34.6995 73.2021 34.8459 72.4219 36.5577 72.2215Z" fill="#B03A3F"/>
<path d="M32.5032 75.578L31.8668 75.9932L31.2305 75.757C31.555 75.8715 32.5032 75.2559 32.5032 75.578Z" fill="#B03A3F"/>
<path d="M43.0164 69.8442C43.1119 70.0446 42.8319 70.4813 42.8128 70.7676L42.1191 70.6745C42.4246 70.4455 43.0355 70.1735 43.0164 69.8442Z" fill="#B03A3F"/>
<path d="M42.8131 70.7685L43.8567 70.8973C42.9976 71.1622 42.8003 71.0118 42.8131 70.7685Z" fill="#B03A3F"/>
<path d="M38.9306 73.2158L37.1934 72.772L39.2488 73.1657L38.9306 73.2158Z" fill="#B03A3F"/>
<path d="M46.694 68.8861L46.0449 68.5354L47.1713 69.0293L46.694 68.8861Z" fill="#B03A3F"/>
<path d="M49.1447 68.2988C48.6547 68.0125 49.5456 67.4614 49.0619 67.3325C49.7068 67.2692 50.3564 67.3544 50.971 67.5831C50.3069 67.5762 49.6612 67.8292 49.1447 68.2988Z" fill="#B03A3F"/>
<path d="M51.9135 67.7764C51.5907 67.7453 51.2712 67.6806 50.959 67.5831C51.2848 67.5841 51.6079 67.6496 51.9135 67.7764Z" fill="#B03A3F"/>
<path d="M45.4844 70.3379C45.5297 70.1588 45.6105 69.9937 45.7207 69.8548C45.8309 69.716 45.9677 69.6071 46.1207 69.5362L45.8598 70.252L45.4844 70.3379Z" fill="#B03A3F"/>
<path d="M45.8555 70.2891L46.67 70.0457L45.8555 70.2891Z" fill="#B03A3F"/>
<path d="M45.3906 70.4028H45.4865C45.4609 70.4389 45.4417 70.4677 45.3906 70.4028Z" fill="#B03A3F"/>
<path d="M41.4062 72.1064C42.0426 72.3068 43.3153 72.3998 42.2399 73.1729C41.7562 72.8508 42.3672 72.4141 41.4062 72.1064Z" fill="#B03A3F"/>
<path d="M45.0708 71.2694L44.0654 71.6631C44.0654 71.4985 44.1927 71.2265 43.8809 71.1334L45.0708 71.2694Z" fill="#B03A3F"/>
<path d="M45.6073 71.3262L45.0664 71.2689L45.4355 71.1186L45.6073 71.3262Z" fill="#B03A3F"/>
<path d="M50.2967 68.8428C50.8109 68.9339 51.3365 68.8973 51.8367 68.7354C51.2848 69.0386 50.707 69.2784 50.1122 69.4512C49.9913 69.2579 49.6604 68.9931 50.2967 68.8428Z" fill="#B03A3F"/>
<path d="M48.1523 69.6227H48.2546C48.2099 69.6875 48.1651 69.7164 48.1523 69.6227Z" fill="#B03A3F"/>
<path d="M57.1629 67.0388L57.1056 67.1748L57.0547 67.0818L57.1629 67.0388Z" fill="#B03A3F"/>
<path d="M50.0425 69.5585C49.8891 69.6511 49.7194 69.7042 49.5455 69.7141C49.3717 69.724 49.198 69.6904 49.0371 69.6158C49.3992 69.5801 49.7586 69.5155 50.1126 69.4225C50.1635 69.4941 50.1635 69.5514 50.0425 69.5585Z" fill="#B03A3F"/>
<path d="M53.4661 67.5973C53.2511 67.7991 53.0236 67.9833 52.7852 68.1484C52.9633 67.8979 53.3452 67.4756 53.4661 67.5973Z" fill="#B03A3F"/>
<path d="M48.3732 69.416H48.2969C48.4178 69.2371 48.4114 69.3087 48.3732 69.416Z" fill="#B03A3F"/>
<path d="M48.3744 69.4157C48.5935 69.4502 48.8075 69.5176 49.0107 69.6161C48.7524 69.641 48.4927 69.641 48.2344 69.6161C48.2884 69.5562 48.3354 69.4889 48.3744 69.4157Z" fill="#B03A3F"/>
<path d="M59.816 70.2534C59.5869 69.7381 58.2951 69.6235 57.4423 70.5469C56.3478 70.4681 56.5387 68.4568 57.1242 67.1756C57.2133 67.4046 57.2705 67.6194 58.3587 67.6051C58.0914 68.0202 56.3096 69.0366 57.2896 69.2585C58.7023 69.0867 58.3332 68.693 58.906 68.192C58.5369 69.0581 60.8787 68.6 60.866 69.6808C60.4396 69.6808 60.0132 69.7237 59.5932 69.7381C59.606 69.9027 60.1023 70.0029 59.816 70.2534Z" fill="#B03A3F"/>
<path d="M55.253 67.8614L54.8203 67.9258C55.3179 67.6349 55.7524 67.2244 56.093 66.7233C56.8439 66.7591 57.0348 66.9166 57.1303 67.0812C56.4621 67.3245 55.7939 67.5894 55.1194 67.7969L55.253 67.8614Z" fill="#B03A3F"/>
<path d="M52.9368 68.4926C53.4014 68.9936 54.4641 68.9363 54.0059 69.7666C52.7714 70.103 53.0323 69.5376 52.2368 69.5018C54.2414 69.0437 51.6005 69.3443 52.9368 68.5641C52.5663 68.5873 52.1981 68.6448 51.8359 68.7359C52.1635 68.5648 52.4803 68.3687 52.7841 68.149L52.7523 68.2062C52.6823 68.3064 52.6696 68.3566 52.7523 68.285H52.7968C52.8325 68.3607 52.8799 68.4286 52.9368 68.4854C53.4777 68.1848 52.9941 68.2993 52.7968 68.285C52.7968 68.285 52.7587 68.2349 52.7523 68.2062L54.795 67.9271C54.1959 68.1916 53.5728 68.3812 52.9368 68.4926Z" fill="#B03A3F"/>
<path d="M43.5625 74.2246C43.5795 74.2036 43.5918 74.1784 43.5985 74.1511C43.6051 74.1237 43.6059 74.0949 43.6007 74.0671C43.747 74.1172 43.7979 74.153 43.5625 74.2246Z" fill="#B03A3F"/>
<path d="M44.3216 73.6604C44.2031 73.5801 44.0698 73.5313 43.932 73.5176C43.7942 73.504 43.6554 73.5259 43.5262 73.5816C43.1507 73.8536 43.5835 73.8679 43.6026 74.0684C43.2844 73.9753 42.5144 73.8679 43.3607 73.3526L43.5198 73.4027C44.2898 72.9947 45.1807 71.9712 45.0216 71.9354C44.9106 72.5638 44.671 73.1544 44.3216 73.6604Z" fill="#B03A3F"/>
<path d="M48.7617 71.2685L50.4863 71.0968L49.7544 71.8555V71.5262C48.8126 71.9199 48.9335 71.4761 48.7617 71.2685Z" fill="#B03A3F"/>
<path d="M57.2837 66.681L56.9082 66.1299L58.0791 66.6953L57.2837 66.681Z" fill="#B03A3F"/>
<path d="M59.4141 66.0508L59.1914 65.5354L59.8341 65.6571L59.4141 66.0508Z" fill="#B03A3F"/>
<path d="M50.7089 2.83496L50.168 2.75626C50.3502 2.76218 50.5313 2.78854 50.7089 2.83496Z" fill="#B03A3F"/>
<path d="M54.4719 2.3403L54.5864 2.6123C54.3955 2.46199 54.3191 2.3403 54.4719 2.3403Z" fill="#B03A3F"/>
<path d="M102.344 36.375C102.109 35.5376 101.523 34.6214 102.07 34.8504L102.554 35.2083C102.392 35.569 102.32 35.972 102.344 36.375Z" fill="#B03A3F"/>
<path d="M84.5254 8.61817L84.7799 8.51079L85.0981 9.22656C84.9518 9.05478 84.7545 8.84006 84.5254 8.61817Z" fill="#B03A3F"/>
<path d="M84.6726 5.99842L83.6035 6.09863C83.9547 6.01435 84.3139 5.98067 84.6726 5.99842Z" fill="#B03A3F"/>
<path d="M30.4355 7.4873C30.1746 7.35131 29.9264 7.23677 29.6719 7.11509C30.5946 6.75005 30.2955 7.22963 30.4355 7.4873Z" fill="#B03A3F"/>
<path d="M80.5684 57.2397C80.9465 56.8195 81.3749 56.4605 81.8411 56.1732C81.3002 56.846 80.9438 57.619 80.5684 57.2397Z" fill="#B03A3F"/>
<path d="M52.8488 9.17676C52.537 9.10518 52.397 8.99782 52.3906 8.86183C52.7088 8.91909 52.8997 9.01214 52.8488 9.17676Z" fill="#B03A3F"/>
<path d="M83.489 55.3074C83.4126 55.4148 83.3235 55.4935 83.2471 55.5937C82.7624 55.7121 82.2938 55.9023 81.8535 56.1592C82.0427 55.8767 82.2909 55.6512 82.5763 55.5026C82.8616 55.354 83.1751 55.2869 83.489 55.3074Z" fill="#B03A3F"/>
<path d="M31.2812 58.0776C31.3385 58.0776 31.4085 58.0776 31.4658 58.0776C31.5231 58.0776 31.3831 58.1205 31.2812 58.0776Z" fill="#B03A3F"/>
<path d="M53.1408 56.2451C52.8632 56.1807 52.5828 56.1329 52.3008 56.102C52.5862 56.0917 52.8709 56.1402 53.1408 56.2451Z" fill="#B03A3F"/>
<path d="M67.7252 62.6008C67.2797 62.744 67.6361 62.5651 67.7252 62.6008V62.6008Z" fill="#B03A3F"/>
<path d="M66.3125 65.7716C66.3693 65.7801 66.4233 65.8041 66.4699 65.8415C66.5165 65.8789 66.5542 65.9287 66.5798 65.9863C66.5192 65.878 66.4232 65.8009 66.3125 65.7716Z" fill="#B03A3F"/>
<path d="M89.1974 56.4091H89.2356C89.1593 56.5737 89.172 56.5379 89.1974 56.4091Z" fill="#B03A3F"/>
<path d="M67.1543 63.1377C67.3138 62.9884 67.4841 62.8544 67.6634 62.7369C67.506 62.8893 67.3355 63.0236 67.1543 63.1377Z" fill="#B03A3F"/>
<path d="M67.1531 62.8296L66.7904 63.0371C66.7076 62.9584 66.7076 62.8797 67.1531 62.8296Z" fill="#B03A3F"/>
<path d="M68.3494 62.3794C68.1097 62.4711 67.8793 62.5911 67.6621 62.7373C67.7321 62.6586 67.7576 62.6085 67.7257 62.6013L68.3494 62.3794Z" fill="#B03A3F"/>
<path d="M2.39162 30.7426C2.39162 30.7856 2.39162 30.8357 2.39162 30.8858C1.94617 31.351 2.07981 31.1077 2.39162 30.7426Z" fill="#B03A3F"/>
<path d="M107.436 22.7045C107.436 22.7045 107.436 22.7546 107.436 22.7832L107.385 22.7045H107.436Z" fill="#B03A3F"/>
<path d="M106.889 20.4423C106.798 20.8371 106.797 21.2513 106.886 21.6466C106.975 22.0419 107.151 22.4056 107.398 22.7042C106.838 22.7042 106.246 22.7543 105.68 22.8115C106.129 22.0527 106.533 21.2613 106.889 20.4423Z" fill="#B03A3F"/>
<path d="M41.7563 4.43089L42.8636 3.57912C41.2281 3.04946 40.2099 3.62925 41.209 2.57708C41.4827 3.50758 42.6726 3.24988 43.869 3.00652C45.0654 2.76316 46.2681 2.63431 46.5035 3.57196L47.2417 3.01369C47.019 3.07811 46.9617 2.97074 46.739 3.01369C48.1772 1.79688 48.0944 4.13026 50.0672 3.57912C50.7544 3.32861 51.2126 2.97787 50.7035 2.81325L52.3262 3.07096C52.778 2.96359 52.6317 2.64865 52.1799 2.74886C52.9817 2.67012 53.7899 2.64863 54.598 2.63431V2.57708C55.0999 2.90312 55.6233 3.18548 56.1635 3.42168C56.7553 3.08527 55.8453 3.24275 55.9853 2.98507L57.3344 3.33579C57.8498 2.78465 56.698 2.39811 55.8071 2.54842C56.3671 1.52488 56.6598 1.62508 57.1244 1.83266C57.5207 2.00373 57.9445 2.08001 58.3685 2.05659C58.7925 2.03318 59.2075 1.91058 59.5871 1.69666L58.3144 1.48911C59.0971 0.365349 60.1153 0.730377 61.5598 0.000297546C61.2035 0.365334 58.6962 1.81837 60.1789 2.26214C60.4601 2.1516 60.758 2.10542 61.0553 2.12632C61.3526 2.14722 61.6431 2.23475 61.9098 2.38381C61.9098 1.66805 62.6862 1.82553 63.6471 1.91142L63.5898 0.995224C64.6398 1.28869 64.5443 1.71101 65.1489 2.17625C65.5251 2.18178 65.8935 2.05509 66.2026 1.81387C66.5118 1.57265 66.7463 1.22891 66.8734 0.830612C68.7825 0.830612 65.5371 1.86845 67.7325 2.1977C69.2916 1.99729 70.367 2.43391 72.1425 3.19263C73.2434 3.04232 72.0089 2.60572 72.4225 2.4053L73.2943 3.27851C73.5297 3.27851 73.4788 3.0638 73.4534 2.94212C74.217 3.34296 73.4152 3.85827 74.6307 4.29489C74.7325 4.82456 75.4134 4.55257 76.2534 4.29489C77.0934 4.03722 78.0861 4.00146 78.7542 4.73154C79.1742 4.56691 78.6652 4.1446 78.8434 3.82251C80.8224 5.02499 80.5679 4.73867 82.0252 6.22747L83.6033 6.07002C82.3815 6.42075 83.5588 7.60889 84.5451 8.58949C84.0933 8.79706 83.7115 8.98317 83.4697 9.05475L84.3224 9.56296L85.156 10.1284C85.4106 10.064 85.3151 9.69893 85.1179 9.22653C85.216 9.32874 85.3074 9.43879 85.3915 9.55579C86.1297 9.47706 85.9388 8.84 85.6015 8.18149C85.3342 8.27454 85.0606 8.37478 84.7997 8.48215C84.4879 7.76638 84.2015 7.05061 84.4306 6.59251C84.5883 6.7733 84.7765 6.91689 84.9842 7.01484C84.9015 6.82874 84.8569 6.67842 84.9397 6.60685C85.0224 6.53527 85.1751 6.79293 85.4169 7.12934L86.1042 6.31335V6.73568L88.7387 7.04345C89.4769 7.83079 90.0751 8.80425 90.8069 9.7419C91.616 10.7902 92.5649 11.6908 93.6196 12.4117C93.2505 11.3953 93.9251 11.2235 94.2242 10.4004C93.1614 10.88 92.2705 9.06905 90.7942 8.58949C91.5578 8.83284 91.5387 8.3676 91.3987 8.14571L93.626 10.0783C93.8296 9.36253 94.3514 9.83494 95.1151 9.90651C94.0905 10.9372 96.5978 11.746 97.3805 12.7696C97.6542 12.3974 97.6351 11.7961 96.356 11.1806C97.2532 11.0947 97.5269 11.7389 97.7496 12.3974C97.9723 13.0559 98.176 13.7144 99.0223 13.7716C98.7423 13.5569 98.5514 13.514 98.5514 13.2277C99.0287 14.0293 100.766 15.0028 100.62 14.3729L100.34 14.1438C101.605 15.0278 102.728 16.1458 103.661 17.4507C104.629 18.8249 105.08 20.2565 104.724 20.7361C105.119 20.3364 105.456 19.8704 105.723 19.3546C105.684 19.8905 105.618 20.4233 105.526 20.9508C105.458 21.4585 105.36 21.9606 105.233 22.4539C105.125 22.9389 104.994 23.4168 104.839 23.8854C104.673 24.3507 104.501 24.7873 104.323 25.2096C104.925 24.8871 105.57 24.6768 106.232 24.5869C106.951 24.3721 107.556 23.9999 107.416 22.7974C107.952 23.5818 108.23 24.5501 108.205 25.5388C107.963 25.1237 106.646 24.9233 106.71 25.4959C107.122 25.7946 107.479 26.1812 107.76 26.634L108.071 27.1851C108.218 27.4213 108.396 27.7434 108.657 28.223C108.39 27.6002 107.028 28.545 107.155 29.4684C107.365 29.2966 108.6 29.4684 108.72 29.0532C108.523 29.5113 108.275 29.948 108.052 30.3703C107.832 30.7939 107.59 31.2025 107.327 31.5942C107.607 31.0001 108.542 31.5083 108.924 32.131C108.682 31.8447 108.797 34.3714 108.498 34.9941C108.457 34.616 108.398 34.2408 108.32 33.8703C108.311 34.3891 108.18 34.896 107.939 35.3389C107.699 35.7817 107.358 36.1445 106.951 36.3898C106.616 36.6309 106.3 36.9065 106.01 37.213C105.669 37.5854 105.421 38.0519 105.29 38.5658C105.647 38.394 107.27 38.4799 106.977 39.8899L104.361 40.6987C103.814 40.8848 103.241 41.0924 102.713 41.3286C102.463 41.4397 102.221 41.5712 101.988 41.7223C101.761 41.8532 101.548 42.0116 101.351 42.1947L101.51 42.7888C101.122 43.1467 100.696 43.4616 100.295 43.7837C101.363 43.7103 102.417 43.4694 103.426 43.0679C104.57 42.647 105.653 42.0392 106.64 41.2642C106.519 42.3808 106.996 41.7867 106.29 43.2039C106.385 43.9197 107.206 42.7387 107.397 42.2878C107.2 42.8962 106.958 43.4902 106.71 44.0772C106.461 44.6641 106.194 45.2439 105.92 45.8236C105.316 45.1866 103.706 47.6775 103.21 47.019C103.706 46.6253 104.158 46.1457 104.641 45.7019C105.125 45.2582 105.545 44.7428 105.997 44.2704C105.672 43.9555 104.864 44.1201 104.03 44.5782C103.091 45.067 102.27 45.8036 101.638 46.7255C101.542 47.4413 103.07 47.4413 103.267 47.6918C102.86 47.7705 101.421 49.1233 101.415 49.4382C101.759 49.3022 102.051 49.1448 102.414 48.9873C102.077 49.5484 101.567 49.9488 100.982 50.1111C100.668 50.2202 100.382 50.4113 100.146 50.6688C99.9108 50.9263 99.7328 51.2429 99.6269 51.5927C99.2769 52.0078 99.1432 53.6899 98.7423 53.3034C98.806 51.8289 96.9223 49.1519 96.076 48.8871C96.0378 48.9802 95.7069 49.6029 95.3569 50.3186C95.0242 50.9185 94.7449 51.5538 94.5232 52.2154C94.4151 52.8167 94.9178 53.0529 95.4396 53.2533C95.9614 53.4537 96.4896 53.5968 96.3941 54.1408C96.2351 53.9476 95.6942 53.9905 95.4778 54.0192C95.1532 54.5417 96.076 54.5488 95.0578 55.193C94.4214 54.4772 93.1487 56.6961 94.1924 54.8423C93.1233 55.2932 93.2887 55.7298 92.1433 56.4599C92.2069 55.6797 90.1769 55.2789 89.1142 55.5938C89.2796 55.7799 89.2033 56.1951 89.1587 56.3883C87.2497 57.6481 86.3206 58.6358 84.4369 59.6451C84.3542 59.9528 83.5397 60.6829 84.087 60.8619C83.6532 60.7518 83.2004 60.7841 82.7824 60.9549C81.9552 62.3077 84.1379 60.4038 83.6479 61.7637C83.3615 61.2913 81.8342 61.8353 80.8733 61.9427C80.8161 61.0122 82.7379 60.7974 83.7115 60.6901C83.2597 59.5878 81.3442 59.2013 79.1806 59.6665C77.5006 60.1533 78.7733 60.7116 78.4361 60.6901C75.5406 62.3149 75.197 59.9743 73.0207 61.8711C72.2888 63.0307 73.4788 63.3026 73.4406 63.9325C74.8406 63.6104 75.2797 62.5797 76.1706 62.2075L75.2034 63.0378C75.8591 63.0861 76.5088 62.8705 77.0361 62.4294C76.4506 63.4744 72.0152 64.8916 69.8516 66.4448C69.3552 66.3804 68.5789 66.4448 68.8016 65.9939L69.5779 65.7864C70.0616 64.9131 67.9234 65.5644 68.7698 64.8988C67.6498 64.8988 66.3261 64.6841 65.0343 65.5716V66.5021C64.9898 66.2516 65.798 65.6503 66.2689 65.7505C65.5752 65.6002 64.4616 67.7261 63.488 66.8671C63.7616 66.5594 64.0289 66.2373 64.2962 65.9152C63.1698 65.9152 61.6744 65.4356 60.5098 66.1585C60.8407 65.1278 60.828 66.1585 61.4325 64.863C61.0125 66.3446 64.5825 63.6462 63.7298 65.3569C64.2898 63.8896 65.1425 64.2761 66.0207 62.866C66.0652 63.1523 65.7661 63.5818 66.7589 63.0163C66.8531 63.0792 66.9535 63.1296 67.058 63.1666L67.1216 63.1165L67.077 63.1738C67.1343 63.1738 67.1407 63.1738 67.077 63.1738C66.8987 63.3353 66.7624 63.548 66.6825 63.7894C67.4016 64.2331 69.0307 63.5102 69.6925 63.6033C70.2589 63.2167 69.3298 63.3957 69.5716 62.9662L70.5579 63.1022C70.437 62.4652 71.8307 61.4202 70.2843 61.6707C70.7107 61.4846 71.137 61.3056 71.557 61.0981C72.1946 60.3935 73.0146 59.9348 73.8988 59.7882C74.4525 59.3874 75.6616 59.7882 74.9679 59.5305L77.087 58.9436L77.0488 58.7861C78.9579 57.7984 81.4588 57.7626 83.2342 55.5652C84.1057 55.3828 84.9337 54.9976 85.6651 54.4343V53.8187C86.5624 53.5396 87.8097 51.9291 88.3888 52.2226C88.4842 51.3064 89.3624 50.6479 90.3424 50.0753C91.2681 49.606 92.1399 49.0123 92.9387 48.3073L93.3651 48.8585C94.2671 48.1246 95.2133 47.4621 96.1969 46.8758L96.5151 47.4126C97.686 46.9474 98.3287 44.8573 99.4169 43.4043C99.1687 43.3542 98.9396 43.7694 98.8505 44.1201C99.016 42.753 99.805 42.0587 100.575 41.2213C100.968 40.834 101.322 40.3995 101.631 39.9257C101.919 39.4685 102.067 38.9182 102.051 38.3582C102.195 38.2177 102.306 38.04 102.375 37.8405C102.443 37.6409 102.468 37.4256 102.446 37.213C102.435 37.2551 102.412 37.2924 102.382 37.3203L102.433 37.1199C102.433 36.8694 102.363 36.6117 102.344 36.3469C102.412 36.5618 102.454 36.7855 102.471 37.0126C102.653 36.5188 102.865 36.0404 103.108 35.581L102.567 35.173C102.581 35.1311 102.598 35.0905 102.618 35.0514C102.522 34.4573 103 34.6863 103.381 35.1015C103.53 34.8577 103.7 34.6322 103.89 34.4286C103.439 34.0851 103.598 33.7129 103.725 33.3478C103.852 32.9828 103.948 32.5319 103.458 32.174C103.719 32.0093 103.871 31.3008 104.03 30.5778C104.094 30.2236 104.196 29.8796 104.336 29.5543C104.437 29.2634 104.636 29.0292 104.89 28.9029C104.75 28.9029 104.66 28.7312 104.686 29.0532C104.588 28.7377 104.509 28.4148 104.45 28.087C104.368 27.774 104.368 27.4408 104.45 27.1278L103.642 27.0563C103.859 26.5266 104.094 25.954 104.279 25.3527C103.534 24.6942 103.19 24.5511 102.891 25.546C102.99 24.9155 102.966 24.2684 102.821 23.6492L102.707 23.0193C102.662 22.7617 102.65 22.4109 102.592 21.8956L102.223 22.2964C101.95 21.7739 101.867 20.4784 101.307 20.4927C100.518 20.3137 99.3978 19.0611 97.845 17.9016C96.2583 16.6117 94.4581 15.6918 92.5505 15.196C93.1869 14.5948 92.7287 14.5733 92.1751 14.5518C91.6214 14.5304 90.9469 14.5518 91.106 13.9148C90.7751 14.1868 90.2469 14.1868 90.6542 14.7451C90.0274 14.3267 89.3437 14.0269 88.6306 13.8576C88.3446 13.7779 88.0718 13.6474 87.8224 13.471C87.5396 13.2799 87.3001 13.0177 87.1224 12.7051C86.8106 13.0058 87.3197 13.4209 87.0779 13.5426C86.9633 13.4138 86.6388 13.0201 86.3906 13.1776C86.1424 13.335 86.5433 13.5784 86.7597 13.8432C85.0606 13.1275 85.207 11.9178 85.3851 10.7797C84.3415 10.9587 83.9215 10.7153 83.4315 9.81346C83.0179 10.0783 82.4006 10.3002 83.4888 10.7583C82.8524 10.6294 79.537 10.1499 79.6706 9.26231C79.4224 9.44841 78.7606 9.13346 78.6079 8.99031C77.6004 8.8562 76.6014 8.65061 75.617 8.37476L76.0306 8.31749C75.6361 7.08637 74.8725 7.87372 73.7397 7.55878V7.67333C72.3652 7.86658 72.0916 7.7234 71.8307 7.60173C71.6603 7.51593 71.4764 7.46967 71.2898 7.46573C70.8326 7.49857 70.3789 7.57764 69.9343 7.70194L70.1316 7.02912C70.0679 6.31335 69.457 6.44935 68.687 6.71418C67.9171 7.09366 67.064 7.20583 66.2371 7.03629L66.8098 6.65695C65.9762 6.12729 64.4043 8.60379 63.5898 8.76126C63.4116 8.88294 63.8698 8.97599 64.118 9.0762C61.9607 9.89933 63.8507 8.15288 62.2089 7.93099C61.9098 8.42487 62.5907 9.15496 61.5153 9.27663C61.248 9.48421 60.4589 9.11916 59.5425 8.81853C59.0851 8.65739 58.6136 8.5518 58.1362 8.5036C57.6903 8.47387 57.2467 8.59609 56.8635 8.85432C57.1689 8.45349 57.4998 8.05267 56.7044 7.83794C55.5208 7.83794 53.6944 9.4842 52.549 8.5036C52.4993 8.53835 52.4574 8.58549 52.4265 8.64134C52.3956 8.69719 52.3766 8.76025 52.3708 8.8257C51.4671 8.66108 49.4563 8.71118 48.8326 8.20299C48.5908 9.45558 47.1972 9.43412 45.8863 9.37685C44.5754 9.31959 43.3408 9.31956 43.5763 10.3717L40.8845 10.9229L41.0054 11.1233C39.3445 11.7532 38.6381 11.4454 37.9127 11.1233C37.5563 11.3882 37.9127 11.4955 37.9509 11.5957C37.359 11.8892 36.9009 12.1111 36.5063 12.2685C36.1738 12.4216 35.8284 12.5366 35.4754 12.6121C34.6479 12.7037 33.8132 12.67 32.9936 12.5119V13.2277C32.6997 13.2357 32.4134 13.3347 32.1664 13.514C31.7973 13.7358 31.3454 14.0651 30.83 14.3944C29.7423 15.1747 28.526 15.7005 27.2537 15.9404C27.2968 15.9991 27.3514 16.0458 27.4132 16.0768C27.475 16.1079 27.5424 16.1224 27.61 16.1194C26.1782 16.3556 24.7719 17.5079 23.5437 18.4241C22.3155 19.3403 21.2591 19.9917 20.2855 19.0898C19.6491 19.2115 19.0128 19.3331 18.3764 19.4763C20.4319 18.0448 17.5874 18.6746 18.2937 17.7728C17.3646 18.1378 16.4483 19.7912 17.5301 19.2616L17.6319 19.054C18.1092 19.5264 17.5046 20.0417 16.8428 20.5285C16.181 21.0152 15.4874 21.5234 15.7355 21.9027C13.7968 23.2212 12.0246 24.827 10.4665 26.6769C9.72093 27.5523 9.01779 28.4722 8.36013 29.4326C7.74173 30.2902 7.18223 31.1994 6.6865 32.1525C6.48923 31.8447 6.30468 31.5155 6.1265 31.1791C5.88936 31.6145 5.67682 32.0664 5.49014 32.5319C5.54742 32.9828 5.94833 33.312 6.31742 32.4245C6.4256 32.7967 6.18379 33.083 5.87833 33.312C5.65682 33.498 5.39965 33.6231 5.12743 33.6771C5.08925 34.171 5.17833 34.3929 5.29287 34.3929C5.40742 34.3929 5.54106 34.3929 5.69378 34.2425C5.97378 34.0063 6.27924 33.6628 6.22197 33.899C6.13601 34.097 6.05953 34.3001 5.99287 34.5074L5.91651 34.3356C5.69559 34.4906 5.48309 34.6603 5.28015 34.8438C5.17529 34.9719 5.1001 35.127 5.06125 35.2956C5.0224 35.4641 5.02109 35.6408 5.05742 35.8101C5.31197 36.4328 5.64289 36.0463 5.72561 36.261C5.78925 36.261 5.84015 36.3039 5.82106 36.5831C5.96851 37.0133 6.16532 37.4199 6.4065 37.7927C6.10261 37.7785 5.80033 37.7354 5.50288 37.6639C5.45197 38.5014 6.31742 39.0095 5.1847 38.8378C5.70084 38.9949 6.17776 39.284 6.57833 39.6824C7.09378 40.1261 7.71742 40.6701 8.3665 41.1926C9.63922 42.2448 11.0774 43.1896 11.5165 43.1896C12.3374 44.3134 13.4256 44.9146 14.8256 45.5516C14.4246 45.5516 13.871 46.2674 15.0992 46.7684C15.3728 44.8001 17.5555 47.112 18.9937 46.2602C18.4146 46.4821 19.2355 46.9331 19.9801 47.3912C20.7246 47.8493 21.4119 48.3002 20.5146 48.608C21.571 48.9014 20.8137 47.9709 21.7173 47.8922C23.8555 49.6387 27.1137 49.61 30.0345 50.8698C30.0345 51.1274 29.3982 51.3279 29.9646 51.9005L31.8736 51.2277C32.4336 51.5426 32.0773 52.8024 33.3754 52.2942C33.1718 52.4516 32.8663 52.6878 33.2545 52.8882C36.3727 53.2103 39.3763 54.2482 42.4754 54.9998C45.5745 55.7513 48.7435 56.281 51.9508 55.4793C51.0662 55.8587 51.6199 55.9804 52.2626 56.0734C51.8362 56.1378 52.218 56.689 52.1035 57.0254C53.0008 56.8249 53.9044 56.5744 54.7889 56.3096C55.2026 57.3188 57.5889 56.5887 57.818 57.4978L56.9908 57.2902C58.0535 58.4211 55.3044 59.5735 55.3744 60.9334C54.7762 60.2678 53.9171 60.64 52.9371 60.9334C51.9571 61.2269 50.8881 61.3987 49.9335 60.4109C49.4435 60.6328 50.2835 60.8977 50.0035 61.184C49.5326 60.5469 48.909 60.3179 47.6999 60.4038L47.8144 60.5684C44.5181 59.9171 43.029 60.2177 39.2427 59.7668L39.6372 59.1727C39.1631 59.1044 38.6814 59.1508 38.2245 59.3087C37.5054 58.0847 40.4581 59.7954 39.8345 58.4784C39.1981 59.0295 37.7854 58.7146 36.4363 58.3853C35.0872 58.0561 33.77 57.7554 33.2545 58.3853C32.0391 58.0274 33.7827 57.734 32.5736 57.3761L32.16 57.6839L31.9818 57.0683C31.7175 56.9727 31.4327 56.9769 31.1708 57.0803C30.9089 57.1837 30.6841 57.3806 30.5309 57.6409C30.7831 57.7255 31.0247 57.8457 31.25 57.9988C30.0918 58.1778 28.4055 56.8751 28.0109 56.9252L29.2327 57.0683C26.0509 55.6368 21.9464 54.6132 19.1719 52.423L19.5091 52.2226C18.8915 51.7002 18.1751 51.3451 17.4155 51.1847C16.5939 51.0434 15.8048 50.7225 15.0928 50.2399L15.1565 50.3544C14.6983 49.7557 14.1142 49.2956 13.4574 49.0159C13.9537 49.6816 11.9937 49.066 12.6683 49.8677C10.4537 47.9709 11.6374 48.7583 10.4919 46.8257L9.90648 47.0905C9.63704 46.2828 9.11728 45.6118 8.44286 45.2009C9.25104 46.2459 7.28469 45.387 8.16286 46.6325C6.91779 46.3417 5.81454 45.5374 5.07016 44.3778C4.4338 43.4974 4.00108 42.8174 2.90017 42.6957C2.90017 41.5219 3.49834 42.0802 4.08379 42.6528C4.66924 43.2254 5.27379 43.9125 5.05742 43.4974C5.45197 43.569 5.37561 43.1323 5.12743 42.617C4.85991 42.0606 4.52352 41.5497 4.12834 41.0996C3.81016 40.6844 3.21835 40.6129 2.51835 40.1906C2.01913 39.8991 1.58929 39.4772 1.26488 38.9604C0.940466 38.4436 0.730936 37.8468 0.653824 37.2201C0.730187 37.5637 0.653809 37.6067 0.717445 37.9359C0.452493 37.3179 0.361489 36.6238 0.456554 35.9461C0.564399 35.2018 0.564399 34.4428 0.456554 33.6986C0.791121 33.3824 1.01635 32.9442 1.09291 32.4603C1.21382 32.0738 1.34745 31.7445 1.8629 31.8662C1.47972 32.7413 1.21176 33.6744 1.06745 34.6362C1.32526 33.7996 1.7275 33.0285 2.25107 32.3672C2.82756 31.5937 3.26032 30.6981 3.52379 29.7332C3.08158 29.9266 2.68673 30.2358 2.37198 30.6351C2.41017 29.8048 3.13561 29.5042 3.24379 28.7097C2.77925 28.4806 2.30836 29.1177 1.8629 30.0482C1.44003 31.0663 0.968435 32.0579 0.450185 33.0186C0.33564 32.5032 0.742898 31.6586 1.05471 31.1218C1.36653 30.585 1.53836 30.2128 0.870184 30.406C1.74836 30.1197 2.00925 29.4469 2.34652 28.6739C2.48649 28.2269 2.70918 27.8184 2.99988 27.4754C3.29057 27.1324 3.64267 26.8627 4.03289 26.6841L3.49198 26.3548C3.90933 26.1374 4.29372 25.8475 4.63107 25.4959L3.4538 25.6748C4.0694 25.3103 4.5498 24.7116 4.80925 23.9856C5.06502 23.2729 5.50931 22.6657 6.08197 22.2463C5.0638 23.3128 5.10197 23.5991 5.29924 23.7494C5.49651 23.8997 5.87833 23.9498 5.63651 24.5797C7.08741 23.5705 7.16377 22.9263 7.25922 22.1318C7.35468 21.3373 7.4565 20.4354 9.05376 19.2687C8.58286 19.5336 7.78105 20.9293 8.56377 20.6072C9.07886 20.0077 9.5082 19.3219 9.83649 18.5744C11.9301 17.0713 9.88741 19.3904 10.9565 19.0469C11.2238 17.8372 12.1147 18.553 13.1201 18.1521L12.8019 17.5652C13.8647 16.5417 14.2019 16.7779 14.4756 16.9854C14.7492 17.193 15.0037 17.4221 15.9455 16.5273L14.6283 16.2625L15.8501 15.7686L15.2837 15.2318C16.7664 14.9813 17.0783 14.6306 18.211 13.743C18.1219 14.3371 18.8473 14.7809 19.9355 14.2226C20.5146 13.471 19.2992 13.8432 20.8392 13.1346C20.3364 12.9199 19.751 12.6264 19.3246 13.5569C19.1719 13.3923 18.8155 13.3565 18.6883 13.1919C19.3246 12.3258 20.6546 12.0323 21.2337 11.7603C21.0278 11.8707 20.8421 12.0237 20.6864 12.2113C21.5519 12.1182 22.411 12.0466 23.2764 11.9965C23.5373 11.5886 23.1873 11.5313 22.8309 11.474C23.37 11.4282 23.9057 11.3422 24.4346 11.2164C24.0655 10.7798 23.9128 10.2214 22.8628 10.429L25.2364 9.9924C25.3 9.69894 26.1273 8.84718 25.7773 8.78992C26.91 7.97395 29.1118 8.56085 30.6009 7.50867C30.8198 7.60444 31.0591 7.62439 31.2882 7.56594C32.0391 7.22953 32.7073 6.77861 33.4454 6.41357C34.2383 5.99012 35.1158 5.80752 35.9909 5.88391L36.8054 4.59554C38.3072 4.37366 35.6854 6.24895 38.1736 5.88391C39.9427 5.67634 38.619 4.86036 39.1599 4.40228C40.1336 4.65995 41.8136 5.30412 43.239 4.10878C42.7359 4.1557 42.2388 4.2637 41.7563 4.43089ZM60.1153 2.28359C59.7526 2.1476 59.0207 1.72529 58.7726 2.14043C59.2116 2.89914 59.5107 2.51266 60.1153 2.2693V2.28359ZM87.4342 8.3032C87.2497 7.98827 86.7979 7.95245 86.3206 8.0455C86.6683 8.22861 87.0508 8.31224 87.4342 8.28888V8.3032ZM72.6897 61.0337H72.7343C73.3516 60.5183 73.1352 60.733 72.6897 61.0337ZM71.3152 61.9713C71.137 61.9713 71.1179 61.8568 71.1498 61.7351C71.3089 61.8568 71.6398 61.7351 72.0025 61.5061C71.9579 61.7494 71.7988 61.9641 71.3152 62.0071V61.9713ZM5.57924 36.44L5.36923 36.261C5.31196 36.8408 5.43288 36.6547 5.57924 36.4757V36.44Z" fill="#B03A3F"/>
<path d="M84.6663 6.30615C84.5583 6.37809 84.4753 6.48914 84.4308 6.62109C84.3226 6.47078 84.3481 6.34194 84.6663 6.30615Z" fill="#B03A3F"/>
<path d="M30.5951 7.55957C30.5951 7.55957 30.5569 7.55957 30.5442 7.55957C30.5069 7.53589 30.4761 7.50129 30.4551 7.4594L30.5951 7.55957Z" fill="#B03A3F"/>
<path d="M96.0703 54.8848C96.2456 54.6866 96.3707 54.4396 96.433 54.169C96.5348 54.2764 96.4903 54.5126 96.0703 54.8848Z" fill="#B03A3F"/>
<path d="M63.0879 64.1044L64.0933 63.9039C63.7871 63.999 63.5112 64.1902 63.2979 64.4551C63.2724 64.2905 63.387 64.0042 63.0879 64.1044Z" fill="#B03A3F"/>
<path d="M55.7434 71.1189C55.578 71.1189 55.438 71.2048 55.2726 71.169L55.2344 70.8469C55.8898 70.6751 56.3543 70.7896 55.7434 71.1189Z" fill="#B03A3F"/>
<path d="M62.8317 66.6095C62.9144 67.1892 62.2526 67.2179 61.559 67.3682C61.6004 67.3582 61.6409 67.3438 61.6799 67.3252C61.2408 66.6238 62.0363 66.6166 62.8317 66.6095Z" fill="#B03A3F"/>
<path d="M61.3816 67.4044C61.163 67.4488 60.9495 67.5209 60.7453 67.6191C60.5798 67.34 60.9807 67.476 61.3816 67.4044Z" fill="#B03A3F"/>
<path d="M69.3112 62.465C69.0439 62.737 68.8848 61.8495 68.783 62.1501C68.1976 61.5846 71.163 62.0785 69.3112 62.465Z" fill="#B03A3F"/>
<path d="M62.8066 68.6279L62.8575 67.8549L63.3984 68.2629L62.8066 68.6279Z" fill="#B03A3F"/>
<path d="M68.044 66.0446L67.0131 66.6602C67.0131 66.5385 66.8413 66.5313 66.6504 66.5457C67.344 66.2737 67.9804 65.8514 68.044 66.0446Z" fill="#B03A3F"/>
<path d="M66.6497 66.56C66.3673 66.7106 66.0587 66.7888 65.7461 66.7891C66.0405 66.682 66.343 66.6053 66.6497 66.56Z" fill="#B03A3F"/>
<path d="M64.373 68.2842L64.653 68.0193L65.404 67.6686L64.373 68.2842Z" fill="#B03A3F"/>
<path d="M79.474 60.7832C79.8877 60.6687 80.2949 60.5398 80.6958 60.4038C80.9058 60.5684 80.6449 60.8691 80.1867 60.9908C79.8495 60.9693 79.3849 61.091 79.474 60.7832Z" fill="#B03A3F"/>
<path d="M76.6543 64.2754C76.9216 63.9963 76.8834 63.8317 76.9852 63.5597L77.3225 64.3613L76.6543 64.2754Z" fill="#B03A3F"/>
<path d="M80.1225 62.8382C80.3261 63.0099 82.0697 62.6664 80.5743 63.332C80.3643 63.1817 79.1234 63.5396 80.1225 62.8382Z" fill="#B03A3F"/>
<path d="M96.4063 51.5861L96.1454 51.8008L95.3945 50.6055L96.4063 51.5861Z" fill="#B03A3F"/>
<path d="M109 37.2127C108.93 38.2076 108.694 38.2506 108.491 38.2721C108.287 38.2935 108.09 38.2721 108.032 39.1811C107.619 39.4889 108.128 37.7495 107.746 38.086C108.351 37.1125 108.287 36.4469 109 37.2127Z" fill="#B03A3F"/>
<path d="M107.746 38.0862C107.64 38.2526 107.523 38.4104 107.396 38.5586C107.494 38.3843 107.612 38.2255 107.746 38.0862Z" fill="#B03A3F"/>
<path d="M56.6152 55.7582L57.5634 55.5149L56.9398 55.9658L56.6152 55.7582Z" fill="#B03A3F"/>
<path d="M58.3594 56.9473L58.6203 56.0382L59.1484 56.9115C58.9385 56.8542 58.5312 56.7397 58.3594 56.9473Z" fill="#B03A3F"/>
<path d="M62.8906 0.330048L62.967 0.559096C62.8079 0.795297 62.5725 0.795278 62.1016 0.852539C62.3434 0.666441 62.6043 0.494673 62.8906 0.330048Z" fill="#B03A3F"/>
<path d="M49.3552 2.11145L49.5843 2.06135L49.2598 2.95605L49.3552 2.11145Z" fill="#B03A3F"/>
<path d="M38.0078 3.57829C38.4533 3.41366 39.0196 3.42083 39.4651 3.27768C38.4405 3.38504 38.1224 4.63762 38.0078 3.57829Z" fill="#B03A3F"/>
</svg>
