<svg width="102" height="76" viewBox="0 0 102 76" fill="none" xmlns="http://www.w3.org/2000/svg">
<path d="M17.4952 1.07354C17.1089 0.980494 17.2099 1.58889 17.1445 1.69626C17.8043 1.62468 17.4893 0.916075 17.4952 1.07354Z" fill="#B03A3F"/>
<path d="M24.0625 0.443556L23.9258 0.672601L24.9422 0.200195L24.0625 0.443556Z" fill="#B03A3F"/>
<path d="M30.1075 1.40296C29.6617 0.272049 27.9023 1.18823 26.8681 0.687193L26.7135 0.422363L26.1191 1.13813C27.4565 1.22402 29.21 0.930553 30.1075 1.40296Z" fill="#B03A3F"/>
<path d="M33.0141 4.22328C32.8774 3.79382 33.7512 4.01571 32.2949 3.95129C32.3364 3.98915 32.3761 4.02978 32.4138 4.07298C32.6174 4.10007 32.8184 4.15039 33.0141 4.22328Z" fill="#B03A3F"/>
<path d="M32.4132 4.03711C31.7832 3.95122 32.7817 4.4451 32.4132 4.03711V4.03711Z" fill="#B03A3F"/>
<path d="M35.3386 4.42334L34.4648 4.59512C34.6016 4.86711 35.3267 5.07468 35.0592 5.18205C35.8973 5.17489 35.7487 4.93869 35.3386 4.42334Z" fill="#B03A3F"/>
<path d="M36.2369 3.85791L35.7852 3.91518C35.8446 4.02971 35.9516 4.08696 36.2369 3.85791Z" fill="#B03A3F"/>
<path d="M34.8281 4.02953L35.7851 3.91501C35.69 3.72175 35.7256 3.39966 35.3512 3.91501C35.4701 3.65733 35.2442 3.9007 34.8281 4.02953Z" fill="#B03A3F"/>
<path d="M34.3353 3.77217C33.9073 3.45008 33.3248 3.18524 34.2045 3.01346C32.5997 2.79157 32.7364 3.57176 34.3353 3.77217Z" fill="#B03A3F"/>
<path d="M30.5482 0.415134L29.9538 0L29.3594 0.236193C29.6625 0.121671 30.5482 0.737229 30.5482 0.415134Z" fill="#B03A3F"/>
<path d="M40.3674 6.14844C40.4565 5.94803 40.195 5.5114 40.1772 5.2251L39.5293 5.31815C39.8146 5.5472 40.3852 5.81919 40.3674 6.14844Z" fill="#B03A3F"/>
<path d="M40.1763 5.22516L41.1511 5.09633C40.3487 4.8315 40.1644 4.9818 40.1763 5.22516Z" fill="#B03A3F"/>
<path d="M36.5524 2.77734L34.9297 3.22112L36.8496 2.82745L36.5524 2.77734Z" fill="#B03A3F"/>
<path d="M43.8016 7.10751L43.1953 7.45823L44.2474 6.96436L43.8016 7.10751Z" fill="#B03A3F"/>
<path d="M46.0916 7.69434C45.634 7.98064 46.4661 8.53179 46.0144 8.66063C46.6167 8.724 47.2235 8.63875 47.7975 8.4101C47.1772 8.41697 46.5741 8.16394 46.0916 7.69434Z" fill="#B03A3F"/>
<path d="M48.6767 8.2168C48.3752 8.24787 48.0767 8.31258 47.7852 8.41007C48.0895 8.40904 48.3912 8.34361 48.6767 8.2168Z" fill="#B03A3F"/>
<path d="M42.6738 5.65479C42.7161 5.83383 42.7916 5.99898 42.8945 6.13783C42.9975 6.27668 43.1253 6.38562 43.2682 6.45644L43.0245 5.74067L42.6738 5.65479Z" fill="#B03A3F"/>
<path d="M43.0176 5.70459L43.7784 5.94795L43.0176 5.70459Z" fill="#B03A3F"/>
<path d="M42.584 5.59032H42.6735C42.6496 5.5543 42.6317 5.52548 42.584 5.59032Z" fill="#B03A3F"/>
<path d="M38.8633 3.8868C39.4577 3.68638 40.6465 3.59334 39.6419 2.82031C39.1902 3.14241 39.7608 3.57902 38.8633 3.8868Z" fill="#B03A3F"/>
<path d="M42.2873 4.72376L41.3482 4.33008C41.3482 4.4947 41.467 4.76671 41.1758 4.85976L42.2873 4.72376Z" fill="#B03A3F"/>
<path d="M42.7865 4.66699L42.2812 4.72425L42.626 4.87456L42.7865 4.66699Z" fill="#B03A3F"/>
<path d="M47.1663 7.1504C47.6465 7.05926 48.1375 7.0959 48.6047 7.25776C48.0892 6.95453 47.5495 6.71473 46.9939 6.54199C46.881 6.73525 46.5719 7.00009 47.1663 7.1504Z" fill="#B03A3F"/>
<path d="M45.1641 6.37047H45.2596C45.2178 6.30563 45.176 6.27681 45.1641 6.37047Z" fill="#B03A3F"/>
<path d="M53.5815 8.95433L53.528 8.81836L53.4805 8.91139L53.5815 8.95433Z" fill="#B03A3F"/>
<path d="M46.9294 6.43465C46.7861 6.34209 46.6275 6.28894 46.4651 6.27904C46.3027 6.26914 46.1406 6.30274 45.9902 6.3774C46.3285 6.41309 46.6641 6.47766 46.9948 6.57065C47.0423 6.49907 47.0423 6.44181 46.9294 6.43465Z" fill="#B03A3F"/>
<path d="M50.1262 8.39586C49.9255 8.19407 49.7129 8.00989 49.4902 7.84473C49.6567 8.09525 50.0133 8.51754 50.1262 8.39586Z" fill="#B03A3F"/>
<path d="M45.3721 6.57764H45.3008C45.4137 6.75658 45.4078 6.685 45.3721 6.57764Z" fill="#B03A3F"/>
<path d="M45.373 6.57796C45.5776 6.54344 45.7775 6.47604 45.9673 6.37755C45.7261 6.35267 45.4835 6.35267 45.2422 6.37755C45.2926 6.43743 45.3366 6.50477 45.373 6.57796Z" fill="#B03A3F"/>
<path d="M56.0585 5.74024C55.8445 6.2556 54.6379 6.37011 53.8414 5.44678C52.8191 5.52551 52.9974 7.53683 53.5442 8.81805C53.6274 8.589 53.6809 8.37427 54.6973 8.38859C54.4477 7.97344 52.7834 6.95706 53.6988 6.73517C55.0183 6.90695 54.6735 7.30062 55.2085 7.80165C54.8638 6.93558 57.0511 7.39368 57.0392 6.31287C56.641 6.31287 56.2428 6.26991 55.8505 6.2556C55.8623 6.09097 56.326 5.99076 56.0585 5.74024Z" fill="#B03A3F"/>
<path d="M51.7968 8.13131L51.3926 8.06689C51.8574 8.35774 52.2632 8.76829 52.5814 9.26938C53.2827 9.23359 53.4611 9.07612 53.5502 8.91149C52.9261 8.66813 52.302 8.4033 51.6719 8.19573L51.7968 8.13131Z" fill="#B03A3F"/>
<path d="M49.6338 7.50109C50.0677 7.00005 51.0603 7.05731 50.6323 6.22703C49.4792 5.89062 49.7229 6.45609 48.9799 6.49188C50.8523 6.94997 48.3855 6.64935 49.6338 7.42953C49.2877 7.40636 48.9437 7.34889 48.6055 7.25773C48.9115 7.42882 49.2074 7.62492 49.4911 7.84466L49.4614 7.78741C49.396 7.68721 49.3841 7.63709 49.4614 7.70867H49.503C49.5363 7.63298 49.5806 7.5651 49.6338 7.50825C50.139 7.80887 49.6873 7.69435 49.503 7.70867C49.503 7.70867 49.4673 7.75878 49.4614 7.78741L51.3694 8.06655C50.8098 7.8021 50.2277 7.61247 49.6338 7.50109Z" fill="#B03A3F"/>
<path d="M40.8789 1.76807C40.8948 1.78903 40.9063 1.81423 40.9125 1.84161C40.9187 1.86899 40.9194 1.89776 40.9146 1.92554C41.0513 1.87543 41.0988 1.83964 40.8789 1.76807Z" fill="#B03A3F"/>
<path d="M41.5864 2.33326C41.4757 2.41355 41.3512 2.46237 41.2225 2.47601C41.0938 2.48965 40.9641 2.46777 40.8435 2.41201C40.4928 2.14002 40.897 2.12571 40.9148 1.92529C40.6176 2.01834 39.8984 2.12571 40.6889 2.64106L40.8375 2.59095C41.5567 2.99894 42.3889 4.02247 42.2403 4.05826C42.1366 3.4299 41.9127 2.83928 41.5864 2.33326Z" fill="#B03A3F"/>
<path d="M45.7344 4.72414L47.3452 4.89592L46.6616 4.13721V4.46645C45.7819 4.07278 45.8949 4.51657 45.7344 4.72414Z" fill="#B03A3F"/>
<path d="M53.6944 9.31217L53.3438 9.86331L54.4374 9.29785L53.6944 9.31217Z" fill="#B03A3F"/>
<path d="M55.6846 9.94189L55.4766 10.4572L56.0769 10.3356L55.6846 9.94189Z" fill="#B03A3F"/>
<path d="M47.5521 73.1582L47.0469 73.2369C47.217 73.231 47.3863 73.2046 47.5521 73.1582Z" fill="#B03A3F"/>
<path d="M51.0661 73.6529L51.1731 73.3809C50.9948 73.5312 50.9235 73.6529 51.0661 73.6529Z" fill="#B03A3F"/>
<path d="M95.7818 39.6177C95.5619 40.4551 95.0151 41.3713 95.5262 41.1422L95.978 40.7844C95.827 40.4236 95.7592 40.0207 95.7818 39.6177Z" fill="#B03A3F"/>
<path d="M79.1387 67.375L79.3764 67.4824L79.6736 66.7666C79.5369 66.9384 79.3527 67.1531 79.1387 67.375Z" fill="#B03A3F"/>
<path d="M79.2759 69.9947L78.2773 69.8945C78.6053 69.9788 78.9409 70.0125 79.2759 69.9947Z" fill="#B03A3F"/>
<path d="M28.6156 68.5059C28.3719 68.6419 28.1401 68.7564 27.9023 68.8781C28.7642 69.2431 28.4849 68.7635 28.6156 68.5059Z" fill="#B03A3F"/>
<path d="M75.4414 18.753C75.7946 19.1732 76.1947 19.5322 76.6302 19.8195C76.125 19.1467 75.7921 18.3736 75.4414 18.753Z" fill="#B03A3F"/>
<path d="M49.551 66.8169C49.2598 66.8885 49.129 66.9958 49.123 67.1318C49.4202 67.0746 49.5986 66.9815 49.551 66.8169Z" fill="#B03A3F"/>
<path d="M78.1702 20.6857C78.0988 20.5784 78.0156 20.4997 77.9443 20.3994C77.4915 20.2811 77.0538 20.0909 76.6426 19.834C76.8193 20.1165 77.0512 20.342 77.3176 20.4906C77.5841 20.6392 77.877 20.7062 78.1702 20.6857Z" fill="#B03A3F"/>
<path d="M29.4062 17.9156C29.4597 17.9156 29.5251 17.9156 29.5786 17.9156C29.6321 17.9156 29.5014 17.8726 29.4062 17.9156Z" fill="#B03A3F"/>
<path d="M49.8237 19.748C49.5644 19.8124 49.3025 19.8602 49.0391 19.8912C49.3057 19.9015 49.5716 19.853 49.8237 19.748Z" fill="#B03A3F"/>
<path d="M63.447 13.3923C63.031 13.2492 63.3638 13.4281 63.447 13.3923V13.3923Z" fill="#B03A3F"/>
<path d="M62.127 10.2211C62.18 10.2126 62.2305 10.1886 62.274 10.1512C62.3175 10.1137 62.3527 10.064 62.3766 10.0063C62.32 10.1147 62.2304 10.1918 62.127 10.2211Z" fill="#B03A3F"/>
<path d="M83.5028 19.5836H83.5384C83.4671 19.419 83.479 19.4548 83.5028 19.5836Z" fill="#B03A3F"/>
<path d="M62.9121 12.8555C63.0611 13.0047 63.2202 13.1388 63.3876 13.2563C63.2406 13.1039 63.0813 12.9696 62.9121 12.8555Z" fill="#B03A3F"/>
<path d="M62.9135 13.1631L62.5747 12.9556C62.4974 13.0343 62.4974 13.113 62.9135 13.1631Z" fill="#B03A3F"/>
<path d="M64.0306 13.6137C63.8067 13.522 63.5916 13.4021 63.3887 13.2559C63.4541 13.3346 63.4778 13.3847 63.4481 13.3919L64.0306 13.6137Z" fill="#B03A3F"/>
<path d="M2.42158 45.2505C2.42158 45.2076 2.42158 45.1575 2.42158 45.1074C2.0055 44.6421 2.13033 44.8855 2.42158 45.2505Z" fill="#B03A3F"/>
<path d="M100.539 53.2887C100.539 53.2887 100.539 53.2386 100.539 53.21L100.49 53.2887H100.539Z" fill="#B03A3F"/>
<path d="M100.026 55.5508C99.9409 55.1561 99.9399 54.7419 100.023 54.3466C100.106 53.9512 100.271 53.5875 100.501 53.289C99.9783 53.289 99.4255 53.2389 98.8965 53.1816C99.316 53.9404 99.6933 54.7319 100.026 55.5508Z" fill="#B03A3F"/>
<path d="M39.1903 71.5623L40.2245 72.414C38.6969 72.9437 37.7459 72.3639 38.6791 73.4161C38.9347 72.4856 40.0462 72.7433 41.1636 72.9866C42.2811 73.23 43.4045 73.3589 43.6244 72.4212L44.3139 72.9795C44.1059 72.9151 44.0524 73.0224 43.8443 72.9795C45.1876 74.1963 45.1104 71.8629 46.953 72.414C47.5949 72.6646 48.0229 73.0153 47.5474 73.1799L49.0631 72.9222C49.4851 73.0296 49.3484 73.3445 48.9264 73.2443C49.6753 73.323 50.4302 73.3445 51.1851 73.3589V73.4161C51.6538 73.09 52.1427 72.8077 52.6472 72.5715C53.2 72.9079 52.3501 72.7504 52.4808 73.0081L53.7409 72.6574C54.2224 73.2085 53.1465 73.5951 52.3144 73.4447C52.8375 74.4683 53.1109 74.3681 53.5448 74.1605C53.915 73.9894 54.3108 73.9132 54.7068 73.9366C55.1029 73.96 55.4906 74.0826 55.8451 74.2965L54.6563 74.5041C55.3874 75.6278 56.3384 75.2628 57.6877 75.9929C57.3548 75.6278 55.0129 74.1748 56.3979 73.731C56.6605 73.8416 56.9388 73.8877 57.2164 73.8668C57.4941 73.8459 57.7655 73.7584 58.0146 73.6094C58.0146 74.3251 58.7398 74.1676 59.6373 74.0817L59.5838 74.9979C60.5645 74.7045 60.4754 74.2822 61.04 73.8169C61.3914 73.8114 61.7355 73.9381 62.0243 74.1793C62.313 74.4205 62.5321 74.7643 62.6509 75.1626C64.434 75.1626 61.4026 74.1247 63.4533 73.7955C64.9095 73.9959 65.9141 73.5592 67.5724 72.8005C68.6007 72.9508 67.4476 73.3874 67.8339 73.5879L68.6483 72.7146C68.8682 72.7146 68.8206 72.9294 68.7969 73.051C69.5101 72.6502 68.7612 72.1349 69.8965 71.6983C69.9916 71.1686 70.6276 71.4406 71.4122 71.6983C72.1968 71.9559 73.124 71.9917 73.7481 71.2616C74.1404 71.4263 73.6649 71.8486 73.8313 72.1707C75.6799 70.9682 75.4421 71.2545 76.8033 69.7657L78.2774 69.9231C77.1361 69.5724 78.2358 68.3843 79.1571 67.4037C78.7351 67.1961 78.3784 67.01 78.1526 66.9384L78.949 66.4302L79.7277 65.8648C79.9654 65.9292 79.8763 66.2942 79.692 66.7666C79.7837 66.6644 79.8691 66.5544 79.9476 66.4374C80.6371 66.5161 80.4588 67.1532 80.1438 67.8117C79.8941 67.7186 79.6385 67.6184 79.3948 67.511C79.1036 68.2268 78.8361 68.9426 79.0501 69.4007C79.1974 69.2199 79.3732 69.0763 79.5672 68.9783C79.4899 69.1644 79.4483 69.3147 79.5256 69.3863C79.6029 69.4579 79.7455 69.2002 79.9714 68.8638L80.6133 69.6798V69.2575L83.0741 68.9497C83.7636 68.1624 84.3223 67.1889 85.0059 66.2513C85.7616 65.203 86.6479 64.3023 87.6331 63.5815C87.2884 64.5979 87.9184 64.7696 88.1978 65.5928C87.2051 65.1132 86.373 66.9241 84.994 67.4037C85.7073 67.1603 85.6894 67.6256 85.5587 67.8475L87.639 65.9149C87.8292 66.6306 88.3167 66.1582 89.0299 66.0867C88.073 65.0559 90.4148 64.2471 91.146 63.2236C91.4015 63.5958 91.3837 64.1971 90.189 64.8126C91.0271 64.8985 91.2827 64.2543 91.4907 63.5958C91.6987 62.9373 91.8889 62.2788 92.6795 62.2215C92.4179 62.4363 92.2396 62.4792 92.2396 62.7655C92.6854 61.9638 94.3081 60.9904 94.1714 61.6203L93.9099 61.8493C95.0914 60.9654 96.1404 59.8474 97.0126 58.5425C97.9161 57.1682 98.3381 55.7367 98.0052 55.2571C98.3737 55.6567 98.6885 56.1227 98.9384 56.6385C98.9021 56.1027 98.8406 55.5698 98.7541 55.0424C98.6905 54.5347 98.5992 54.0325 98.4807 53.5393C98.3799 53.0543 98.2569 52.5764 98.1122 52.1077C97.9577 51.6425 97.7972 51.2059 97.6307 50.7836C98.1932 51.106 98.7954 51.3163 99.4139 51.4063C100.086 51.621 100.65 51.9932 100.519 53.1957C101.02 52.4114 101.28 51.4431 101.257 50.4543C101.031 50.8695 99.8003 51.0699 99.8597 50.4973C100.245 50.1986 100.578 49.812 100.84 49.3592L101.132 48.8081C101.268 48.5719 101.435 48.2498 101.679 47.7702C101.429 48.3929 100.157 47.4481 100.276 46.5248C100.472 46.6966 101.625 46.5248 101.738 46.9399C101.554 46.4818 101.322 46.0452 101.114 45.6229C100.908 45.1993 100.682 44.7906 100.436 44.399C100.698 44.993 101.572 44.4848 101.928 43.8621C101.702 44.1484 101.809 41.6218 101.53 40.9991C101.492 41.3772 101.437 41.7524 101.364 42.1228C101.356 41.604 101.233 41.0971 101.008 40.6543C100.784 40.2115 100.465 39.8487 100.086 39.6033C99.7719 39.3622 99.4774 39.0867 99.2059 38.7802C98.8876 38.4077 98.656 37.9413 98.5342 37.4274C98.8671 37.5992 100.383 37.5133 100.109 36.1032L97.6664 35.2944C97.1552 35.1083 96.6203 34.9007 96.1269 34.6645C95.8933 34.5535 95.6669 34.4219 95.4493 34.2709C95.2375 34.1399 95.0382 33.9815 94.8549 33.7985L95.0035 33.2044C94.641 32.8465 94.2427 32.5316 93.8683 32.2095C94.866 32.2828 95.8503 32.5238 96.7927 32.9252C97.8612 33.3462 98.8725 33.9539 99.7943 34.729C99.6814 33.6124 100.127 34.2065 99.4674 32.7892C99.5566 32.0735 100.323 33.2545 100.502 33.7054C100.317 33.097 100.092 32.5029 99.8597 31.916C99.6279 31.3291 99.3783 30.7493 99.1227 30.1695C98.558 30.8066 97.0542 28.3157 96.5906 28.9742C97.0542 29.3679 97.4762 29.8474 97.9279 30.2912C98.3797 30.735 98.772 31.2503 99.194 31.7228C98.8909 32.0377 98.136 31.873 97.3573 31.415C96.4797 30.9261 95.7131 30.1895 95.1224 29.2677C95.0333 28.5519 96.4598 28.5519 96.6441 28.3014C96.2637 28.2227 94.9203 26.8699 94.9144 26.5549C95.2354 26.6909 95.5088 26.8484 95.8476 27.0058C95.5327 26.4447 95.0562 26.0443 94.5102 25.8821C94.217 25.773 93.9495 25.5819 93.7294 25.3244C93.5094 25.0668 93.3431 24.7502 93.2441 24.4005C92.9172 23.9853 92.7924 22.3033 92.4179 22.6898C92.4774 24.1642 90.718 26.8412 89.9274 27.1061C89.8918 27.013 89.5827 26.3903 89.2558 25.6745C88.945 25.0747 88.6842 24.4393 88.4771 23.7777C88.3761 23.1765 88.8456 22.9403 89.333 22.7399C89.8204 22.5395 90.3138 22.3963 90.2246 21.8523C90.076 22.0456 89.5708 22.0026 89.3687 21.974C89.0656 21.4515 89.9274 21.4443 88.9764 20.8002C88.382 21.5159 87.1932 19.297 88.168 21.1509C87.1695 20.6999 87.324 20.2633 86.2541 19.5333C86.3135 20.3134 84.4174 20.7143 83.4248 20.3993C83.5793 20.2132 83.508 19.7981 83.4664 19.6048C81.6832 18.3451 80.8154 17.3573 79.056 16.3481C78.9788 16.0403 78.2179 15.3102 78.7291 15.1313C78.3239 15.2414 77.901 15.2091 77.5106 15.0382C76.7379 13.6854 78.7767 15.5894 78.319 14.2294C78.0515 14.7018 76.625 14.1579 75.7274 14.0505C75.674 14.981 77.469 15.1957 78.3784 15.3031C77.9564 16.4054 76.1673 16.7919 74.1464 16.3266C72.5772 15.8399 73.766 15.2816 73.4509 15.3031C70.7464 13.6783 70.4255 16.0188 68.3927 14.1221C67.7091 12.9625 68.8206 12.6905 68.785 12.0607C70.0926 12.3828 70.5027 13.4134 71.3349 13.7856L70.4314 12.9554C71.0439 12.9071 71.6507 13.1227 72.1433 13.5638C71.5964 12.5187 67.4535 11.1015 65.4326 9.54832C64.969 9.61274 64.2438 9.54832 64.4519 9.99926L65.177 10.2068C65.6288 11.08 63.6316 10.4287 64.4221 11.0944C63.376 11.0944 62.1397 11.3091 60.9331 10.4216V9.49105C60.8914 9.74157 61.6463 10.3428 62.0862 10.2426C61.4383 10.3929 60.3981 8.2671 59.4887 9.12602C59.7443 9.4338 59.9939 9.75589 60.2436 10.078C59.1915 10.078 57.7947 10.5575 56.7069 9.83462C57.016 10.8653 57.0041 9.83462 57.5688 11.1302C57.1765 9.64852 60.511 12.347 59.7146 10.6363C60.2376 12.1036 61.0341 11.7171 61.8544 13.1271C61.896 12.8408 61.6166 12.4114 62.5438 12.9768C62.6319 12.914 62.7256 12.8635 62.8232 12.8265L62.8827 12.8766L62.841 12.8194C62.8945 12.8194 62.9005 12.8194 62.841 12.8194C62.6745 12.6578 62.5471 12.4452 62.4725 12.2038C63.1442 11.76 64.6658 12.483 65.284 12.3899C65.813 12.7764 64.9452 12.5975 65.1711 13.0269L66.0924 12.8909C65.9794 13.528 67.2812 14.573 65.8368 14.3225C66.235 14.5086 66.6333 14.6875 67.0256 14.8951C67.6211 15.5997 68.387 16.0583 69.2129 16.2049C69.73 16.6058 70.8594 16.2049 70.2115 16.4626L72.1908 17.0496L72.1552 17.207C73.9383 18.1948 76.2743 18.2306 77.9326 20.428C78.7466 20.6104 79.52 20.9956 80.2032 21.5589V22.1744C81.0413 22.4536 82.2063 24.064 82.7472 23.7706C82.8364 24.6868 83.6566 25.3453 84.572 25.9179C85.4366 26.3872 86.2509 26.9808 86.9971 27.6858L87.3953 27.1347C88.2378 27.8686 89.1216 28.531 90.0404 29.1174L90.3376 28.5805C91.4313 29.0458 92.0316 31.1358 93.048 32.5888C92.8162 32.6389 92.6022 32.2238 92.519 31.8731C92.6735 33.2402 93.4106 33.9345 94.1298 34.7719C94.4969 35.1592 94.8277 35.5936 95.1165 36.0674C95.3853 36.5247 95.523 37.075 95.5088 37.635C95.6429 37.7754 95.7465 37.9531 95.8107 38.1527C95.8749 38.3522 95.8978 38.5676 95.8773 38.7802C95.8668 38.7381 95.8461 38.7007 95.8179 38.6728L95.8654 38.8732C95.8654 39.1238 95.8 39.3814 95.7822 39.6463C95.8453 39.4314 95.8853 39.2077 95.9011 38.9806C96.0704 39.4744 96.269 39.9528 96.4955 40.4121L95.9902 40.8201C96.0036 40.862 96.0195 40.9027 96.0378 40.9418C95.9486 41.5359 96.3944 41.3069 96.7511 40.8917C96.8895 41.1354 97.0489 41.361 97.2266 41.5645C96.8045 41.9081 96.9531 42.2803 97.072 42.6453C97.1909 43.0104 97.2801 43.4613 96.8224 43.8192C97.0661 43.9838 97.2087 44.6924 97.3573 45.4153C97.4163 45.7696 97.5122 46.1135 97.6426 46.4389C97.7367 46.7298 97.9227 46.964 98.1598 47.0902C98.029 47.0902 97.9458 47.262 97.9695 46.9399C97.8777 47.2555 97.8043 47.5784 97.7496 47.9062C97.6727 48.2192 97.6727 48.5523 97.7496 48.8653L96.9948 48.9369C97.1968 49.4666 97.4168 50.0392 97.5891 50.6404C96.8937 51.2989 96.5727 51.4421 96.2934 50.4472C96.3854 51.0777 96.3631 51.7248 96.228 52.344L96.121 52.9738C96.0794 53.2315 96.0675 53.5822 96.014 54.0976L95.6693 53.6967C95.4137 54.2193 95.3364 55.5148 94.8133 55.5005C94.0763 55.6794 93.0302 56.932 91.5798 58.0916C90.0977 59.3815 88.4163 60.3014 86.6345 60.7971C87.2289 61.3984 86.8009 61.4199 86.2838 61.4413C85.7667 61.4628 85.1367 61.4413 85.2852 62.0784C84.9762 61.8064 84.4828 61.8064 84.8632 61.2481C84.2777 61.6664 83.6392 61.9663 82.9731 62.1356C82.706 62.2153 82.4511 62.3458 82.2182 62.5222C81.9541 62.7133 81.7303 62.9754 81.5644 63.288C81.2731 62.9874 81.7486 62.5722 81.5228 62.4506C81.4158 62.5794 81.1126 62.9731 80.8808 62.8156C80.649 62.6581 81.0235 62.4148 81.2256 62.1499C79.6385 62.8657 79.7753 64.0754 79.9417 65.2134C78.9669 65.0345 78.5746 65.2778 78.1169 66.1797C77.7305 65.9149 77.154 65.693 78.1704 65.2349C77.576 65.3637 74.4792 65.8433 74.604 66.7309C74.3722 66.5448 73.7541 66.8597 73.6114 67.0029C72.6704 67.137 71.7373 67.3426 70.8178 67.6184L71.2041 67.6757C70.8356 68.9068 70.1223 68.1194 69.0643 68.4344V68.3198C67.7804 68.1266 67.5248 68.2698 67.2811 68.3914C67.122 68.4772 66.9502 68.5235 66.7759 68.5274C66.3489 68.4946 65.9251 68.4155 65.5099 68.2912L65.6941 68.964C65.6347 69.6798 65.0641 69.5438 64.3449 69.279C63.6257 68.8995 62.8289 68.7873 62.0565 68.9569L62.5914 69.3362C61.8128 69.8659 60.3446 67.3894 59.5838 67.2319C59.4174 67.1102 59.8453 67.0172 60.0771 66.917C58.0621 66.0938 59.8275 67.8403 58.294 68.0622C58.0146 67.5683 58.6506 66.8382 57.6461 66.7165C57.3964 66.509 56.6594 66.874 55.8035 67.1746C55.3762 67.3358 54.9358 67.4414 54.4899 67.4896C54.0733 67.5193 53.659 67.3971 53.3011 67.1388C53.5864 67.5397 53.8955 67.9405 53.1525 68.1552C52.0469 68.1552 50.341 66.509 49.2711 67.4896C49.2247 67.4548 49.1856 67.4077 49.1568 67.3518C49.1279 67.296 49.1101 67.2329 49.1047 67.1675C48.2606 67.3321 46.3824 67.282 45.7999 67.7902C45.574 66.5376 44.2723 66.559 43.0478 66.6163C41.8234 66.6736 40.6703 66.6736 40.8902 65.6214L38.3759 65.0703L38.4889 64.8698C36.9375 64.24 36.2777 64.5477 35.6001 64.8698C35.2673 64.605 35.6001 64.4977 35.6358 64.3975C35.083 64.104 34.655 63.8821 34.2865 63.7246C33.9759 63.5716 33.6533 63.4565 33.3236 63.3811C32.5507 63.2895 31.771 63.3232 31.0055 63.4813V62.7655C30.7309 62.7575 30.4636 62.6585 30.2328 62.4792C29.888 62.2573 29.466 61.928 28.9846 61.5988C27.9686 60.8185 26.8325 60.2927 25.6441 60.0527C25.6844 59.994 25.7354 59.9474 25.7931 59.9163C25.8508 59.8853 25.9138 59.8707 25.9769 59.8738C24.6396 59.6376 23.326 58.4852 22.1788 57.5691C21.0316 56.6529 20.0449 56.0015 19.1355 56.9034C18.5411 56.7817 17.9467 56.66 17.3523 56.5169C19.2722 57.9484 16.6153 57.3185 17.2751 58.2204C16.4073 57.8554 15.5513 56.2019 16.5618 56.7316L16.6569 56.9392C17.1027 56.4668 16.538 55.9514 15.9199 55.4647C15.3017 54.978 14.6538 54.4698 14.8856 54.0904C13.0747 52.772 11.4194 51.1662 9.96405 49.3163C9.26766 48.4409 8.61091 47.521 7.99662 46.5606C7.419 45.703 6.8964 44.7937 6.43337 43.8407C6.24911 44.1484 6.07673 44.4777 5.9103 44.8141C5.68879 44.3786 5.49027 43.9268 5.31591 43.4613C5.3694 43.0104 5.74388 42.6811 6.08863 43.5687C6.18967 43.1965 5.9638 42.9102 5.6785 42.6811C5.4716 42.4951 5.23139 42.3701 4.97712 42.3161C4.94146 41.8222 5.02466 41.6003 5.13165 41.6003C5.23864 41.6003 5.36347 41.6003 5.50612 41.7506C5.76765 41.9868 6.05297 42.3304 5.99947 42.0942C5.91918 41.8961 5.84775 41.693 5.78548 41.4858L5.71416 41.6576C5.50781 41.5026 5.30932 41.3329 5.11977 41.1494C5.02182 41.0213 4.95159 40.8661 4.9153 40.6976C4.87902 40.529 4.87779 40.3523 4.91173 40.1831C5.14948 39.5604 5.45858 39.9469 5.53585 39.7321C5.59529 39.7321 5.64284 39.6892 5.625 39.4101C5.76273 38.9799 5.94655 38.5732 6.17183 38.2004C5.88798 38.2147 5.60564 38.2578 5.32781 38.3293C5.28026 37.4918 6.08863 36.9836 5.03061 37.1554C5.51271 36.9982 5.95818 36.7092 6.33233 36.3108C6.81379 35.867 7.39629 35.323 8.00257 34.8005C9.19135 33.7484 10.5347 32.8035 10.9448 32.8035C11.7116 31.6798 12.728 31.0786 14.0356 30.4415C13.6612 30.4415 13.144 29.7257 14.2912 29.2247C14.5468 31.1931 16.5856 28.8812 17.9289 29.7329C17.388 29.511 18.1548 29.0601 18.8502 28.602C19.5456 28.1439 20.1876 27.693 19.3495 27.3852C20.3362 27.0917 19.6288 28.0222 20.4729 28.101C22.47 26.3545 25.5133 26.3831 28.2416 25.1234C28.2416 24.8657 27.6472 24.6653 28.1762 24.0927L29.9594 24.7655C30.4824 24.4506 30.1496 23.1908 31.3621 23.699C31.1719 23.5415 30.8866 23.3053 31.2492 23.1049C34.1617 22.7828 36.9672 21.745 39.8619 20.9934C42.7566 20.2419 45.7167 19.7122 48.7124 20.5139C47.8862 20.1345 48.4033 20.0128 49.0036 19.9198C48.6054 19.8553 48.962 19.3042 48.855 18.9678C49.6931 19.1682 50.5372 19.4187 51.3634 19.6836C51.7497 18.6743 53.9787 19.4044 54.1927 18.4954L53.42 18.703C54.4126 17.5721 51.8448 16.4197 51.9102 15.0597C51.3515 15.7254 50.549 15.3532 49.6337 15.0597C48.7183 14.7663 47.7198 14.5945 46.8282 15.5822C46.3705 15.3603 47.1551 15.0955 46.8935 14.8092C46.4537 15.4462 45.8712 15.6753 44.7419 15.5894L44.8488 15.4248C41.7699 16.0761 40.379 15.7755 36.8424 16.2264L37.2109 16.8205C36.768 16.8887 36.3182 16.8424 35.8914 16.6845C35.2197 17.9085 37.9777 16.1978 37.3952 17.5148C36.8008 16.9637 35.4812 17.2786 34.2211 17.6079C32.961 17.9371 31.7306 18.2377 31.2492 17.6079C30.1139 17.9657 31.7425 18.2592 30.6132 18.6171L30.2268 18.3093L30.0604 18.9249C29.8136 19.0204 29.5475 19.0162 29.3029 18.9128C29.0582 18.8095 28.8483 18.6126 28.7052 18.3522C28.9408 18.2677 29.1665 18.1474 29.3769 17.9943C28.2951 17.8154 26.7199 19.1181 26.3514 19.068L27.4926 18.9249C24.5207 20.3564 20.6869 21.3799 18.0953 23.5702L18.4103 23.7706C17.8334 24.2929 17.1642 24.6481 16.4548 24.8085C15.6873 24.9497 14.9503 25.2707 14.2853 25.7532L14.3447 25.6387C13.9168 26.2374 13.3712 26.6976 12.7577 26.9772C13.2213 26.3116 11.3906 26.9271 12.0206 26.1255C9.95216 28.0222 11.0577 27.2349 9.98783 29.1675L9.44098 28.9026C9.18931 29.7103 8.70383 30.3814 8.07389 30.7922C8.82877 29.7472 6.9921 30.6061 7.81236 29.3607C6.6494 29.6514 5.61891 30.4557 4.92363 31.6154C4.32924 32.4958 3.92505 33.1757 2.89675 33.2974C2.89675 34.4713 3.45547 33.913 4.00231 33.3404C4.54915 32.7678 5.11382 32.0806 4.91173 32.4958C5.28025 32.4242 5.20893 32.8608 4.97712 33.3762C4.72724 33.9326 4.41304 34.4435 4.04392 34.8936C3.74673 35.3087 3.19394 35.3803 2.54011 35.8026C2.07382 36.0941 1.67233 36.5159 1.36931 37.0328C1.06629 37.5496 0.87058 38.1463 0.798554 38.773C0.869881 38.4295 0.79854 38.3865 0.857979 38.0573C0.610501 38.6752 0.525499 39.3694 0.614295 40.0471C0.715027 40.7913 0.715027 41.5503 0.614295 42.2946C0.926796 42.6107 1.13717 43.049 1.20869 43.5329C1.32162 43.9194 1.44644 44.2486 1.92789 44.127C1.56998 43.2519 1.3197 42.3188 1.1849 41.357C1.42571 42.1936 1.80142 42.9647 2.29046 43.6259C2.82893 44.3994 3.23315 45.2951 3.47924 46.26C3.0662 46.0666 2.69739 45.7574 2.4034 45.3581C2.43906 46.1884 3.11666 46.489 3.21771 47.2835C2.78381 47.5125 2.34397 46.8755 1.92789 45.945C1.53291 44.9269 1.09242 43.9353 0.608345 42.9746C0.501355 43.4899 0.881754 44.3345 1.17301 44.8714C1.46426 45.4082 1.62476 45.7804 1.00064 45.5871C1.8209 45.8734 2.06459 46.5462 2.37962 47.3193C2.51035 47.7662 2.71836 48.1747 2.98988 48.5177C3.2614 48.8607 3.59028 49.1305 3.95477 49.3091L3.44953 49.6384C3.83935 49.8558 4.19839 50.1456 4.5135 50.4973L3.41387 50.3183C3.98886 50.6828 4.43758 51.2815 4.67992 52.0075C4.91882 52.7203 5.33381 53.3275 5.86871 53.7469C4.91768 52.6804 4.95334 52.3941 5.1376 52.2437C5.32186 52.0934 5.67849 52.0433 5.45263 51.4135C6.80784 52.4227 6.87916 53.0669 6.96832 53.8614C7.05747 54.6559 7.15258 55.5577 8.6445 56.7244C8.20465 56.4596 7.45573 55.0639 8.18683 55.3859C8.66794 55.9855 9.06896 56.6712 9.37561 57.4187C11.3312 58.9218 9.42317 56.6027 10.4217 56.9463C10.6714 58.156 11.5035 57.4402 12.4427 57.841L12.1455 58.4279C13.1381 59.4515 13.4531 59.2153 13.7087 59.0077C13.9643 58.8001 14.2021 58.5711 15.0818 59.4658L13.8514 59.7306L14.9926 60.2245L14.4636 60.7614C15.8485 61.0119 16.1398 61.3626 17.1978 62.2502C17.1146 61.6561 17.7922 61.2123 18.8086 61.7706C19.3495 62.5222 18.2142 62.1499 19.6526 62.8585C19.1831 63.0733 18.6362 63.3668 18.238 62.4363C18.0953 62.6009 17.7625 62.6367 17.6436 62.8013C18.238 63.6674 19.4803 63.9608 20.0211 64.2328C19.8288 64.1224 19.6554 63.9695 19.51 63.7819C20.3183 63.875 21.1208 63.9465 21.9291 63.9966C22.1728 64.4046 21.8459 64.4619 21.5131 64.5191C22.0165 64.5649 22.5169 64.651 23.0109 64.7768C22.6662 65.2134 22.5235 65.7717 21.5428 65.5642L23.7599 66.0008C23.8193 66.2942 24.592 67.146 24.2651 67.2032C25.3231 68.0192 27.3797 67.4323 28.7706 68.4845C28.975 68.3887 29.1986 68.3688 29.4125 68.4272C30.1139 68.7636 30.738 69.2146 31.4275 69.5796C32.168 70.003 32.9877 70.1856 33.8051 70.1092L34.5659 71.3976C35.9687 71.6195 33.5198 69.7442 35.8438 70.1092C37.4962 70.3168 36.2599 71.1328 36.7651 71.5909C37.6745 71.3332 39.2437 70.689 40.5752 71.8844C40.1052 71.8375 39.6409 71.7295 39.1903 71.5623ZM56.3384 73.7096C55.9996 73.8456 55.3161 74.2679 55.0843 73.8527C55.4944 73.094 55.7738 73.4805 56.3384 73.7239V73.7096ZM81.8556 67.69C81.6833 68.0049 81.2612 68.0407 80.8154 67.9477C81.1402 67.7645 81.4975 67.6809 81.8556 67.7043V67.69ZM68.0836 14.9595H68.1252C68.7017 15.4749 68.4996 15.2601 68.0836 14.9595ZM66.7997 14.0219C66.6333 14.0219 66.6154 14.1364 66.6452 14.258C66.7938 14.1364 67.1028 14.2581 67.4416 14.4871C67.4 14.2437 67.2514 14.029 66.7997 13.9861V14.0219ZM5.39913 39.5532L5.20297 39.7321C5.14948 39.1524 5.26242 39.3385 5.39913 39.5174V39.5532Z" fill="#B03A3F"/>
<path d="M79.27 69.687C79.1691 69.6151 79.0916 69.504 79.05 69.3721C78.949 69.5224 78.9728 69.6512 79.27 69.687Z" fill="#B03A3F"/>
<path d="M28.7655 68.4341C28.7655 68.4341 28.7299 68.4341 28.718 68.4341C28.6832 68.4578 28.6544 68.4924 28.6348 68.5342L28.7655 68.4341Z" fill="#B03A3F"/>
<path d="M89.9219 21.1079C90.0856 21.3061 90.2025 21.5531 90.2607 21.8237C90.3558 21.7163 90.3142 21.4801 89.9219 21.1079Z" fill="#B03A3F"/>
<path d="M59.1133 11.8888L60.0524 12.0892C59.7663 11.9942 59.5086 11.803 59.3094 11.5381C59.2857 11.7027 59.3926 11.989 59.1133 11.8888Z" fill="#B03A3F"/>
<path d="M52.2548 4.87426C52.1003 4.87426 51.9695 4.78836 51.815 4.82415L51.7793 5.14626C52.3915 5.31804 52.8254 5.20351 52.2548 4.87426Z" fill="#B03A3F"/>
<path d="M58.8764 9.38371C58.9537 8.80394 58.3355 8.77531 57.6876 8.625C57.7263 8.63501 57.7641 8.64939 57.8005 8.66794C57.3904 9.36939 58.1334 9.37655 58.8764 9.38371Z" fill="#B03A3F"/>
<path d="M57.5207 8.58925C57.3165 8.54483 57.1171 8.47279 56.9263 8.37451C56.7718 8.65366 57.1463 8.51768 57.5207 8.58925Z" fill="#B03A3F"/>
<path d="M64.9275 13.5281C64.6778 13.2561 64.5292 14.1437 64.4341 13.8431C63.8873 14.4085 66.6571 13.9146 64.9275 13.5281Z" fill="#B03A3F"/>
<path d="M58.8535 7.36523L58.9011 8.13826L59.4063 7.73028L58.8535 7.36523Z" fill="#B03A3F"/>
<path d="M63.7451 9.94904L62.7822 9.3335C62.7822 9.45518 62.6217 9.46231 62.4434 9.448C63.0912 9.71999 63.6856 10.1423 63.7451 9.94904Z" fill="#B03A3F"/>
<path d="M62.4437 9.43364C62.1798 9.28305 61.8916 9.20481 61.5996 9.20459C61.8746 9.31167 62.1571 9.38834 62.4437 9.43364Z" fill="#B03A3F"/>
<path d="M60.3145 7.70898L60.576 7.97382L61.2774 8.32454L60.3145 7.70898Z" fill="#B03A3F"/>
<path d="M74.4206 15.21C74.8069 15.3245 75.1873 15.4533 75.5618 15.5893C75.7579 15.4247 75.5142 15.1241 75.0863 15.0024C74.7712 15.0239 74.3373 14.9022 74.4206 15.21Z" fill="#B03A3F"/>
<path d="M71.7871 11.7172C72.0368 11.9964 72.0011 12.161 72.0962 12.433L72.4112 11.6313L71.7871 11.7172Z" fill="#B03A3F"/>
<path d="M75.0268 13.1555C75.217 12.9837 76.8456 13.3273 75.4488 12.6616C75.2527 12.8119 74.0936 12.4541 75.0268 13.1555Z" fill="#B03A3F"/>
<path d="M90.2361 24.4076L89.9924 24.1929L89.291 25.3882L90.2361 24.4076Z" fill="#B03A3F"/>
<path d="M101.999 38.7804C101.934 37.7855 101.714 37.7426 101.524 37.7211C101.333 37.6996 101.149 37.7211 101.096 36.8121C100.709 36.5043 101.185 38.2436 100.828 37.9072C101.393 38.8806 101.333 39.5463 101.999 38.7804Z" fill="#B03A3F"/>
<path d="M100.829 37.907C100.729 37.7406 100.62 37.5827 100.502 37.4346C100.593 37.6088 100.703 37.7677 100.829 37.907Z" fill="#B03A3F"/>
<path d="M53.0703 20.2349L53.9559 20.4783L53.3734 20.0273L53.0703 20.2349Z" fill="#B03A3F"/>
<path d="M54.6973 19.0464L54.941 19.9554L55.4343 19.0822C55.2382 19.1394 54.8577 19.254 54.6973 19.0464Z" fill="#B03A3F"/>
<path d="M58.9304 75.6631L59.0017 75.4341C58.8531 75.1979 58.6332 75.1979 58.1934 75.1406C58.4192 75.3267 58.6629 75.4985 58.9304 75.6631Z" fill="#B03A3F"/>
<path d="M46.2884 73.8817L46.5024 73.9318L46.1992 73.0371L46.2884 73.8817Z" fill="#B03A3F"/>
<path d="M35.6895 72.4144C36.1055 72.579 36.6345 72.5718 37.0506 72.715C36.0936 72.6076 35.7964 71.3551 35.6895 72.4144Z" fill="#B03A3F"/>
</svg>
