<svg width="181" height="76" viewBox="0 0 181 76" fill="none" xmlns="http://www.w3.org/2000/svg">
<path d="M150.812 1.07354C151.501 0.980494 151.321 1.58889 151.438 1.69626C150.26 1.62468 150.822 0.916075 150.812 1.07354Z" fill="#B03A3F"/>
<path d="M139.092 0.443556L139.336 0.672601L137.522 0.200195L139.092 0.443556Z" fill="#B03A3F"/>
<path d="M128.302 1.40345C129.098 0.272537 132.238 1.18872 134.083 0.687681L134.359 0.422852L135.42 1.13862C133.033 1.22451 129.904 0.931042 128.302 1.40345Z" fill="#B03A3F"/>
<path d="M123.115 4.22377C123.359 3.79431 121.799 4.0162 124.398 3.95178C124.324 3.98964 124.254 4.03027 124.186 4.07347C123.823 4.10056 123.464 4.15088 123.115 4.22377Z" fill="#B03A3F"/>
<path d="M124.186 4.03662C125.311 3.95073 123.529 4.44461 124.186 4.03662V4.03662Z" fill="#B03A3F"/>
<path d="M118.968 4.42285L120.527 4.59463C120.283 4.86662 118.989 5.0742 119.467 5.18156C117.971 5.1744 118.236 4.9382 118.968 4.42285Z" fill="#B03A3F"/>
<path d="M117.366 3.8584L118.172 3.91567C118.066 4.03019 117.875 4.08744 117.366 3.8584Z" fill="#B03A3F"/>
<path d="M119.879 4.02953L118.171 3.91501C118.341 3.72175 118.277 3.39966 118.945 3.91501C118.733 3.65733 119.136 3.9007 119.879 4.02953Z" fill="#B03A3F"/>
<path d="M120.759 3.77168C121.523 3.44959 122.562 3.18476 120.992 3.01297C123.856 2.79108 123.612 3.57127 120.759 3.77168Z" fill="#B03A3F"/>
<path d="M127.517 0.415134L128.578 0L129.639 0.236193C129.098 0.121671 127.517 0.737229 127.517 0.415134Z" fill="#B03A3F"/>
<path d="M109.993 6.14893C109.833 5.94851 110.3 5.51189 110.332 5.22559L111.488 5.31864C110.979 5.54768 109.961 5.81968 109.993 6.14893Z" fill="#B03A3F"/>
<path d="M110.333 5.22468L108.593 5.09584C110.025 4.83101 110.354 4.98132 110.333 5.22468Z" fill="#B03A3F"/>
<path d="M116.801 2.77734L119.697 3.22112L116.271 2.82745L116.801 2.77734Z" fill="#B03A3F"/>
<path d="M103.861 7.10702L104.943 7.45775L103.066 6.96387L103.861 7.10702Z" fill="#B03A3F"/>
<path d="M99.7771 7.69434C100.594 7.98064 99.1088 8.53179 99.915 8.66063C98.84 8.724 97.7571 8.63875 96.7326 8.4101C97.8397 8.41697 98.916 8.16394 99.7771 7.69434Z" fill="#B03A3F"/>
<path d="M95.1607 8.2168C95.6989 8.24787 96.2316 8.31258 96.752 8.41007C96.2089 8.40904 95.6703 8.34361 95.1607 8.2168Z" fill="#B03A3F"/>
<path d="M105.879 5.65527C105.803 5.83431 105.669 5.99947 105.485 6.13832C105.301 6.27717 105.073 6.38611 104.818 6.45693L105.253 5.74116L105.879 5.65527Z" fill="#B03A3F"/>
<path d="M105.26 5.7041L103.902 5.94746L105.26 5.7041Z" fill="#B03A3F"/>
<path d="M106.033 5.59032H105.872C105.915 5.5543 105.947 5.52548 106.033 5.59032Z" fill="#B03A3F"/>
<path d="M112.676 3.8868C111.615 3.68638 109.493 3.59334 111.286 2.82031C112.092 3.14241 111.074 3.57902 112.676 3.8868Z" fill="#B03A3F"/>
<path d="M106.567 4.72376L108.243 4.33008C108.243 4.4947 108.031 4.76671 108.551 4.85976L106.567 4.72376Z" fill="#B03A3F"/>
<path d="M105.674 4.66699L106.576 4.72425L105.961 4.87456L105.674 4.66699Z" fill="#B03A3F"/>
<path d="M97.8549 7.1504C96.9979 7.05926 96.1216 7.0959 95.2878 7.25776C96.2079 6.95453 97.171 6.71473 98.1625 6.54199C98.3641 6.73525 98.9157 7.00009 97.8549 7.1504Z" fill="#B03A3F"/>
<path d="M101.43 6.37047H101.258C101.333 6.30563 101.408 6.27681 101.43 6.37047Z" fill="#B03A3F"/>
<path d="M86.4083 8.95433L86.5044 8.81836L86.5898 8.91139L86.4083 8.95433Z" fill="#B03A3F"/>
<path d="M98.281 6.43465C98.5367 6.34209 98.8197 6.28894 99.1095 6.27904C99.3993 6.26914 99.6888 6.30274 99.957 6.3774C99.3534 6.41309 98.7543 6.47766 98.1643 6.57065C98.0794 6.49907 98.0794 6.44181 98.281 6.43465Z" fill="#B03A3F"/>
<path d="M92.5739 8.39586C92.9323 8.19407 93.3116 8.00989 93.709 7.84473C93.412 8.09525 92.7755 8.51754 92.5739 8.39586Z" fill="#B03A3F"/>
<path d="M101.063 6.57715H101.191C100.989 6.75609 100.999 6.68451 101.063 6.57715Z" fill="#B03A3F"/>
<path d="M101.062 6.57747C100.696 6.54296 100.339 6.47555 100.001 6.37706C100.431 6.35218 100.864 6.35218 101.295 6.37706C101.205 6.43694 101.126 6.50428 101.062 6.57747Z" fill="#B03A3F"/>
<path d="M81.9861 5.73976C82.368 6.25511 84.5214 6.36963 85.9429 5.44629C87.7674 5.52502 87.4492 7.53634 86.4733 8.81756C86.3247 8.58852 86.2293 8.37378 84.4153 8.3881C84.8608 7.97295 87.8311 6.95657 86.1974 6.73468C83.8425 6.90646 84.4578 7.30013 83.503 7.80116C84.1183 6.93509 80.2145 7.39319 80.2358 6.31238C80.9465 6.31238 81.6572 6.26942 82.3574 6.25511C82.3361 6.09048 81.5087 5.99027 81.9861 5.73976Z" fill="#B03A3F"/>
<path d="M89.5931 8.1318L90.3145 8.06738C89.485 8.35822 88.7606 8.76877 88.1929 9.26986C86.9411 9.23408 86.6229 9.07661 86.4638 8.91198C87.5776 8.66862 88.6914 8.40379 89.8159 8.19622L89.5931 8.1318Z" fill="#B03A3F"/>
<path d="M93.4539 7.5006C92.6795 6.99956 90.908 7.05683 91.6717 6.22654C93.7297 5.89013 93.2948 6.4556 94.6208 6.49139C91.2792 6.94948 95.6816 6.64886 93.4539 7.42904C94.0716 7.40588 94.6854 7.34841 95.2891 7.25724C94.743 7.42833 94.2149 7.62443 93.7085 7.84418L93.7615 7.78692C93.8782 7.68672 93.8994 7.6366 93.7615 7.70818H93.6872C93.6279 7.63249 93.5488 7.56461 93.4539 7.50776C92.5522 7.80839 93.3584 7.69386 93.6872 7.70818C93.6872 7.70818 93.7509 7.75829 93.7615 7.78692L90.3564 8.06606C91.3551 7.80161 92.3938 7.61199 93.4539 7.5006Z" fill="#B03A3F"/>
<path d="M109.082 1.76855C109.054 1.78952 109.033 1.81472 109.022 1.8421C109.011 1.86948 109.01 1.89825 109.018 1.92602C108.774 1.87592 108.69 1.84013 109.082 1.76855Z" fill="#B03A3F"/>
<path d="M107.814 2.33277C108.012 2.41306 108.234 2.46188 108.464 2.47552C108.694 2.48916 108.925 2.46728 109.14 2.41152C109.766 2.13953 109.045 2.12522 109.013 1.9248C109.544 2.01785 110.827 2.12522 109.416 2.64057L109.151 2.59046C107.867 2.99845 106.382 4.02198 106.648 4.05777C106.833 3.42941 107.232 2.83879 107.814 2.33277Z" fill="#B03A3F"/>
<path d="M100.414 4.72463L97.5393 4.89641L98.7592 4.1377V4.46694C100.329 4.07327 100.128 4.51706 100.414 4.72463Z" fill="#B03A3F"/>
<path d="M86.212 9.31217L86.8379 9.86331L84.886 9.29785L86.212 9.31217Z" fill="#B03A3F"/>
<path d="M82.66 9.94238L83.0312 10.4577L81.9598 10.3361L82.66 9.94238Z" fill="#B03A3F"/>
<path d="M97.1706 73.1582L98.0723 73.2369C97.7686 73.231 97.4665 73.2046 97.1706 73.1582Z" fill="#B03A3F"/>
<path d="M90.8958 73.6529L90.7049 73.3809C91.0231 73.5312 91.1504 73.6529 90.8958 73.6529Z" fill="#B03A3F"/>
<path d="M11.0956 39.6182C11.4881 40.4556 12.464 41.3718 11.5517 41.1427L10.7455 40.7848C11.015 40.4241 11.1359 40.0212 11.0956 39.6182Z" fill="#B03A3F"/>
<path d="M40.7969 67.375L40.3726 67.4824L39.8422 66.7666C40.0861 66.9384 40.415 67.1531 40.7969 67.375Z" fill="#B03A3F"/>
<path d="M40.5518 69.9947L42.334 69.8945C41.7486 69.9788 41.1497 70.0125 40.5518 69.9947Z" fill="#B03A3F"/>
<path d="M130.965 68.5059C131.4 68.6419 131.814 68.7564 132.238 68.8781C130.7 69.2431 131.199 68.7635 130.965 68.5059Z" fill="#B03A3F"/>
<path d="M47.3945 18.7535C46.7641 19.1737 46.0501 19.5327 45.2729 19.82C46.1746 19.1472 46.7687 18.3741 47.3945 18.7535Z" fill="#B03A3F"/>
<path d="M93.6034 66.8164C94.1232 66.888 94.3566 66.9953 94.3672 67.1313C93.8368 67.0741 93.5185 66.981 93.6034 66.8164Z" fill="#B03A3F"/>
<path d="M42.5257 20.6857C42.653 20.5784 42.8015 20.4997 42.9288 20.3994C43.7368 20.2811 44.518 20.0909 45.252 19.834C44.9366 20.1165 44.5228 20.342 44.0472 20.4906C43.5716 20.6392 43.0489 20.7062 42.5257 20.6857Z" fill="#B03A3F"/>
<path d="M129.555 17.9156C129.459 17.9156 129.343 17.9156 129.247 17.9156C129.152 17.9156 129.385 17.8726 129.555 17.9156Z" fill="#B03A3F"/>
<path d="M93.1154 19.748C93.578 19.8124 94.0455 19.8602 94.5156 19.8912C94.0398 19.9015 93.5653 19.853 93.1154 19.748Z" fill="#B03A3F"/>
<path d="M68.8043 13.3923C69.5469 13.2492 68.9529 13.4281 68.8043 13.3923V13.3923Z" fill="#B03A3F"/>
<path d="M71.1582 10.2216C71.0636 10.2131 70.9735 10.1891 70.8958 10.1517C70.8181 10.1142 70.7553 10.0645 70.7127 10.0068C70.8136 10.1151 70.9736 10.1923 71.1582 10.2216Z" fill="#B03A3F"/>
<path d="M33.008 19.5841H32.9439C33.072 19.4195 33.0507 19.4552 33.008 19.5841Z" fill="#B03A3F"/>
<path d="M69.7559 12.8555C69.4899 13.0047 69.2061 13.1388 68.9072 13.2563C69.1695 13.1039 69.4538 12.9696 69.7559 12.8555Z" fill="#B03A3F"/>
<path d="M69.7564 13.1636L70.3611 12.9561C70.499 13.0348 70.499 13.1135 69.7564 13.1636Z" fill="#B03A3F"/>
<path d="M67.7626 13.6137C68.1621 13.522 68.5461 13.4021 68.9082 13.2559C68.7915 13.3346 68.7491 13.3847 68.8021 13.3919L67.7626 13.6137Z" fill="#B03A3F"/>
<path d="M177.714 45.2505C177.714 45.2076 177.714 45.1575 177.714 45.1074C178.457 44.6421 178.234 44.8855 177.714 45.2505Z" fill="#B03A3F"/>
<path d="M2.60595 53.2887C2.60595 53.2887 2.60595 53.2386 2.60595 53.21L2.69141 53.2887H2.60595Z" fill="#B03A3F"/>
<path d="M3.51766 55.5508C3.66929 55.1561 3.67104 54.7419 3.52271 54.3466C3.37439 53.9512 3.08078 53.5875 2.66904 53.289C3.60254 53.289 4.58909 53.2389 5.5332 53.1816C4.78444 53.9404 4.1111 54.7319 3.51766 55.5508Z" fill="#B03A3F"/>
<path d="M112.093 71.5623L110.247 72.414C112.974 72.9437 114.671 72.3639 113.005 73.4161C112.549 72.4856 110.566 72.7433 108.571 72.9866C106.577 73.23 104.572 73.3589 104.18 72.4212L102.949 72.9795C103.32 72.9151 103.416 73.0224 103.787 72.9795C101.39 74.1963 101.528 71.8629 98.2391 72.414C97.0935 72.6646 96.3297 73.0153 97.1783 73.1799L94.4733 72.9222C93.7201 73.0296 93.9641 73.3445 94.7173 73.2443C93.3806 73.323 92.0334 73.3445 90.6862 73.3589V73.4161C89.8496 73.09 88.9772 72.8077 88.0767 72.5715C87.0901 72.9079 88.6071 72.7504 88.3737 73.0081L86.1248 72.6574C85.2656 73.2085 87.1856 73.5951 88.6707 73.4447C87.7372 74.4683 87.2492 74.3681 86.4749 74.1605C85.8141 73.9894 85.1078 73.9132 84.401 73.9366C83.6941 73.96 83.0023 74.0826 82.3696 74.2965L84.4912 74.5041C83.1864 75.6278 81.4891 75.2628 79.0811 75.9929C79.6751 75.6278 83.8547 74.1748 81.383 73.731C80.9144 73.8416 80.4176 73.8877 79.9221 73.8668C79.4266 73.8459 78.9423 73.7584 78.4977 73.6094C78.4977 74.3251 77.2035 74.1676 75.6017 74.0817L75.6972 74.9979C73.9468 74.7045 74.106 74.2822 73.0982 73.8169C72.4711 73.8114 71.857 73.9381 71.3417 74.1793C70.8263 74.4205 70.4354 74.7643 70.2234 75.1626C67.041 75.1626 72.4511 74.1247 68.7914 73.7955C66.1924 73.9959 64.3996 73.5592 61.44 72.8005C59.6048 72.9508 61.6628 73.3874 60.9733 73.5879L59.52 72.7146C59.1275 72.7146 59.2123 72.9294 59.2548 73.051C57.9818 72.6502 59.3184 72.1349 57.2923 71.6983C57.1226 71.1686 55.9875 71.4406 54.5873 71.6983C53.187 71.9559 51.5322 71.9917 50.4183 71.2616C49.7182 71.4263 50.5668 71.8486 50.2698 72.1707C46.9707 70.9682 47.395 71.2545 44.9658 69.7657L42.3351 69.9231C44.3718 69.5724 42.4093 68.3843 40.7651 67.4037C41.5182 67.1961 42.1547 67.01 42.5578 66.9384L41.1364 66.4302L39.7467 65.8648C39.3224 65.9292 39.4815 66.2942 39.8103 66.7666C39.6468 66.6644 39.4943 66.5544 39.3542 66.4374C38.1237 66.5161 38.4419 67.1532 39.0041 67.8117C39.4497 67.7186 39.9058 67.6184 40.3407 67.511C40.8605 68.2268 41.3379 68.9426 40.956 69.4007C40.6931 69.2199 40.3793 69.0763 40.0331 68.9783C40.171 69.1644 40.2453 69.3147 40.1074 69.3863C39.9695 69.4579 39.7149 69.2002 39.3118 68.8638L38.1661 69.6798V69.2575L33.7744 68.9497C32.5439 68.1624 31.5467 67.1889 30.3268 66.2513C28.9781 65.203 27.3963 64.3023 25.6381 63.5815C26.2533 64.5979 25.1289 64.7696 24.6303 65.5928C26.4019 65.1132 27.887 66.9241 30.348 67.4037C29.0751 67.1603 29.1069 67.6256 29.3403 67.8475L25.6275 65.9149C25.288 66.6306 24.4181 66.1582 23.1452 66.0867C24.8531 65.0559 20.6735 64.2471 19.3687 63.2236C18.9126 63.5958 18.9444 64.1971 21.0766 64.8126C19.5809 64.8985 19.1248 64.2543 18.7535 63.5958C18.3822 62.9373 18.0428 62.2788 16.6319 62.2215C17.0986 62.4363 17.4169 62.4792 17.4169 62.7655C16.6213 61.9638 13.7253 60.9904 13.9693 61.6203L14.436 61.8493C12.3273 60.9654 10.4552 59.8474 8.89867 58.5425C7.28625 57.1682 6.53311 55.7367 7.12715 55.2571C6.46951 55.6567 5.90768 56.1227 5.4617 56.6385C5.52647 56.1027 5.63626 55.5698 5.79054 55.0424C5.90414 54.5347 6.06715 54.0325 6.2785 53.5393C6.45837 53.0543 6.67793 52.5764 6.93619 52.1077C7.21199 51.6425 7.49844 51.2059 7.79546 50.7836C6.79163 51.106 5.71683 51.3163 4.61307 51.4063C3.41437 51.621 2.40659 51.9932 2.63997 53.1957C1.7467 52.4114 1.28207 51.4431 1.32458 50.4543C1.72769 50.8695 3.92355 51.0699 3.81747 50.4973C3.12958 50.1986 2.53494 49.812 2.06712 49.3592L1.54735 48.8081C1.30336 48.5719 1.00632 48.2498 0.571396 47.7702C1.01694 48.3929 3.28706 47.4481 3.07489 46.5248C2.72484 46.6966 0.666901 46.5248 0.465347 46.9399C0.794189 46.4818 1.20789 46.0452 1.57916 45.6229C1.94643 45.1993 2.35025 44.7906 2.7885 44.399C2.32175 44.993 0.76236 44.4848 0.125885 43.8621C0.528976 44.1484 0.338028 41.6218 0.836594 40.9991C0.903885 41.3772 1.00305 41.7524 1.13362 42.1228C1.14777 41.604 1.36653 41.0971 1.76738 40.6543C2.16824 40.2115 2.73674 39.8487 3.41437 39.6033C3.97423 39.3622 4.49979 39.0867 4.98433 38.7802C5.55231 38.4077 5.96562 37.9413 6.18303 37.4274C5.58899 37.5992 2.88396 37.5133 3.37192 36.1032L7.73178 35.2944C8.64407 35.1083 9.59882 34.9007 10.4793 34.6645C10.8961 34.5535 11.3003 34.4219 11.6886 34.2709C12.0666 34.1399 12.4223 33.9815 12.7494 33.7985L12.4842 33.2044C13.1313 32.8465 13.842 32.5316 14.5103 32.2095C12.7297 32.2828 10.973 32.5238 9.29115 32.9252C7.3842 33.3462 5.57925 33.9539 3.93414 34.729C4.1357 33.6124 3.34009 34.2065 4.51756 32.7892C4.35844 32.0735 2.99004 33.2545 2.67178 33.7054C3.00064 33.097 3.40376 32.5029 3.81747 31.916C4.23119 31.3291 4.67671 30.7493 5.13284 30.1695C6.14061 30.8066 8.82443 28.3157 9.65186 28.9742C8.82443 29.3679 8.07127 29.8474 7.26506 30.2912C6.45886 30.735 5.75873 31.2503 5.00555 31.7228C5.54657 32.0377 6.89377 31.873 8.28342 31.415C9.84962 30.9261 11.2179 30.1895 12.272 29.2677C12.4311 28.5519 9.88521 28.5519 9.55637 28.3014C10.2353 28.2227 12.6327 26.8699 12.6433 26.5549C12.0704 26.6909 11.5825 26.8484 10.9779 27.0058C11.5398 26.4447 12.3903 26.0443 13.3647 25.8821C13.8879 25.773 14.3654 25.5819 14.7581 25.3244C15.1508 25.0668 15.4476 24.7502 15.6241 24.4005C16.2076 23.9853 16.4303 22.3033 17.0986 22.6898C16.9926 24.1642 20.1325 26.8412 21.5434 27.1061C21.607 27.013 22.1587 26.3903 22.7421 25.6745C23.2968 25.0747 23.7622 24.4393 24.1317 23.7777C24.3121 23.1765 23.4741 22.9403 22.6042 22.7399C21.7343 22.5395 20.8539 22.3963 21.013 21.8523C21.2782 22.0456 22.1799 22.0026 22.5406 21.974C23.0816 21.4515 21.5434 21.4443 23.2407 20.8002C24.3015 21.5159 26.4231 19.297 24.6833 21.1509C26.4655 20.6999 26.1897 20.2633 28.0991 19.5333C27.993 20.3134 31.377 20.7143 33.1485 20.3993C32.8727 20.2132 33 19.7981 33.0743 19.6048C36.2567 18.3451 37.8055 17.3573 40.9454 16.3481C41.0833 16.0403 42.4411 15.3102 41.5288 15.1313C42.252 15.2414 43.0067 15.2091 43.7035 15.0382C45.0825 13.6854 41.444 15.5894 42.2608 14.2294C42.7381 14.7018 45.2841 14.1579 46.8859 14.0505C46.9813 14.981 43.7777 15.1957 42.1547 15.3031C42.9079 16.4054 46.1009 16.7919 49.7076 16.3266C52.5081 15.8399 50.3865 15.2816 50.9487 15.3031C55.7754 13.6783 56.3482 16.0188 59.9761 14.1221C61.196 12.9625 59.2124 12.6905 59.276 12.0607C56.9423 12.3828 56.2103 13.4134 54.7252 13.7856L56.3376 12.9554C55.2445 12.9071 54.1615 13.1227 53.2825 13.5638C54.2584 12.5187 61.6522 11.1015 65.2589 9.54832C66.0863 9.61274 67.3805 9.54832 67.0092 9.99926L65.715 10.2068C64.9088 11.08 68.4731 10.4287 67.0623 11.0944C68.9293 11.0944 71.1357 11.3091 73.2891 10.4216V9.49105C73.3634 9.74157 72.0162 10.3428 71.2312 10.2426C72.3875 10.3929 74.2439 8.2671 75.8669 9.12602C75.4107 9.4338 74.9652 9.75589 74.5197 10.078C76.3973 10.078 78.8901 10.5575 80.8314 9.83462C80.2798 10.8653 80.301 9.83462 79.2933 11.1302C79.9934 9.64852 74.0423 12.347 75.4638 10.6363C74.5303 12.1036 73.1088 11.7171 71.6449 13.1271C71.5706 12.8408 72.0692 12.4114 70.4144 12.9768C70.2573 12.914 70.09 12.8635 69.9158 12.8265L69.8097 12.8766L69.884 12.8194C69.7885 12.8194 69.7779 12.8194 69.884 12.8194C70.1813 12.6578 70.4085 12.4452 70.5417 12.2038C69.343 11.76 66.6273 12.483 65.5241 12.3899C64.58 12.7764 66.1288 12.5975 65.7256 13.0269L64.0814 12.8909C64.283 13.528 61.9598 14.573 64.5376 14.3225C63.8268 14.5086 63.1161 14.6875 62.416 14.8951C61.3532 15.5997 59.9863 16.0583 58.5122 16.2049C57.5893 16.6058 55.5738 16.2049 56.7301 16.4626L53.1976 17.0496L53.2613 17.207C50.0789 18.1948 45.9099 18.2306 42.9503 20.428C41.4976 20.6104 40.1173 20.9956 38.898 21.5589V22.1744C37.4023 22.4536 35.3232 24.064 34.3578 23.7706C34.1987 24.6868 32.7348 25.3453 31.1012 25.9179C29.558 26.3872 28.1048 26.9808 26.7731 27.6858L26.0624 27.1347C24.5588 27.8686 22.9815 28.531 21.3418 29.1174L20.8114 28.5805C18.8596 29.0458 17.7882 31.1358 15.9742 32.5888C16.3879 32.6389 16.7698 32.2238 16.9183 31.8731C16.6425 33.2402 15.3271 33.9345 14.0435 34.7719C13.3884 35.1592 12.798 35.5936 12.2826 36.0674C11.8029 36.5247 11.5571 37.075 11.5825 37.635C11.3432 37.7754 11.1583 37.9531 11.0437 38.1527C10.9291 38.3522 10.8883 38.5676 10.9248 38.7802C10.9436 38.7381 10.9805 38.7007 11.0309 38.6728L10.946 38.8732C10.946 39.1238 11.0627 39.3814 11.0945 39.6463C10.9819 39.4314 10.9106 39.2077 10.8824 38.9806C10.5803 39.4744 10.2257 39.9528 9.82156 40.4121L10.7233 40.8201C10.6993 40.862 10.671 40.9027 10.6384 40.9418C10.7975 41.5359 10.0019 41.3069 9.36542 40.8917C9.11832 41.1354 8.83388 41.361 8.5168 41.5645C9.26996 41.9081 9.00475 42.2803 8.79259 42.6453C8.58043 43.0104 8.42133 43.4613 9.23813 43.8192C8.80321 43.9838 8.54861 44.6924 8.28342 45.4153C8.17818 45.7696 8.0071 46.1135 7.77423 46.4389C7.60626 46.7298 7.27446 46.964 6.85133 47.0902C7.08472 47.0902 7.23323 47.262 7.1908 46.9399C7.35466 47.2555 7.48579 47.5784 7.5833 47.9062C7.72063 48.2192 7.72063 48.5523 7.5833 48.8653L8.9305 48.9369C8.56982 49.4666 8.17732 50.0392 7.86969 50.6404C9.11082 51.2989 9.68369 51.4421 10.1823 50.4472C10.0179 51.0777 10.0577 51.7248 10.2989 52.344L10.4899 52.9738C10.5641 53.2315 10.5853 53.5822 10.6808 54.0976L11.2961 53.6967C11.7522 54.2193 11.8901 55.5148 12.8236 55.5005C14.139 55.6794 16.006 56.932 18.5944 58.0916C21.2395 59.3815 24.2403 60.3014 27.4202 60.7971C26.3594 61.3984 27.1232 61.4199 28.0461 61.4413C28.969 61.4628 30.0934 61.4413 29.8282 62.0784C30.3799 61.8064 31.2603 61.8064 30.5814 61.2481C31.6263 61.6664 32.7659 61.9663 33.9547 62.1356C34.4314 62.2153 34.8862 62.3458 35.302 62.5222C35.7733 62.7133 36.1726 62.9754 36.4688 63.288C36.9886 62.9874 36.14 62.5722 36.5431 62.4506C36.734 62.5794 37.275 62.9731 37.6888 62.8156C38.1025 62.6581 37.4341 62.4148 37.0735 62.1499C39.9058 62.8657 39.6618 64.0754 39.3648 65.2134C41.1045 65.0345 41.8046 65.2778 42.6215 66.1797C43.311 65.9149 44.34 65.693 42.526 65.2349C43.5868 65.3637 49.1136 65.8433 48.8908 66.7309C49.3045 66.5448 50.4077 66.8597 50.6623 67.0029C52.3418 67.137 54.007 67.3426 55.6481 67.6184L54.9586 67.6757C55.6162 68.9068 56.8892 68.1194 58.7774 68.4344V68.3198C61.0688 68.1266 61.5249 68.2698 61.9598 68.3914C62.2438 68.4772 62.5504 68.5235 62.8615 68.5274C63.6236 68.4946 64.3798 68.4155 65.121 68.2912L64.7921 68.964C64.8982 69.6798 65.9166 69.5438 67.2002 69.279C68.4836 68.8995 69.9057 68.7873 71.2842 68.9569L70.3295 69.3362C71.7192 69.8659 74.3393 67.3894 75.6972 67.2319C75.9942 67.1102 75.2304 67.0172 74.8167 66.917C78.4128 66.0938 75.2622 67.8403 77.9991 68.0622C78.4977 67.5683 77.3626 66.8382 79.1554 66.7165C79.6009 66.509 80.9163 66.874 82.4438 67.1746C83.2064 67.3358 83.9923 67.4414 84.7882 67.4896C85.5316 67.5193 86.271 67.3971 86.9098 67.1388C86.4006 67.5397 85.849 67.9405 87.175 68.1552C89.1481 68.1552 92.1926 66.509 94.102 67.4896C94.1848 67.4548 94.2546 67.4077 94.3061 67.3518C94.3576 67.296 94.3894 67.2329 94.399 67.1675C95.9054 67.3321 99.2575 67.282 100.297 67.7902C100.7 66.5376 103.023 66.559 105.209 66.6163C107.394 66.6736 109.452 66.6736 109.059 65.6214L113.546 65.0703L113.345 64.8698C116.114 64.24 117.291 64.5477 118.5 64.8698C119.094 64.605 118.5 64.4977 118.437 64.3975C119.423 64.104 120.187 63.8821 120.845 63.7246C121.399 63.5716 121.975 63.4565 122.563 63.3811C123.943 63.2895 125.334 63.3232 126.7 63.4813V62.7655C127.19 62.7575 127.668 62.6585 128.079 62.4792C128.695 62.2573 129.448 61.928 130.307 61.5988C132.12 60.8185 134.148 60.2927 136.269 60.0527C136.197 59.994 136.106 59.9474 136.003 59.9163C135.9 59.8853 135.787 59.8707 135.675 59.8738C138.061 59.6376 140.406 58.4852 142.453 57.5691C144.501 56.6529 146.261 56.0015 147.884 56.9034C148.945 56.7817 150.006 56.66 151.067 56.5169C147.641 57.9484 152.382 57.3185 151.205 58.2204C152.754 57.8554 154.281 56.2019 152.478 56.7316L152.308 56.9392C151.512 56.4668 152.52 55.9514 153.623 55.4647C154.727 54.978 155.883 54.4698 155.469 54.0904C158.701 52.772 161.655 51.1662 164.253 49.3163C165.495 48.4409 166.668 47.521 167.764 46.5606C168.795 45.703 169.727 44.7937 170.554 43.8407C170.883 44.1484 171.19 44.4777 171.487 44.8141C171.883 44.3786 172.237 43.9268 172.548 43.4613C172.453 43.0104 171.784 42.6811 171.169 43.5687C170.989 43.1965 171.392 42.9102 171.901 42.6811C172.27 42.4951 172.699 42.3701 173.153 42.3161C173.216 41.8222 173.068 41.6003 172.877 41.6003C172.686 41.6003 172.463 41.6003 172.209 41.7506C171.742 41.9868 171.233 42.3304 171.328 42.0942C171.471 41.8961 171.599 41.693 171.71 41.4858L171.837 41.6576C172.206 41.5026 172.56 41.3329 172.898 41.1494C173.073 41.0213 173.198 40.8661 173.263 40.6976C173.328 40.529 173.33 40.3523 173.269 40.1831C172.845 39.5604 172.293 39.9469 172.156 39.7321C172.049 39.7321 171.965 39.6892 171.996 39.4101C171.751 38.9799 171.423 38.5732 171.02 38.2004C171.527 38.2147 172.031 38.2578 172.527 38.3293C172.612 37.4918 171.169 36.9836 173.057 37.1554C172.197 36.9982 171.402 36.7092 170.734 36.3108C169.875 35.867 168.835 35.323 167.753 34.8005C165.632 33.7484 163.234 32.8035 162.502 32.8035C161.134 31.6798 159.32 31.0786 156.986 30.4415C157.654 30.4415 158.577 29.7257 156.53 29.2247C156.074 31.1931 152.435 28.8812 150.038 29.7329C151.003 29.511 149.635 29.0601 148.394 28.602C147.153 28.1439 146.007 27.693 147.503 27.3852C145.742 27.0917 147.004 28.0222 145.498 28.101C141.933 26.3545 136.502 26.3831 131.633 25.1234C131.633 24.8657 132.694 24.6653 131.75 24.0927L128.567 24.7655C127.634 24.4506 128.228 23.1908 126.064 23.699C126.403 23.5415 126.913 23.3053 126.265 23.1049C121.068 22.7828 116.061 21.745 110.894 20.9934C105.728 20.2419 100.446 19.7122 95.0992 20.5139C96.5737 20.1345 95.6508 20.0128 94.5794 19.9198C95.2901 19.8553 94.6536 19.3042 94.8446 18.9678C93.3489 19.1682 91.8425 19.4187 90.368 19.6836C89.6785 18.6743 85.7005 19.4044 85.3186 18.4954L86.6976 18.703C84.9261 17.5721 89.5087 16.4197 89.3921 15.0597C90.3892 15.7254 91.8213 15.3532 93.4549 15.0597C95.0886 14.7663 96.8707 14.5945 98.4619 15.5822C99.2787 15.3603 97.8784 15.0955 98.3452 14.8092C99.1302 15.4462 100.17 15.6753 102.185 15.5894L101.994 15.4248C107.489 16.0761 109.972 15.7755 116.283 16.2264L115.626 16.8205C116.416 16.8887 117.219 16.8424 117.981 16.6845C119.179 17.9085 114.257 16.1978 115.297 17.5148C116.358 16.9637 118.713 17.2786 120.961 17.6079C123.21 17.9371 125.406 18.2377 126.265 17.6079C128.292 17.9657 125.385 18.2592 127.4 18.6171L128.09 18.3093L128.387 18.9249C128.828 19.0204 129.302 19.0162 129.739 18.9128C130.176 18.8095 130.55 18.6126 130.806 18.3522C130.385 18.2677 129.982 18.1474 129.607 17.9943C131.538 17.8154 134.349 19.1181 135.006 19.068L132.97 18.9249C138.274 20.3564 145.116 21.3799 149.741 23.5702L149.179 23.7706C150.208 24.2929 151.403 24.6481 152.669 24.8085C154.038 24.9497 155.354 25.2707 156.541 25.7532L156.435 25.6387C157.198 26.2374 158.172 26.6976 159.267 26.9772C158.439 26.3116 161.707 26.9271 160.582 26.1255C164.274 28.0222 162.301 27.2349 164.21 29.1675L165.186 28.9026C165.635 29.7103 166.502 30.3814 167.626 30.7922C166.279 29.7472 169.557 30.6061 168.093 29.3607C170.168 29.6514 172.007 30.4557 173.248 31.6154C174.309 32.4958 175.03 33.1757 176.865 33.2974C176.865 34.4713 175.868 33.913 174.892 33.3404C173.916 32.7678 172.909 32.0806 173.269 32.4958C172.612 32.4242 172.739 32.8608 173.153 33.3762C173.599 33.9326 174.159 34.4435 174.818 34.8936C175.349 35.3087 176.335 35.3803 177.502 35.8026C178.334 36.0941 179.051 36.5159 179.591 37.0328C180.132 37.5496 180.482 38.1463 180.61 38.773C180.483 38.4295 180.61 38.3865 180.504 38.0573C180.946 38.6752 181.097 39.3694 180.939 40.0471C180.759 40.7913 180.759 41.5503 180.939 42.2946C180.381 42.6107 180.006 43.049 179.878 43.5329C179.677 43.9194 179.454 44.2486 178.595 44.127C179.233 43.2519 179.68 42.3188 179.921 41.357C179.491 42.1936 178.82 42.9647 177.948 43.6259C176.987 44.3994 176.265 45.2951 175.826 46.26C176.563 46.0666 177.221 45.7574 177.746 45.3581C177.682 46.1884 176.473 46.489 176.293 47.2835C177.067 47.5125 177.852 46.8755 178.595 45.945C179.299 44.9269 180.086 43.9353 180.95 42.9746C181.14 43.4899 180.462 44.3345 179.942 44.8714C179.422 45.4082 179.136 45.7804 180.249 45.5871C178.786 45.8734 178.351 46.5462 177.788 47.3193C177.555 47.7662 177.184 48.1747 176.699 48.5177C176.215 48.8607 175.628 49.1305 174.977 49.3091L175.879 49.6384C175.183 49.8558 174.542 50.1456 173.98 50.4973L175.943 50.3183C174.916 50.6828 174.116 51.2815 173.683 52.0075C173.257 52.7203 172.516 53.3275 171.561 53.7469C173.259 52.6804 173.195 52.3941 172.866 52.2437C172.537 52.0934 171.901 52.0433 172.304 51.4135C169.885 52.4227 169.758 53.0669 169.599 53.8614C169.44 54.6559 169.27 55.5577 166.608 56.7244C167.393 56.4596 168.729 55.0639 167.424 55.3859C166.566 55.9855 165.85 56.6712 165.303 57.4187C161.813 58.9218 165.218 56.6027 163.436 56.9463C162.99 58.156 161.505 57.4402 159.829 57.841L160.359 58.4279C158.588 59.4515 158.026 59.2153 157.57 59.0077C157.113 58.8001 156.689 58.5711 155.119 59.4658L157.315 59.7306L155.278 60.2245L156.222 60.7614C153.751 61.0119 153.231 61.3626 151.343 62.2502C151.491 61.6561 150.282 61.2123 148.468 61.7706C147.503 62.5222 149.529 62.1499 146.962 62.8585C147.8 63.0733 148.776 63.3668 149.486 62.4363C149.741 62.6009 150.335 62.6367 150.547 62.8013C149.486 63.6674 147.269 63.9608 146.304 64.2328C146.647 64.1224 146.957 63.9695 147.216 63.7819C145.773 63.875 144.341 63.9465 142.899 63.9966C142.464 64.4046 143.047 64.4619 143.641 64.5191C142.743 64.5649 141.85 64.651 140.968 64.7768C141.583 65.2134 141.838 65.7717 143.588 65.5642L139.631 66.0008C139.525 66.2942 138.146 67.146 138.73 67.2032C136.842 68.0192 133.171 67.4323 130.689 68.4845C130.324 68.3887 129.925 68.3688 129.543 68.4272C128.292 68.7636 127.178 69.2146 125.947 69.5796C124.626 70.003 123.163 70.1856 121.704 70.1092L120.346 71.3976C117.843 71.6195 122.213 69.7442 118.065 70.1092C115.116 70.3168 117.323 71.1328 116.421 71.5909C114.798 71.3332 111.998 70.689 109.621 71.8844C110.46 71.8375 111.289 71.7295 112.093 71.5623ZM81.4891 73.7096C82.0938 73.8456 83.3137 74.2679 83.7274 73.8527C82.9954 73.094 82.4969 73.4805 81.4891 73.7239V73.7096ZM35.949 67.69C36.2567 68.0049 37.0098 68.0407 37.8054 67.9477C37.2258 67.7645 36.5881 67.6809 35.949 67.7043V67.69ZM60.5277 14.9595H60.4535C59.4245 15.4749 59.7852 15.2601 60.5277 14.9595ZM62.8191 14.0219C63.1161 14.0219 63.1479 14.1364 63.0949 14.258C62.8297 14.1364 62.278 14.2581 61.6734 14.4871C61.7477 14.2437 62.0129 14.029 62.8191 13.9861V14.0219ZM172.4 39.5532L172.75 39.7321C172.845 39.1524 172.644 39.3385 172.4 39.5174V39.5532Z" fill="#B03A3F"/>
<path d="M40.564 69.687C40.7439 69.6151 40.8823 69.504 40.9565 69.3721C41.1368 69.5224 41.0944 69.6512 40.564 69.687Z" fill="#B03A3F"/>
<path d="M130.698 68.4336C130.698 68.4336 130.762 68.4336 130.783 68.4336C130.845 68.4573 130.897 68.4919 130.932 68.5338L130.698 68.4336Z" fill="#B03A3F"/>
<path d="M21.5508 21.1084C21.2587 21.3066 21.05 21.5536 20.9462 21.8242C20.7764 21.7168 20.8507 21.4806 21.5508 21.1084Z" fill="#B03A3F"/>
<path d="M76.5352 11.8888L74.8591 12.0892C75.3697 11.9942 75.8296 11.803 76.1851 11.5381C76.2275 11.7027 76.0366 11.989 76.5352 11.8888Z" fill="#B03A3F"/>
<path d="M88.7764 4.87426C89.0522 4.87426 89.2856 4.78836 89.5614 4.82415L89.625 5.14626C88.5324 5.31804 87.758 5.20351 88.7764 4.87426Z" fill="#B03A3F"/>
<path d="M76.9611 9.38371C76.8232 8.80394 77.9264 8.77531 79.0827 8.625C79.0136 8.63501 78.9462 8.64939 78.8811 8.66794C79.6131 9.36939 78.2871 9.37655 76.9611 9.38371Z" fill="#B03A3F"/>
<path d="M79.3793 8.58877C79.7438 8.54434 80.0996 8.4723 80.4402 8.37402C80.716 8.65317 80.0477 8.51719 79.3793 8.58877Z" fill="#B03A3F"/>
<path d="M66.1595 13.5281C66.6051 13.2561 66.8703 14.1437 67.04 13.8431C68.0159 14.4085 63.0726 13.9146 66.1595 13.5281Z" fill="#B03A3F"/>
<path d="M77.002 7.36523L76.9171 8.13826L76.0154 7.73028L77.002 7.36523Z" fill="#B03A3F"/>
<path d="M68.2745 9.94856L69.993 9.33301C69.993 9.45469 70.2794 9.46183 70.5977 9.44751C69.4414 9.7195 68.3806 10.1418 68.2745 9.94856Z" fill="#B03A3F"/>
<path d="M70.5972 9.43315C71.068 9.28256 71.5825 9.20433 72.1035 9.2041C71.6128 9.31118 71.1086 9.38785 70.5972 9.43315Z" fill="#B03A3F"/>
<path d="M74.3906 7.70898L73.9239 7.97382L72.6721 8.32454L74.3906 7.70898Z" fill="#B03A3F"/>
<path d="M49.2178 15.21C48.5283 15.3245 47.8493 15.4533 47.181 15.5893C46.831 15.4247 47.2659 15.1241 48.0297 15.0024C48.5919 15.0239 49.3663 14.9022 49.2178 15.21Z" fill="#B03A3F"/>
<path d="M53.918 11.7177C53.4724 11.9969 53.5361 12.1615 53.3664 12.4335L52.8041 11.6318L53.918 11.7177Z" fill="#B03A3F"/>
<path d="M48.1369 13.155C47.7975 12.9832 44.8909 13.3268 47.3837 12.6611C47.7338 12.8114 49.8024 12.4536 48.1369 13.155Z" fill="#B03A3F"/>
<path d="M20.9911 24.4071L21.426 24.1924L22.6777 25.3877L20.9911 24.4071Z" fill="#B03A3F"/>
<path d="M0.000100374 38.7804C0.116786 37.7855 0.509263 37.7426 0.848714 37.7211C1.18816 37.6996 1.51701 37.7211 1.61248 36.8121C2.30199 36.5043 1.45337 38.2436 2.08984 37.9072C1.0821 38.8806 1.18818 39.5463 0.000100374 38.7804Z" fill="#B03A3F"/>
<path d="M2.08847 37.907C2.26652 37.7406 2.46145 37.5827 2.67188 37.4346C2.50934 37.6088 2.31315 37.7677 2.08847 37.907Z" fill="#B03A3F"/>
<path d="M87.3242 20.2349L85.7436 20.4783L86.7832 20.0273L87.3242 20.2349Z" fill="#B03A3F"/>
<path d="M84.416 19.0459L83.9811 19.9549L83.1006 19.0817C83.4507 19.139 84.1296 19.2535 84.416 19.0459Z" fill="#B03A3F"/>
<path d="M76.8624 75.6631L76.7351 75.4341C77.0003 75.1979 77.3927 75.1979 78.1777 75.1406C77.7746 75.3267 77.3397 75.4985 76.8624 75.6631Z" fill="#B03A3F"/>
<path d="M99.4268 73.8817L99.0449 73.9318L99.5859 73.0371L99.4268 73.8817Z" fill="#B03A3F"/>
<path d="M118.342 72.4149C117.599 72.5795 116.655 72.5723 115.913 72.7155C117.62 72.6081 118.151 71.3555 118.342 72.4149Z" fill="#B03A3F"/>
</svg>
