<svg width="156" height="76" viewBox="0 0 156 76" fill="none" xmlns="http://www.w3.org/2000/svg">
<path d="M26.3681 74.9196C25.7754 75.0127 25.9304 74.4043 25.8301 74.2969C26.8422 74.3685 26.3589 75.0771 26.3681 74.9196Z" fill="#B03A3F"/>
<path d="M36.4421 75.5496L36.2324 75.3206L37.7916 75.793L36.4421 75.5496Z" fill="#B03A3F"/>
<path d="M45.716 74.5897C45.0321 75.7206 42.3331 74.8044 40.7466 75.3055L40.5095 75.5703L39.5977 74.8545C41.6492 74.7687 44.3391 75.0621 45.716 74.5897Z" fill="#B03A3F"/>
<path d="M50.1756 71.7694C49.9658 72.1989 51.3062 71.977 49.0723 72.0414C49.1359 72.0035 49.1968 71.9629 49.2546 71.9197C49.567 71.8926 49.8753 71.8423 50.1756 71.7694Z" fill="#B03A3F"/>
<path d="M49.256 71.9565C48.2895 72.0424 49.8213 71.5486 49.256 71.9565V71.9565Z" fill="#B03A3F"/>
<path d="M53.7408 71.5703L52.4004 71.3985C52.6101 71.1265 53.7225 70.919 53.3122 70.8116C54.5979 70.8188 54.3699 71.055 53.7408 71.5703Z" fill="#B03A3F"/>
<path d="M55.1168 72.1348L54.4238 72.0775C54.515 71.963 54.6791 71.9057 55.1168 72.1348Z" fill="#B03A3F"/>
<path d="M52.957 71.9636L54.4251 72.0782C54.2792 72.2714 54.3339 72.5935 53.7594 72.0782C53.9418 72.3358 53.5953 72.0925 52.957 71.9636Z" fill="#B03A3F"/>
<path d="M52.2004 72.2215C51.5439 72.5436 50.6503 72.8084 51.9998 72.9802C49.5379 73.2021 49.7476 72.4219 52.2004 72.2215Z" fill="#B03A3F"/>
<path d="M46.3901 75.578L45.4782 75.9932L44.5664 75.757C45.0314 75.8715 46.3901 75.2559 46.3901 75.578Z" fill="#B03A3F"/>
<path d="M61.4556 69.8442C61.5924 70.0446 61.1912 70.4813 61.1638 70.7676L60.1699 70.6745C60.6076 70.4455 61.4829 70.1735 61.4556 69.8442Z" fill="#B03A3F"/>
<path d="M61.1629 70.7685L62.6583 70.8973C61.4273 71.1622 61.1447 71.0118 61.1629 70.7685Z" fill="#B03A3F"/>
<path d="M55.6006 73.2158L53.1113 72.772L56.0565 73.1657L55.6006 73.2158Z" fill="#B03A3F"/>
<path d="M66.725 68.8861L65.7949 68.5354L67.4088 69.0293L66.725 68.8861Z" fill="#B03A3F"/>
<path d="M70.2361 68.2988C69.534 68.0125 70.8105 67.4614 70.1175 67.3325C71.0416 67.2692 71.9723 67.3544 72.853 67.5831C71.9013 67.5762 70.9762 67.8292 70.2361 68.2988Z" fill="#B03A3F"/>
<path d="M74.2037 67.7764C73.7411 67.7453 73.2833 67.6806 72.8359 67.5831C73.3027 67.5841 73.7657 67.6496 74.2037 67.7764Z" fill="#B03A3F"/>
<path d="M64.9902 70.3379C65.0551 70.1588 65.1709 69.9937 65.3288 69.8548C65.4868 69.716 65.6827 69.6071 65.902 69.5362L65.5282 70.252L64.9902 70.3379Z" fill="#B03A3F"/>
<path d="M65.5234 70.2891L66.6906 70.0457L65.5234 70.2891Z" fill="#B03A3F"/>
<path d="M64.8574 70.4028H64.9956C64.9588 70.4389 64.9311 70.4677 64.8574 70.4028Z" fill="#B03A3F"/>
<path d="M59.1484 72.1064C60.0603 72.3068 61.8839 72.3998 60.3429 73.1729C59.6499 72.8508 60.5253 72.4141 59.1484 72.1064Z" fill="#B03A3F"/>
<path d="M64.3984 71.2694L62.9578 71.6631C62.9578 71.4985 63.1401 71.2265 62.6934 71.1334L64.3984 71.2694Z" fill="#B03A3F"/>
<path d="M65.1676 71.3262L64.3926 71.2689L64.9214 71.1186L65.1676 71.3262Z" fill="#B03A3F"/>
<path d="M71.8865 68.8428C72.6232 68.9339 73.3764 68.8973 74.0931 68.7354C73.3022 69.0386 72.4743 69.2784 71.6221 69.4512C71.4488 69.2579 70.9747 68.9931 71.8865 68.8428Z" fill="#B03A3F"/>
<path d="M68.8145 69.6227H68.9619C68.8974 69.6875 68.8329 69.7164 68.8145 69.6227Z" fill="#B03A3F"/>
<path d="M81.7263 67.0388L81.6437 67.1748L81.5703 67.0818L81.7263 67.0388Z" fill="#B03A3F"/>
<path d="M71.5227 69.5585C71.3029 69.6511 71.0597 69.7042 70.8106 69.7141C70.5614 69.724 70.3126 69.6904 70.082 69.6158C70.6009 69.5801 71.1158 69.5155 71.623 69.4225C71.6959 69.4941 71.6959 69.5514 71.5227 69.5585Z" fill="#B03A3F"/>
<path d="M76.4288 67.5973C76.1208 67.7991 75.7947 67.9833 75.4531 68.1484C75.7084 67.8979 76.2555 67.4756 76.4288 67.5973Z" fill="#B03A3F"/>
<path d="M69.1316 69.416H69.0215C69.1958 69.2371 69.1866 69.3087 69.1316 69.416Z" fill="#B03A3F"/>
<path d="M69.1322 69.4157C69.4462 69.4502 69.7529 69.5176 70.0441 69.6161C69.6739 69.641 69.3018 69.641 68.9316 69.6161C69.009 69.5562 69.0764 69.4889 69.1322 69.4157Z" fill="#B03A3F"/>
<path d="M85.5272 70.2534C85.1989 69.7381 83.3479 69.6235 82.1261 70.5469C80.5578 70.4681 80.8313 68.4568 81.6702 67.1756C81.7978 67.4046 81.8799 67.6194 83.4391 67.6051C83.0562 68.0202 80.5031 69.0366 81.9073 69.2585C83.9315 69.0867 83.4026 68.693 84.2233 68.192C83.6944 69.0581 87.0499 68.6 87.0317 69.6808C86.4208 69.6808 85.8098 69.7237 85.208 69.7381C85.2263 69.9027 85.9375 70.0029 85.5272 70.2534Z" fill="#B03A3F"/>
<path d="M78.9892 67.8614L78.3691 67.9258C79.0821 67.6349 79.7048 67.2244 80.1928 66.7233C81.2687 66.7591 81.5423 66.9166 81.679 67.0812C80.7216 67.3245 79.7642 67.5894 78.7977 67.7969L78.9892 67.8614Z" fill="#B03A3F"/>
<path d="M75.6692 68.4926C76.3348 68.9936 77.8576 68.9363 77.2011 69.7666C75.4322 70.103 75.806 69.5376 74.6662 69.5018C77.5385 69.0437 73.7544 69.3443 75.6692 68.5641C75.1383 68.5873 74.6107 68.6448 74.0918 68.7359C74.5612 68.5648 75.0151 68.3687 75.4504 68.149L75.4048 68.2062C75.3045 68.3064 75.2863 68.3566 75.4048 68.285H75.4686C75.5197 68.3607 75.5876 68.4286 75.6692 68.4854C76.4443 68.1848 75.7513 68.2993 75.4686 68.285C75.4686 68.285 75.4139 68.2349 75.4048 68.2062L78.3317 67.9271C77.4733 68.1916 76.5804 68.3812 75.6692 68.4926Z" fill="#B03A3F"/>
<path d="M62.2383 74.2246C62.2627 74.2036 62.2803 74.1784 62.2898 74.1511C62.2994 74.1237 62.3004 74.0949 62.293 74.0671C62.5027 74.1172 62.5756 74.153 62.2383 74.2246Z" fill="#B03A3F"/>
<path d="M63.3258 73.6604C63.1559 73.5801 62.965 73.5313 62.7674 73.5176C62.5699 73.504 62.3711 73.5259 62.186 73.5816C61.648 73.8536 62.268 73.8679 62.2954 74.0684C61.8395 73.9753 60.7362 73.8679 61.9489 73.3526L62.1769 73.4027C63.2802 72.9947 64.5567 71.9712 64.3288 71.9354C64.1697 72.5638 63.8263 73.1544 63.3258 73.6604Z" fill="#B03A3F"/>
<path d="M69.6875 71.2685L72.1586 71.0968L71.1099 71.8555V71.5262C69.7604 71.9199 69.9337 71.4761 69.6875 71.2685Z" fill="#B03A3F"/>
<path d="M81.8973 66.681L81.3594 66.1299L83.0371 66.6953L81.8973 66.681Z" fill="#B03A3F"/>
<path d="M84.95 66.0508L84.6309 65.5354L85.5518 65.6571L84.95 66.0508Z" fill="#B03A3F"/>
<path d="M72.4762 2.83496L71.7012 2.75626C71.9622 2.76218 72.2218 2.78854 72.4762 2.83496Z" fill="#B03A3F"/>
<path d="M77.8684 2.3403L78.0325 2.6123C77.759 2.46199 77.6495 2.3403 77.8684 2.3403Z" fill="#B03A3F"/>
<path d="M146.463 36.375C146.126 35.5376 145.287 34.6214 146.071 34.8504L146.764 35.2083C146.532 35.569 146.428 35.972 146.463 36.375Z" fill="#B03A3F"/>
<path d="M120.932 8.61817L121.296 8.51079L121.752 9.22656C121.543 9.05478 121.26 8.84006 120.932 8.61817Z" fill="#B03A3F"/>
<path d="M121.143 5.99842L119.611 6.09863C120.114 6.01435 120.629 5.98067 121.143 5.99842Z" fill="#B03A3F"/>
<path d="M43.4282 7.4873C43.0543 7.35131 42.6987 7.23677 42.334 7.11509C43.6561 6.75005 43.2276 7.22963 43.4282 7.4873Z" fill="#B03A3F"/>
<path d="M115.262 57.2397C115.804 56.8195 116.417 56.4605 117.085 56.1732C116.31 56.846 115.8 57.619 115.262 57.2397Z" fill="#B03A3F"/>
<path d="M75.5432 9.17676C75.0964 9.10518 74.8958 8.99782 74.8867 8.86183C75.3426 8.91909 75.6162 9.01214 75.5432 9.17676Z" fill="#B03A3F"/>
<path d="M119.447 55.3074C119.337 55.4148 119.21 55.4935 119.1 55.5937C118.406 55.7121 117.734 55.9023 117.104 56.1592C117.375 55.8767 117.73 55.6512 118.139 55.5026C118.548 55.354 118.997 55.2869 119.447 55.3074Z" fill="#B03A3F"/>
<path d="M44.6406 58.0776C44.7227 58.0776 44.823 58.0776 44.9051 58.0776C44.9871 58.0776 44.7865 58.1205 44.6406 58.0776Z" fill="#B03A3F"/>
<path d="M75.9614 56.2451C75.5637 56.1807 75.162 56.1329 74.7578 56.102C75.1668 56.0917 75.5747 56.1402 75.9614 56.2451Z" fill="#B03A3F"/>
<path d="M96.8592 62.6008C96.2209 62.744 96.7315 62.5651 96.8592 62.6008V62.6008Z" fill="#B03A3F"/>
<path d="M94.8359 65.7716C94.9173 65.7801 94.9947 65.8041 95.0615 65.8415C95.1283 65.8789 95.1823 65.9287 95.2189 65.9863C95.1321 65.878 94.9946 65.8009 94.8359 65.7716Z" fill="#B03A3F"/>
<path d="M127.626 56.4091H127.681C127.571 56.5737 127.589 56.5379 127.626 56.4091Z" fill="#B03A3F"/>
<path d="M96.041 63.1377C96.2696 62.9884 96.5136 62.8544 96.7705 62.7369C96.545 62.8893 96.3006 63.0236 96.041 63.1377Z" fill="#B03A3F"/>
<path d="M96.0394 62.8296L95.5196 63.0371C95.4011 62.9584 95.4011 62.8797 96.0394 62.8296Z" fill="#B03A3F"/>
<path d="M97.7543 62.3794C97.4109 62.4711 97.0808 62.5911 96.7695 62.7373C96.8698 62.6586 96.9063 62.6085 96.8607 62.6013L97.7543 62.3794Z" fill="#B03A3F"/>
<path d="M3.24596 30.7426C3.24596 30.7856 3.24596 30.8357 3.24596 30.8858C2.60768 31.351 2.79917 31.1077 3.24596 30.7426Z" fill="#B03A3F"/>
<path d="M153.759 22.7045C153.759 22.7045 153.759 22.7546 153.759 22.7832L153.686 22.7045H153.759Z" fill="#B03A3F"/>
<path d="M152.975 20.4423C152.844 20.8371 152.843 21.2513 152.97 21.6466C153.098 22.0419 153.35 22.4056 153.704 22.7042C152.902 22.7042 152.054 22.7543 151.242 22.8115C151.886 22.0527 152.465 21.2613 152.975 20.4423Z" fill="#B03A3F"/>
<path d="M59.6493 4.43089L61.2359 3.57912C58.8925 3.04946 57.4336 3.62925 58.8652 2.57708C59.2572 3.50758 60.9623 3.24988 62.6765 3.00652C64.3908 2.76316 66.1141 2.63431 66.4515 3.57196L67.5092 3.01369C67.1901 3.07811 67.108 2.97074 66.7888 3.01369C68.8496 1.79688 68.731 4.13026 71.5577 3.57912C72.5424 3.32861 73.1989 2.97787 72.4695 2.81325L74.7946 3.07096C75.442 2.96359 75.2323 2.64865 74.5849 2.74886C75.7338 2.67012 76.8918 2.64863 78.0498 2.63431V2.57708C78.7689 2.90312 79.5188 3.18548 80.2929 3.42168C81.1409 3.08527 79.837 3.24275 80.0376 2.98507L81.9706 3.33579C82.7092 2.78465 81.0588 2.39811 79.7822 2.54842C80.5846 1.52488 81.0041 1.62508 81.6697 1.83266C82.2376 2.00373 82.8448 2.08001 83.4523 2.05659C84.0599 2.03318 84.6546 1.91058 85.1984 1.69666L83.3748 1.48911C84.4963 0.365349 85.9553 0.730377 88.0251 0.000297546C87.5145 0.365334 83.9219 1.81837 86.0464 2.26214C86.4493 2.1516 86.8763 2.10542 87.3022 2.12632C87.7281 2.14722 88.1444 2.23475 88.5266 2.38381C88.5266 1.66805 89.639 1.82553 91.0158 1.91142L90.9338 0.995224C92.4383 1.28869 92.3015 1.71101 93.1677 2.17625C93.7068 2.18178 94.2346 2.05509 94.6776 1.81387C95.1205 1.57265 95.4566 1.22891 95.6388 0.830612C98.3742 0.830612 93.7239 1.86845 96.8697 2.1977C99.1036 1.99729 100.645 2.43391 103.189 3.19263C104.766 3.04232 102.997 2.60572 103.59 2.4053L104.839 3.27851C105.176 3.27851 105.103 3.0638 105.067 2.94212C106.161 3.34296 105.012 3.85827 106.754 4.29489C106.9 4.82456 107.875 4.55257 109.079 4.29489C110.283 4.03722 111.705 4.00146 112.662 4.73154C113.264 4.56691 112.535 4.1446 112.79 3.82251C115.626 5.02499 115.261 4.73867 117.349 6.22747L119.61 6.07002C117.86 6.42075 119.547 7.60889 120.96 8.58949C120.313 8.79706 119.765 8.98317 119.419 9.05475L120.641 9.56296L121.835 10.1284C122.2 10.064 122.063 9.69893 121.781 9.22653C121.921 9.32874 122.052 9.43879 122.173 9.55579C123.23 9.47706 122.957 8.84 122.474 8.18149C122.091 8.27454 121.698 8.37478 121.325 8.48215C120.878 7.76638 120.468 7.05061 120.796 6.59251C121.022 6.7733 121.291 6.91689 121.589 7.01484C121.471 6.82874 121.407 6.67842 121.525 6.60685C121.644 6.53527 121.863 6.79293 122.209 7.12934L123.194 6.31335V6.73568L126.969 7.04345C128.026 7.83079 128.884 8.80425 129.932 9.7419C131.092 10.7902 132.451 11.6908 133.962 12.4117C133.434 11.3953 134.4 11.2235 134.829 10.4004C133.306 10.88 132.029 9.06905 129.914 8.58949C131.008 8.83284 130.981 8.3676 130.78 8.14571L133.972 10.0783C134.263 9.36253 135.011 9.83494 136.105 9.90651C134.637 10.9372 138.23 11.746 139.351 12.7696C139.743 12.3974 139.716 11.7961 137.883 11.1806C139.169 11.0947 139.561 11.7389 139.88 12.3974C140.199 13.0559 140.491 13.7144 141.704 13.7716C141.303 13.5569 141.029 13.514 141.029 13.2277C141.713 14.0293 144.202 15.0028 143.992 14.3729L143.591 14.1438C145.404 15.0278 147.013 16.1458 148.351 17.4507C149.737 18.8249 150.384 20.2565 149.874 20.7361C150.439 20.3364 150.922 19.8704 151.305 19.3546C151.25 19.8905 151.155 20.4233 151.023 20.9508C150.925 21.4585 150.785 21.9606 150.603 22.4539C150.448 22.9389 150.26 23.4168 150.038 23.8854C149.801 24.3507 149.554 24.7873 149.299 25.2096C150.162 24.8871 151.086 24.6768 152.035 24.5869C153.065 24.3721 153.931 23.9999 153.731 22.7974C154.498 23.5818 154.898 24.5501 154.861 25.5388C154.515 25.1237 152.627 24.9233 152.718 25.4959C153.31 25.7946 153.821 26.1812 154.223 26.634L154.67 27.1851C154.88 27.4213 155.135 27.7434 155.509 28.223C155.126 27.6002 153.174 28.545 153.357 29.4684C153.658 29.2966 155.427 29.4684 155.6 29.0532C155.317 29.5113 154.962 29.948 154.642 30.3703C154.327 30.7939 153.98 31.2025 153.603 31.5942C154.004 31.0001 155.345 31.5083 155.892 32.131C155.545 31.8447 155.709 34.3714 155.281 34.9941C155.223 34.616 155.138 34.2408 155.025 33.8703C155.013 34.3891 154.825 34.896 154.481 35.3389C154.136 35.7817 153.647 36.1445 153.065 36.3898C152.584 36.6309 152.132 36.9065 151.716 37.213C151.227 37.5854 150.872 38.0519 150.685 38.5658C151.196 38.394 153.521 38.4799 153.101 39.8899L149.354 40.6987C148.57 40.8848 147.749 41.0924 146.992 41.3286C146.634 41.4397 146.287 41.5712 145.953 41.7223C145.628 41.8532 145.322 42.0116 145.041 42.1947L145.269 42.7888C144.713 43.1467 144.102 43.4616 143.527 43.7837C145.058 43.7103 146.568 43.4694 148.014 43.0679C149.653 42.647 151.204 42.0392 152.618 41.2642C152.445 42.3808 153.129 41.7867 152.117 43.2039C152.253 43.9197 153.43 42.7387 153.703 42.2878C153.421 42.8962 153.074 43.4902 152.718 44.0772C152.363 44.6641 151.98 45.2439 151.588 45.8236C150.722 45.1866 148.415 47.6775 147.704 47.019C148.415 46.6253 149.062 46.1457 149.755 45.7019C150.448 45.2582 151.05 44.7428 151.697 44.2704C151.232 43.9555 150.074 44.1201 148.88 44.5782C147.534 45.067 146.357 45.8036 145.451 46.7255C145.315 47.4413 147.503 47.4413 147.786 47.6918C147.202 47.7705 145.141 49.1233 145.132 49.4382C145.625 49.3022 146.044 49.1448 146.564 48.9873C146.081 49.5484 145.35 49.9488 144.512 50.1111C144.062 50.2202 143.652 50.4113 143.314 50.6688C142.977 50.9263 142.722 51.2429 142.57 51.5927C142.068 52.0078 141.877 53.6899 141.303 53.3034C141.394 51.8289 138.695 49.1519 137.482 48.8871C137.427 48.9802 136.953 49.6029 136.452 50.3186C135.975 50.9185 135.575 51.5538 135.257 52.2154C135.102 52.8167 135.823 53.0529 136.57 53.2533C137.318 53.4537 138.075 53.5968 137.938 54.1408C137.71 53.9476 136.935 53.9905 136.625 54.0192C136.16 54.5417 137.482 54.5488 136.023 55.193C135.111 54.4772 133.288 56.6961 134.783 54.8423C133.251 55.2932 133.488 55.7298 131.847 56.4599C131.938 55.6797 129.029 55.2789 127.507 55.5938C127.744 55.7799 127.634 56.1951 127.571 56.3883C124.835 57.6481 123.504 58.6358 120.805 59.6451C120.686 59.9528 119.519 60.6829 120.303 60.8619C119.682 60.7518 119.033 60.7841 118.434 60.9549C117.249 62.3077 120.376 60.4038 119.674 61.7637C119.264 61.2913 117.076 61.8353 115.699 61.9427C115.617 61.0122 118.37 60.7974 119.765 60.6901C119.118 59.5878 116.373 59.2013 113.273 59.6665C110.866 60.1533 112.69 60.7116 112.206 60.6901C108.058 62.3149 107.565 59.9743 104.447 61.8711C103.398 63.0307 105.103 63.3026 105.049 63.9325C107.055 63.6104 107.684 62.5797 108.96 62.2075L107.574 63.0378C108.514 63.0861 109.445 62.8705 110.2 62.4294C109.362 63.4744 103.006 64.8916 99.9061 66.4448C99.1948 66.3804 98.0824 66.4448 98.4016 65.9939L99.514 65.7864C100.207 64.9131 97.1432 65.5644 98.356 64.8988C96.7512 64.8988 94.8546 64.6841 93.0036 65.5716V66.5021C92.9398 66.2516 94.0978 65.6503 94.7725 65.7505C93.7786 65.6002 92.183 67.7261 90.7879 66.8671C91.18 66.5594 91.5629 66.2373 91.9459 65.9152C90.332 65.9152 88.1892 65.4356 86.5206 66.1585C86.9947 65.1278 86.9765 66.1585 87.8427 64.863C87.2409 66.3446 92.3562 63.6462 91.1344 65.3569C91.9368 63.8896 93.1586 64.2761 94.4169 62.866C94.4808 63.1523 94.0522 63.5818 95.4746 63.0163C95.6096 63.0792 95.7534 63.1296 95.9032 63.1666L95.9944 63.1165L95.9305 63.1738C96.0126 63.1738 96.0217 63.1738 95.9305 63.1738C95.675 63.3353 95.4797 63.548 95.3652 63.7894C96.3956 64.2331 98.7298 63.5102 99.6781 63.6033C100.49 63.2167 99.1584 63.3957 99.5049 62.9662L100.918 63.1022C100.745 62.4652 102.742 61.4202 100.526 61.6707C101.137 61.4846 101.748 61.3056 102.35 61.0981C103.263 60.3935 104.438 59.9348 105.705 59.7882C106.498 59.3874 108.231 59.7882 107.237 59.5305L110.273 58.9436L110.219 58.7861C112.954 57.7984 116.538 57.7626 119.082 55.5652C120.33 55.3828 121.517 54.9976 122.565 54.4343V53.8187C123.85 53.5396 125.638 51.9291 126.467 52.2226C126.604 51.3064 127.862 50.6479 129.267 50.0753C130.593 49.606 131.842 49.0123 132.987 48.3073L133.598 48.8585C134.89 48.1246 136.246 47.4621 137.655 46.8758L138.111 47.4126C139.789 46.9474 140.71 44.8573 142.269 43.4043C141.913 43.3542 141.585 43.7694 141.458 44.1201C141.695 42.753 142.825 42.0587 143.929 41.2213C144.492 40.834 144.999 40.3995 145.442 39.9257C145.855 39.4685 146.066 38.9182 146.044 38.3582C146.25 38.2177 146.409 38.04 146.507 37.8405C146.606 37.6409 146.641 37.4256 146.609 37.213C146.593 37.2551 146.561 37.2924 146.518 37.3203L146.591 37.1199C146.591 36.8694 146.491 36.6117 146.463 36.3469C146.56 36.5618 146.622 36.7855 146.646 37.0126C146.905 36.5188 147.21 36.0404 147.558 35.581L146.783 35.173C146.803 35.1311 146.827 35.0905 146.856 35.0514C146.719 34.4573 147.403 34.6863 147.95 35.1015C148.162 34.8577 148.407 34.6322 148.679 34.4286C148.032 34.0851 148.26 33.7129 148.442 33.3478C148.624 32.9828 148.761 32.5319 148.059 32.174C148.433 32.0093 148.652 31.3008 148.88 30.5778C148.97 30.2236 149.117 29.8796 149.317 29.5543C149.462 29.2634 149.747 29.0292 150.111 28.9029C149.91 28.9029 149.782 28.7312 149.819 29.0532C149.678 28.7377 149.565 28.4148 149.482 28.087C149.364 27.774 149.364 27.4408 149.482 27.1278L148.324 27.0563C148.634 26.5266 148.971 25.954 149.235 25.3527C148.169 24.6942 147.676 24.5511 147.248 25.546C147.389 24.9155 147.355 24.2684 147.147 23.6492L146.983 23.0193C146.919 22.7617 146.901 22.4109 146.819 21.8956L146.29 22.2964C145.898 21.7739 145.78 20.4784 144.977 20.4927C143.847 20.3137 142.242 19.0611 140.017 17.9016C137.743 16.6117 135.164 15.6918 132.431 15.196C133.342 14.5948 132.686 14.5733 131.893 14.5518C131.099 14.5304 130.133 14.5518 130.361 13.9148C129.887 14.1868 129.13 14.1868 129.713 14.7451C128.815 14.3267 127.836 14.0269 126.814 13.8576C126.404 13.7779 126.013 13.6474 125.656 13.471C125.251 13.2799 124.907 13.0177 124.653 12.7051C124.206 13.0058 124.935 13.4209 124.589 13.5426C124.425 13.4138 123.96 13.0201 123.604 13.1776C123.249 13.335 123.823 13.5784 124.133 13.8432C121.699 13.1275 121.908 11.9178 122.164 10.7797C120.668 10.9587 120.066 10.7153 119.364 9.81346C118.772 10.0783 117.887 10.3002 119.446 10.7583C118.534 10.6294 113.784 10.1499 113.975 9.26231C113.62 9.44841 112.672 9.13346 112.453 8.99031C111.009 8.8562 109.578 8.65061 108.167 8.37476L108.76 8.31749C108.194 7.08637 107.1 7.87372 105.477 7.55878V7.67333C103.508 7.86658 103.116 7.7234 102.742 7.60173C102.498 7.51593 102.234 7.46967 101.967 7.46573C101.312 7.49857 100.662 7.57764 100.025 7.70194L100.307 7.02912C100.216 6.31335 99.3407 6.44935 98.2374 6.71418C97.1343 7.09366 95.9119 7.20583 94.7269 7.03629L95.5476 6.65695C94.3531 6.12729 92.1009 8.60379 90.9338 8.76126C90.6785 8.88294 91.335 8.97599 91.6906 9.0762C88.5995 9.89933 91.3076 8.15288 88.9551 7.93099C88.5266 8.42487 89.5022 9.15496 87.9613 9.27663C87.5783 9.48421 86.4476 9.11916 85.1346 8.81853C84.4791 8.65739 83.8036 8.5518 83.1195 8.5036C82.4805 8.47387 81.845 8.59609 81.2959 8.85432C81.7335 8.45349 82.2077 8.05267 81.0679 7.83794C79.3719 7.83794 76.755 9.4842 75.1137 8.5036C75.0426 8.53835 74.9826 8.58549 74.9383 8.64134C74.8941 8.69719 74.8667 8.76025 74.8584 8.8257C73.5637 8.66108 70.6823 8.71118 69.7887 8.20299C69.4422 9.45558 67.4454 9.43412 65.567 9.37685C63.6887 9.31959 61.9197 9.31956 62.2571 10.3717L58.4002 10.9229L58.5734 11.1233C56.1935 11.7532 55.1814 11.4454 54.142 11.1233C53.6313 11.3882 54.1419 11.4955 54.1967 11.5957C53.3487 11.8892 52.6922 12.1111 52.1268 12.2685C51.6503 12.4216 51.1555 12.5366 50.6497 12.6121C49.464 12.7037 48.2679 12.67 47.0936 12.5119V13.2277C46.6724 13.2357 46.2623 13.3347 45.9082 13.514C45.3794 13.7358 44.732 14.0651 43.9934 14.3944C42.4349 15.1747 40.6921 15.7005 38.869 15.9404C38.9308 15.9991 39.009 16.0458 39.0976 16.0768C39.1862 16.1079 39.2827 16.1224 39.3796 16.1194C37.328 16.3556 35.3129 17.5079 33.5531 18.4241C31.7933 19.3403 30.2797 19.9917 28.8846 19.0898C27.9728 19.2115 27.061 19.3331 26.1492 19.4763C29.0943 18.0448 25.0185 18.6746 26.0306 17.7728C24.6994 18.1378 23.3864 19.7912 24.9365 19.2616L25.0823 19.054C25.7662 19.5264 24.9 20.0417 23.9517 20.5285C23.0034 21.0152 22.0095 21.5234 22.3651 21.9027C19.5872 23.2212 17.0478 24.827 14.8153 26.6769C13.747 27.5523 12.7395 28.4722 11.7972 29.4326C10.9111 30.2902 10.1094 31.1994 9.39908 32.1525C9.11642 31.8447 8.85199 31.5155 8.59668 31.1791C8.25688 31.6145 7.95234 32.0664 7.68486 32.5319C7.76692 32.9828 8.34139 33.312 8.87024 32.4245C9.02525 32.7967 8.67876 33.083 8.24108 33.312C7.92369 33.498 7.5552 33.6231 7.16515 33.6771C7.11044 34.171 7.23807 34.3929 7.4022 34.3929C7.56633 34.3929 7.75781 34.3929 7.97665 34.2425C8.37785 34.0063 8.81554 33.6628 8.73347 33.899C8.61031 34.097 8.50072 34.3001 8.4052 34.5074L8.29579 34.3356C7.97924 34.4906 7.67476 34.6603 7.38397 34.8438C7.23372 34.9719 7.12598 35.127 7.07031 35.2956C7.01465 35.4641 7.01277 35.6408 7.06483 35.8101C7.42956 36.4328 7.90372 36.0463 8.02226 36.261C8.11344 36.261 8.18638 36.3039 8.15902 36.5831C8.37029 37.0133 8.65229 37.4199 8.99788 37.7927C8.56244 37.7785 8.12932 37.7354 7.70311 37.6639C7.63017 38.5014 8.87024 39.0095 7.24721 38.8378C7.98676 38.9949 8.67012 39.284 9.24409 39.6824C9.98266 40.1261 10.8762 40.6701 11.8063 41.1926C13.6299 42.2448 15.6906 43.1896 16.3198 43.1896C17.496 44.3134 19.0552 44.9146 21.0612 45.5516C20.4868 45.5516 19.6935 46.2674 21.4533 46.7684C21.8454 44.8001 24.9729 47.112 27.0336 46.2602C26.2039 46.4821 27.3801 46.9331 28.447 47.3912C29.5138 47.8493 30.4985 48.3002 29.2129 48.608C30.7265 48.9014 29.6414 47.9709 30.9362 47.8922C33.9999 49.6387 38.6684 49.61 42.8537 50.8698C42.8537 51.1274 41.9418 51.3279 42.7534 51.9005L45.4888 51.2277C46.2912 51.5426 45.7806 52.8024 47.6407 52.2942C47.3489 52.4516 46.9112 52.6878 47.4674 52.8882C51.9353 53.2103 56.2391 54.2482 60.6797 54.9998C65.1202 55.7513 69.6611 56.281 74.2566 55.4793C72.9892 55.8587 73.7825 55.9804 74.7034 56.0734C74.0925 56.1378 74.6396 56.689 74.4755 57.0254C75.7611 56.8249 77.0559 56.5744 78.3233 56.3096C78.916 57.3188 82.3353 56.5887 82.6636 57.4978L81.4782 57.2902C83.001 58.4211 79.0619 59.5735 79.1622 60.9334C78.3051 60.2678 77.0741 60.64 75.6699 60.9334C74.2657 61.2269 72.7339 61.3987 71.3662 60.4109C70.6641 60.6328 71.8677 60.8977 71.4665 61.184C70.7917 60.5469 69.8982 60.3179 68.1657 60.4038L68.3298 60.5684C63.6066 59.9171 61.473 60.2177 56.0476 59.7668L56.613 59.1727C55.9336 59.1044 55.2435 59.1508 54.5887 59.3087C53.5584 58.0847 57.7892 59.7954 56.8956 58.4784C55.9838 59.0295 53.9596 58.7146 52.0265 58.3853C50.0935 58.0561 48.206 57.7554 47.4674 58.3853C45.7259 58.0274 48.2242 57.734 46.4918 57.3761L45.8991 57.6839L45.6438 57.0683C45.2651 56.9727 44.8571 56.9769 44.4818 57.0803C44.1064 57.1837 43.7844 57.3806 43.5649 57.6409C43.9263 57.7255 44.2725 57.8457 44.5952 57.9988C42.9357 58.1778 40.5194 56.8751 39.9541 56.9252L41.7048 57.0683C37.1457 55.6368 31.2645 54.6132 27.2889 52.423L27.7722 52.2226C26.8871 51.7002 25.8606 51.3451 24.7723 51.1847C23.595 51.0434 22.4643 50.7225 21.4442 50.2399L21.5354 50.3544C20.8789 49.7557 20.042 49.2956 19.1008 49.0159C19.812 49.6816 17.0036 49.066 17.9702 49.8677C14.797 47.9709 16.493 48.7583 14.8518 46.8257L14.0129 47.0905C13.6268 46.2828 12.882 45.6118 11.9157 45.2009C13.0737 46.2459 10.2562 45.387 11.5145 46.6325C9.73048 46.3417 8.14967 45.5374 7.08309 44.3778C6.17127 43.4974 5.55123 42.8174 3.97379 42.6957C3.97379 41.5219 4.83088 42.0802 5.66975 42.6528C6.50862 43.2254 7.37485 43.9125 7.06483 43.4974C7.63016 43.569 7.52075 43.1323 7.16515 42.617C6.78182 42.0606 6.29982 41.5497 5.73359 41.0996C5.27768 40.6844 4.42969 40.6129 3.42669 40.1906C2.71137 39.8991 2.09547 39.4772 1.63063 38.9604C1.16579 38.4436 0.865562 37.8468 0.755072 37.2201C0.86449 37.5637 0.75505 37.6067 0.846232 37.9359C0.466591 37.3179 0.336195 36.6238 0.472411 35.9461C0.626938 35.2018 0.626938 34.4428 0.472411 33.6986C0.951799 33.3824 1.27452 32.9442 1.38423 32.4603C1.55747 32.0738 1.74895 31.7445 2.48752 31.8662C1.93847 32.7413 1.55452 33.6744 1.34775 34.6362C1.71715 33.7996 2.2935 33.0285 3.04371 32.3672C3.86974 31.5937 4.48983 30.6981 4.86735 29.7332C4.23372 29.9266 3.66795 30.2358 3.21696 30.6351C3.27167 29.8048 4.31114 29.5042 4.46615 28.7097C3.80052 28.4806 3.12579 29.1177 2.48752 30.0482C1.8816 31.0663 1.20587 32.0579 0.463284 33.0186C0.299157 32.5032 0.882703 31.6586 1.32949 31.1218C1.77628 30.585 2.02249 30.2128 1.06509 30.406C2.32339 30.1197 2.69722 29.4469 3.18048 28.6739C3.38103 28.2269 3.70012 27.8184 4.11665 27.4754C4.53317 27.1324 5.03768 26.8627 5.59682 26.6841L4.82177 26.3548C5.41977 26.1374 5.97054 25.8475 6.45393 25.4959L4.76706 25.6748C5.64912 25.3103 6.33747 24.7116 6.70924 23.9856C7.07572 23.2729 7.71232 22.6657 8.53287 22.2463C7.07396 23.3128 7.12866 23.5991 7.41133 23.7494C7.69399 23.8997 8.24108 23.9498 7.89459 24.5797C9.97353 23.5705 10.0829 22.9263 10.2197 22.1318C10.3565 21.3373 10.5024 20.4354 12.791 19.2687C12.1163 19.5336 10.9674 20.9293 12.089 20.6072C12.827 20.0077 13.4422 19.3219 13.9126 18.5744C16.9125 17.0713 13.9855 19.3904 15.5174 19.0469C15.9004 17.8372 17.1769 18.553 18.6176 18.1521L18.1617 17.5652C19.6844 16.5417 20.1677 16.7779 20.5597 16.9854C20.9518 17.193 21.3165 17.4221 22.666 16.5273L20.7786 16.2625L22.5292 15.7686L21.7177 15.2318C23.8423 14.9813 24.2891 14.6306 25.9121 13.743C25.7844 14.3371 26.8239 14.7809 28.3831 14.2226C29.2129 13.471 27.4713 13.8432 29.6779 13.1346C28.9576 12.9199 28.1187 12.6264 27.5078 13.5569C27.2889 13.3923 26.7783 13.3565 26.596 13.1919C27.5078 12.3258 29.4135 12.0323 30.2432 11.7603C29.9482 11.8707 29.6821 12.0237 29.4591 12.2113C30.6991 12.1182 31.9301 12.0466 33.1702 11.9965C33.544 11.5886 33.0425 11.5313 32.5319 11.474C33.3042 11.4282 34.0719 11.3422 34.8297 11.2164C34.3008 10.7798 34.082 10.2214 32.5775 10.429L35.9785 9.9924C36.0697 9.69894 37.2551 8.84718 36.7536 8.78992C38.3766 7.97395 41.5315 8.56085 43.6652 7.50867C43.9788 7.60444 44.3218 7.62439 44.6499 7.56594C45.7259 7.22953 46.6833 6.77861 47.741 6.41357C48.877 5.99012 50.1345 5.80752 51.3883 5.88391L52.5554 4.59554C54.7073 4.37366 50.9506 6.24895 54.5158 5.88391C57.0507 5.67634 55.1541 4.86036 55.9291 4.40228C57.3242 4.65995 59.7314 5.30412 61.7739 4.10878C61.053 4.1557 60.3406 4.2637 59.6493 4.43089ZM85.9553 2.28359C85.4355 2.1476 84.3869 1.72529 84.0313 2.14043C84.6605 2.89914 85.089 2.51266 85.9553 2.2693V2.28359ZM125.1 8.3032C124.835 7.98827 124.188 7.95245 123.504 8.0455C124.002 8.22861 124.55 8.31224 125.1 8.28888V8.3032ZM103.973 61.0337H104.037C104.921 60.5183 104.611 60.733 103.973 61.0337ZM102.003 61.9713C101.748 61.9713 101.721 61.8568 101.766 61.7351C101.994 61.8568 102.468 61.7351 102.988 61.5061C102.924 61.7494 102.696 61.9641 102.003 62.0071V61.9713ZM7.81253 36.44L7.51161 36.261C7.42955 36.8408 7.60281 36.6547 7.81253 36.4757V36.44Z" fill="#B03A3F"/>
<path d="M121.133 6.30615C120.978 6.37809 120.859 6.48914 120.796 6.62109C120.641 6.47078 120.677 6.34194 121.133 6.30615Z" fill="#B03A3F"/>
<path d="M43.6576 7.55957C43.6576 7.55957 43.6029 7.55957 43.5847 7.55957C43.5313 7.53589 43.4872 7.50129 43.457 7.4594L43.6576 7.55957Z" fill="#B03A3F"/>
<path d="M137.475 54.8848C137.726 54.6866 137.905 54.4396 137.994 54.169C138.14 54.2764 138.076 54.5126 137.475 54.8848Z" fill="#B03A3F"/>
<path d="M90.2148 64.1044L91.6555 63.9039C91.2167 63.999 90.8213 64.1902 90.5158 64.4551C90.4793 64.2905 90.6434 64.0042 90.2148 64.1044Z" fill="#B03A3F"/>
<path d="M79.6904 71.1189C79.4533 71.1189 79.2527 71.2048 79.0156 71.169L78.9609 70.8469C79.9001 70.6751 80.5657 70.7896 79.6904 71.1189Z" fill="#B03A3F"/>
<path d="M89.8474 66.6095C89.9659 67.1892 89.0176 67.2179 88.0237 67.3682C88.0831 67.3582 88.1411 67.3438 88.197 67.3252C87.5678 66.6238 88.7076 66.6166 89.8474 66.6095Z" fill="#B03A3F"/>
<path d="M87.7694 67.4044C87.4561 67.4488 87.1502 67.5209 86.8575 67.6191C86.6205 67.34 87.1949 67.476 87.7694 67.4044Z" fill="#B03A3F"/>
<path d="M99.1321 62.465C98.7492 62.737 98.5212 61.8495 98.3753 62.1501C97.5365 61.5846 101.786 62.0785 99.1321 62.465Z" fill="#B03A3F"/>
<path d="M89.8125 68.6279L89.8854 67.8549L90.6605 68.2629L89.8125 68.6279Z" fill="#B03A3F"/>
<path d="M97.3152 66.0446L95.8381 66.6602C95.8381 66.5385 95.5919 66.5313 95.3184 66.5457C96.3122 66.2737 97.2241 65.8514 97.3152 66.0446Z" fill="#B03A3F"/>
<path d="M95.3182 66.56C94.9135 66.7106 94.4713 66.7888 94.0234 66.7891C94.4453 66.682 94.8787 66.6053 95.3182 66.56Z" fill="#B03A3F"/>
<path d="M92.0566 68.2842L92.4578 68.0193L93.5338 67.6686L92.0566 68.2842Z" fill="#B03A3F"/>
<path d="M113.694 60.7832C114.286 60.6687 114.87 60.5398 115.444 60.4038C115.745 60.5684 115.371 60.8691 114.715 60.9908C114.232 60.9693 113.566 61.091 113.694 60.7832Z" fill="#B03A3F"/>
<path d="M109.654 64.2754C110.037 63.9963 109.983 63.8317 110.128 63.5597L110.612 64.3613L109.654 64.2754Z" fill="#B03A3F"/>
<path d="M114.623 62.8382C114.915 63.0099 117.413 62.6664 115.27 63.332C114.969 63.1817 113.191 63.5396 114.623 62.8382Z" fill="#B03A3F"/>
<path d="M137.956 51.5861L137.582 51.8008L136.506 50.6055L137.956 51.5861Z" fill="#B03A3F"/>
<path d="M155.999 37.2127C155.899 38.2076 155.562 38.2506 155.27 38.2721C154.978 38.2935 154.696 38.2721 154.613 39.1811C154.021 39.4889 154.75 37.7495 154.203 38.086C155.069 37.1125 154.978 36.4469 155.999 37.2127Z" fill="#B03A3F"/>
<path d="M154.205 38.0862C154.052 38.2526 153.884 38.4104 153.703 38.5586C153.843 38.3843 154.011 38.2255 154.205 38.0862Z" fill="#B03A3F"/>
<path d="M80.9395 55.7582L82.2981 55.5149L81.4045 55.9658L80.9395 55.7582Z" fill="#B03A3F"/>
<path d="M83.4395 56.9473L83.8133 56.0382L84.5701 56.9115C84.2692 56.8542 83.6856 56.7397 83.4395 56.9473Z" fill="#B03A3F"/>
<path d="M89.9314 0.330048L90.0408 0.559096C89.8129 0.795297 89.4755 0.795278 88.8008 0.852539C89.1473 0.666441 89.5211 0.494673 89.9314 0.330048Z" fill="#B03A3F"/>
<path d="M70.5372 2.11145L70.8654 2.06135L70.4004 2.95605L70.5372 2.11145Z" fill="#B03A3F"/>
<path d="M54.2773 3.57829C54.9156 3.41366 55.7271 3.42083 56.3654 3.27768C54.8974 3.38504 54.4415 4.63762 54.2773 3.57829Z" fill="#B03A3F"/>
</svg>
