<svg width="133" height="76" viewBox="0 0 133 76" fill="none" xmlns="http://www.w3.org/2000/svg">
<path d="M110.817 74.9191C111.324 75.0122 111.192 74.4038 111.277 74.2964C110.412 74.368 110.825 75.0766 110.817 74.9191Z" fill="#B03A3F"/>
<path d="M102.205 75.5491L102.385 75.3201L101.052 75.7925L102.205 75.5491Z" fill="#B03A3F"/>
<path d="M94.2775 74.5892C94.8621 75.7201 97.1694 74.804 98.5257 75.305L98.7283 75.5698L99.5078 74.8541C97.754 74.7682 95.4545 75.0616 94.2775 74.5892Z" fill="#B03A3F"/>
<path d="M90.465 71.7689C90.6443 72.1984 89.4985 71.9765 91.4082 72.0409C91.3538 72.003 91.3018 71.9624 91.2523 71.9192C90.9853 71.8921 90.7217 71.8418 90.465 71.7689Z" fill="#B03A3F"/>
<path d="M91.2526 71.9561C92.0788 72.0419 90.7693 71.5481 91.2526 71.9561V71.9561Z" fill="#B03A3F"/>
<path d="M87.4186 71.5698L88.5645 71.398C88.3852 71.1261 87.4342 70.9185 87.785 70.8111C86.6859 70.8183 86.8808 71.0545 87.4186 71.5698Z" fill="#B03A3F"/>
<path d="M86.2416 72.1343L86.834 72.077C86.756 71.9625 86.6157 71.9052 86.2416 72.1343Z" fill="#B03A3F"/>
<path d="M88.0879 71.9631L86.8329 72.0777C86.9576 72.2709 86.9109 72.593 87.402 72.0777C87.2461 72.3353 87.5423 72.092 88.0879 71.9631Z" fill="#B03A3F"/>
<path d="M88.7344 72.221C89.2956 72.5431 90.0595 72.8079 88.9059 72.9797C91.0105 73.2016 90.8312 72.4214 88.7344 72.221Z" fill="#B03A3F"/>
<path d="M93.7008 75.5775L94.4803 75.9927L95.2598 75.7565C94.8622 75.871 93.7008 75.2554 93.7008 75.5775Z" fill="#B03A3F"/>
<path d="M80.8228 69.8437C80.7059 70.0442 81.0488 70.4808 81.0722 70.7671L81.9219 70.674C81.5477 70.445 80.7994 70.173 80.8228 69.8437Z" fill="#B03A3F"/>
<path d="M81.0735 70.768L79.7952 70.8968C80.8475 71.1617 81.0891 71.0114 81.0735 70.768Z" fill="#B03A3F"/>
<path d="M85.8271 73.2153L87.9551 72.7716L85.4374 73.1652L85.8271 73.2153Z" fill="#B03A3F"/>
<path d="M76.3182 68.8857L77.1133 68.5349L75.7336 69.0288L76.3182 68.8857Z" fill="#B03A3F"/>
<path d="M73.3171 68.2983C73.9173 68.012 72.8261 67.4609 73.4185 67.3321C72.6285 67.2687 71.8328 67.3539 71.08 67.5826C71.8936 67.5757 72.6844 67.8287 73.3171 68.2983Z" fill="#B03A3F"/>
<path d="M69.9245 67.7759C70.3199 67.7448 70.7114 67.6801 71.0938 67.5826C70.6947 67.5836 70.2989 67.6491 69.9245 67.7759Z" fill="#B03A3F"/>
<path d="M77.8008 70.3374C77.7453 70.1584 77.6463 69.9932 77.5113 69.8544C77.3763 69.7155 77.2088 69.6066 77.0213 69.5357L77.3409 70.2515L77.8008 70.3374Z" fill="#B03A3F"/>
<path d="M77.3457 70.2886L76.348 70.0452L77.3457 70.2886Z" fill="#B03A3F"/>
<path d="M77.9141 70.4024H77.7959C77.8274 70.4384 77.851 70.4672 77.9141 70.4024Z" fill="#B03A3F"/>
<path d="M82.7949 72.1059C82.0154 72.3063 80.4565 72.3993 81.7738 73.1724C82.3662 72.8503 81.6179 72.4137 82.7949 72.1059Z" fill="#B03A3F"/>
<path d="M78.3061 71.2689L79.5376 71.6626C79.5376 71.498 79.3817 71.226 79.7637 71.1329L78.3061 71.2689Z" fill="#B03A3F"/>
<path d="M77.6499 71.3257L78.3125 71.2684L77.8604 71.1181L77.6499 71.3257Z" fill="#B03A3F"/>
<path d="M71.9052 68.8423C71.2754 68.9334 70.6315 68.8968 70.0188 68.7349C70.6949 69.0381 71.4027 69.2779 72.1312 69.4507C72.2793 69.2574 72.6847 68.9926 71.9052 68.8423Z" fill="#B03A3F"/>
<path d="M74.5312 69.6222H74.4052C74.4604 69.687 74.5155 69.7159 74.5312 69.6222Z" fill="#B03A3F"/>
<path d="M63.4936 67.0383L63.5642 67.1743L63.627 67.0813L63.4936 67.0383Z" fill="#B03A3F"/>
<path d="M72.2177 69.558C72.4056 69.6506 72.6135 69.7037 72.8264 69.7136C73.0394 69.7235 73.2521 69.6899 73.4492 69.6153C73.0057 69.5796 72.5655 69.515 72.1319 69.422C72.0695 69.4936 72.0696 69.5509 72.2177 69.558Z" fill="#B03A3F"/>
<path d="M68.0234 67.5968C68.2867 67.7986 68.5654 67.9828 68.8574 68.1479C68.6392 67.8974 68.1715 67.4751 68.0234 67.5968Z" fill="#B03A3F"/>
<path d="M74.2613 69.4155H74.3555C74.2064 69.2366 74.2143 69.3082 74.2613 69.4155Z" fill="#B03A3F"/>
<path d="M74.2602 69.4152C73.9917 69.4497 73.7296 69.5171 73.4807 69.6156C73.7971 69.6405 74.1152 69.6405 74.4316 69.6156C74.3655 69.5557 74.3079 69.4884 74.2602 69.4152Z" fill="#B03A3F"/>
<path d="M60.244 70.2529C60.5246 69.7376 62.107 69.623 63.1515 70.5464C64.4922 70.4677 64.2583 68.4563 63.5412 67.1751C63.4321 67.4042 63.3619 67.6189 62.029 67.6046C62.3564 68.0197 64.5389 69.0361 63.3385 69.258C61.6081 69.0862 62.0602 68.6925 61.3587 68.1915C61.8108 69.0576 58.9423 68.5995 58.9579 69.6803C59.4801 69.6803 60.0024 69.7233 60.5168 69.7376C60.5012 69.9022 59.8932 70.0024 60.244 70.2529Z" fill="#B03A3F"/>
<path d="M65.8332 67.8609L66.3633 67.9253C65.7538 67.6345 65.2215 67.2239 64.8043 66.7228C63.8845 66.7586 63.6507 66.9161 63.5338 67.0807C64.3522 67.3241 65.1707 67.5889 65.9969 67.7965L65.8332 67.8609Z" fill="#B03A3F"/>
<path d="M68.671 68.4921C68.102 68.9931 66.8003 68.9358 67.3615 69.7661C68.8737 70.1025 68.5541 69.5371 69.5285 69.5013C67.0731 69.0432 70.308 69.3438 68.671 68.5636C69.1249 68.5868 69.5759 68.6443 70.0195 68.7354C69.6183 68.5643 69.2302 68.3682 68.8581 68.1485L68.8971 68.2058C68.9828 68.306 68.9984 68.3561 68.8971 68.2845H68.8425C68.7989 68.3602 68.7408 68.4281 68.671 68.4849C68.0085 68.1843 68.6009 68.2988 68.8425 68.2845C68.8425 68.2845 68.8893 68.2344 68.8971 68.2058L66.395 67.9266C67.1288 68.1911 67.8921 68.3807 68.671 68.4921Z" fill="#B03A3F"/>
<path d="M80.1543 74.2241C80.1335 74.2032 80.1184 74.178 80.1102 74.1506C80.1021 74.1232 80.1012 74.0944 80.1075 74.0667C79.9283 74.1168 79.8659 74.1525 80.1543 74.2241Z" fill="#B03A3F"/>
<path d="M79.2235 73.6599C79.3687 73.5796 79.5319 73.5308 79.7008 73.5172C79.8696 73.5035 80.0396 73.5254 80.1978 73.5812C80.6577 73.8531 80.1277 73.8675 80.1043 74.0679C80.4941 73.9748 81.4372 73.8675 80.4005 73.3521L80.2056 73.4022C79.2625 72.9942 78.1712 71.9707 78.3661 71.9349C78.502 72.5633 78.7956 73.1539 79.2235 73.6599Z" fill="#B03A3F"/>
<path d="M73.7852 71.268L71.6727 71.0963L72.5692 71.855V71.5257C73.7228 71.9194 73.5747 71.4756 73.7852 71.268Z" fill="#B03A3F"/>
<path d="M63.3487 66.6805L63.8086 66.1294L62.3744 66.6948L63.3487 66.6805Z" fill="#B03A3F"/>
<path d="M60.7389 66.0503L61.0117 65.5349L60.2244 65.6566L60.7389 66.0503Z" fill="#B03A3F"/>
<path d="M71.4019 2.83447L72.0645 2.75578C71.8413 2.76169 71.6194 2.78805 71.4019 2.83447Z" fill="#B03A3F"/>
<path d="M66.7911 2.33981L66.6508 2.61182C66.8846 2.4615 66.9782 2.33981 66.7911 2.33981Z" fill="#B03A3F"/>
<path d="M8.15271 36.3745C8.44112 35.5371 9.15824 34.6209 8.48788 34.85L7.89549 35.2078C8.0935 35.5686 8.18233 35.9715 8.15271 36.3745Z" fill="#B03A3F"/>
<path d="M29.9785 8.61768L29.6667 8.5103L29.277 9.22607C29.4563 9.05429 29.6979 8.83957 29.9785 8.61768Z" fill="#B03A3F"/>
<path d="M29.7979 5.99793L31.1074 6.09814C30.6773 6.01387 30.2372 5.98018 29.7979 5.99793Z" fill="#B03A3F"/>
<path d="M96.2345 7.48682C96.5541 7.35082 96.8581 7.23628 97.1699 7.1146C96.0397 6.74956 96.406 7.22914 96.2345 7.48682Z" fill="#B03A3F"/>
<path d="M34.8262 57.2392C34.3629 56.819 33.8382 56.46 33.2672 56.1727C33.9298 56.8455 34.3663 57.6185 34.8262 57.2392Z" fill="#B03A3F"/>
<path d="M68.7806 9.17627C69.1625 9.1047 69.334 8.99733 69.3418 8.86134C68.9521 8.9186 68.7182 9.01165 68.7806 9.17627Z" fill="#B03A3F"/>
<path d="M31.2487 55.3069C31.3422 55.4143 31.4514 55.493 31.5449 55.5932C32.1386 55.7116 32.7126 55.9018 33.252 56.1587C33.0202 55.8762 32.7161 55.6507 32.3667 55.5021C32.0172 55.3535 31.6332 55.2865 31.2487 55.3069Z" fill="#B03A3F"/>
<path d="M95.1973 58.0771C95.1271 58.0771 95.0414 58.0771 94.9712 58.0771C94.901 58.0771 95.0725 58.12 95.1973 58.0771Z" fill="#B03A3F"/>
<path d="M68.4223 56.2446C68.7622 56.1802 69.1057 56.1325 69.4512 56.1015C69.1016 56.0912 68.7528 56.1397 68.4223 56.2446Z" fill="#B03A3F"/>
<path d="M50.5575 62.6004C51.1032 62.7435 50.6667 62.5646 50.5575 62.6004V62.6004Z" fill="#B03A3F"/>
<path d="M52.2871 65.7711C52.2176 65.7796 52.1514 65.8036 52.0943 65.841C52.0372 65.8785 51.991 65.9282 51.9597 65.9858C52.0339 65.8775 52.1515 65.8004 52.2871 65.7711Z" fill="#B03A3F"/>
<path d="M24.255 56.4086H24.2079C24.3021 56.5732 24.2864 56.5374 24.255 56.4086Z" fill="#B03A3F"/>
<path d="M51.2578 63.1372C51.0624 62.988 50.8538 62.8539 50.6342 62.7364C50.827 62.8888 51.0359 63.0231 51.2578 63.1372Z" fill="#B03A3F"/>
<path d="M51.2577 62.8291L51.7021 63.0366C51.8034 62.9579 51.8034 62.8792 51.2577 62.8291Z" fill="#B03A3F"/>
<path d="M49.793 62.3789C50.0865 62.4706 50.3687 62.5906 50.6348 62.7368C50.549 62.6581 50.5178 62.608 50.5568 62.6008L49.793 62.3789Z" fill="#B03A3F"/>
<path d="M130.585 30.7421C130.585 30.7851 130.585 30.8352 130.585 30.8853C131.131 31.3505 130.967 31.1072 130.585 30.7421Z" fill="#B03A3F"/>
<path d="M1.91572 22.704C1.91572 22.704 1.91572 22.7541 1.91572 22.7827L1.97852 22.704H1.91572Z" fill="#B03A3F"/>
<path d="M2.58538 20.4418C2.69679 20.8366 2.69808 21.2508 2.58909 21.6461C2.4801 22.0414 2.26435 22.4052 1.9618 22.7037C2.64774 22.7037 3.37267 22.7538 4.06641 22.811C3.51621 22.0523 3.02144 21.2608 2.58538 20.4418Z" fill="#B03A3F"/>
<path d="M82.3668 4.4304L81.0105 3.57864C83.0138 3.04897 84.261 3.62877 83.0372 2.57659C82.702 3.50709 81.2444 3.24939 79.779 3.00603C78.3135 2.76267 76.8403 2.63382 76.5519 3.57147L75.6477 3.0132C75.9205 3.07762 75.9907 2.97025 76.2635 3.0132C74.5019 1.79639 74.6032 4.12978 72.1868 3.57864C71.345 3.32812 70.7837 2.97739 71.4073 2.81276L69.4197 3.07047C68.8662 2.9631 69.0455 2.64816 69.5989 2.74837C68.6168 2.66963 67.6269 2.64814 66.6369 2.63382V2.57659C66.0221 2.90263 65.3811 3.18499 64.7194 3.42119C63.9945 3.08478 65.1091 3.24226 64.9377 2.98458L63.2852 3.3353C62.6538 2.78416 64.0646 2.39762 65.1559 2.54794C64.47 1.52439 64.1114 1.6246 63.5424 1.83217C63.0569 2.00324 62.5379 2.07952 62.0185 2.05611C61.4991 2.03269 60.9907 1.91009 60.5258 1.69617L62.0847 1.48862C61.126 0.364861 59.8788 0.729889 58.1094 -0.000190735C58.5459 0.364845 61.6171 1.81788 59.8009 2.26165C59.4565 2.15111 59.0915 2.10493 58.7274 2.12583C58.3633 2.14673 58.0074 2.23426 57.6807 2.38332C57.6807 1.66756 56.7297 1.82504 55.5527 1.91093L55.6228 0.994736C54.3367 1.2882 54.4536 1.71052 53.7131 2.17577C53.2523 2.18129 52.8011 2.0546 52.4224 1.81339C52.0437 1.57216 51.7565 1.22842 51.6007 0.830124C49.2623 0.830124 53.2376 1.86797 50.5484 2.19721C48.6387 1.9968 47.3214 2.43343 45.1466 3.19214C43.7981 3.04183 45.3103 2.60523 44.8036 2.40482L43.7358 3.27803C43.4474 3.27803 43.5097 3.06332 43.5409 2.94164C42.6055 3.34247 43.5877 3.85778 42.0988 4.2944C41.9741 4.82407 41.1401 4.55208 40.1112 4.2944C39.0823 4.03673 37.8663 4.00097 37.0478 4.73105C36.5334 4.56643 37.1569 4.14411 36.9387 3.82202C34.5145 5.0245 34.8263 4.73819 33.0413 6.22698L31.1082 6.06953C32.6048 6.42026 31.1627 7.6084 29.9545 8.589C30.508 8.79657 30.9757 8.98269 31.2719 9.05426L30.2274 9.56247L29.2062 10.1279C28.8945 10.0635 29.0114 9.69844 29.253 9.22604C29.1328 9.32825 29.0208 9.4383 28.9178 9.55531C28.0136 9.47657 28.2475 8.83951 28.6606 8.181C28.988 8.27406 29.3232 8.37429 29.6428 8.48166C30.0247 7.76589 30.3755 7.05012 30.0948 6.59203C29.9016 6.77282 29.6711 6.9164 29.4167 7.01435C29.518 6.82825 29.5726 6.67793 29.4713 6.60636C29.3699 6.53478 29.1829 6.79244 28.8867 7.12885L28.0448 6.31287V6.73519L24.8178 7.04296C23.9136 7.8303 23.1809 8.80376 22.2845 9.74141C21.2934 10.7897 20.1311 11.6903 18.8391 12.4112C19.2912 11.3948 18.465 11.223 18.0986 10.3999C19.4004 10.8795 20.4916 9.06856 22.3 8.589C21.3647 8.83236 21.3881 8.36712 21.5595 8.14523L18.8314 10.0778C18.5819 9.36204 17.9427 9.83445 17.0074 9.90602C18.2623 10.9367 15.1912 11.7455 14.2324 12.7691C13.8972 12.3969 13.9206 11.7956 15.4874 11.1801C14.3883 11.0942 14.0531 11.7384 13.7803 12.3969C13.5075 13.0554 13.2581 13.7139 12.2214 13.7711C12.5643 13.5564 12.7982 13.5135 12.7982 13.2272C12.2136 14.0288 10.0856 15.0023 10.2648 14.3724L10.6078 14.1433C9.05833 15.0273 7.68266 16.1453 6.53893 17.4502C5.35412 18.8245 4.8007 20.256 5.23721 20.7356C4.75397 20.3359 4.34113 19.8699 4.01343 19.3541C4.06102 19.89 4.14169 20.4229 4.25505 20.9503C4.33853 21.458 4.45831 21.9601 4.61362 22.4534C4.74579 22.9384 4.90712 23.4163 5.09689 23.8849C5.29955 24.3502 5.51003 24.7868 5.72829 25.2091C4.99066 24.8867 4.2009 24.6763 3.38985 24.5864C2.50903 24.3716 1.76851 23.9994 1.94 22.797C1.28362 23.5813 0.942215 24.5496 0.97345 25.5383C1.26965 25.1232 2.88318 24.9228 2.80524 25.4954C2.29977 25.7941 1.86282 26.1807 1.51907 26.6335L1.13713 27.1846C0.957855 27.4208 0.739594 27.7429 0.419998 28.2225C0.747391 27.5998 2.41548 28.5446 2.25958 29.4679C2.00237 29.2961 0.490173 29.4679 0.342072 29.0528C0.58371 29.5108 0.887695 29.9475 1.16052 30.3698C1.43039 30.7934 1.72711 31.2021 2.04913 31.5937C1.70616 30.9996 0.560318 31.5078 0.0926361 32.1305C0.38884 31.8442 0.24852 34.3709 0.614868 34.9936C0.664307 34.6155 0.737183 34.2403 0.83313 33.8699C0.843521 34.3887 1.00427 34.8956 1.29883 35.3384C1.59337 35.7812 2.01111 36.144 2.50903 36.3894C2.92043 36.6304 3.30659 36.906 3.66264 37.2125C4.08 37.5849 4.38371 38.0514 4.54346 38.5653C4.10695 38.3935 2.11928 38.4794 2.47784 39.8894L5.6815 40.6983C6.35185 40.8844 7.05341 41.0919 7.70037 41.3281C8.00669 41.4392 8.30369 41.5707 8.58897 41.7218C8.86675 41.8527 9.12814 42.0111 9.36845 42.1942L9.17358 42.7883C9.64906 43.1462 10.1713 43.4611 10.6624 43.7832C9.35397 43.7098 8.06313 43.4689 6.82734 43.0674C5.42609 42.6465 4.09981 42.0387 2.89096 41.2637C3.03906 42.3803 2.45445 41.7862 3.31967 43.2034C3.20274 43.9192 2.19722 42.7382 1.96338 42.2873C2.20502 42.8957 2.50124 43.4897 2.80524 44.0767C3.10924 44.6636 3.4366 45.2434 3.77179 45.8231C4.51228 45.1861 6.48438 47.677 7.09238 47.0185C6.48438 46.6248 5.93095 46.1452 5.33855 45.7015C4.74614 45.2577 4.23167 44.7423 3.67825 44.2699C4.07579 43.955 5.06572 44.1196 6.08685 44.5777C7.23769 45.0665 8.24309 45.8032 9.01768 46.725C9.1346 47.4408 7.26385 47.4408 7.02221 47.6913C7.52107 47.77 9.2827 49.1228 9.2905 49.4378C8.86958 49.3018 8.51103 49.1443 8.06673 48.9868C8.47962 49.5479 9.10458 49.9483 9.82056 50.1106C10.205 50.2197 10.5559 50.4108 10.8445 50.6683C11.133 50.9258 11.3511 51.2424 11.4808 51.5922C11.9096 52.0074 12.0733 53.6894 12.5643 53.3029C12.4864 51.8284 14.7936 49.1515 15.8304 48.8866C15.8771 48.9797 16.2825 49.6024 16.7112 50.3182C17.1187 50.918 17.4608 51.5533 17.7323 52.2149C17.8648 52.8162 17.249 53.0524 16.6098 53.2528C15.9707 53.4532 15.3237 53.5964 15.4406 54.1403C15.6355 53.9471 16.298 53.99 16.5631 54.0187C16.9606 54.5412 15.8304 54.5483 17.0775 55.1925C17.857 54.4768 19.416 56.6956 18.1376 54.8418C19.4471 55.2927 19.2445 55.7293 20.6475 56.4594C20.5696 55.6792 23.0561 55.2784 24.3579 55.5933C24.1552 55.7794 24.2487 56.1946 24.3033 56.3879C26.6417 57.6476 27.7798 58.6354 30.0871 59.6446C30.1884 59.9524 31.1861 60.6824 30.5158 60.8614C31.0471 60.7513 31.6017 60.7836 32.1137 60.9544C33.127 62.3072 30.4534 60.4033 31.0536 61.7632C31.4044 61.2908 33.2751 61.8348 34.4521 61.9422C34.5223 61.0117 32.1683 60.797 30.9757 60.6896C31.5291 59.5873 33.8753 59.2008 36.5256 59.6661C38.5834 60.1528 37.0244 60.7111 37.4376 60.6896C40.9842 62.3144 41.4051 59.9738 44.0709 61.8706C44.9673 63.0302 43.5097 63.3021 43.5565 63.932C41.8416 63.6099 41.3038 62.5792 40.2125 62.207L41.3973 63.0373C40.5941 63.0856 39.7983 62.87 39.1524 62.4289C39.8695 63.4739 45.3025 64.8911 47.9528 66.4444C48.5608 66.3799 49.5117 66.4444 49.2389 65.9934L48.2879 65.7859C47.6955 64.9126 50.3146 65.564 49.2779 64.8983C50.6498 64.8983 52.2711 64.6836 53.8534 65.5711V66.5016C53.908 66.2511 52.9181 65.6499 52.3412 65.7501C53.1909 65.5998 54.555 67.7256 55.7476 66.8667C55.4124 66.5589 55.085 66.2368 54.7576 65.9147C56.1373 65.9147 57.9691 65.4351 59.3955 66.1581C58.9902 65.1273 59.0058 66.1581 58.2653 64.8625C58.7798 66.3442 54.4069 63.6457 55.4514 65.3564C54.7654 63.8891 53.7209 64.2756 52.6452 62.8655C52.5907 63.1518 52.957 63.5813 51.741 63.0158C51.6256 63.0787 51.5027 63.1291 51.3747 63.1662L51.2967 63.116L51.3513 63.1733C51.2812 63.1733 51.2734 63.1733 51.3513 63.1733C51.5698 63.3348 51.7367 63.5475 51.8346 63.7889C50.9538 64.2326 48.9583 63.5097 48.1476 63.6028C47.4539 63.2163 48.5919 63.3952 48.2957 62.9657L47.0875 63.1017C47.2356 62.4647 45.5286 61.4197 47.4227 61.6702C46.9005 61.4841 46.3782 61.3052 45.8638 61.0976C45.0828 60.393 44.0784 59.9343 42.9953 59.7877C42.3171 59.3869 40.8361 59.7877 41.6857 59.5301L39.0901 58.9431L39.1368 58.7857C36.7984 57.7979 33.735 57.7621 31.5603 55.5647C30.4928 55.3823 29.4786 54.9971 28.5826 54.4338V53.8183C27.4836 53.5391 25.9558 51.9286 25.2465 52.2221C25.1295 51.3059 24.0539 50.6474 22.8535 50.0748C21.7196 49.6055 20.6517 49.0119 19.6732 48.3069L19.1509 48.858C18.0461 48.1241 16.8871 47.4616 15.6823 46.8753L15.2925 47.4121C13.8583 46.9469 13.071 44.8569 11.7381 43.4039C12.0421 43.3538 12.3227 43.7689 12.4318 44.1196C12.2291 42.7525 11.2626 42.0582 10.3194 41.2208C9.83804 40.8335 9.40415 40.399 9.02547 39.9252C8.67298 39.468 8.49237 38.9177 8.51102 38.3577C8.3352 38.2172 8.1993 38.0396 8.11509 37.84C8.03088 37.6405 8.00091 37.4251 8.02774 37.2125C8.04157 37.2546 8.0687 37.2919 8.1057 37.3198L8.04333 37.1194C8.04333 36.8689 8.12907 36.6112 8.15247 36.3464C8.06969 36.5613 8.01729 36.785 7.99656 37.0121C7.77457 36.5183 7.51407 36.0399 7.21708 35.5805L7.87964 35.1725C7.86208 35.1307 7.84125 35.09 7.81729 35.0509C7.93421 34.4568 7.34959 34.6858 6.8819 35.101C6.70033 34.8572 6.49133 34.6317 6.25833 34.4281C6.81176 34.0846 6.61687 33.7124 6.46098 33.3474C6.30508 32.9823 6.18817 32.5314 6.78837 32.1735C6.46878 32.0089 6.28172 31.3003 6.08685 30.5773C6.00951 30.2231 5.8838 29.8792 5.71268 29.5538C5.58927 29.2629 5.34545 29.0287 5.03454 28.9024C5.20602 28.9024 5.31516 28.7307 5.28398 29.0528C5.40438 28.7372 5.50075 28.4143 5.57238 28.0865C5.6733 27.7735 5.6733 27.4403 5.57238 27.1273L6.56232 27.0558C6.29729 26.5261 6.00888 25.9535 5.78284 25.3522C6.69482 24.6937 7.11576 24.5506 7.48212 25.5455C7.36137 24.915 7.39061 24.2679 7.56785 23.6487L7.70815 23.0189C7.76272 22.7612 7.7783 22.4105 7.84845 21.8951L8.30057 22.2959C8.63574 21.7734 8.73708 20.4779 9.42302 20.4922C10.3896 20.3132 11.7615 19.0607 13.6634 17.9011C15.6071 16.6112 17.8121 15.6913 20.1487 15.1955C19.3692 14.5943 19.9304 14.5728 20.6086 14.5513C21.2867 14.5299 22.113 14.5513 21.9181 13.9143C22.3234 14.1863 22.9704 14.1863 22.4715 14.7446C23.2393 14.3262 24.0767 14.0264 24.9503 13.8571C25.3005 13.7774 25.6347 13.6469 25.9402 13.4705C26.2865 13.2794 26.58 13.0173 26.7977 12.7047C27.1796 13.0053 26.556 13.4204 26.8522 13.5421C26.9925 13.4133 27.3901 13.0196 27.6941 13.1771C27.998 13.3345 27.507 13.5779 27.2419 13.8427C29.3232 13.127 29.1439 11.9173 28.9256 10.7792C30.204 10.9582 30.7184 10.7148 31.3186 9.81297C31.8253 10.0778 32.5814 10.2997 31.2485 10.7578C32.028 10.629 36.0891 10.1494 35.9254 9.26182C36.2294 9.44792 37.04 9.13298 37.2271 8.98982C38.4612 8.85571 39.6848 8.65012 40.8907 8.37428L40.384 8.317C40.8673 7.08588 41.8027 7.87323 43.1901 7.55829V7.67284C44.8738 7.8661 45.209 7.72292 45.5286 7.60124C45.7372 7.51544 45.9626 7.46918 46.1911 7.46524C46.7512 7.49808 47.3068 7.57715 47.8514 7.70145L47.6098 7.02863C47.6877 6.31287 48.4361 6.44886 49.3792 6.7137C50.3223 7.09317 51.3673 7.20535 52.3802 7.0358L51.6787 6.65646C52.6998 6.1268 54.6251 8.60331 55.6228 8.76077C55.8411 8.88245 55.2799 8.97551 54.9759 9.07571C57.6183 9.89884 55.3033 8.15239 57.3143 7.9305C57.6807 8.42438 56.8466 9.15447 58.164 9.27615C58.4913 9.48372 59.4579 9.11867 60.5804 8.81805C61.1407 8.6569 61.7182 8.55132 62.303 8.50311C62.8492 8.47338 63.3925 8.5956 63.862 8.85383C63.4878 8.453 63.0825 8.05218 64.0568 7.83745C65.5067 7.83745 67.7438 9.48371 69.1468 8.50311C69.2077 8.53786 69.259 8.58501 69.2968 8.64085C69.3346 8.6967 69.358 8.75976 69.3651 8.82521C70.472 8.66059 72.9351 8.71069 73.699 8.2025C73.9952 9.45509 75.7023 9.43363 77.308 9.37637C78.9137 9.3191 80.4259 9.31907 80.1375 10.3712L83.4347 10.9224L83.2866 11.1228C85.3211 11.7527 86.1863 11.4449 87.0749 11.1228C87.5114 11.3877 87.0749 11.495 87.0281 11.5952C87.7531 11.8887 88.3143 12.1106 88.7975 12.268C89.2049 12.4211 89.6279 12.5361 90.0603 12.6116C91.0739 12.7032 92.0964 12.6695 93.1003 12.5114V13.2272C93.4603 13.2352 93.811 13.3342 94.1136 13.5135C94.5657 13.7354 95.1191 14.0646 95.7505 14.3939C97.0828 15.1742 98.5727 15.7 100.131 15.9399C100.078 15.9986 100.012 16.0453 99.9358 16.0764C99.8601 16.1074 99.7776 16.122 99.6947 16.1189C101.449 16.3551 103.171 17.5074 104.676 18.4236C106.18 19.3398 107.474 19.9912 108.667 19.0893C109.446 19.211 110.225 19.3327 111.005 19.4758C108.487 18.0443 111.972 18.6741 111.106 17.7723C112.244 18.1373 113.367 19.7908 112.042 19.2611L111.917 19.0535C111.332 19.5259 112.073 20.0412 112.883 20.528C113.694 21.0147 114.544 21.5229 114.24 21.9022C116.615 23.2207 118.785 24.8265 120.694 26.6764C121.607 27.5518 122.468 28.4717 123.274 29.4321C124.031 30.2897 124.717 31.1989 125.324 32.152C125.566 31.8442 125.792 31.515 126.01 31.1786C126.3 31.6141 126.561 32.0659 126.789 32.5314C126.719 32.9823 126.228 33.3116 125.776 32.424C125.644 32.7962 125.94 33.0825 126.314 33.3116C126.585 33.4975 126.9 33.6226 127.234 33.6766C127.281 34.1705 127.171 34.3924 127.031 34.3924C126.891 34.3924 126.727 34.3924 126.54 34.2421C126.197 34.0059 125.823 33.6623 125.893 33.8985C125.998 34.0965 126.092 34.2996 126.174 34.5069L126.267 34.3351C126.538 34.4901 126.798 34.6598 127.047 34.8433C127.175 34.9714 127.267 35.1266 127.315 35.2951C127.362 35.4636 127.364 35.6403 127.319 35.8096C127.008 36.4323 126.602 36.0458 126.501 36.2605C126.423 36.2605 126.361 36.3035 126.384 36.5826C126.204 37.0128 125.962 37.4195 125.667 37.7923C126.039 37.778 126.41 37.7349 126.774 37.6634C126.836 38.5009 125.776 39.0091 127.164 38.8373C126.531 38.9944 125.947 39.2835 125.457 39.6819C124.825 40.1257 124.061 40.6696 123.266 41.1921C121.707 42.2443 119.946 43.1891 119.408 43.1891C118.402 44.3129 117.069 44.9141 115.354 45.5512C115.846 45.5512 116.524 46.2669 115.019 46.768C114.684 44.7996 112.01 47.1115 110.249 46.2598C110.958 46.4816 109.953 46.9326 109.041 47.3907C108.129 47.8488 107.287 48.2997 108.386 48.6075C107.092 48.9009 108.02 47.9705 106.913 47.8917C104.294 49.6382 100.303 49.6095 96.7249 50.8693C96.7249 51.127 97.5043 51.3274 96.8106 51.9L94.4722 51.2272C93.7862 51.5421 94.2227 52.8019 92.6326 52.2937C92.882 52.4511 93.2562 52.6873 92.7807 52.8878C88.9613 53.2098 85.2821 54.2477 81.486 54.9993C77.6899 55.7508 73.8081 56.2805 69.8796 55.4788C70.963 55.8582 70.2849 55.9799 69.4976 56.0729C70.0199 56.1373 69.5522 56.6885 69.6925 57.0249C68.5934 56.8245 67.4866 56.5739 66.4031 56.3091C65.8964 57.3183 62.9734 56.5883 62.6927 57.4973L63.7061 57.2897C62.4043 58.4206 65.7717 59.573 65.6859 60.933C66.4187 60.2673 67.471 60.6395 68.6714 60.933C69.8718 61.2264 71.1813 61.3982 72.3505 60.4105C72.9507 60.6323 71.9218 60.8972 72.2648 61.1835C72.8416 60.5464 73.6055 60.3174 75.0865 60.4033L74.9462 60.5679C78.9839 59.9166 80.8079 60.2172 85.4458 59.7663L84.9625 59.1722C85.5433 59.104 86.1332 59.1503 86.693 59.3082C87.5738 58.0842 83.957 59.7949 84.7209 58.4779C85.5004 59.029 87.2308 58.7141 88.8833 58.3848C90.5358 58.0556 92.1493 57.755 92.7807 58.3848C94.2695 58.0269 92.1337 57.7335 93.6148 57.3756L94.1214 57.6834L94.3397 57.0678C94.6634 56.9722 95.0122 56.9765 95.3331 57.0798C95.6539 57.1832 95.9292 57.3801 96.1169 57.6404C95.8079 57.725 95.512 57.8452 95.2361 57.9983C96.6547 58.1773 98.7203 56.8746 99.2036 56.9247L97.707 57.0678C101.604 55.6363 106.632 54.6128 110.031 52.4225L109.617 52.2221C110.374 51.6997 111.252 51.3446 112.182 51.1842C113.188 51.0429 114.155 50.722 115.027 50.2394L114.949 50.3539C115.51 49.7552 116.226 49.2951 117.03 49.0155C116.422 49.6811 118.823 49.0656 117.997 49.8672C120.71 47.9704 119.26 48.7578 120.663 46.8252L121.38 47.09C121.71 46.2823 122.347 45.6113 123.173 45.2004C122.183 46.2455 124.591 45.3865 123.516 46.632C125.041 46.3412 126.392 45.5369 127.304 44.3773C128.083 43.4969 128.613 42.8169 129.962 42.6953C129.962 41.5214 129.229 42.0797 128.512 42.6523C127.795 43.2249 127.054 43.9121 127.319 43.4969C126.836 43.5685 126.93 43.1319 127.234 42.6165C127.561 42.0601 127.973 41.5492 128.458 41.0991C128.847 40.6839 129.572 40.6124 130.43 40.1901C131.041 39.8986 131.568 39.4767 131.965 38.9599C132.362 38.4431 132.619 37.8463 132.713 37.2197C132.62 37.5632 132.714 37.6062 132.636 37.9354C132.96 37.3175 133.072 36.6233 132.955 35.9456C132.823 35.2013 132.823 34.4423 132.955 33.6981C132.545 33.3819 132.269 32.9437 132.176 32.4598C132.028 32.0733 131.864 31.744 131.232 31.8657C131.702 32.7408 132.03 33.6739 132.207 34.6357C131.891 33.7991 131.398 33.028 130.757 32.3668C130.051 31.5933 129.521 30.6976 129.198 29.7327C129.74 29.9261 130.223 30.2353 130.609 30.6346C130.562 29.8043 129.674 29.5037 129.541 28.7092C130.11 28.4801 130.687 29.1172 131.232 30.0477C131.75 31.0658 132.328 32.0574 132.963 33.0181C133.103 32.5027 132.604 31.6581 132.222 31.1213C131.84 30.5845 131.63 30.2123 132.448 30.4055C131.373 30.1192 131.053 29.4464 130.64 28.6734C130.469 28.2264 130.196 27.818 129.84 27.4749C129.484 27.1319 129.052 26.8622 128.574 26.6836L129.237 26.3543C128.726 26.1369 128.255 25.847 127.842 25.4954L129.284 25.6743C128.53 25.3099 127.941 24.7112 127.623 23.9851C127.31 23.2724 126.766 22.6652 126.065 22.2458C127.312 23.3123 127.265 23.5986 127.023 23.7489C126.782 23.8992 126.314 23.9494 126.61 24.5792C124.833 23.57 124.739 22.9258 124.623 22.1313C124.506 21.3368 124.381 20.435 122.424 19.2683C123.001 19.5331 123.983 20.9288 123.025 20.6067C122.394 20.0072 121.868 19.3214 121.466 18.5739C118.901 17.0708 121.403 19.3899 120.094 19.0464C119.766 17.8367 118.675 18.5525 117.443 18.1517L117.833 17.5647C116.531 16.5412 116.118 16.7774 115.783 16.985C115.448 17.1925 115.136 17.4216 113.983 16.5269L115.596 16.262L114.1 15.7681L114.793 15.2313C112.977 14.9808 112.595 14.6301 111.208 13.7425C111.317 14.3366 110.428 14.7804 109.095 14.2221C108.386 13.4705 109.875 13.8427 107.988 13.1341C108.604 12.9194 109.321 12.6259 109.844 13.5564C110.031 13.3918 110.467 13.356 110.623 13.1914C109.844 12.3253 108.214 12.0318 107.505 11.7598C107.757 11.8702 107.985 12.0232 108.175 12.2108C107.115 12.1177 106.063 12.0462 105.003 11.996C104.683 11.5881 105.112 11.5308 105.549 11.4736C104.888 11.4278 104.232 11.3417 103.584 11.2159C104.036 10.7793 104.223 10.2209 105.51 10.4285L102.602 9.99191C102.524 9.69845 101.511 8.84669 101.94 8.78943C100.552 7.97346 97.8551 8.56036 96.0311 7.50818C95.763 7.60395 95.4698 7.62391 95.1893 7.56546C94.2695 7.22905 93.451 6.77813 92.5468 6.41309C91.5757 5.98964 90.5008 5.80703 89.4289 5.88343L88.4312 4.59505C86.5916 4.37317 89.8031 6.24847 86.7553 5.88343C84.5884 5.67585 86.2097 4.85987 85.5471 4.40179C84.3545 4.65946 82.2967 5.30363 80.5507 4.1083C81.1669 4.15521 81.7759 4.26321 82.3668 4.4304ZM59.8788 2.2831C60.3231 2.14711 61.2195 1.7248 61.5235 2.13994C60.9857 2.89865 60.6193 2.51218 59.8788 2.26881V2.2831ZM26.4157 8.30272C26.6417 7.98778 27.1952 7.95196 27.7798 8.04501C27.3539 8.22813 26.8853 8.31175 26.4157 8.28839V8.30272ZM44.4763 61.0332H44.4217C43.6656 60.5178 43.9306 60.7325 44.4763 61.0332ZM46.16 61.9708C46.3782 61.9708 46.4016 61.8563 46.3626 61.7346C46.1677 61.8563 45.7624 61.7346 45.3181 61.5056C45.3727 61.7489 45.5676 61.9637 46.16 62.0066V61.9708ZM126.68 36.4395L126.938 36.2605C127.008 36.8403 126.86 36.6542 126.68 36.4752V36.4395Z" fill="#B03A3F"/>
<path d="M29.8069 6.30566C29.9391 6.3776 30.0408 6.48865 30.0953 6.62061C30.2278 6.47029 30.1966 6.34145 29.8069 6.30566Z" fill="#B03A3F"/>
<path d="M96.0375 7.55908C96.0375 7.55908 96.0843 7.55908 96.0998 7.55908C96.1455 7.5354 96.1832 7.5008 96.209 7.45892L96.0375 7.55908Z" fill="#B03A3F"/>
<path d="M15.8359 54.8843C15.6213 54.6861 15.468 54.4391 15.3917 54.1685C15.2669 54.2759 15.3215 54.5121 15.8359 54.8843Z" fill="#B03A3F"/>
<path d="M56.2383 64.1039L55.0067 63.9035C55.3819 63.9985 55.7198 64.1897 55.981 64.4546C56.0122 64.29 55.8719 64.0037 56.2383 64.1039Z" fill="#B03A3F"/>
<path d="M65.2339 71.1184C65.4365 71.1184 65.608 71.2043 65.8107 71.1685L65.8574 70.8464C65.0546 70.6746 64.4856 70.7892 65.2339 71.1184Z" fill="#B03A3F"/>
<path d="M56.551 66.609C56.4497 67.1887 57.2603 67.2174 58.11 67.3677C58.0592 67.3577 58.0097 67.3433 57.9619 67.3247C58.4997 66.6233 57.5254 66.6161 56.551 66.609Z" fill="#B03A3F"/>
<path d="M58.328 67.4039C58.5958 67.4483 58.8572 67.5204 59.1075 67.6187C59.3101 67.3395 58.819 67.4755 58.328 67.4039Z" fill="#B03A3F"/>
<path d="M48.615 62.4646C48.9424 62.7365 49.1372 61.849 49.262 62.1496C49.9791 61.5842 46.3467 62.078 48.615 62.4646Z" fill="#B03A3F"/>
<path d="M56.582 68.6274L56.5197 67.8544L55.8571 68.2624L56.582 68.6274Z" fill="#B03A3F"/>
<path d="M50.1679 66.0441L51.4307 66.6597C51.4307 66.538 51.6412 66.5308 51.875 66.5452C51.0254 66.2732 50.2459 65.8509 50.1679 66.0441Z" fill="#B03A3F"/>
<path d="M51.8756 66.5595C52.2215 66.7101 52.5996 66.7884 52.9824 66.7886C52.6218 66.6815 52.2513 66.6048 51.8756 66.5595Z" fill="#B03A3F"/>
<path d="M54.6621 68.2837L54.3191 68.0189L53.3993 67.6681L54.6621 68.2837Z" fill="#B03A3F"/>
<path d="M36.166 60.7827C35.6594 60.6682 35.1605 60.5393 34.6694 60.4033C34.4122 60.568 34.7318 60.8686 35.293 60.9903C35.7062 60.9688 36.2752 61.0905 36.166 60.7827Z" fill="#B03A3F"/>
<path d="M39.6191 64.275C39.2918 63.9958 39.3385 63.8312 39.2138 63.5592L38.8007 64.3608L39.6191 64.275Z" fill="#B03A3F"/>
<path d="M35.3712 62.8377C35.1218 63.0094 32.986 62.6659 34.8178 63.3315C35.075 63.1812 36.595 63.5391 35.3712 62.8377Z" fill="#B03A3F"/>
<path d="M15.4247 51.5856L15.7443 51.8003L16.6641 50.605L15.4247 51.5856Z" fill="#B03A3F"/>
<path d="M-0.000399351 37.2122C0.0853423 38.2072 0.373736 38.2501 0.623167 38.2716C0.872597 38.2931 1.11423 38.2716 1.18439 39.1806C1.69104 39.4884 1.06747 37.7491 1.53516 38.0855C0.79466 37.112 0.872606 36.4464 -0.000399351 37.2122Z" fill="#B03A3F"/>
<path d="M1.5342 38.0857C1.66503 38.2521 1.80827 38.4099 1.96289 38.5581C1.84346 38.3839 1.6993 38.225 1.5342 38.0857Z" fill="#B03A3F"/>
<path d="M64.166 55.7578L63.0046 55.5144L63.7685 55.9653L64.166 55.7578Z" fill="#B03A3F"/>
<path d="M62.0293 56.9468L61.7097 56.0377L61.0628 56.911C61.32 56.8537 61.8188 56.7392 62.0293 56.9468Z" fill="#B03A3F"/>
<path d="M56.4788 0.329559L56.3852 0.558608C56.5801 0.794809 56.8685 0.79479 57.4453 0.852051C57.1491 0.665953 56.8295 0.494184 56.4788 0.329559Z" fill="#B03A3F"/>
<path d="M73.0589 2.11096L72.7782 2.06086L73.1758 2.95557L73.0589 2.11096Z" fill="#B03A3F"/>
<path d="M86.959 3.5778C86.4133 3.41317 85.7196 3.42034 85.174 3.27719C86.4289 3.38456 86.8187 4.63713 86.959 3.5778Z" fill="#B03A3F"/>
</svg>
