<svg width="97" height="76" viewBox="0 0 97 76" fill="none" xmlns="http://www.w3.org/2000/svg">
<path d="M16.1772 1.07354C15.8077 0.980494 15.9043 1.58889 15.8418 1.69626C16.4728 1.62468 16.1715 0.916075 16.1772 1.07354Z" fill="#B03A3F"/>
<path d="M22.4589 0.443556L22.3281 0.672601L23.3002 0.200195L22.4589 0.443556Z" fill="#B03A3F"/>
<path d="M28.2404 1.40345C27.814 0.272537 26.1313 1.18872 25.1421 0.687681L24.9943 0.422852L24.4258 1.13862C25.7049 1.22451 27.382 0.931042 28.2404 1.40345Z" fill="#B03A3F"/>
<path d="M31.0219 4.22377C30.8911 3.79431 31.7268 4.0162 30.334 3.95178C30.3737 3.98964 30.4116 4.03027 30.4477 4.07347C30.6424 4.10056 30.8347 4.15088 31.0219 4.22377Z" fill="#B03A3F"/>
<path d="M30.4488 4.03662C29.8462 3.95073 30.8013 4.44461 30.4488 4.03662V4.03662Z" fill="#B03A3F"/>
<path d="M33.2439 4.42285L32.4082 4.59463C32.539 4.86662 33.2325 5.0742 32.9767 5.18156C33.7783 5.1744 33.6362 4.9382 33.2439 4.42285Z" fill="#B03A3F"/>
<path d="M34.102 3.8584L33.6699 3.91567C33.7268 4.03019 33.8291 4.08744 34.102 3.8584Z" fill="#B03A3F"/>
<path d="M32.7559 4.02953L33.6711 3.91501C33.5802 3.72175 33.6143 3.39966 33.2561 3.91501C33.3698 3.65733 33.1538 3.9007 32.7559 4.02953Z" fill="#B03A3F"/>
<path d="M32.2839 3.77168C31.8746 3.44959 31.3175 3.18476 32.1588 3.01297C30.6239 2.79108 30.7547 3.57127 32.2839 3.77168Z" fill="#B03A3F"/>
<path d="M28.6604 0.415134L28.0919 0L27.5234 0.236193C27.8134 0.121671 28.6604 0.737229 28.6604 0.415134Z" fill="#B03A3F"/>
<path d="M38.0535 6.14893C38.1388 5.94851 37.8887 5.51189 37.8716 5.22559L37.252 5.31864C37.5248 5.54768 38.0706 5.81968 38.0535 6.14893Z" fill="#B03A3F"/>
<path d="M37.8716 5.22468L38.8039 5.09584C38.0365 4.83101 37.8602 4.98132 37.8716 5.22468Z" fill="#B03A3F"/>
<path d="M34.4035 2.77734L32.8516 3.22112L34.6878 2.82745L34.4035 2.77734Z" fill="#B03A3F"/>
<path d="M41.3396 7.10702L40.7598 7.45775L41.766 6.96387L41.3396 7.10702Z" fill="#B03A3F"/>
<path d="M43.5288 7.69434C43.0911 7.98064 43.8869 8.53179 43.4549 8.66063C44.031 8.724 44.6113 8.63875 45.1604 8.4101C44.567 8.41697 43.9903 8.16394 43.5288 7.69434Z" fill="#B03A3F"/>
<path d="M46.0031 8.2168C45.7148 8.24787 45.4293 8.31258 45.1504 8.41007C45.4414 8.40904 45.7301 8.34361 46.0031 8.2168Z" fill="#B03A3F"/>
<path d="M40.2578 5.65527C40.2983 5.83431 40.3704 5.99947 40.4689 6.13832C40.5674 6.27717 40.6896 6.38611 40.8263 6.45693L40.5932 5.74116L40.2578 5.65527Z" fill="#B03A3F"/>
<path d="M40.5898 5.7041L41.3175 5.94746L40.5898 5.7041Z" fill="#B03A3F"/>
<path d="M40.1758 5.59032H40.2619C40.239 5.5543 40.2217 5.52548 40.1758 5.59032Z" fill="#B03A3F"/>
<path d="M36.6152 3.8868C37.1837 3.68638 38.3207 3.59334 37.36 2.82031C36.9279 3.14241 37.4737 3.57902 36.6152 3.8868Z" fill="#B03A3F"/>
<path d="M39.8892 4.72376L38.991 4.33008C38.991 4.4947 39.1047 4.76671 38.8262 4.85976L39.8892 4.72376Z" fill="#B03A3F"/>
<path d="M40.368 4.66699L39.8848 4.72425L40.2145 4.87456L40.368 4.66699Z" fill="#B03A3F"/>
<path d="M44.5571 7.1504C45.0164 7.05926 45.486 7.0959 45.9329 7.25776C45.4398 6.95453 44.9236 6.71473 44.3923 6.54199C44.2843 6.73525 43.9886 7.00009 44.5571 7.1504Z" fill="#B03A3F"/>
<path d="M42.6426 6.37047H42.7345C42.6943 6.30563 42.6541 6.27681 42.6426 6.37047Z" fill="#B03A3F"/>
<path d="M50.693 8.95433L50.6415 8.81836L50.5957 8.91139L50.693 8.95433Z" fill="#B03A3F"/>
<path d="M44.3299 6.43465C44.1928 6.34209 44.0412 6.28894 43.8859 6.27904C43.7305 6.26914 43.5754 6.30274 43.4316 6.3774C43.7551 6.41309 44.0762 6.47766 44.3924 6.57065C44.4379 6.49907 44.4379 6.44181 44.3299 6.43465Z" fill="#B03A3F"/>
<path d="M47.3895 8.39586C47.1975 8.19407 46.9942 8.00989 46.7812 7.84473C46.9404 8.09525 47.2815 8.51754 47.3895 8.39586Z" fill="#B03A3F"/>
<path d="M42.8401 6.57715H42.7715C42.8802 6.75609 42.8745 6.68451 42.8401 6.57715Z" fill="#B03A3F"/>
<path d="M42.8399 6.57747C43.0357 6.54296 43.2269 6.47555 43.4084 6.37706C43.1776 6.35218 42.9456 6.35218 42.7148 6.37706C42.7631 6.43694 42.8051 6.50428 42.8399 6.57747Z" fill="#B03A3F"/>
<path d="M53.0626 5.73976C52.8579 6.25511 51.7039 6.36963 50.9421 5.44629C49.9643 5.52502 50.1348 7.53634 50.6578 8.81756C50.7374 8.58852 50.7886 8.37378 51.7607 8.3881C51.5219 7.97295 49.9302 6.95657 50.8056 6.73468C52.0677 6.90646 51.738 7.30013 52.2496 7.80116C51.9199 6.93509 54.0119 7.39319 54.0006 6.31238C53.6197 6.31238 53.2388 6.26942 52.8636 6.25511C52.875 6.09048 53.3184 5.99027 53.0626 5.73976Z" fill="#B03A3F"/>
<path d="M48.9862 8.1318L48.5996 8.06738C49.0441 8.35822 49.4323 8.76877 49.7366 9.26986C50.4074 9.23408 50.578 9.07661 50.6632 8.91198C50.0663 8.66862 49.4694 8.40379 48.8668 8.19622L48.9862 8.1318Z" fill="#B03A3F"/>
<path d="M46.9151 7.5006C47.3301 6.99956 48.2795 7.05683 47.8702 6.22654C46.7673 5.89013 47.0004 6.4556 46.2898 6.49139C48.0805 6.94948 45.7213 6.64886 46.9151 7.42904C46.5841 7.40588 46.2552 7.34841 45.9316 7.25724C46.2243 7.42833 46.5073 7.62443 46.7787 7.84418L46.7503 7.78692C46.6877 7.68672 46.6764 7.6366 46.7503 7.70818H46.7901C46.8219 7.63249 46.8642 7.56461 46.9151 7.50776C47.3983 7.80839 46.9663 7.69386 46.7901 7.70818C46.7901 7.70818 46.756 7.75829 46.7503 7.78692L48.5751 8.06606C48.0399 7.80161 47.4832 7.61199 46.9151 7.5006Z" fill="#B03A3F"/>
<path d="M38.543 1.76855C38.5582 1.78952 38.5692 1.81472 38.5751 1.8421C38.581 1.86948 38.5817 1.89825 38.5771 1.92602C38.7078 1.87592 38.7533 1.84013 38.543 1.76855Z" fill="#B03A3F"/>
<path d="M39.2192 2.33277C39.1133 2.41306 38.9943 2.46188 38.8711 2.47552C38.748 2.48916 38.624 2.46728 38.5086 2.41152C38.1732 2.13953 38.5598 2.12522 38.5768 1.9248C38.2926 2.01785 37.6047 2.12522 38.3608 2.64057L38.5029 2.59046C39.1908 2.99845 39.9867 4.02198 39.8446 4.05777C39.7454 3.42941 39.5313 2.83879 39.2192 2.33277Z" fill="#B03A3F"/>
<path d="M43.1855 4.72463L44.7262 4.89641L44.0724 4.1377V4.46694C43.231 4.07327 43.339 4.51706 43.1855 4.72463Z" fill="#B03A3F"/>
<path d="M50.7983 9.31217L50.4629 9.86331L51.5089 9.29785L50.7983 9.31217Z" fill="#B03A3F"/>
<path d="M52.7029 9.94238L52.5039 10.4577L53.0781 10.3361L52.7029 9.94238Z" fill="#B03A3F"/>
<path d="M44.9246 73.1582L44.4414 73.2369C44.6042 73.231 44.766 73.2046 44.9246 73.1582Z" fill="#B03A3F"/>
<path d="M48.2874 73.6529L48.3898 73.3809C48.2192 73.5312 48.151 73.6529 48.2874 73.6529Z" fill="#B03A3F"/>
<path d="M91.0544 39.6182C90.8441 40.4556 90.3211 41.3718 90.81 41.1427L91.242 40.7848C91.0976 40.4241 91.0328 40.0212 91.0544 39.6182Z" fill="#B03A3F"/>
<path d="M75.1367 67.375L75.3641 67.4824L75.6484 66.7666C75.5176 66.9384 75.3414 67.1531 75.1367 67.375Z" fill="#B03A3F"/>
<path d="M75.2676 69.9947L74.3125 69.8945C74.6262 69.9788 74.9471 70.0125 75.2676 69.9947Z" fill="#B03A3F"/>
<path d="M26.815 68.5059C26.5819 68.6419 26.3602 68.7564 26.1328 68.8781C26.9571 69.2431 26.6899 68.7635 26.815 68.5059Z" fill="#B03A3F"/>
<path d="M71.6016 18.7535C71.9394 19.1737 72.3221 19.5327 72.7386 19.82C72.2553 19.1472 71.937 18.3741 71.6016 18.7535Z" fill="#B03A3F"/>
<path d="M46.8371 66.8164C46.5585 66.888 46.4334 66.9953 46.4277 67.1313C46.712 67.0741 46.8825 66.981 46.8371 66.8164Z" fill="#B03A3F"/>
<path d="M74.211 20.6857C74.1428 20.5784 74.0632 20.4997 73.995 20.3994C73.562 20.2811 73.1433 20.0909 72.75 19.834C72.919 20.1165 73.1408 20.342 73.3957 20.4906C73.6505 20.6392 73.9306 20.7062 74.211 20.6857Z" fill="#B03A3F"/>
<path d="M27.5703 17.9156C27.6215 17.9156 27.684 17.9156 27.7352 17.9156C27.7864 17.9156 27.6613 17.8726 27.5703 17.9156Z" fill="#B03A3F"/>
<path d="M47.0981 19.748C46.8501 19.8124 46.5996 19.8602 46.3477 19.8912C46.6026 19.9015 46.857 19.853 47.0981 19.748Z" fill="#B03A3F"/>
<path d="M60.1276 13.3923C59.7296 13.2492 60.048 13.4281 60.1276 13.3923V13.3923Z" fill="#B03A3F"/>
<path d="M58.8652 10.2216C58.9159 10.2131 58.9642 10.1891 59.0059 10.1517C59.0475 10.1142 59.0812 10.0645 59.104 10.0068C59.0499 10.1151 58.9641 10.1923 58.8652 10.2216Z" fill="#B03A3F"/>
<path d="M79.3087 19.5841H79.3431C79.2744 19.4195 79.2859 19.4552 79.3087 19.5841Z" fill="#B03A3F"/>
<path d="M59.6172 12.8555C59.7597 13.0047 59.9118 13.1388 60.072 13.2563C59.9314 13.1039 59.7791 12.9696 59.6172 12.8555Z" fill="#B03A3F"/>
<path d="M59.6158 13.1636L59.2917 12.9561C59.2178 13.0348 59.2178 13.1135 59.6158 13.1636Z" fill="#B03A3F"/>
<path d="M60.6862 13.6137C60.4721 13.522 60.2663 13.4021 60.0723 13.2559C60.1348 13.3346 60.1575 13.3847 60.1291 13.3919L60.6862 13.6137Z" fill="#B03A3F"/>
<path d="M1.76149 45.2505C1.76149 45.2076 1.76149 45.1575 1.76149 45.1074C1.36355 44.6421 1.48293 44.8855 1.76149 45.2505Z" fill="#B03A3F"/>
<path d="M95.6024 53.2887C95.6024 53.2887 95.6024 53.2386 95.6024 53.21L95.5566 53.2887H95.6024Z" fill="#B03A3F"/>
<path d="M95.1134 55.5508C95.0321 55.1561 95.0312 54.7419 95.1106 54.3466C95.1901 53.9512 95.3475 53.5875 95.5681 53.289C95.0679 53.289 94.5392 53.2389 94.0332 53.1816C94.4345 53.9404 94.7953 54.7319 95.1134 55.5508Z" fill="#B03A3F"/>
<path d="M36.9279 71.5623L37.9171 72.414C36.4561 72.9437 35.5465 72.3639 36.439 73.4161C36.6835 72.4856 37.7466 72.7433 38.8153 72.9866C39.8841 73.23 40.9586 73.3589 41.1689 72.4212L41.8284 72.9795C41.6294 72.9151 41.5782 73.0224 41.3792 72.9795C42.664 74.1963 42.5901 71.8629 44.3525 72.414C44.9664 72.6646 45.3758 73.0153 44.921 73.1799L46.3706 72.9222C46.7742 73.0296 46.6435 73.3445 46.2399 73.2443C46.9562 73.323 47.6782 73.3445 48.4001 73.3589V73.4161C48.8485 73.09 49.316 72.8077 49.7986 72.5715C50.3273 72.9079 49.5144 72.7504 49.6395 73.0081L50.8447 72.6574C51.3051 73.2085 50.2762 73.5951 49.4803 73.4447C49.9806 74.4683 50.2421 74.3681 50.6571 74.1605C51.0112 73.9894 51.3897 73.9132 51.7685 73.9366C52.1473 73.96 52.5181 74.0826 52.8571 74.2965L51.7201 74.5041C52.4194 75.6278 53.329 75.2628 54.6195 75.9929C54.3011 75.6278 52.0612 74.1748 53.3858 73.731C53.637 73.8416 53.9032 73.8877 54.1688 73.8668C54.4343 73.8459 54.6938 73.7584 54.9321 73.6094C54.9321 74.3251 55.6257 74.1676 56.4841 74.0817L56.433 74.9979C57.371 74.7045 57.2857 74.2822 57.8258 73.8169C58.1619 73.8114 58.4909 73.9381 58.7671 74.1793C59.0433 74.4205 59.2528 74.7643 59.3664 75.1626C61.0719 75.1626 58.1725 74.1247 60.1338 73.7955C61.5266 73.9959 62.4874 73.5592 64.0735 72.8005C65.057 72.9508 63.9541 73.3874 64.3237 73.5879L65.1025 72.7146C65.3128 72.7146 65.2673 72.9294 65.2446 73.051C65.9268 72.6502 65.2105 72.1349 66.2963 71.6983C66.3873 71.1686 66.9956 71.4406 67.746 71.6983C68.4964 71.9559 69.3832 71.9917 69.9801 71.2616C70.3554 71.4263 69.9006 71.8486 70.0597 72.1707C71.8278 70.9682 71.6004 71.2545 72.9022 69.7657L74.3121 69.9231C73.2206 69.5724 74.2723 68.3843 75.1535 67.4037C74.7498 67.1961 74.4087 67.01 74.1927 66.9384L74.9545 66.4302L75.6992 65.8648C75.9266 65.9292 75.8413 66.2942 75.6651 66.7666C75.7528 66.6644 75.8344 66.5544 75.9095 66.4374C76.569 66.5161 76.3985 67.1532 76.0972 67.8117C75.8584 67.7186 75.6139 67.6184 75.3808 67.511C75.1023 68.2268 74.8465 68.9426 75.0511 69.4007C75.192 69.2199 75.3602 69.0763 75.5457 68.9783C75.4718 69.1644 75.432 69.3147 75.5059 69.3863C75.5798 69.4579 75.7163 69.2002 75.9323 68.8638L76.5463 69.6798V69.2575L78.8998 68.9497C79.5593 68.1624 80.0937 67.1889 80.7474 66.2513C81.4702 65.203 82.3179 64.3023 83.2602 63.5815C82.9304 64.5979 83.533 64.7696 83.8002 65.5928C82.8508 65.1132 82.055 66.9241 80.7361 67.4037C81.4183 67.1603 81.4012 67.6256 81.2761 67.8475L83.2658 65.9149C83.4478 66.6306 83.9139 66.1582 84.5961 66.0867C83.6809 65.0559 85.9207 64.2471 86.62 63.2236C86.8644 63.5958 86.8474 64.1971 85.7047 64.8126C86.5063 64.8985 86.7507 64.2543 86.9497 63.5958C87.1487 62.9373 87.3306 62.2788 88.0867 62.2215C87.8365 62.4363 87.666 62.4792 87.666 62.7655C88.0924 61.9638 89.6444 60.9904 89.5136 61.6203L89.2635 61.8493C90.3935 60.9654 91.3969 59.8474 92.231 58.5425C93.0951 57.1682 93.4987 55.7367 93.1804 55.2571C93.5328 55.6567 93.8339 56.1227 94.0729 56.6385C94.0382 56.1027 93.9794 55.5698 93.8967 55.0424C93.8358 54.5347 93.7484 54.0325 93.6352 53.5393C93.5388 53.0543 93.4211 52.5764 93.2827 52.1077C93.1349 51.6425 92.9814 51.2059 92.8222 50.7836C93.3602 51.106 93.9362 51.3163 94.5277 51.4063C95.1701 51.621 95.7102 51.9932 95.5851 53.1957C96.0638 52.4114 96.3128 51.4431 96.29 50.4543C96.074 50.8695 94.8972 51.0699 94.9541 50.4973C95.3227 50.1986 95.6414 49.812 95.8921 49.3592L96.1707 48.8081C96.3014 48.5719 96.4606 48.2498 96.6937 47.7702C96.4549 48.3929 95.2383 47.4481 95.352 46.5248C95.5396 46.6966 96.6425 46.5248 96.7505 46.9399C96.5743 46.4818 96.3526 46.0452 96.1536 45.6229C95.9568 45.1993 95.7404 44.7906 95.5055 44.399C95.7556 44.993 96.5913 44.4848 96.9324 43.8621C96.7164 44.1484 96.8187 41.6218 96.5516 40.9991C96.5155 41.3772 96.4623 41.7524 96.3924 42.1228C96.3848 41.604 96.2676 41.0971 96.0527 40.6543C95.8379 40.2115 95.5332 39.8487 95.1701 39.6033C94.8701 39.3622 94.5884 39.0867 94.3287 38.7802C94.0244 38.4077 93.8028 37.9413 93.6863 37.4274C94.0047 37.5992 95.4544 37.5133 95.1928 36.1032L92.8563 35.2944C92.3674 35.1083 91.8558 34.9007 91.3839 34.6645C91.1605 34.5535 90.9439 34.4219 90.7359 34.2709C90.5333 34.1399 90.3426 33.9815 90.1674 33.7985L90.3095 33.2044C89.9627 32.8465 89.5818 32.5316 89.2237 32.2095C90.1779 32.2828 91.1194 32.5238 92.0207 32.9252C93.0426 33.3462 94.0099 33.9539 94.8915 34.729C94.7835 33.6124 95.2099 34.2065 94.5789 32.7892C94.6642 32.0735 95.3975 33.2545 95.5681 33.7054C95.3918 33.097 95.1758 32.5029 94.9541 31.916C94.7324 31.3291 94.4936 30.7493 94.2491 30.1695C93.7091 30.8066 92.2708 28.3157 91.8274 28.9742C92.2708 29.3679 92.6744 29.8474 93.1065 30.2912C93.5385 30.735 93.9137 31.2503 94.3174 31.7228C94.0274 32.0377 93.3054 31.873 92.5607 31.415C91.7214 30.9261 90.9881 30.1895 90.4232 29.2677C90.3379 28.5519 91.7023 28.5519 91.8785 28.3014C91.5147 28.2227 90.2299 26.8699 90.2242 26.5549C90.5312 26.6909 90.7927 26.8484 91.1167 27.0058C90.8156 26.4447 90.3598 26.0443 89.8376 25.8821C89.5572 25.773 89.3013 25.5819 89.0909 25.3244C88.8804 25.0668 88.7214 24.7502 88.6268 24.4005C88.3141 23.9853 88.1947 22.3033 87.8365 22.6898C87.8934 24.1642 86.2106 26.8412 85.4546 27.1061C85.4204 27.013 85.1248 26.3903 84.8121 25.6745C84.5149 25.0747 84.2655 24.4393 84.0674 23.7777C83.9708 23.1765 84.4199 22.9403 84.8861 22.7399C85.3522 22.5395 85.8241 22.3963 85.7388 21.8523C85.5967 22.0456 85.1134 22.0026 84.9202 21.974C84.6302 21.4515 85.4545 21.4443 84.545 20.8002C83.9765 21.5159 82.8395 19.297 83.7718 21.1509C82.8167 20.6999 82.9646 20.2633 81.9413 19.5333C81.9981 20.3134 80.1846 20.7143 79.2352 20.3993C79.383 20.2132 79.3148 19.7981 79.275 19.6048C77.5695 18.3451 76.7395 17.3573 75.0568 16.3481C74.9829 16.0403 74.2552 15.3102 74.7441 15.1313C74.3566 15.2414 73.9521 15.2091 73.5787 15.0382C72.8397 13.6854 74.7896 15.5894 74.3519 14.2294C74.096 14.7018 72.7317 14.1579 71.8732 14.0505C71.8221 14.981 73.5389 15.1957 74.4087 15.3031C74.0051 16.4054 72.2939 16.7919 70.361 16.3266C68.8602 15.8399 69.9972 15.2816 69.6959 15.3031C67.1093 13.6783 66.8023 16.0188 64.858 14.1221C64.2043 12.9625 65.2673 12.6905 65.2332 12.0607C66.4839 12.3828 66.8762 13.4134 67.6721 13.7856L66.808 12.9554C67.3938 12.9071 67.9741 13.1227 68.4452 13.5638C67.9222 12.5187 63.9598 11.1015 62.0269 9.54832C61.5835 9.61274 60.8899 9.54832 61.0889 9.99926L61.7825 10.2068C62.2145 11.08 60.3044 10.4287 61.0605 11.0944C60.0599 11.0944 58.8775 11.3091 57.7234 10.4216V9.49105C57.6836 9.74157 58.4056 10.3428 58.8263 10.2426C58.2067 10.3929 57.2118 8.2671 56.342 9.12602C56.5864 9.4338 56.8252 9.75589 57.064 10.078C56.0577 10.078 54.7218 10.5575 53.6815 9.83462C53.9771 10.8653 53.9657 9.83462 54.5058 11.1302C54.1306 9.64852 57.3198 12.347 56.558 10.6363C57.0583 12.1036 57.8201 11.7171 58.6046 13.1271C58.6444 12.8408 58.3772 12.4114 59.264 12.9768C59.3482 12.914 59.4379 12.8635 59.5312 12.8265L59.5881 12.8766L59.5483 12.8194C59.5995 12.8194 59.6051 12.8194 59.5483 12.8194C59.389 12.6578 59.2672 12.4452 59.1958 12.2038C59.8382 11.76 61.2936 12.483 61.8848 12.3899C62.3908 12.7764 61.5608 12.5975 61.7768 13.0269L62.658 12.8909C62.5499 13.528 63.7949 14.573 62.4135 14.3225C62.7944 14.5086 63.1753 14.6875 63.5505 14.8951C64.12 15.5997 64.8526 16.0583 65.6425 16.2049C66.1371 16.6058 67.2173 16.2049 66.5976 16.4626L68.4907 17.0496L68.4566 17.207C70.1621 18.1948 72.3963 18.2306 73.9824 20.428C74.7609 20.6104 75.5006 20.9956 76.154 21.5589V22.1744C76.9556 22.4536 78.0698 24.064 78.5872 23.7706C78.6724 24.6868 79.457 25.3453 80.3324 25.9179C81.1594 26.3872 81.9382 26.9808 82.6519 27.6858L83.0328 27.1347C83.8385 27.8686 84.6838 28.531 85.5626 29.1174L85.8468 28.5805C86.8928 29.0458 87.467 31.1358 88.4391 32.5888C88.2174 32.6389 88.0128 32.2238 87.9332 31.8731C88.081 33.2402 88.7859 33.9345 89.4738 34.7719C89.8249 35.1592 90.1413 35.5936 90.4175 36.0674C90.6746 36.5247 90.8063 37.075 90.7927 37.635C90.9209 37.7754 91.0201 37.9531 91.0815 38.1527C91.1429 38.3522 91.1647 38.5676 91.1452 38.7802C91.1351 38.7381 91.1153 38.7007 91.0883 38.6728L91.1338 38.8732C91.1338 39.1238 91.0713 39.3814 91.0542 39.6463C91.1146 39.4314 91.1528 39.2077 91.1679 38.9806C91.3298 39.4744 91.5198 39.9528 91.7364 40.4121L91.2532 40.8201C91.266 40.862 91.2812 40.9027 91.2987 40.9418C91.2134 41.5359 91.6398 41.3069 91.9809 40.8917C92.1133 41.1354 92.2657 41.361 92.4356 41.5645C92.032 41.9081 92.1742 42.2803 92.2878 42.6453C92.4016 43.0104 92.4868 43.4613 92.0491 43.8192C92.2822 43.9838 92.4186 44.6924 92.5607 45.4153C92.6171 45.7696 92.7088 46.1135 92.8336 46.4389C92.9236 46.7298 93.1014 46.964 93.3282 47.0902C93.2031 47.0902 93.1235 47.262 93.1463 46.9399C93.0584 47.2555 92.9882 47.5784 92.9359 47.9062C92.8623 48.2192 92.8623 48.5523 92.9359 48.8653L92.2139 48.9369C92.4072 49.4666 92.6176 50.0392 92.7824 50.6404C92.1173 51.2989 91.8103 51.4421 91.5431 50.4472C91.6312 51.0777 91.6098 51.7248 91.4806 52.344L91.3783 52.9738C91.3385 53.2315 91.3271 53.5822 91.2759 54.0976L90.9462 53.6967C90.7017 54.2193 90.6278 55.5148 90.1276 55.5005C89.4226 55.6794 88.4221 56.932 87.035 58.0916C85.6174 59.3815 84.0092 60.3014 82.3051 60.7971C82.8736 61.3984 82.4643 61.4199 81.9697 61.4413C81.4751 61.4628 80.8725 61.4413 81.0146 62.0784C80.719 61.8064 80.2472 61.8064 80.611 61.2481C80.051 61.6664 79.4403 61.9663 78.8032 62.1356C78.5477 62.2153 78.304 62.3458 78.0812 62.5222C77.8286 62.7133 77.6146 62.9754 77.4558 63.288C77.1773 62.9874 77.6321 62.5722 77.4161 62.4506C77.3137 62.5794 77.0238 62.9731 76.8021 62.8156C76.5804 62.6581 76.9385 62.4148 77.1318 62.1499C75.6139 62.8657 75.7447 64.0754 75.9039 65.2134C74.9715 65.0345 74.5963 65.2778 74.1586 66.1797C73.7891 65.9149 73.2376 65.693 74.2097 65.2349C73.6413 65.3637 70.6794 65.8433 70.7988 66.7309C70.5771 66.5448 69.9858 66.8597 69.8494 67.0029C68.9494 67.137 68.0569 67.3426 67.1775 67.6184L67.547 67.6757C67.1945 68.9068 66.5123 68.1194 65.5004 68.4344V68.3198C64.2725 68.1266 64.028 68.2698 63.7949 68.3914C63.6428 68.4772 63.4784 68.5235 63.3117 68.5274C62.9033 68.4946 62.498 68.4155 62.1008 68.2912L62.2771 68.964C62.2202 69.6798 61.6745 69.5438 60.9866 69.279C60.2988 68.8995 59.5367 68.7873 58.7979 68.9569L59.3095 69.3362C58.5648 69.8659 57.1606 67.3894 56.433 67.2319C56.2738 67.1102 56.6831 67.0172 56.9048 66.917C54.9776 66.0938 56.666 67.8403 55.1993 68.0622C54.9321 67.5683 55.5404 66.8382 54.5797 66.7165C54.3409 66.509 53.636 66.874 52.8173 67.1746C52.4087 67.3358 51.9875 67.4414 51.561 67.4896C51.1626 67.5193 50.7663 67.3971 50.424 67.1388C50.6969 67.5397 50.9925 67.9405 50.2819 68.1552C49.2245 68.1552 47.5929 66.509 46.5696 67.4896C46.5252 67.4548 46.4878 67.4077 46.4602 67.3518C46.4326 67.296 46.4156 67.2329 46.4104 67.1675C45.6032 67.3321 43.8067 67.282 43.2496 67.7902C43.0336 66.5376 41.7886 66.559 40.6175 66.6163C39.4464 66.6736 38.3435 66.6736 38.5538 65.6214L36.1491 65.0703L36.2571 64.8698C34.7733 64.24 34.1423 64.5477 33.4942 64.8698C33.1759 64.605 33.4942 64.4977 33.5284 64.3975C32.9997 64.104 32.5903 63.8821 32.2379 63.7246C31.9408 63.5716 31.6323 63.4565 31.3169 63.3811C30.5776 63.2895 29.8319 63.3232 29.0998 63.4813V62.7655C28.8372 62.7575 28.5815 62.6585 28.3607 62.4792C28.031 62.2573 27.6274 61.928 27.1669 61.5988C26.1952 60.8185 25.1086 60.2927 23.972 60.0527C24.0105 59.994 24.0593 59.9474 24.1145 59.9163C24.1697 59.8853 24.2299 59.8707 24.2903 59.8738C23.0112 59.6376 21.7549 58.4852 20.6577 57.5691C19.5605 56.6529 18.6168 56.0015 17.747 56.9034C17.1785 56.7817 16.61 56.66 16.0415 56.5169C17.8777 57.9484 15.3366 57.3185 15.9676 58.2204C15.1376 57.8554 14.319 56.2019 15.2854 56.7316L15.3764 56.9392C15.8027 56.4668 15.2627 55.9514 14.6714 55.4647C14.0802 54.978 13.4605 54.4698 13.6822 54.0904C11.9503 52.772 10.367 51.1662 8.97512 49.3163C8.30907 48.4409 7.68093 47.521 7.09341 46.5606C6.54095 45.703 6.04113 44.7937 5.59826 43.8407C5.42203 44.1484 5.25717 44.4777 5.09799 44.8141C4.88613 44.3786 4.69626 43.9268 4.52949 43.4613C4.58066 43.0104 4.93882 42.6811 5.26855 43.5687C5.36519 43.1965 5.14916 42.9102 4.87628 42.6811C4.6784 42.4951 4.44865 42.3701 4.20547 42.3161C4.17136 41.8222 4.25093 41.6003 4.35326 41.6003C4.45559 41.6003 4.57498 41.6003 4.71142 41.7506C4.96155 41.9868 5.23444 42.3304 5.18328 42.0942C5.10648 41.8961 5.03816 41.693 4.97861 41.4858L4.91039 41.6576C4.71303 41.5026 4.52319 41.3329 4.3419 41.1494C4.24822 41.0213 4.18105 40.8661 4.14634 40.6976C4.11164 40.529 4.11046 40.3523 4.14292 40.1831C4.37032 39.5604 4.66595 39.9469 4.73985 39.7321C4.7967 39.7321 4.84218 39.6892 4.82512 39.4101C4.95684 38.9799 5.13266 38.5732 5.34813 38.2004C5.07664 38.2147 4.8066 38.2578 4.54087 38.3293C4.4954 37.4918 5.26855 36.9836 4.25663 37.1554C4.71772 36.9982 5.14378 36.7092 5.50163 36.3108C5.96211 35.867 6.51923 35.323 7.0991 34.8005C8.23608 33.7484 9.52087 32.8035 9.91313 32.8035C10.6465 31.6798 11.6186 31.0786 12.8693 30.4415C12.5112 30.4415 12.0166 29.7257 13.1137 29.2247C13.3582 31.1931 15.3081 28.8812 16.5929 29.7329C16.0756 29.511 16.809 29.0601 17.4741 28.602C18.1392 28.1439 18.7532 27.693 17.9516 27.3852C18.8953 27.0917 18.2188 28.0222 19.0261 28.101C20.9362 26.3545 23.8469 26.3831 26.4563 25.1234C26.4563 24.8657 25.8878 24.6653 26.3938 24.0927L28.0992 24.7655C28.5995 24.4506 28.2812 23.1908 29.4409 23.699C29.259 23.5415 28.9861 23.3053 29.3329 23.1049C32.1185 22.7828 34.8018 21.745 37.5704 20.9934C40.3389 20.2419 43.17 19.7122 46.0352 20.5139C45.245 20.1345 45.7396 20.0128 46.3138 19.9198C45.9329 19.8553 46.274 19.3042 46.1716 18.9678C46.9732 19.1682 47.7805 19.4187 48.5707 19.6836C48.9402 18.6743 51.0721 19.4044 51.2767 18.4954L50.5377 18.703C51.4871 17.5721 49.0312 16.4197 49.0937 15.0597C48.5593 15.7254 47.7918 15.3532 46.9164 15.0597C46.0409 14.7663 45.0858 14.5945 44.2331 15.5822C43.7954 15.3603 44.5458 15.0955 44.2956 14.8092C43.8749 15.4462 43.3178 15.6753 42.2377 15.5894L42.34 15.4248C39.3952 16.0761 38.0649 15.7755 34.6824 16.2264L35.0349 16.8205C34.6113 16.8887 34.181 16.8424 33.7728 16.6845C33.1304 17.9085 35.7682 16.1978 35.2111 17.5148C34.6426 16.9637 33.3805 17.2786 32.1753 17.6079C30.9701 17.9371 29.7933 18.2377 29.3329 17.6079C28.247 17.9657 29.8047 18.2592 28.7246 18.6171L28.3551 18.3093L28.1959 18.9249C27.9598 19.0204 27.7054 19.0162 27.4714 18.9128C27.2374 18.8095 27.0366 18.6126 26.8997 18.3522C27.125 18.2677 27.3409 18.1474 27.5421 17.9943C26.5075 17.8154 25.001 19.1181 24.6485 19.068L25.74 18.9249C22.8975 20.3564 19.2307 21.3799 16.7521 23.5702L17.0534 23.7706C16.5016 24.2929 15.8616 24.6481 15.1831 24.8085C14.449 24.9497 13.7441 25.2707 13.1081 25.7532L13.1649 25.6387C12.7556 26.2374 12.2338 26.6976 11.647 26.9772C12.0905 26.3116 10.3395 26.9271 10.9421 26.1255C8.96374 28.0222 10.0211 27.2349 8.99786 29.1675L8.47484 28.9026C8.23413 29.7103 7.7698 30.3814 7.16731 30.7922C7.8893 29.7472 6.13265 30.6061 6.91717 29.3607C5.80488 29.6514 4.81929 30.4557 4.1543 31.6154C3.58581 32.4958 3.19923 33.1757 2.21574 33.2974C2.21574 34.4713 2.75011 33.913 3.27313 33.3404C3.79614 32.7678 4.33621 32.0806 4.14292 32.4958C4.49539 32.4242 4.42718 32.8608 4.20547 33.3762C3.96647 33.9326 3.66596 34.4435 3.31293 34.8936C3.02868 35.3087 2.49998 35.3803 1.87464 35.8026C1.42866 36.0941 1.04466 36.5159 0.754845 37.0328C0.46503 37.5496 0.277845 38.1463 0.208957 38.773C0.277176 38.4295 0.208943 38.3865 0.265793 38.0573C0.0290972 38.6752 -0.0522015 39.3694 0.0327257 40.0471C0.129069 40.7913 0.129069 41.5503 0.0327257 42.2946C0.331611 42.6107 0.532817 43.049 0.601219 43.5329C0.709233 43.9194 0.828612 44.2486 1.28909 44.127C0.946774 43.2519 0.707394 42.3188 0.578475 41.357C0.808788 42.1936 1.16813 42.9647 1.63586 43.6259C2.15087 44.3994 2.53748 45.2951 2.77285 46.26C2.3778 46.0666 2.02506 45.7574 1.74388 45.3581C1.77799 46.1884 2.42607 46.489 2.52271 47.2835C2.10771 47.5125 1.68704 46.8755 1.28909 45.945C0.911319 44.9269 0.490015 43.9353 0.0270352 42.9746C-0.0752936 43.4899 0.288532 44.3345 0.567094 44.8714C0.845655 45.4082 0.999161 45.7804 0.402243 45.5871C1.18676 45.8734 1.41983 46.5462 1.72113 47.3193C1.84617 47.7662 2.04512 48.1747 2.30481 48.5177C2.5645 48.8607 2.87905 49.1305 3.22766 49.3091L2.74443 49.6384C3.11727 49.8558 3.46066 50.1456 3.76204 50.4973L2.71033 50.3183C3.26027 50.6828 3.68943 51.2815 3.92122 52.0075C4.14971 52.7203 4.54661 53.3275 5.05821 53.7469C4.14862 52.6804 4.18272 52.3941 4.35895 52.2437C4.53519 52.0934 4.87628 52.0433 4.66025 51.4135C5.95642 52.4227 6.02463 53.0669 6.10991 53.8614C6.19518 54.6559 6.28614 55.5577 7.71306 56.7244C7.29238 56.4596 6.57608 55.0639 7.27533 55.3859C7.73548 55.9855 8.11903 56.6712 8.41231 57.4187C10.2827 58.9218 8.4578 56.6027 9.41287 56.9463C9.65164 58.156 10.4475 57.4402 11.3457 57.841L11.0615 58.4279C12.0109 59.4515 12.3122 59.2153 12.5566 59.0077C12.8011 58.8001 13.0285 58.5711 13.8699 59.4658L12.6931 59.7306L13.7846 60.2245L13.2786 60.7614C14.6032 61.0119 14.8818 61.3626 15.8937 62.2502C15.8141 61.6561 16.4622 61.2123 17.4343 61.7706C17.9516 62.5222 16.8658 62.1499 18.2416 62.8585C17.7925 63.0733 17.2694 63.3668 16.8886 62.4363C16.7521 62.6009 16.4338 62.6367 16.3201 62.8013C16.8886 63.6674 18.0767 63.9608 18.594 64.2328C18.4101 64.1224 18.2442 63.9695 18.1051 63.7819C18.8783 63.875 19.6457 63.9465 20.4189 63.9966C20.652 64.4046 20.3393 64.4619 20.0209 64.5191C20.5025 64.5649 20.9811 64.651 21.4536 64.7768C21.1238 65.2134 20.9874 65.7717 20.0494 65.5642L22.1698 66.0008C22.2267 66.2942 22.9657 67.146 22.6531 67.2032C23.665 68.0192 25.632 67.4323 26.9623 68.4845C27.1578 68.3887 27.3716 68.3688 27.5762 68.4272C28.247 68.7636 28.844 69.2146 29.5034 69.5796C30.2117 70.003 30.9957 70.1856 31.7774 70.1092L32.5051 71.3976C33.8467 71.6195 31.5045 69.7442 33.7273 70.1092C35.3077 70.3168 34.1253 71.1328 34.6085 71.5909C35.4783 71.3332 36.9791 70.689 38.2525 71.8844C37.8031 71.8375 37.359 71.7295 36.9279 71.5623ZM53.329 73.7096C53.0049 73.8456 52.3512 74.2679 52.1295 73.8527C52.5217 73.094 52.7889 73.4805 53.329 73.7239V73.7096ZM77.7344 67.69C77.5695 68.0049 77.1659 68.0407 76.7395 67.9477C77.0502 67.7645 77.3919 67.6809 77.7344 67.7043V67.69ZM64.5624 14.9595H64.6022C65.1536 15.4749 64.9604 15.2601 64.5624 14.9595ZM63.3345 14.0219C63.1753 14.0219 63.1582 14.1364 63.1867 14.258C63.3288 14.1364 63.6244 14.2581 63.9484 14.4871C63.9086 14.2437 63.7665 14.029 63.3345 13.9861V14.0219ZM4.60909 39.5532L4.42148 39.7321C4.37031 39.1524 4.47834 39.3385 4.60909 39.5174V39.5532Z" fill="#B03A3F"/>
<path d="M75.2619 69.687C75.1655 69.6151 75.0913 69.504 75.0516 69.3721C74.9549 69.5224 74.9777 69.6512 75.2619 69.687Z" fill="#B03A3F"/>
<path d="M26.9571 68.4336C26.9571 68.4336 26.923 68.4336 26.9116 68.4336C26.8784 68.4573 26.8508 68.4919 26.832 68.5338L26.9571 68.4336Z" fill="#B03A3F"/>
<path d="M85.4492 21.1084C85.6058 21.3066 85.7176 21.5536 85.7732 21.8242C85.8642 21.7168 85.8244 21.4806 85.4492 21.1084Z" fill="#B03A3F"/>
<path d="M55.9844 11.8888L56.8826 12.0892C56.609 11.9942 56.3625 11.803 56.172 11.5381C56.1492 11.7027 56.2516 11.989 55.9844 11.8888Z" fill="#B03A3F"/>
<path d="M49.4235 4.87426C49.2757 4.87426 49.1507 4.78836 49.0029 4.82415L48.9688 5.14626C49.5543 5.31804 49.9693 5.20351 49.4235 4.87426Z" fill="#B03A3F"/>
<path d="M55.7561 9.38371C55.83 8.80394 55.2387 8.77531 54.6191 8.625C54.6561 8.63501 54.6922 8.64939 54.7271 8.66794C54.3348 9.36939 55.0454 9.37655 55.7561 9.38371Z" fill="#B03A3F"/>
<path d="M54.4601 8.58877C54.2648 8.54434 54.0741 8.4723 53.8916 8.37402C53.7438 8.65317 54.1019 8.51719 54.4601 8.58877Z" fill="#B03A3F"/>
<path d="M61.5454 13.5281C61.3066 13.2561 61.1645 14.1437 61.0735 13.8431C60.5505 14.4085 63.1997 13.9146 61.5454 13.5281Z" fill="#B03A3F"/>
<path d="M55.7344 7.36523L55.7799 8.13826L56.2631 7.73028L55.7344 7.36523Z" fill="#B03A3F"/>
<path d="M60.411 9.94856L59.4901 9.33301C59.4901 9.45469 59.3366 9.46183 59.166 9.44751C59.7857 9.7195 60.3542 10.1418 60.411 9.94856Z" fill="#B03A3F"/>
<path d="M59.1666 9.43315C58.9143 9.28256 58.6386 9.20433 58.3594 9.2041C58.6224 9.31118 58.8926 9.38785 59.1666 9.43315Z" fill="#B03A3F"/>
<path d="M57.1328 7.70898L57.383 7.97382L58.0538 8.32454L57.1328 7.70898Z" fill="#B03A3F"/>
<path d="M70.6232 15.21C70.9927 15.3245 71.3566 15.4533 71.7147 15.5893C71.9023 15.4247 71.6692 15.1241 71.2599 15.0024C70.9586 15.0239 70.5436 14.9022 70.6232 15.21Z" fill="#B03A3F"/>
<path d="M68.1055 11.7177C68.3442 11.9969 68.3101 12.1615 68.4011 12.4335L68.7024 11.6318L68.1055 11.7177Z" fill="#B03A3F"/>
<path d="M71.2026 13.155C71.3845 12.9832 72.9422 13.3268 71.6062 12.6611C71.4186 12.8114 70.3101 12.4536 71.2026 13.155Z" fill="#B03A3F"/>
<path d="M85.7496 24.4071L85.5165 24.1924L84.8457 25.3877L85.7496 24.4071Z" fill="#B03A3F"/>
<path d="M96.9988 38.7804C96.9363 37.7855 96.726 37.7426 96.544 37.7211C96.3621 37.6996 96.1859 37.7211 96.1347 36.8121C95.7652 36.5043 96.22 38.2436 95.8789 37.9072C96.419 38.8806 96.3621 39.5463 96.9988 38.7804Z" fill="#B03A3F"/>
<path d="M95.881 37.907C95.7856 37.7406 95.6811 37.5827 95.5684 37.4346C95.6555 37.6088 95.7606 37.7677 95.881 37.907Z" fill="#B03A3F"/>
<path d="M50.2012 20.2349L51.0482 20.4783L50.4911 20.0273L50.2012 20.2349Z" fill="#B03A3F"/>
<path d="M51.7598 19.0459L51.9928 19.9549L52.4647 19.0817C52.2771 19.139 51.9133 19.2535 51.7598 19.0459Z" fill="#B03A3F"/>
<path d="M55.8084 75.6631L55.8767 75.4341C55.7345 75.1979 55.5242 75.1979 55.1035 75.1406C55.3195 75.3267 55.5526 75.4985 55.8084 75.6631Z" fill="#B03A3F"/>
<path d="M43.7161 73.8817L43.9208 73.9318L43.6309 73.0371L43.7161 73.8817Z" fill="#B03A3F"/>
<path d="M33.5781 72.4149C33.9761 72.5795 34.482 72.5723 34.88 72.7155C33.9647 72.6081 33.6805 71.3555 33.5781 72.4149Z" fill="#B03A3F"/>
</svg>
